<svg width="170" height="170" viewBox="0 0 170 170" fill="none" xmlns="http://www.w3.org/2000/svg">
<circle cx="85" cy="85" r="85" fill="#26A69A" fill-opacity="0.2"/>
<path d="M83.3 48.2764C83.3 46.6195 84.6432 45.2764 86.3 45.2764H136C136.552 45.2764 137 45.7241 137 46.2764V123.548C137 124.1 136.552 124.548 136 124.548H84.3C83.7478 124.548 83.3 124.1 83.3 123.548V48.2764Z" fill="#40A083"/>
<path d="M88.4143 47.2764C88.4143 46.1718 89.3097 45.2764 90.4143 45.2764H136C136.552 45.2764 137 45.7241 137 46.2764V119.434H89.4143C88.862 119.434 88.4143 118.986 88.4143 118.434V47.2764Z" fill="#E7FCB6"/>
<rect x="93.5281" y="52.9473" width="30.6857" height="4.296" rx="2" fill="#1C737A"/>
<rect x="93.5281" y="52.9473" width="30.6857" height="4.296" rx="2" fill="#1C737A"/>
<rect x="121.658" y="63.1748" width="10.2286" height="4.296" rx="2" fill="#1C737A"/>
<rect x="121.658" y="63.1748" width="10.2286" height="4.296" rx="2" fill="#1C737A"/>
<rect x="93.5281" y="63.1748" width="25.5714" height="4.296" rx="2" fill="#1C737A"/>
<rect x="93.5281" y="63.1748" width="25.5714" height="4.296" rx="2" fill="#1C737A"/>
<rect x="93.5281" y="73.4062" width="38.3571" height="4.296" rx="2" fill="#1C737A"/>
<rect x="93.5281" y="73.4062" width="38.3571" height="4.296" rx="2" fill="#1C737A"/>
<rect x="93.5281" y="83.6338" width="33.2429" height="4.296" rx="2" fill="#1C737A"/>
<rect x="93.5281" y="83.6338" width="33.2429" height="4.296" rx="2" fill="#1C737A"/>
<rect x="113.987" y="93.8633" width="17.9" height="4.296" rx="2" fill="#1C737A"/>
<rect x="113.987" y="93.8633" width="17.9" height="4.296" rx="2" fill="#1C737A"/>
<rect x="93.5281" y="93.8633" width="17.9" height="4.296" rx="2" fill="#1C737A"/>
<rect x="93.5281" y="93.8633" width="17.9" height="4.296" rx="2" fill="#1C737A"/>
<rect x="93.5281" y="104.091" width="38.3571" height="4.296" rx="2" fill="#1C737A"/>
<rect x="93.5281" y="104.091" width="38.3571" height="4.296" rx="2" fill="#1C737A"/>
<path d="M83.3 48.2764C83.3 46.6195 81.9569 45.2764 80.3 45.2764H30.6C30.0478 45.2764 29.6 45.7241 29.6 46.2764V123.548C29.6 124.1 30.0478 124.548 30.6 124.548H82.3C82.8523 124.548 83.3 124.1 83.3 123.548V48.2764Z" fill="#40A083"/>
<path d="M34.7141 46.2764C34.7141 45.7241 35.1618 45.2764 35.7141 45.2764H80.2998C81.9567 45.2764 83.2998 46.6195 83.2998 48.2764V118.434C83.2998 118.986 82.8521 119.434 82.2998 119.434H35.7141C35.1618 119.434 34.7141 118.986 34.7141 118.434V46.2764Z" fill="#E7FCB6"/>
<rect x="39.8284" y="52.9473" width="38.3571" height="4.296" rx="2" fill="#1C737A"/>
<rect x="39.8284" y="52.9473" width="38.3571" height="4.296" rx="2" fill="#1C737A"/>
<rect x="39.8284" y="63.1748" width="33.2429" height="4.296" rx="2" fill="#1C737A"/>
<rect x="39.8284" y="63.1748" width="33.2429" height="4.296" rx="2" fill="#1C737A"/>
<rect x="39.8284" y="73.4062" width="20.4571" height="4.296" rx="2" fill="#1C737A"/>
<rect x="39.8284" y="73.4062" width="20.4571" height="4.296" rx="2" fill="#1C737A"/>
<rect x="62.8438" y="73.4062" width="15.3429" height="4.296" rx="2" fill="#1C737A"/>
<rect x="62.8438" y="73.4062" width="15.3429" height="4.296" rx="2" fill="#1C737A"/>
<rect x="39.8284" y="83.6338" width="38.3571" height="4.296" rx="2" fill="#1C737A"/>
<rect x="39.8284" y="83.6338" width="38.3571" height="4.296" rx="2" fill="#1C737A"/>
<rect x="55.1724" y="93.8633" width="23.0143" height="4.296" rx="2" fill="#1C737A"/>
<rect x="55.1724" y="93.8633" width="23.0143" height="4.296" rx="2" fill="#1C737A"/>
<rect x="39.8284" y="93.8633" width="12.7857" height="4.296" rx="2" fill="#1C737A"/>
<rect x="39.8284" y="93.8633" width="12.7857" height="4.296" rx="2" fill="#1C737A"/>
<rect x="39.8284" y="104.091" width="38.3571" height="4.296" rx="2" fill="#1C737A"/>
<rect x="39.8284" y="104.091" width="38.3571" height="4.296" rx="2" fill="#1C737A"/>
</svg>
