<svg width="167" height="40" viewBox="0 0 167 40" fill="none" xmlns="http://www.w3.org/2000/svg">
<path d="M60.6216 25.5719C60.6216 26.9587 60.1065 28.0483 59.0763 28.8408C58.0461 29.6134 56.5405 29.9998 54.5593 29.9998C53.747 29.9998 53.0041 29.9403 52.3305 29.8215C51.6767 29.7026 51.1022 29.5342 50.6069 29.3163C50.1314 29.0785 49.755 28.8012 49.4776 28.4842C49.2201 28.1474 49.0913 27.7809 49.0913 27.3846C49.0913 27.0082 49.1706 26.6813 49.329 26.404C49.5074 26.1266 49.7352 25.8988 50.0125 25.7205C50.5673 26.0771 51.2012 26.3941 51.9145 26.6714C52.6475 26.9488 53.4895 27.0875 54.4404 27.0875C55.2527 27.0875 55.8669 26.9587 56.2829 26.7011C56.6989 26.4238 56.907 26.0474 56.907 25.5719C56.907 24.7596 56.3126 24.2247 55.1239 23.9672L53.4598 23.5808C51.9937 23.244 50.9041 22.7388 50.1909 22.0652C49.4974 21.3917 49.1507 20.4902 49.1507 19.361C49.1507 18.0732 49.6658 17.0331 50.696 16.2406C51.7262 15.4284 53.1725 15.0222 55.0348 15.0222C55.748 15.0222 56.4018 15.0817 56.9961 15.2005C57.6103 15.2996 58.1353 15.4581 58.5711 15.676C59.0268 15.8741 59.3735 16.1218 59.6112 16.4189C59.8688 16.6963 59.9976 17.0232 59.9976 17.3996C59.9976 17.7562 59.9183 18.0732 59.7598 18.3506C59.6013 18.6081 59.4131 18.8161 59.1952 18.9746C59.0169 18.8558 58.7792 18.7369 58.482 18.618C58.2046 18.4992 57.8876 18.3902 57.531 18.2911C57.1942 18.1921 56.8277 18.1128 56.4315 18.0534C56.0551 17.9742 55.6787 17.9345 55.3022 17.9345C54.5296 17.9345 53.9253 18.0633 53.4895 18.3209C53.0536 18.5586 52.8357 18.9053 52.8357 19.361C52.8357 19.6978 52.9546 19.9751 53.1923 20.1931C53.4499 20.411 53.8857 20.5893 54.4999 20.728L55.956 21.0846C57.6004 21.461 58.7891 22.0157 59.5221 22.7487C60.2551 23.462 60.6216 24.403 60.6216 25.5719ZM69.4623 27.1469C70.0368 27.1469 70.5618 27.0974 71.0373 26.9983C71.5128 26.8795 71.8595 26.7408 72.0774 26.5823V23.2837L69.1948 23.5511C68.4024 23.6304 67.7981 23.8087 67.3821 24.086C66.966 24.3436 66.758 24.7596 66.758 25.3342C66.758 25.9087 66.966 26.3544 67.3821 26.6714C67.8179 26.9884 68.5113 27.1469 69.4623 27.1469ZM69.3434 15.052C71.285 15.052 72.8303 15.468 73.9793 16.3001C75.1482 17.1322 75.7327 18.4199 75.7327 20.1633V27.028C75.7327 27.5035 75.6138 27.8799 75.3761 28.1573C75.1383 28.4347 74.8411 28.6823 74.4845 28.9002C73.9298 29.237 73.2265 29.5045 72.3746 29.7026C71.5227 29.9007 70.5519 29.9998 69.4623 29.9998C67.4811 29.9998 65.916 29.6234 64.767 28.8705C63.6377 28.0979 63.0731 26.9488 63.0731 25.4233C63.0731 24.0959 63.4891 23.0855 64.3212 22.3921C65.1731 21.6789 66.4014 21.2431 68.0062 21.0846L72.0774 20.6685V20.1336C72.0774 19.3808 71.8001 18.8261 71.2453 18.4694C70.7104 18.1128 69.9477 17.9345 68.9571 17.9345C68.1845 17.9345 67.4316 18.0336 66.6986 18.2317C65.9656 18.41 65.3118 18.6378 64.7372 18.9152C64.5193 18.7567 64.3311 18.5487 64.1726 18.2911C64.0339 18.0138 63.9646 17.7166 63.9646 17.3996C63.9646 17.0034 64.0537 16.6864 64.232 16.4487C64.4302 16.1911 64.7372 15.9633 65.1533 15.7652C65.7278 15.5274 66.3816 15.3491 67.1146 15.2303C67.8477 15.1114 68.5906 15.052 69.3434 15.052ZM83.3837 29.5243C83.2252 29.5639 82.9875 29.6134 82.6705 29.6729C82.3733 29.7323 82.0464 29.762 81.6898 29.762C80.9766 29.762 80.4516 29.6333 80.1148 29.3757C79.7978 29.1182 79.6393 28.6625 79.6393 28.0087V10.2377C79.7978 10.1783 80.0257 10.1288 80.3228 10.0892C80.6398 10.0297 80.9766 10 81.3332 10C82.0464 10 82.5615 10.1288 82.8785 10.3863C83.2153 10.6439 83.3837 11.0995 83.3837 11.7533V29.5243ZM92.8821 27.1469C93.4567 27.1469 93.9817 27.0974 94.4571 26.9983C94.9326 26.8795 95.2793 26.7408 95.4973 26.5823V23.2837L92.6147 23.5511C91.8222 23.6304 91.218 23.8087 90.8019 24.086C90.3859 24.3436 90.1779 24.7596 90.1779 25.3342C90.1779 25.9087 90.3859 26.3544 90.8019 26.6714C91.2378 26.9884 91.9312 27.1469 92.8821 27.1469ZM92.7633 15.052C94.7048 15.052 96.2501 15.468 97.3992 16.3001C98.5681 17.1322 99.1525 18.4199 99.1525 20.1633V27.028C99.1525 27.5035 99.0336 27.8799 98.7959 28.1573C98.5581 28.4347 98.261 28.6823 97.9044 28.9002C97.3496 29.237 96.6463 29.5045 95.7944 29.7026C94.9425 29.9007 93.9718 29.9998 92.8821 29.9998C90.901 29.9998 89.3359 29.6234 88.1868 28.8705C87.0575 28.0979 86.4929 26.9488 86.4929 25.4233C86.4929 24.0959 86.9089 23.0855 87.741 22.3921C88.5929 21.6789 89.8212 21.2431 91.426 21.0846L95.4973 20.6685V20.1336C95.4973 19.3808 95.2199 18.8261 94.6652 18.4694C94.1303 18.1128 93.3675 17.9345 92.3769 17.9345C91.6043 17.9345 90.8514 18.0336 90.1184 18.2317C89.3854 18.41 88.7316 18.6378 88.1571 18.9152C87.9391 18.7567 87.7509 18.5487 87.5924 18.2911C87.4538 18.0138 87.3844 17.7166 87.3844 17.3996C87.3844 17.0034 87.4736 16.6864 87.6519 16.4487C87.85 16.1911 88.1571 15.9633 88.5731 15.7652C89.1477 15.5274 89.8014 15.3491 90.5345 15.2303C91.2675 15.1114 92.0104 15.052 92.7633 15.052ZM123.802 29.5243C123.643 29.5639 123.406 29.6134 123.089 29.6729C122.791 29.7323 122.465 29.762 122.108 29.762C121.395 29.762 120.87 29.6333 120.533 29.3757C120.216 29.1182 120.057 28.6625 120.057 28.0087V20.2822C120.057 19.4897 119.84 18.9152 119.404 18.5586C118.968 18.202 118.393 18.0237 117.68 18.0237C117.205 18.0237 116.739 18.1128 116.283 18.2911C115.848 18.4694 115.461 18.7072 115.124 19.0044C115.184 19.2817 115.214 19.5591 115.214 19.8364V29.5243C115.055 29.5639 114.817 29.6134 114.5 29.6729C114.203 29.7323 113.876 29.762 113.52 29.762C112.806 29.762 112.281 29.6333 111.945 29.3757C111.628 29.1182 111.469 28.6625 111.469 28.0087V20.2822C111.469 19.4897 111.241 18.9152 110.786 18.5586C110.33 18.202 109.746 18.0237 109.032 18.0237C108.537 18.0237 108.081 18.1029 107.665 18.2614C107.249 18.4199 106.903 18.5784 106.625 18.7369V29.5243C106.447 29.5639 106.209 29.6134 105.912 29.6729C105.615 29.7323 105.278 29.762 104.902 29.762C104.208 29.762 103.693 29.6333 103.356 29.3757C103.02 29.1182 102.851 28.6625 102.851 28.0087V18.4694C102.851 18.0138 102.95 17.6374 103.148 17.3402C103.346 17.0232 103.654 16.726 104.07 16.4487C104.664 16.0524 105.417 15.7255 106.328 15.468C107.239 15.1906 108.18 15.052 109.151 15.052C110.954 15.052 112.42 15.5373 113.549 16.5081C114.124 16.0921 114.778 15.7454 115.511 15.468C116.264 15.1906 117.145 15.052 118.156 15.052C118.928 15.052 119.661 15.151 120.355 15.3491C121.048 15.5274 121.642 15.8246 122.138 16.2406C122.653 16.6567 123.059 17.1916 123.356 17.8454C123.653 18.4794 123.802 19.2421 123.802 20.1336V29.5243Z" fill="white"/>
<path d="M149.167 29.527C149.007 29.5663 148.766 29.6156 148.445 29.6746C148.144 29.7337 147.813 29.7633 147.452 29.7633C146.729 29.7633 146.197 29.6353 145.856 29.3793C145.535 29.1233 145.375 28.6704 145.375 28.0206V20.341C145.375 19.5534 145.154 18.9824 144.713 18.6279C144.271 18.2735 143.689 18.0963 142.967 18.0963C142.485 18.0963 142.014 18.1849 141.552 18.3621C141.111 18.5393 140.72 18.7756 140.378 19.071C140.439 19.3466 140.469 19.6223 140.469 19.898V29.527C140.308 29.5663 140.067 29.6156 139.746 29.6746C139.445 29.7337 139.114 29.7633 138.753 29.7633C138.031 29.7633 137.499 29.6353 137.158 29.3793C136.837 29.1233 136.676 28.6704 136.676 28.0206V20.341C136.676 19.5534 136.446 18.9824 135.984 18.6279C135.523 18.2735 134.931 18.0963 134.208 18.0963C133.707 18.0963 133.245 18.175 132.824 18.3325C132.402 18.4901 132.051 18.6476 131.77 18.8051V29.527C131.59 29.5663 131.349 29.6156 131.048 29.6746C130.747 29.7337 130.406 29.7633 130.025 29.7633C129.323 29.7633 128.801 29.6353 128.46 29.3793C128.119 29.1233 127.948 28.6704 127.948 28.0206V18.5393C127.948 18.0864 128.049 17.7123 128.249 17.4169C128.45 17.1018 128.761 16.8065 129.182 16.5308C129.784 16.137 130.547 15.8121 131.469 15.5561C132.392 15.2804 133.346 15.1426 134.329 15.1426C136.155 15.1426 137.64 15.625 138.783 16.5899C139.365 16.1764 140.027 15.8318 140.77 15.5561C141.532 15.2804 142.425 15.1426 143.448 15.1426C144.231 15.1426 144.973 15.241 145.676 15.4379C146.378 15.6152 146.98 15.9105 147.482 16.324C148.003 16.7376 148.415 17.2692 148.716 17.919C149.017 18.5491 149.167 19.3073 149.167 20.1934V29.527ZM166.234 26.8096C166.234 27.2625 166.153 27.6465 165.993 27.9615C165.832 28.2569 165.541 28.5227 165.12 28.759C164.538 29.1135 163.796 29.4088 162.893 29.6451C162.01 29.8814 160.996 29.9996 159.853 29.9996C158.809 29.9996 157.866 29.8814 157.024 29.6451C156.181 29.4285 155.458 29.0839 154.856 28.6113C154.255 28.1387 153.793 27.5382 153.472 26.8096C153.151 26.081 152.99 25.2146 152.99 24.2104V15.6152C153.151 15.5561 153.382 15.5069 153.683 15.4675C154.004 15.4084 154.355 15.3789 154.736 15.3789C155.438 15.3789 155.96 15.5069 156.301 15.7628C156.642 15.9991 156.813 16.452 156.813 17.1215V24.1513C156.813 25.1752 157.074 25.9136 157.595 26.3665C158.137 26.7997 158.9 27.0163 159.883 27.0163C160.505 27.0163 161.027 26.9573 161.448 26.8391C161.889 26.721 162.22 26.593 162.441 26.4551V15.6152C162.602 15.5561 162.832 15.5069 163.133 15.4675C163.454 15.4084 163.796 15.3789 164.157 15.3789C164.879 15.3789 165.401 15.5069 165.722 15.7628C166.063 15.9991 166.234 16.452 166.234 17.1215V26.8096Z" fill="white"/>
<path fill-rule="evenodd" clip-rule="evenodd" d="M12 0H28C34.6274 0 40 5.37258 40 12V28C40 34.6274 34.6274 40 28 40H12C5.37258 40 0 34.6274 0 28V12C0 5.37258 5.37258 0 12 0ZM32.8578 5.71387L16.9393 22.2832C14.7181 24.5952 7.69376 19.5957 13.9872 13.0451C19.0218 7.80452 28.6654 5.97404 32.8578 5.71387ZM7.14307 34.2845L23.0616 17.7151C25.2827 15.4031 32.3071 20.4026 26.0137 26.9533C20.979 32.1938 11.3355 34.0243 7.14307 34.2845Z" fill="white"/>
</svg>
