<svg width="170" height="170" viewBox="0 0 170 170" fill="none" xmlns="http://www.w3.org/2000/svg">
<circle cx="85" cy="85" r="85" fill="#26A69A" fill-opacity="0.2"/>
<mask id="mask0_906_239" style="mask-type:alpha" maskUnits="userSpaceOnUse" x="0" y="1" width="170" height="167">
<ellipse cx="85" cy="84.6095" rx="85" ry="83.1447" fill="#D8FFDB"/>
</mask>
<g mask="url(#mask0_906_239)">
<path d="M139 78.0216C131.829 84.2405 131.829 93.4335 139 99.6551V163.631C139 166.044 136.888 168 134.282 168H38.7179C36.1123 168 34 166.044 34 163.631V99.6551C41.1714 93.4335 41.1714 84.2433 34 78.0216V73.298C34 62.5583 41.0352 52.5405 52.8168 46.5L80.0464 32.5436C84.0618 30.4855 88.9382 30.4855 92.9536 32.5436L120.183 46.5C131.965 52.5403 139 62.5583 139 73.298V78.0216Z" fill="#1C737A"/>
<path d="M133 78.0216C126.238 84.2405 126.238 93.4335 133 99.6551V163.631C133 166.044 131.008 168 128.552 168H38.4483C35.9916 168 34 166.044 34 163.631V99.6551C40.7616 93.4335 40.7616 84.2433 34 78.0216V73.298C34 62.5583 40.6332 52.5405 51.7415 46.5L77.4152 32.5436C81.2011 30.4855 85.7989 30.4855 89.5848 32.5436L115.258 46.5C126.367 52.5403 133 62.5583 133 73.298V78.0216Z" fill="#26A69A"/>
<path d="M136.92 152.197H132.952L133.038 168.064H137.007L136.92 152.197Z" fill="#1C737A"/>
<path d="M91.3597 80.7982H82.431C78.1779 80.7982 74.73 77.485 74.73 73.3978V60.9648H99.0611V73.3978C99.0611 77.485 95.6132 80.7982 91.3597 80.7982Z" fill="#FED2A4"/>
<path d="M91.3612 60.9648V73.3978C91.3612 77.485 87.5467 80.7982 82.8414 80.7982H90.542C95.2473 80.7982 99.0621 77.485 99.0621 73.3978V60.9648H91.3612Z" fill="#FFBD86"/>
<path d="M88.8527 49.0645H84.9383C79.3003 49.0645 74.73 52.68 74.73 57.1402V60.9645H99.0611V57.1402C99.0611 52.68 94.4907 49.0645 88.8527 49.0645Z" fill="#F3F3F3"/>
<path d="M88.4789 49.0645H84.4207C83.884 49.0645 83.3569 49.0955 82.8414 49.1543C87.9374 49.7362 91.8458 53.0895 91.8458 57.1402V60.9645H99.0621V57.1402C99.0625 52.68 94.3242 49.0645 88.4789 49.0645Z" fill="#E5E5E5"/>
<path d="M102.971 126.233H71.7947V83.6058L79.5669 79.2266H95.1677L102.971 83.6058V126.233Z" fill="#F3F3F3"/>
<path d="M95.1657 79.2266H89.1501L96.954 83.6058V126.233H102.969V83.6058L95.1657 79.2266Z" fill="#E5E5E5"/>
<path d="M113.116 102.73H120.365C122.915 102.73 124.982 100.708 124.982 98.2139V73.8915C124.982 72.9764 124.224 72.2344 123.288 72.2344H114.81C113.875 72.2344 113.116 72.9761 113.116 73.8915V102.73Z" fill="#F3F3F3"/>
<path d="M123.286 72.2344H117.271C118.207 72.2344 118.965 72.9761 118.965 73.8915V98.2139C118.965 100.708 116.898 102.73 114.348 102.73H120.363C122.913 102.73 124.981 100.708 124.981 98.2139V73.8915C124.981 72.9761 124.222 72.2344 123.286 72.2344Z" fill="#E5E5E5"/>
<path d="M59.9282 126.234H71.7939V83.6064L68.7258 85.5859C63.2334 89.1293 59.9282 95.1344 59.9282 101.57V126.234Z" fill="#F3F3F3"/>
<path d="M68.7256 98.0771C67.6574 98.7662 66.6731 99.5498 65.7784 100.41V126.236H71.7937V96.0977L68.7256 98.0771Z" fill="#E5E5E5"/>
<path d="M114.835 102.733H102.969V83.6094L114.835 91.2644V102.733Z" fill="#F3F3F3"/>
<path d="M123.375 72.2356H114.569V65.5323C114.569 64.4771 114.408 57.3161 115.87 58.7455C117.331 60.175 115.87 64.4633 121.422 63.622C123.375 63.8567 123.375 64.4774 123.375 65.5323L123.375 72.2356Z" fill="#FED2A4"/>
<path d="M132.6 131.521V133.204C132.6 137.436 130.348 140.864 127.569 140.864H42.4299C39.651 140.864 37.3997 137.436 37.3997 133.204V131.521C37.3997 127.293 39.651 123.864 42.4299 123.864H127.569C130.348 123.864 132.6 127.293 132.6 131.521Z" fill="#C8A07F"/>
<path d="M125.799 140.865H44.1995L50.9995 151.065H118.999L125.799 140.865Z" fill="#967152"/>
<path d="M119 168.065H51.058L50.9998 151.065H118.874L119 168.065Z" fill="#C8A07F"/>
<path d="M83.5651 144.264C90.2839 144.264 95.7306 138.936 95.7306 132.364C95.7306 125.792 90.2839 120.464 83.5651 120.464C76.8462 120.464 71.3995 125.792 71.3995 132.364C71.3995 138.936 76.8462 144.264 83.5651 144.264Z" fill="#FCE16C"/>
</g>
</svg>
