<svg width="170" height="170" viewBox="0 0 170 170" fill="none" xmlns="http://www.w3.org/2000/svg">
<circle cx="85" cy="85" r="85" fill="#26A69A" fill-opacity="0.2"/>
<path d="M67.6082 131C71.3552 131 74.3928 127.88 74.3928 124.032C74.3928 120.183 71.3552 117.063 67.6082 117.063C63.8612 117.063 60.8237 120.183 60.8237 124.032C60.8237 127.88 63.8612 131 67.6082 131Z" fill="#1C737A"/>
<path d="M115.1 131C118.847 131 121.885 127.88 121.885 124.032C121.885 120.183 118.847 117.063 115.1 117.063C111.353 117.063 108.316 120.183 108.316 124.032C108.316 127.88 111.353 131 115.1 131Z" fill="#1C737A"/>
<path d="M127.143 59.7435C126.666 59.1448 126.066 58.6626 125.385 58.3319C124.705 58.0011 123.961 57.8302 123.208 57.8316H58.6801L57.3805 50.2577C57.2419 49.451 56.831 48.7202 56.2199 48.1937C55.6088 47.6672 54.8367 47.3787 54.0391 47.3789H40.4699C39.5702 47.3789 38.7074 47.746 38.0712 48.3994C37.435 49.0528 37.0776 49.9391 37.0776 50.8631C37.0776 51.7872 37.435 52.6734 38.0712 53.3268C38.7074 53.9803 39.5702 54.3474 40.4699 54.3474H51.1938L60.8745 110.7C61.0131 111.507 61.424 112.238 62.0351 112.764C62.6462 113.291 63.4183 113.579 64.2159 113.579H118.493C119.392 113.579 120.255 113.212 120.891 112.559C121.527 111.905 121.885 111.019 121.885 110.095C121.885 109.171 121.527 108.285 120.891 107.631C120.255 106.978 119.392 106.611 118.493 106.611H67.0612L65.8654 99.6423H117.102C118.278 99.6407 119.418 99.2218 120.328 98.4563C121.238 97.6908 121.863 96.6258 122.097 95.4416L128.203 64.0836C128.35 63.3247 128.331 62.5417 128.148 61.7911C127.965 61.0406 127.621 60.3412 127.143 59.7435Z" fill="#1C737A"/>
<path d="M64.2296 127.621C67.9766 127.621 71.0141 124.501 71.0141 120.653C71.0141 116.804 67.9766 113.684 64.2296 113.684C60.4825 113.684 57.445 116.804 57.445 120.653C57.445 124.501 60.4825 127.621 64.2296 127.621Z" fill="#26A69A"/>
<path d="M111.722 127.621C115.469 127.621 118.506 124.501 118.506 120.653C118.506 116.804 115.469 113.684 111.722 113.684C107.975 113.684 104.937 116.804 104.937 120.653C104.937 124.501 107.975 127.621 111.722 127.621Z" fill="#26A69A"/>
<path d="M123.764 56.3646C123.288 55.7659 122.687 55.2837 122.007 54.9529C121.326 54.6222 120.582 54.4513 119.829 54.4527H55.3015L54.0018 46.8788C53.8632 46.0721 53.4523 45.3413 52.8412 44.8148C52.2302 44.2883 51.458 43.9998 50.6604 44H37.0913C36.1916 44 35.3287 44.3671 34.6926 45.0205C34.0564 45.6739 33.699 46.5601 33.699 47.4842C33.699 48.4083 34.0564 49.2945 34.6926 49.9479C35.3287 50.6014 36.1916 50.9684 37.0913 50.9684H47.8151L57.4959 107.321C57.6345 108.128 58.0454 108.859 58.6565 109.385C59.2675 109.912 60.0397 110.2 60.8373 110.2H115.114C116.014 110.2 116.876 109.833 117.513 109.18C118.149 108.526 118.506 107.64 118.506 106.716C118.506 105.792 118.149 104.906 117.513 104.252C116.876 103.599 116.014 103.232 115.114 103.232H63.6826L62.4868 96.2633H113.723C114.899 96.2618 116.039 95.8429 116.95 95.0774C117.86 94.3119 118.485 93.2469 118.718 92.0627L124.824 60.7047C124.971 59.9458 124.953 59.1628 124.769 58.4122C124.586 57.6617 124.243 56.9623 123.764 56.3646Z" fill="#26A69A"/>
<path d="M98.7378 63.4268L84.6198 78.122C82.6498 80.1725 76.42 75.7385 82.0015 69.9288C86.4667 65.2809 95.0196 63.6575 98.7378 63.4268Z" fill="white"/>
<path d="M75.932 88.7674L90.0501 74.0721C92.02 72.0216 98.2498 76.4556 92.6683 82.2654C88.203 86.9131 79.6502 88.5366 75.932 88.7674Z" fill="white"/>
</svg>
