<svg width="170" height="170" viewBox="0 0 170 170" fill="none" xmlns="http://www.w3.org/2000/svg">
<circle cx="85" cy="85" r="85" fill="#26A69A" fill-opacity="0.2"/>
<mask id="mask0_906_222" style="mask-type:alpha" maskUnits="userSpaceOnUse" x="31" y="35" width="109" height="101">
<path d="M138.973 89.691C138.973 134.074 150.018 135.453 88.1426 135.453C26.2673 135.453 31.0876 131.469 31.0876 87.0866C31.0876 42.7038 26.2673 35 88.1426 35C150.018 35 138.973 45.3082 138.973 89.691Z" fill="#C4C4C4"/>
</mask>
<g mask="url(#mask0_906_222)">
<path d="M91.8035 97.1352H76.6022C69.3613 97.1352 63.4912 91.5993 63.4912 84.77V63.9961H104.915V84.77C104.915 91.5993 99.045 97.1352 91.8035 97.1352Z" fill="#FED2A4"/>
<path d="M91.6385 63.9961V84.77C91.6385 91.5993 85.0631 97.1352 76.9521 97.1352H90.2263C98.3372 97.1352 104.913 91.5993 104.913 84.77V63.9961H91.6385Z" fill="#FFBD86"/>
<path d="M87.5353 43.2795L69.8352 40.1729C60.2365 40.1729 53.7835 50.5288 63.4913 63.9914H104.915V57.3354C104.915 49.5724 97.134 43.2795 87.5353 43.2795Z" fill="#4F4F4F"/>
<path d="M92.4792 43.2787L83.3016 42.2432C82.3765 42.2432 74.8697 41.1054 73.9812 41.2077C82.7657 42.2204 92.4792 50.2844 92.4792 57.3345V63.9906H104.919V57.3345C104.919 49.5716 101.425 45.8678 92.4792 43.2787Z" fill="#37474F"/>
<path d="M111.776 174.8H57.9246V102.487L71.3494 95.0586H98.2965L111.776 102.487V174.8Z" fill="#26A69A"/>
<path d="M98.3287 95.0586H87.9602L101.411 102.487V174.8H111.779V102.487L98.3287 95.0586Z" fill="#326465"/>
<path d="M38.2507 174.801H58.4733V102.151L53.2443 105.525C43.8838 111.564 38.2507 121.798 38.2507 132.767V174.801Z" fill="#26A69A"/>
<path d="M132.489 174.799H111.777V102.308L117.133 105.674C126.72 111.7 132.489 121.912 132.489 132.857V174.799Z" fill="#26A69A"/>
<path d="M53.246 126.809C51.4255 127.983 49.748 129.319 48.2231 130.785V174.8H58.475V123.436L53.246 126.809Z" fill="#326465"/>
<path d="M117.057 126.42C118.896 127.604 120.591 128.951 122.131 130.429V174.799H111.775V123.02L117.057 126.42Z" fill="#326465"/>
</g>
</svg>
