<svg width="170" height="170" viewBox="0 0 170 170" fill="none" xmlns="http://www.w3.org/2000/svg">
<circle cx="85" cy="85" r="85" fill="#26A69A" fill-opacity="0.2"/>
<mask id="mask0_1113_147" style="mask-type:alpha" maskUnits="userSpaceOnUse" x="26" y="17" width="118" height="118">
<circle cx="85" cy="76" r="59" fill="#40A083"/>
</mask>
<g mask="url(#mask0_1113_147)">
<path d="M141.962 78.4975C134.223 85.4566 134.223 95.7438 141.962 102.706V174.297C141.962 176.997 139.683 179.186 136.871 179.186H33.7396C30.9277 179.186 28.6482 176.997 28.6482 174.297V102.706C36.3875 95.7438 36.3875 85.4597 28.6482 78.4975V73.2116C28.6482 61.1936 36.2404 49.9834 48.9549 43.2238L78.3405 27.6063C82.6739 25.3031 87.9365 25.3031 92.2698 27.6063L121.655 43.2238C134.37 49.9831 141.962 61.1936 141.962 73.2116V78.4975Z" fill="#1C737A"/>
<path d="M135.297 78.4975C128.013 85.4566 128.013 95.7438 135.297 102.706V174.297C135.297 176.997 133.151 179.186 130.505 179.186H33.4401C30.7936 179.186 28.6482 176.997 28.6482 174.297V102.706C35.9322 95.7438 35.9322 85.4597 28.6482 78.4975V73.2116C28.6482 61.1936 35.7938 49.9834 47.7604 43.2238L75.4175 27.6063C79.4959 25.3031 84.4489 25.3031 88.5273 27.6063L116.184 43.2238C128.151 49.9831 135.297 61.1936 135.297 73.2116V78.4975Z" fill="#40A083"/>
</g>
<g opacity="0.99">
<mask id="mask1_1113_147" style="mask-type:alpha" maskUnits="userSpaceOnUse" x="34" y="35" width="103" height="100">
<path d="M136.961 77.3191C136.961 134.999 137.844 134.999 86.3271 134.999C34.8099 134.999 34.18 134.999 34.18 81.4934C34.18 36.2244 29.3031 35.1973 80.8203 35.1973C132.337 35.1973 136.961 32.0501 136.961 77.3191Z" fill="#C4C4C4"/>
</mask>
<g mask="url(#mask1_1113_147)">
<path d="M93.0506 93.7767H77.8328C70.584 93.7767 64.7075 88.2347 64.7075 81.3981V60.6016H106.176V81.3981C106.176 88.2347 100.3 93.7767 93.0506 93.7767Z" fill="#FED2A4"/>
<path d="M92.8888 60.6016V81.3981C92.8888 88.2347 86.3063 93.7767 78.1865 93.7767H91.4751C99.5949 93.7767 106.178 88.2347 106.178 81.3981V60.6016H92.8888Z" fill="#FFBD86"/>
<path d="M88.7777 39.8662H82.1062C72.497 39.8662 64.7075 46.166 64.7075 53.9373V60.6007H106.176V53.9373C106.176 46.166 98.3869 39.8662 88.7777 39.8662Z" fill="white"/>
<path d="M87.9149 39.8662H80.9117C79.9856 39.8662 79.076 39.9204 78.1865 40.0227C86.9805 41.0366 93.725 46.8795 93.725 53.9373V60.6007H106.178V53.9373C106.179 46.166 98.0018 39.8662 87.9149 39.8662Z" fill="#E5E5E5"/>
<path d="M112.877 171.53H59.6855V98.8017L72.946 91.3301H99.5634L112.877 98.8017V171.53Z" fill="white"/>
<path d="M99.5603 91.3301H89.2969L102.611 98.8017V171.53H112.874V98.8017L99.5603 91.3301Z" fill="#E5E5E5"/>
<path d="M123.491 111.747L119.749 111.747C115.11 111.747 111.35 115.146 111.35 119.339L111.35 160.222C111.35 161.76 112.729 163.008 114.431 163.008L129.852 163.008C131.553 163.008 132.933 161.761 132.933 160.222L132.933 130.632L123.491 111.747Z" fill="white"/>
<path d="M114.359 163.008L125.043 163.008C123.381 163.008 122.034 161.761 122.034 160.222L122.034 119.339C122.034 115.146 122.594 111.747 127.124 111.747L119.551 111.747C115.021 111.747 111.349 115.146 111.349 119.339L111.349 160.222C111.349 161.761 112.697 163.008 114.359 163.008Z" fill="#E5E5E5"/>
<path d="M39.4402 171.532H59.6847V98.8037L54.4501 102.181C45.0794 108.227 39.4402 118.472 39.4402 129.452V171.532Z" fill="white"/>
<path d="M54.4514 123.488C52.6289 124.663 50.9496 126 49.4231 127.468V171.531H59.6861V120.11L54.4514 123.488Z" fill="#E5E5E5"/>
<path d="M133.12 131.432H122.141C122.141 131.432 122.141 126.587 120.792 122.541C119.443 118.494 112.875 114.447 112.875 114.447V98.8037C112.875 98.8037 125.026 106.468 128.886 114.447C132.745 122.425 133.12 131.432 133.12 131.432Z" fill="white"/>
</g>
</g>
</svg>
