<svg width="170" height="170" viewBox="0 0 170 170" fill="none" xmlns="http://www.w3.org/2000/svg">
<circle cx="85" cy="85" r="85" fill="#26A69A" fill-opacity="0.2"/>
<rect x="57.0864" y="71.3008" width="25.627" height="29.044" fill="white"/>
<path fill-rule="evenodd" clip-rule="evenodd" d="M51.0896 52.8859C65.1359 51.7008 79.2466 51.7008 93.2929 52.8859L102.728 53.682C107.984 54.1255 112.283 58.3734 113.152 63.981C115.326 78.0115 115.326 92.3338 113.152 106.364C112.283 111.972 107.984 116.22 102.728 116.663L93.2929 117.459C79.2466 118.644 65.1359 118.644 51.0896 117.459L41.6542 116.663C36.3986 116.22 32.0991 111.972 31.2304 106.364C29.0567 92.3338 29.0567 78.0115 31.2304 63.981C32.0991 58.3734 36.3986 54.1255 41.6542 53.682L51.0896 52.8859ZM63.7693 96.3904V73.9548C63.7693 72.8958 64.8405 72.2417 65.6825 72.7866L83.0185 84.0044C83.8363 84.5336 83.8363 85.8117 83.0185 86.3409L65.6825 97.5587C64.8405 98.1035 63.7693 97.4494 63.7693 96.3904Z" fill="#1C737A"/>
<path fill-rule="evenodd" clip-rule="evenodd" d="M51.0896 53.3976C65.136 52.2125 75.5989 52.2125 89.6452 53.3976L99.0806 54.1938C104.336 54.6372 108.636 58.8852 109.504 64.4927C111.678 78.5232 111.678 88.4332 109.504 102.464C108.636 108.071 104.336 112.319 99.0806 112.763L89.6452 113.559C75.5989 114.744 65.1359 114.744 51.0896 113.559L41.6542 112.763C36.3986 112.319 32.0991 108.071 31.2304 102.464C29.0567 88.4332 29.0567 78.5232 31.2304 64.4927C32.0991 58.8852 36.3986 54.6372 41.6542 54.1938L51.0896 53.3976ZM63.7693 96.9022V74.4666C63.7693 73.4076 64.8405 72.7534 65.6825 73.2983L83.0185 84.5161C83.8363 85.0453 83.8363 86.3234 83.0185 86.8526L65.6825 98.0704C64.8405 98.6153 63.7693 97.9612 63.7693 96.9022Z" fill="#40A083"/>
<path d="M116.136 104.667C114.892 104.191 114.27 103.953 113.918 103.441C113.565 102.929 113.565 102.263 113.565 100.931L113.565 70.7366C113.565 69.4049 113.565 68.739 113.918 68.2269C114.27 67.7149 114.892 67.4768 116.136 67.0008L135.57 59.563C138.035 58.6197 139.267 58.1481 140.133 58.7442C141 59.3402 141 60.6597 141 63.2988L141 108.369C141 111.008 141 112.327 140.133 112.923C139.267 113.519 138.035 113.048 135.57 112.105L116.136 104.667Z" fill="#1C737A"/>
<path d="M116.526 103.091C115.102 102.708 114.391 102.516 113.978 101.978C113.565 101.439 113.565 100.702 113.565 99.2284L113.565 70.7831C113.565 69.4299 113.565 68.7533 113.927 68.2369C114.288 67.7205 114.924 67.4887 116.195 67.0252L131.971 61.2719C134.414 60.3812 135.635 59.9359 136.489 60.533C137.342 61.1301 137.342 62.43 137.342 65.0298L137.342 103.476C137.342 105.874 137.342 107.073 136.558 107.673C135.775 108.273 134.617 107.962 132.302 107.338L116.526 103.091Z" fill="#40A083"/>
</svg>
