<svg width="53" height="50" viewBox="0 0 53 50" fill="none" xmlns="http://www.w3.org/2000/svg">
<circle cx="27" cy="25" r="25" fill="#40A083" fill-opacity="0.1"/>
<path d="M52.0459 27.9927L42.2052 1L22.8654 8.79361L2.61574 6.06596L0 11.1132L8.85687 39.1636L25.3531 40.7303L16.1793 45.9053L17.412 48.0865L29.6102 41.204L44.1341 43.1929L44.4746 40.7115L33.5162 39.2117L49.4301 33.0399L52.0459 27.9927Z" fill="#1C737A"/>
<path d="M2.61572 6.06596L11.4726 34.1175L31.3806 36.0079L52.0459 27.9926L42.2051 1L22.8654 8.79361L2.61572 6.06596Z" fill="#E7FCB6"/>
<path d="M2.61572 6.06641L11.4726 34.118L31.3806 36.0083L31.4628 35.9767L22.8301 8.78936L2.61572 6.06641Z" fill="#B9D180"/>
<path d="M29.1792 32.9269L13.6257 31.4564L6.69189 9.49219L22.1856 11.5784L29.1792 32.9269ZM14.572 30.2884L27.3924 31.501L21.2381 12.7159L8.48229 10.9979L14.572 30.2884Z" fill="#FFCD2D"/>
<path d="M32.9398 32.3433L25.2852 10.8938L40.5334 4.74902L48.4065 26.3439L32.9398 32.3433ZM26.8701 11.6057L33.6877 30.7097L46.8086 25.6215L39.7997 6.39546L26.8701 11.6057Z" fill="#FFCD2D"/>
</svg>
