<svg width="50" height="50" viewBox="0 0 50 50" fill="none" xmlns="http://www.w3.org/2000/svg">
<circle cx="25" cy="25" r="25" fill="#40A083" fill-opacity="0.1"/>
<path d="M25 11C25 9.34314 26.3431 8 28 8H49C49.5523 8 50 8.44772 50 9V43.9048C50 44.457 49.5523 44.9048 49 44.9048H26C25.4477 44.9048 25 44.457 25 43.9048V11Z" fill="#40A083"/>
<path d="M27.3809 10C27.3809 8.89543 28.2763 8 29.3809 8H48.9999C49.5522 8 49.9999 8.44772 49.9999 9V42.5238H28.3809C27.8286 42.5238 27.3809 42.0761 27.3809 41.5238V10Z" fill="#E7FCB6"/>
<rect x="29.762" y="11.5714" width="14.2857" height="2" rx="1" fill="#1C737A"/>
<rect x="29.762" y="11.5714" width="14.2857" height="2" rx="1" fill="#1C737A"/>
<rect x="42.8572" y="16.3333" width="4.7619" height="2" rx="1" fill="#1C737A"/>
<rect x="42.8572" y="16.3333" width="4.7619" height="2" rx="1" fill="#1C737A"/>
<rect x="29.762" y="16.3333" width="11.9048" height="2" rx="1" fill="#1C737A"/>
<rect x="29.762" y="16.3333" width="11.9048" height="2" rx="1" fill="#1C737A"/>
<rect x="29.762" y="21.0952" width="17.8571" height="2" rx="1" fill="#1C737A"/>
<rect x="29.762" y="21.0952" width="17.8571" height="2" rx="1" fill="#1C737A"/>
<rect x="29.762" y="25.8571" width="15.4762" height="2" rx="1" fill="#1C737A"/>
<rect x="29.762" y="25.8571" width="15.4762" height="2" rx="1" fill="#1C737A"/>
<rect x="39.2856" y="30.619" width="8.33333" height="2" rx="1" fill="#1C737A"/>
<rect x="39.2856" y="30.619" width="8.33333" height="2" rx="1" fill="#1C737A"/>
<rect x="29.762" y="30.619" width="8.33333" height="2" rx="1" fill="#1C737A"/>
<rect x="29.762" y="30.619" width="8.33333" height="2" rx="1" fill="#1C737A"/>
<rect x="29.762" y="35.381" width="17.8571" height="2" rx="1" fill="#1C737A"/>
<rect x="29.762" y="35.381" width="17.8571" height="2" rx="1" fill="#1C737A"/>
<path d="M25 11C25 9.34314 23.6569 8 22 8H1C0.447716 8 0 8.44772 0 9V43.9048C0 44.457 0.447716 44.9048 1 44.9048H24C24.5523 44.9048 25 44.457 25 43.9048V11Z" fill="#40A083"/>
<path d="M2.38086 9C2.38086 8.44772 2.82857 8 3.38086 8H21.9999C23.6568 8 24.9999 9.34315 24.9999 11V41.5238C24.9999 42.0761 24.5522 42.5238 23.9999 42.5238H3.38086C2.82858 42.5238 2.38086 42.0761 2.38086 41.5238V9Z" fill="#E7FCB6"/>
<rect x="4.76196" y="11.5714" width="17.8571" height="2" rx="1" fill="#1C737A"/>
<rect x="4.76196" y="11.5714" width="17.8571" height="2" rx="1" fill="#1C737A"/>
<rect x="4.76196" y="16.3333" width="15.4762" height="2" rx="1" fill="#1C737A"/>
<rect x="4.76196" y="16.3333" width="15.4762" height="2" rx="1" fill="#1C737A"/>
<rect x="4.76196" y="21.0952" width="9.52381" height="2" rx="1" fill="#1C737A"/>
<rect x="4.76196" y="21.0952" width="9.52381" height="2" rx="1" fill="#1C737A"/>
<rect x="15.4761" y="21.0952" width="7.14286" height="2" rx="1" fill="#1C737A"/>
<rect x="15.4761" y="21.0952" width="7.14286" height="2" rx="1" fill="#1C737A"/>
<rect x="4.76196" y="25.8571" width="17.8571" height="2" rx="1" fill="#1C737A"/>
<rect x="4.76196" y="25.8571" width="17.8571" height="2" rx="1" fill="#1C737A"/>
<rect x="11.9048" y="30.619" width="10.7143" height="2" rx="1" fill="#1C737A"/>
<rect x="11.9048" y="30.619" width="10.7143" height="2" rx="1" fill="#1C737A"/>
<rect x="4.76196" y="30.619" width="5.95238" height="2" rx="1" fill="#1C737A"/>
<rect x="4.76196" y="30.619" width="5.95238" height="2" rx="1" fill="#1C737A"/>
<rect x="4.76196" y="35.381" width="17.8571" height="2" rx="1" fill="#1C737A"/>
<rect x="4.76196" y="35.381" width="17.8571" height="2" rx="1" fill="#1C737A"/>
</svg>
