<svg width="48" height="48" viewBox="0 0 48 48" fill="none" xmlns="http://www.w3.org/2000/svg">
<circle cx="24" cy="24" r="24" fill="#B5FBE6"/>
<path fill-rule="evenodd" clip-rule="evenodd" d="M29.2801 34.8534L31.4925 39.4189L30.4329 38.6944L28.8449 35.0546C28.9917 34.9907 29.1368 34.9242 29.2801 34.8534ZM35.7696 26.7249L36.1435 26.8121L36.5649 27.1947L36.0589 27.332L35.6435 27.2163C35.6884 27.0548 35.7307 26.8907 35.7696 26.7249ZM35.5321 27.5953L37.6055 28.2465L38.1072 28.939L35.4026 27.9874C35.4475 27.8579 35.4907 27.7275 35.5321 27.5953ZM35.2005 28.5185C35.1401 28.667 35.077 28.8138 35.0106 28.9589L39.6322 31.0512L38.8801 30.0115L35.2005 28.5185ZM34.7714 29.4571L40.6426 32.4458L41.5147 33.6522L40.0286 33.5555L34.3733 30.1747C34.514 29.9399 34.647 29.7007 34.7714 29.4571ZM34.0788 30.641L38.3093 33.4415L37.0278 33.3586L33.8059 31.0365C33.9 30.9062 33.9907 30.7749 34.0788 30.641ZM33.464 31.4882C33.3785 31.5961 33.2913 31.7023 33.2014 31.8077L34.8543 33.2161L35.7074 33.2714L33.464 31.4882ZM32.8163 32.2386L33.1021 32.5054L33.2766 33.0469L32.7697 32.9139L32.4623 32.6013C32.5823 32.483 32.7006 32.3621 32.8163 32.2386ZM32.0754 32.9648L33.5365 34.5909L33.6142 35.4423L31.7645 33.236C31.8699 33.147 31.9735 33.0572 32.0754 32.9648ZM31.3224 33.5909C31.1954 33.6876 31.0668 33.7826 30.9364 33.8741L33.8517 38.0364L33.7351 36.7592L31.3224 33.5909ZM30.4761 34.1816L29.838 34.5995L32.913 40.3921L34.1418 41.2324L34.0071 39.7505L30.4761 34.1816ZM27.4235 35.5762L27.5358 35.9518L27.4123 36.5071L27.0418 36.1366L26.9339 35.7092C27.0979 35.6694 27.2612 35.6245 27.4235 35.5762ZM28.3199 35.2713C28.1912 35.3206 28.0617 35.3681 27.9313 35.413L28.6342 37.4647L29.3397 37.9475L28.3199 35.2713ZM26.4218 35.8275L26.857 37.9664L26.4935 38.7393L26.0159 35.9035C26.1524 35.8793 26.2871 35.8542 26.4218 35.8275ZM25.4546 35.9838L25.9296 39.9353L25.383 41.0959L24.9771 36.0321C25.1377 36.0192 25.2966 36.0028 25.4546 35.9838ZM24.4253 36.0641L24.6498 42.6537L24.016 44L23.3821 42.6537L23.6067 36.0649C23.7379 36.0693 23.8692 36.0718 24.0004 36.0718C24.1429 36.0718 24.2845 36.0693 24.4253 36.0641ZM23.054 36.0347L22.649 41.0968L22.1024 39.9362L22.5773 35.9881C22.7345 36.0062 22.8934 36.0218 23.054 36.0347ZM22.0143 35.9078L21.5376 38.7385L21.1732 37.9656L21.6076 35.8335C21.7431 35.8603 21.8787 35.8853 22.0143 35.9078ZM20.997 35.6928L20.8951 36.096L20.504 36.5097L20.3753 36.0019L20.5083 35.5555C20.6706 35.6047 20.833 35.6504 20.997 35.6928ZM20.0031 35.3905L19.2924 37.4647L18.5869 37.9475L19.6171 35.2472C19.744 35.2973 19.8736 35.3447 20.0031 35.3905ZM19.0938 35.0278C18.9479 34.9631 18.8037 34.8948 18.6612 34.824L16.435 39.4198L17.4945 38.6953L19.0938 35.0278ZM18.1724 34.5684L15.0127 40.3921L13.7839 41.2324L13.9195 39.7505L17.4712 34.1487C17.7 34.2964 17.9341 34.4363 18.1724 34.5684ZM17.0153 33.8396L14.0758 38.0364L14.1924 36.7592L16.6319 33.5555C16.7571 33.6522 16.8857 33.7472 17.0153 33.8396ZM16.1923 33.1997C16.0878 33.1108 15.9851 33.0201 15.884 32.9277L14.3901 34.59L14.3124 35.4406L16.1923 33.1997ZM15.4203 32.4847L15.0973 32.8068L14.549 32.9622L14.6993 32.4605L15.0714 32.1186C15.1854 32.2429 15.302 32.3647 15.4203 32.4847ZM14.7675 31.7714L13.0723 33.2153L12.2192 33.2714L14.5084 31.4528C14.593 31.5607 14.6794 31.6669 14.7675 31.7714ZM14.1682 31.0011C14.0758 30.8716 13.986 30.7404 13.8987 30.6082L9.61732 33.4424L10.898 33.3586L14.1682 31.0011ZM13.606 30.1419C13.467 29.9088 13.3366 29.6704 13.214 29.4269L7.28404 32.4458L6.41186 33.6513L7.89802 33.5538L13.606 30.1419ZM12.9765 28.9304L8.29352 31.0504L9.04566 30.0107L12.7891 28.4917C12.8487 28.6402 12.9117 28.7862 12.9765 28.9304ZM12.5905 27.9641C12.5456 27.8354 12.5015 27.7059 12.461 27.5746L10.3211 28.2465L9.82025 28.939L12.5905 27.9641ZM12.3582 27.2214L11.9031 27.3492L11.3487 27.2163L11.7261 26.8518L12.2338 26.7318C12.271 26.8967 12.3124 27.06 12.3582 27.2214ZM17.2139 25.3476C17.1983 25.2707 17.1845 25.1921 17.1716 25.1144L9.26586 26.4425L10.0396 26.8061L17.2139 25.3476ZM17.1267 24.7923L8.06813 25.8795L6.90667 25.3337L17.1008 24.5186C17.1077 24.611 17.1163 24.7016 17.1267 24.7923ZM17.0843 24.2025C17.0826 24.1351 17.0809 24.0678 17.0809 24.0004C17.0809 23.9106 17.0835 23.8217 17.0869 23.7327L5.34712 23.3338L4 23.9676L5.34712 24.6006L17.0843 24.2025ZM17.1059 23.4158L6.90667 22.6006L8.06813 22.0549L17.1344 23.1429C17.1232 23.2336 17.1137 23.3251 17.1059 23.4158ZM17.1819 22.8217C17.1957 22.744 17.2096 22.6663 17.226 22.5894L10.0396 21.1274L9.26586 21.491L17.1819 22.8217ZM12.239 21.2371L11.7641 21.1266L11.3427 20.7432L11.8487 20.6059L12.3651 20.7492C12.3193 20.9098 12.277 21.073 12.239 21.2371ZM12.4929 20.3218L10.4308 19.6663L9.86257 18.9746L12.6198 19.9513C12.5758 20.0739 12.5335 20.1974 12.4929 20.3218ZM12.8219 19.4245C12.8824 19.2777 12.9463 19.1318 13.0128 18.9876L8.33928 16.8607L9.08884 17.9021L12.8219 19.4245ZM13.2537 18.4928L7.33326 15.4626L6.46368 14.2554L7.94896 14.3556L13.6518 17.7804C13.511 18.0135 13.3789 18.251 13.2537 18.4928ZM13.9471 17.3166L9.66741 14.4721L10.948 14.5585L14.2191 16.9255C14.1267 17.0541 14.0361 17.1845 13.9471 17.3166ZM14.5628 16.4773C14.6483 16.3702 14.7355 16.2648 14.8245 16.1604L13.1233 14.7053L12.2701 14.6474L14.5628 16.4773ZM15.1042 15.846L14.7355 15.5075L14.5568 14.9661L15.0654 15.0948L15.4531 15.4816C15.3348 15.6008 15.2182 15.7217 15.1042 15.846ZM15.8832 15.0714L14.3901 13.4273L14.3081 12.5767L16.1923 14.8003C16.0878 14.8892 15.9842 14.979 15.8832 15.0714ZM16.631 14.4445C16.7571 14.3469 16.8849 14.2528 17.0153 14.1604L14.0568 9.98433L14.1803 11.2606L16.631 14.4445ZM17.4712 13.8504C17.7 13.7027 17.9341 13.5637 18.1724 13.4316L14.9808 7.62341L13.7476 6.78923L13.891 8.2702L17.4712 13.8504ZM18.6612 13.176L16.4073 8.58798L17.4712 9.30645L19.0947 12.9713C18.9487 13.0369 18.8045 13.1052 18.6612 13.176ZM19.6162 12.7528C19.744 12.7027 19.8727 12.6553 20.0022 12.6095L19.276 10.5266L18.5679 10.0474L19.6162 12.7528ZM20.5057 12.4445L20.3684 11.9851L20.4919 11.4299L20.8623 11.8003L20.991 12.3081C20.8287 12.3504 20.6663 12.3962 20.5057 12.4445ZM21.5454 12.1803L21.1084 10.0344L21.472 9.26154L21.9504 12.1035C21.8148 12.1259 21.6801 12.1518 21.5454 12.1803ZM22.5117 12.0206L22.0359 8.06554L22.5825 6.90408L22.9884 11.9713C22.8286 11.9843 22.6697 12.0007 22.5117 12.0206ZM23.5402 11.9377L23.3156 5.34626L23.9503 4L24.585 5.34539L24.3605 11.9333C24.2405 11.9299 24.1213 11.9273 24.0004 11.9273C23.8459 11.9282 23.693 11.9316 23.5402 11.9377ZM24.9123 11.9627L25.3173 6.90322L25.8648 8.06382L25.3907 12.0076C25.2318 11.9903 25.0721 11.9748 24.9123 11.9627ZM25.952 12.087L26.4278 9.26154L26.7914 10.0344L26.3588 12.1596C26.224 12.1328 26.0885 12.1095 25.952 12.087ZM26.8708 12.2736L26.9805 11.8332L27.37 11.4178L27.4995 11.9256L27.3587 12.4048C27.1981 12.3573 27.0349 12.3142 26.8708 12.2736ZM27.933 12.587L28.6515 10.5266L29.3596 10.0482L28.3207 12.7287C28.1921 12.6786 28.0634 12.6319 27.933 12.587ZM28.8449 12.9445C28.9917 13.0093 29.1359 13.0758 29.2792 13.1457L31.5184 8.58712L30.4554 9.30645L28.8449 12.9445ZM29.7715 13.4005L32.9467 7.62341L34.1798 6.78923L34.0365 8.2702L30.477 13.8184C30.2464 13.6708 30.0115 13.5317 29.7715 13.4005ZM30.9355 14.125L33.8698 9.9826L33.7472 11.2598L31.3232 14.4091C31.1954 14.3124 31.0668 14.2174 30.9355 14.125ZM31.7654 14.764C31.8707 14.853 31.9744 14.9436 32.0763 15.0352L33.5374 13.4264L33.6194 12.5767L31.7654 14.764ZM32.3923 15.3296L32.6971 15.0179L33.2429 14.8556L33.0987 15.359L32.7481 15.6889C32.6324 15.5671 32.5132 15.4471 32.3923 15.3296ZM33.1444 16.125L34.8042 14.7053L35.6573 14.6474L33.4087 16.4419C33.3223 16.3348 33.2343 16.2294 33.1444 16.125ZM33.7541 16.8918C33.8482 17.0204 33.9406 17.1508 34.0296 17.2838L38.2583 14.4721L36.9777 14.5585L33.7541 16.8918ZM34.3284 17.7493C34.47 17.9824 34.6047 18.2199 34.7316 18.4634L40.5942 15.4635L41.4638 14.2563L39.9785 14.3564L34.3284 17.7493ZM34.9743 18.96L39.5873 16.8607L38.8378 17.9021L35.1677 19.3995C35.1055 19.251 35.0416 19.105 34.9743 18.96ZM35.3724 19.9288C35.4164 20.0523 35.4596 20.1758 35.5002 20.301L37.4967 19.6663L38.0649 18.9746L35.3724 19.9288ZM35.5952 20.611L35.9803 20.4996L36.5356 20.6283L36.1617 20.9953L35.7282 21.1007C35.6867 20.9357 35.6427 20.7725 35.5952 20.611ZM30.774 22.5894L37.9604 21.1274L38.7341 21.491L30.8181 22.8208C30.8043 22.744 30.7896 22.6663 30.774 22.5894ZM39.9319 22.0549L30.8656 23.1429C30.8768 23.2336 30.8863 23.3243 30.8941 23.4158L41.0933 22.6006L39.9319 22.0549ZM30.8733 24.7923L39.9319 25.8795L41.0933 25.3329L30.8992 24.5186C30.8932 24.6101 30.8837 24.7016 30.8733 24.7923ZM30.787 25.3476L37.9604 26.8069L38.7341 26.4425L30.8284 25.1144C30.8155 25.1921 30.8017 25.2707 30.787 25.3476ZM42.6529 23.3338L44 23.9676L42.6529 24.6015L30.9165 24.2025C30.9182 24.1351 30.92 24.0678 30.92 24.0004C30.92 23.9106 30.9174 23.8217 30.9139 23.7327L42.6529 23.3338Z" fill="#40A083"/>
<path fill-rule="evenodd" clip-rule="evenodd" d="M30.635 22.0414L31.3413 21.8376C31.3715 21.9404 31.4 22.044 31.426 22.1485L30.7118 22.3229C30.6885 22.2279 30.6626 22.1338 30.635 22.0414ZM17.3278 25.8272L16.6206 26.0258C16.5921 25.923 16.5662 25.8203 16.542 25.7166L17.257 25.5483C17.2777 25.6415 17.3019 25.7348 17.3278 25.8272ZM30.7429 25.5517L31.4579 25.7184C31.4337 25.8237 31.407 25.9274 31.3785 26.031L30.6704 25.8341C30.6963 25.7408 30.7204 25.6467 30.7429 25.5517ZM30.6082 26.0491L31.3085 26.2693C31.2826 26.3522 31.255 26.4351 31.2265 26.5171L30.5331 26.2728C30.559 26.1994 30.5849 26.1251 30.6082 26.0491ZM30.4182 26.5776L31.0995 26.8539C31.0615 26.9481 31.021 27.0413 30.9795 27.1329L30.3103 26.8297C30.3483 26.7468 30.3845 26.6622 30.4182 26.5776ZM30.1738 27.1156C30.103 27.2555 30.027 27.3919 29.9467 27.5266L30.5771 27.9031C30.666 27.7546 30.7498 27.6035 30.8284 27.4489L30.1738 27.1156ZM29.7783 27.7943L30.3906 28.1993C30.3344 28.2839 30.2774 28.3677 30.2179 28.4497L29.6229 28.0206C29.6756 27.9463 29.7274 27.8712 29.7783 27.7943ZM29.4269 28.2796C29.3776 28.3418 29.3276 28.4023 29.2766 28.4627L29.8353 28.9385C29.8914 28.872 29.9467 28.8047 30.0011 28.7364L29.4269 28.2796ZM29.0469 28.72L29.5832 29.2209C29.5098 29.2995 29.4346 29.3763 29.3578 29.4515L28.8431 28.929C28.9122 28.8608 28.9804 28.7917 29.0469 28.72ZM28.6298 29.1294C28.5711 29.182 28.5115 29.2338 28.4519 29.2839L28.9234 29.847C28.9899 29.7908 29.0555 29.7338 29.1203 29.6751L28.6298 29.1294ZM28.1989 29.4877L28.6436 30.0715C28.5633 30.1328 28.4821 30.1932 28.3992 30.2511L27.9778 29.6501C28.053 29.5974 28.1264 29.543 28.1989 29.4877ZM27.7153 29.8271C27.5841 29.9109 27.4494 29.9912 27.3112 30.0663L27.6609 30.7114C27.8129 30.6285 27.9623 30.5395 28.1074 30.4463L27.7153 29.8271ZM27.0305 30.2114L27.3509 30.872C27.2602 30.9169 27.1678 30.9592 27.0754 30.9998L26.7818 30.3262C26.8656 30.2908 26.9485 30.252 27.0305 30.2114ZM26.4813 30.4514L26.743 31.1379C26.6618 31.169 26.5798 31.1993 26.4969 31.2278L26.2585 30.5326C26.3345 30.5067 26.4079 30.4799 26.4813 30.4514ZM25.9459 30.6328L26.1566 31.3374C26.0539 31.3676 25.9494 31.3961 25.8449 31.4221L25.6644 30.7096C25.7585 30.6863 25.8527 30.6604 25.9459 30.6328ZM25.3915 30.7718L25.5383 31.4911C25.4537 31.5084 25.3682 31.5248 25.2819 31.5395L25.1601 30.815C25.2378 30.802 25.3147 30.7882 25.3915 30.7718ZM24.8389 30.8616L24.927 31.5913C24.8268 31.6034 24.7266 31.6138 24.6247 31.6215L24.566 30.8892C24.6575 30.8823 24.7482 30.8728 24.8389 30.8616ZM24.2499 30.9082L24.275 31.6423C24.1834 31.6457 24.0919 31.6474 24.0004 31.6474C23.9183 31.6474 23.838 31.6457 23.7569 31.6431L23.7819 30.9091C23.8544 30.9117 23.9278 30.9134 24.0004 30.9134C24.0841 30.9134 24.167 30.9108 24.2499 30.9082ZM23.465 30.8927L23.4063 31.625C23.3052 31.6172 23.2042 31.6077 23.104 31.5956L23.1912 30.8659C23.2828 30.8763 23.3735 30.8849 23.465 30.8927ZM22.8709 30.8202L22.7491 31.5447C22.6628 31.5309 22.5773 31.5153 22.4918 31.498L22.6386 30.7779C22.7154 30.7934 22.7932 30.8072 22.8709 30.8202ZM22.2586 30.6906L22.079 31.4031C21.9754 31.3763 21.8718 31.3469 21.769 31.3158L21.978 30.6121C22.0712 30.6388 22.1645 30.6656 22.2586 30.6906ZM21.6749 30.5102L21.4365 31.2053C21.3545 31.1759 21.2733 31.1457 21.1922 31.1138L21.4538 30.4273C21.5272 30.4558 21.6015 30.4834 21.6749 30.5102ZM21.1567 30.3003L20.8631 30.973C20.7707 30.9316 20.6801 30.8884 20.5903 30.8435L20.9106 30.1829C20.9918 30.2235 21.0738 30.2623 21.1567 30.3003ZM20.6317 30.0343C20.4961 29.9584 20.3623 29.8772 20.2328 29.7926L19.8398 30.4126C19.9841 30.5067 20.1317 30.5956 20.282 30.6794L20.6317 30.0343ZM19.9728 29.6155L19.5514 30.2174C19.4694 30.1587 19.3891 30.0982 19.3096 30.0369L19.7544 29.4532C19.826 29.5076 19.8994 29.562 19.9728 29.6155ZM19.5048 29.2485C19.4452 29.1976 19.3865 29.1458 19.3295 29.0931L18.839 29.6388C18.9029 29.6976 18.9677 29.7546 19.0333 29.8116L19.5048 29.2485ZM19.0704 28.8427L18.5506 29.3608C18.4755 29.2848 18.4021 29.2071 18.3304 29.1285L18.871 28.632C18.9357 28.7036 19.0022 28.7736 19.0704 28.8427ZM18.6931 28.4264C18.643 28.366 18.5938 28.3055 18.5454 28.2442L17.9711 28.701C18.0247 28.7693 18.0791 28.8366 18.1344 28.9031L18.6931 28.4264ZM18.3528 27.986L17.757 28.4152C17.6991 28.3332 17.6421 28.2503 17.5877 28.1665L18.2 27.7615C18.2492 27.8366 18.3002 27.9118 18.3528 27.986ZM18.0342 27.4938C17.9556 27.3608 17.8813 27.2244 17.8114 27.0854L17.1568 27.4187C17.2346 27.5724 17.3166 27.7226 17.4038 27.8703L18.0342 27.4938ZM17.6767 26.8021L17.0074 27.1052C16.9669 27.0137 16.9271 26.9213 16.89 26.828L17.5705 26.5517C17.605 26.6363 17.6404 26.7201 17.6767 26.8021ZM17.4591 26.2503L16.7665 26.4938C16.738 26.4127 16.7112 26.3306 16.6853 26.2477L17.3865 26.0275C17.409 26.1035 17.4332 26.1769 17.4591 26.2503ZM17.2665 22.4084L16.5506 22.2418C16.5748 22.1381 16.6024 22.0354 16.6309 21.9335L17.339 22.1304C17.3131 22.2219 17.289 22.3152 17.2665 22.4084ZM17.4133 21.886L16.713 21.6632C16.738 21.5846 16.7648 21.506 16.7924 21.4292L17.485 21.6744C17.4599 21.7444 17.4358 21.8152 17.4133 21.886ZM17.6007 21.3739L16.9202 21.0967C16.9591 21.0034 16.9988 20.9119 17.0403 20.8204L17.7086 21.1243C17.6715 21.2072 17.6361 21.2901 17.6007 21.3739ZM17.8477 20.8428C17.9193 20.7047 17.9945 20.57 18.0748 20.437L17.4453 20.0587C17.3563 20.2055 17.2725 20.3549 17.194 20.5078L17.8477 20.8428ZM18.2432 20.1719L17.6318 19.7651C17.6879 19.6814 17.7449 19.5993 17.8045 19.5182L18.3995 19.9482C18.3459 20.0225 18.2932 20.0967 18.2432 20.1719ZM18.5938 19.6935C18.643 19.6321 18.6922 19.5726 18.7432 19.513L18.1853 19.0354C18.1292 19.1011 18.0739 19.1676 18.0195 19.2349L18.5938 19.6935ZM18.9038 19.3325L18.3632 18.836C18.4349 18.7574 18.5083 18.6814 18.5834 18.6063L19.1024 19.1244C19.0342 19.1917 18.9685 19.2617 18.9038 19.3325ZM19.3494 18.8878C19.4072 18.8351 19.4668 18.7842 19.5264 18.7332L19.0514 18.1728C18.9858 18.2289 18.921 18.2868 18.8563 18.3446L19.3494 18.8878ZM19.7768 18.5303L19.3286 17.9482C19.4081 17.8869 19.4893 17.8265 19.5713 17.7686L19.9953 18.3679C19.9219 18.4197 19.8485 18.4741 19.7768 18.5303ZM20.2561 18.19C20.3865 18.1054 20.5203 18.026 20.6559 17.95L20.3018 17.3066C20.1507 17.3904 20.0031 17.4785 19.8588 17.5717L20.2561 18.19ZM20.9357 17.804L20.6119 17.1452C20.7017 17.1003 20.7932 17.0571 20.8856 17.0165L21.1827 17.6883C21.0989 17.7246 21.0169 17.7634 20.9357 17.804ZM21.4806 17.5622L21.2155 16.8775C21.2958 16.8455 21.3778 16.8153 21.4598 16.7868L21.7016 17.4802C21.6265 17.5061 21.5531 17.5337 21.4806 17.5622ZM21.9849 17.3869L21.7742 16.6832C21.8761 16.6521 21.978 16.6236 22.0816 16.5968L22.2621 17.3084C22.1688 17.3325 22.0764 17.3584 21.9849 17.3869ZM22.5755 17.2341L22.4287 16.5148C22.5134 16.4966 22.5989 16.4802 22.6843 16.4656L22.8061 17.1901C22.7292 17.203 22.6524 17.2177 22.5755 17.2341ZM23.1273 17.1408L23.0401 16.412C23.1403 16.3991 23.2405 16.3887 23.3415 16.3801L23.4002 17.1123C23.3087 17.1201 23.218 17.1296 23.1273 17.1408ZM23.7163 17.0925L23.6912 16.3585C23.794 16.3542 23.8968 16.3516 24.0004 16.3516C24.0703 16.3516 24.1403 16.3533 24.2102 16.355L24.1852 17.089C24.1239 17.0873 24.0626 17.0864 24.0004 17.0864C23.9045 17.0864 23.8104 17.0882 23.7163 17.0925ZM24.5004 17.1046L24.5591 16.3723C24.6601 16.3801 24.7612 16.3887 24.8622 16.3999L24.7741 17.1296C24.6834 17.1201 24.5919 17.1115 24.5004 17.1046ZM25.0962 17.1737L25.218 16.4491C25.3043 16.463 25.3898 16.4785 25.4753 16.4949L25.3285 17.2151C25.2516 17.1996 25.1739 17.1857 25.0962 17.1737ZM25.6221 17.279L25.8 16.5657C25.9036 16.5908 26.0072 16.6184 26.1091 16.6478L25.9019 17.3524C25.8095 17.3265 25.7162 17.3023 25.6221 17.279ZM26.2344 17.4569L26.4761 16.7635C26.5582 16.792 26.6402 16.8213 26.7214 16.8524L26.4554 17.5381C26.3829 17.5096 26.3086 17.4828 26.2344 17.4569ZM26.7568 17.6607L27.0539 16.9889C27.1471 17.0294 27.2387 17.0718 27.3293 17.1158L27.0055 17.7755C26.9235 17.735 26.8406 17.697 26.7568 17.6607ZM27.287 17.9198C27.4252 17.9949 27.559 18.0743 27.6911 18.1572L28.0875 17.5389C27.9416 17.4465 27.793 17.3585 27.6402 17.2756L27.287 17.9198ZM27.9554 18.3325L28.3802 17.7332C28.4631 17.7911 28.5452 17.8515 28.6255 17.9128L28.1773 18.4949C28.1039 18.4396 28.0305 18.3852 27.9554 18.3325ZM28.4312 18.6969C28.4916 18.747 28.5512 18.7988 28.61 18.8515L29.1039 18.3083C29.0391 18.2505 28.9735 18.1926 28.9061 18.1374L28.4312 18.6969ZM28.7896 19.0182L29.3025 18.4931C29.3794 18.5674 29.4554 18.6434 29.5288 18.7203L28.9942 19.2237C28.9269 19.1529 28.8587 19.0847 28.7896 19.0182ZM29.2257 19.4767C29.2775 19.5363 29.3276 19.5967 29.3768 19.6581L29.951 19.2004C29.8966 19.133 29.8405 19.0657 29.7835 19L29.2257 19.4767ZM29.5754 19.9145L30.1704 19.4845C30.23 19.5657 30.2887 19.6486 30.3457 19.7323L29.7343 20.139C29.6833 20.0622 29.6298 19.9879 29.5754 19.9145ZM29.9061 20.405C29.9882 20.538 30.065 20.6744 30.1376 20.8135L30.7921 20.4784C30.7118 20.3247 30.6263 20.1745 30.5356 20.0268L29.9061 20.405ZM30.2774 21.0976L30.9467 20.7927C30.989 20.8843 31.0305 20.9775 31.0693 21.0708L30.3888 21.348C30.3534 21.2634 30.3163 21.1805 30.2774 21.0976ZM30.5071 21.6511C30.5331 21.7219 30.5572 21.7927 30.5805 21.8644L31.2809 21.6416C31.255 21.5622 31.2282 21.4836 31.1997 21.4059L30.5071 21.6511Z" fill="#40A083"/>
<path fill-rule="evenodd" clip-rule="evenodd" d="M24.5624 29.2345C24.369 29.2501 24.2205 29.2155 24.1367 29.0895C24.1626 29.0195 24.2369 28.9582 24.2792 28.9703C24.3828 28.9988 24.5599 29.1784 24.5624 29.2345Z" fill="#40A083"/>
<path fill-rule="evenodd" clip-rule="evenodd" d="M30.9318 23.996C30.9318 27.8247 27.8253 30.9285 23.9932 30.9285C20.1612 30.9285 17.0547 27.8247 17.0547 23.996C17.0547 20.1673 20.1612 17.0635 23.9932 17.0635C27.8253 17.0635 30.9318 20.1673 30.9318 23.996ZM27.47 26.7062C27.4139 26.7804 27.3362 26.9065 27.3042 26.9747C27.2179 27.1569 27.1954 27.384 27.2179 27.5818C27.2351 27.7329 27.3008 27.9471 27.451 28.0023C27.6272 28.068 27.8724 28.0205 28.0313 27.9332C28.3267 27.77 28.6298 27.5697 28.7627 27.2485L28.495 27.4367L28.4855 27.4238C28.5062 27.4742 28.2179 27.6426 28.1007 27.711L28.065 27.732C27.9277 27.8149 27.7299 27.8659 27.5616 27.77C27.2377 27.5846 27.3524 27.2458 27.3941 27.123L27.3975 27.1129C27.4346 27.0023 27.6643 26.6992 27.8258 26.6172C27.8255 26.6008 27.8256 26.5844 27.8257 26.5683C27.8263 26.4403 27.8268 26.3323 27.6419 26.4151C27.5543 26.455 27.5177 26.4705 27.4567 26.4964L27.4182 26.5127C27.2946 26.5748 27.1913 26.6198 27.1077 26.6562L27.1076 26.6562C26.897 26.7479 26.8115 26.7852 26.8405 26.9039L26.9303 27.0671C26.9664 26.9655 27.1639 26.8661 27.3173 26.7888L27.3174 26.7888C27.3804 26.7571 27.4361 26.729 27.47 26.7062ZM21.819 19.626L21.7534 19.9999L23.3743 18.6778L23.4442 18.2806L21.819 19.626ZM20.5177 20.8634C20.5177 20.885 21.1101 21.2089 21.1757 21.2434L21.5168 20.6173C21.4805 20.6122 21.1869 20.4533 21.1446 20.4265C21.0383 20.3604 20.9737 20.3337 20.8715 20.2916L20.8406 20.2788C20.8338 20.2913 20.8136 20.3254 20.7864 20.3713L20.7864 20.3713C20.6931 20.5284 20.5177 20.824 20.5177 20.8634ZM19.573 20.9403C19.5686 20.9248 19.6826 20.6925 19.7085 20.6553C19.7282 20.6278 19.7658 20.5481 19.8018 20.472L19.8018 20.472L19.8018 20.472C19.8415 20.3879 19.8791 20.3082 19.8881 20.3082C19.9374 20.3082 20.5177 20.6545 20.5315 20.6735C20.5513 20.7097 20.4374 20.9153 20.3985 20.9774C20.3812 21.0042 20.2284 21.2883 20.2249 21.3306C20.1541 21.3021 19.5902 21.0077 19.573 20.9403ZM23.0824 20.1096L25.078 18.5112L25.0081 18.9075L23.0168 20.4826L23.0824 20.1096ZM24.262 20.7313C24.1411 20.6778 23.8993 20.3773 23.9235 20.265C23.762 20.3419 23.7249 20.4075 23.7879 20.5241L23.7977 20.542C23.9528 20.8249 24.0355 20.9758 24.2309 21.0215C24.4917 21.0828 24.6575 20.7564 24.6601 20.5862C24.8475 20.7572 25.0245 20.6458 25.0806 20.5042C25.1255 20.3902 25.1402 20.2685 25.1203 20.1882C25.0871 20.0553 24.9798 19.9171 24.9042 19.8197C24.8795 19.788 24.8582 19.7606 24.844 19.7391C24.836 19.7457 24.8282 19.7519 24.8208 19.7578C24.7687 19.799 24.7323 19.8278 24.7421 19.9101C24.7525 19.9982 24.8086 20.0768 24.9053 20.1735C24.9193 20.1874 24.9311 20.1982 24.942 20.2081C24.9695 20.2332 24.9912 20.253 25.0271 20.3056C24.9571 20.3591 24.8285 20.4308 24.7887 20.4343C24.667 20.4426 24.5221 20.1358 24.4874 20.0622C24.4824 20.0518 24.4797 20.046 24.4796 20.0465C24.4722 20.0435 24.4601 20.0415 24.448 20.0396C24.4362 20.0376 24.4242 20.0357 24.4165 20.0327L24.413 20.0376C24.3855 20.076 24.3554 20.1179 24.3388 20.17C24.3506 20.2916 24.4535 20.4437 24.5286 20.5547L24.5504 20.5871C24.5046 20.6726 24.3829 20.7849 24.262 20.7313ZM25.3984 19.6407C25.4234 19.7037 25.5625 19.8557 25.717 19.9187C25.6452 20.2562 25.4247 20.6163 25.2798 20.8529L25.2654 20.8764C25.1238 21.1078 24.9778 21.2633 24.958 21.284L24.9126 21.3317C24.8129 21.4362 24.634 21.6237 24.5953 21.6821C24.6566 21.6769 24.9355 21.4705 25.0547 21.3488C25.3345 21.0638 25.7922 20.4343 25.8889 19.9835C26.0088 20.0187 26.0097 20.0201 26.0496 20.086L26.0497 20.086C26.0557 20.096 26.0627 20.1075 26.0711 20.1208L26.087 20.0754C26.1293 19.9554 26.1627 19.8608 26.1419 19.7478C26.1329 19.6962 26.072 19.6671 26.012 19.6385L26.002 19.6338L26.0032 19.6268C26.0273 19.4901 26.034 19.452 26.034 19.2737C26.034 19.0198 25.939 18.6908 25.7939 18.658C25.4563 18.683 25.3466 19.1346 25.325 19.3333C25.3123 19.4525 25.339 19.5099 25.3706 19.5776C25.3798 19.5972 25.3893 19.6176 25.3984 19.6407ZM25.8215 19.5923C25.7557 19.5718 25.7191 19.5521 25.6702 19.5259C25.6492 19.5146 25.6259 19.5021 25.597 19.4878C25.5716 19.4736 25.5478 19.4635 25.5267 19.4545C25.4618 19.4268 25.4221 19.4098 25.4364 19.3186C25.4683 19.1692 25.7274 18.9991 25.8146 18.9749C25.8828 18.993 25.8958 19.1174 25.8889 19.2262C25.8837 19.3229 25.8604 19.4421 25.8215 19.5923ZM20.5479 22.6674C20.3415 23.2649 19.7647 24.3945 19.174 24.201C18.946 24.1268 18.7638 23.8159 18.6982 23.5974C18.6032 23.2788 18.579 22.8574 18.6118 22.6311C18.6253 22.6561 18.6452 22.7313 18.6673 22.8151L18.6673 22.8151C18.6934 22.9139 18.7226 23.0246 18.7483 23.0793C18.8528 23.3012 19.0548 23.6933 19.3838 23.6233C19.7129 23.5534 19.8856 23.4299 20.0859 23.1112C20.1723 22.9739 20.5479 22.3064 20.7102 21.9964C20.7534 21.9144 20.8838 21.7546 21.1083 21.8056C21.1778 21.8521 21.207 22.038 21.231 22.191V22.191C21.2386 22.2395 21.2457 22.2847 21.2534 22.3211C21.294 22.5171 21.3337 22.6717 21.4615 22.8418C21.7318 23.2019 22.1886 23.29 22.5962 23.1665C22.617 23.1602 22.6373 23.1534 22.6581 23.1466L22.6582 23.1466L22.6895 23.1363L22.686 23.1233C22.5953 22.7503 22.408 22.2857 22.0902 21.6225L22.3156 20.8937C22.4192 20.9213 22.7111 21.4861 22.7266 21.5344C22.9261 22.0154 23.0677 22.4187 23.1748 22.8634C23.2767 22.7796 23.3794 22.6752 23.4805 22.5448C23.3863 22.2641 23.2102 21.9593 23.0556 21.9023L23.2102 21.2581C23.4736 21.5137 23.7369 21.974 23.7439 22.2244C23.7508 22.4549 23.7292 22.5767 23.6523 22.8021C23.6005 22.9549 23.4425 23.1846 23.2724 23.3375L23.2862 23.4187C23.3324 23.6914 23.3613 24.0524 23.3908 24.4208C23.4114 24.6786 23.4324 24.9402 23.4597 25.1777C23.5703 26.1379 24.2067 27.1267 25.1013 27.5118L25.1203 27.2787C25.1583 26.8132 25.2542 26.5429 25.5892 26.2277C25.9325 25.905 26.3552 25.6988 26.7888 25.4873L26.7889 25.4872C26.9214 25.4225 27.055 25.3574 27.1876 25.2882C26.759 25.2712 26.3243 25.2324 25.8866 25.1934C25.6595 25.1731 25.4316 25.1528 25.2032 25.1354C25.0164 25.121 24.8288 25.1109 24.6417 25.1009L24.6417 25.1009C24.3246 25.084 24.0092 25.0672 23.7024 25.0292C23.7266 24.8098 23.9053 24.1639 24.0064 24.0767C24.9079 22.9964 25.7766 22.4066 26.6661 21.828C26.6293 21.7371 26.5893 21.6566 26.5505 21.5786C26.4891 21.4552 26.4308 21.3379 26.3932 21.195C26.3414 20.9999 26.3198 20.8142 26.3129 20.6268C26.3076 20.484 26.3121 20.3399 26.3168 20.19V20.19L26.3189 20.1199C26.3302 19.7909 26.6143 19.5889 26.8759 19.6493C27.1989 19.7244 27.9078 20.0319 28.3215 20.4118C28.4763 20.5534 28.4613 20.9846 28.4537 21.2026L28.4527 21.2296C28.4424 21.5456 28.3163 21.8151 28.0218 21.9973C27.9709 22.0289 27.9159 22.0638 27.8571 22.101C27.6814 22.2124 27.4719 22.3452 27.2377 22.4765C27.2702 22.5541 27.3152 22.7108 27.3499 22.8319C27.3678 22.8941 27.3829 22.947 27.3923 22.9748C27.4208 23.0586 27.4165 23.2831 27.3854 23.3478C27.3573 23.3277 27.3129 23.1942 27.2792 23.0929L27.2791 23.0929C27.2651 23.0508 27.253 23.0143 27.2446 22.9938C27.2118 22.9135 27.122 22.7296 27.0417 22.5828C26.8586 22.6786 24.8863 23.7718 24.8863 24.1224C24.8863 24.1648 25.9731 24.2252 26.9256 24.2782L26.9258 24.2782C27.3528 24.302 27.7528 24.3242 28.0158 24.3426C28.6099 24.3841 29.204 24.423 29.7981 24.4437C29.7705 24.5482 29.4691 25.3064 29.3499 25.3426C28.5849 25.5741 27.7982 25.8512 27.078 26.1949C27.0374 26.2143 26.9871 26.2376 26.9295 26.2643L26.9294 26.2643C26.4201 26.5003 25.3405 27.0004 25.3405 27.3953C25.3405 27.7588 26.654 28.1837 26.7731 28.1552C26.736 28.3607 26.6194 28.8253 26.5538 29.061C25.7887 28.9971 24.901 28.4868 24.3423 28.0006C23.4762 27.2485 23.2508 26.4989 23.0807 25.4169C23.0501 25.4649 22.9882 25.5777 22.9064 25.7267L22.9064 25.7267C22.7734 25.969 22.5877 26.3072 22.3985 26.6189C21.8967 27.4453 21.3156 28.0075 20.6368 27.9997C20.256 27.9954 19.826 27.6966 19.6386 27.4678C19.2077 26.9402 19.3243 25.7321 19.4218 25.5248C19.4534 25.5612 19.4728 25.7301 19.4929 25.9045L19.497 25.9402C19.5367 26.2839 19.6964 26.6094 19.9149 26.8003C20.1809 27.0308 20.5384 27.1405 20.9417 27.0732C21.4494 26.9885 21.8104 26.701 21.9684 26.5222C22.3639 26.0758 22.7784 25.581 22.8751 25.2969C22.9649 25.062 22.9779 24.7546 22.9546 24.5154C22.9244 24.2028 22.8691 23.9091 22.8017 23.6112C22.0418 23.9161 21.4563 23.5637 21.3087 23.2649C21.1984 23.0429 21.16 22.8708 21.1132 22.6606L21.1132 22.6606C21.1043 22.6207 21.0951 22.5794 21.085 22.5361C20.9279 22.3453 20.636 22.4135 20.5479 22.6674ZM26.622 21.1631C26.6307 21.1881 26.7576 21.5146 26.8638 21.7071C26.9346 21.7071 27.2023 21.5508 27.4648 21.3928C27.7274 21.2356 27.9838 21.0767 28.0305 21.0094C27.7075 20.7244 27.1937 20.613 26.7706 20.6217C26.5814 20.6251 26.5288 20.6778 26.5106 20.7823C26.5034 20.8254 26.5539 20.969 26.6086 21.1249L26.6086 21.1249L26.622 21.1631ZM24.1532 22.8764L26.0219 21.4368L25.9174 21.8885L23.9969 23.3487L24.1532 22.8764ZM21.8069 24.6907C21.8043 24.6777 21.1403 24.4558 21.0626 24.4644L21.079 24.4704L20.832 25.1457L21.5859 25.3893C21.5807 25.3401 21.6505 25.1507 21.7131 24.981L21.7131 24.981C21.7648 24.8406 21.8116 24.7137 21.8069 24.6907ZM22.6133 24.2967L22.6133 24.2967L22.6132 24.2967C22.425 24.2299 22.1507 24.1326 22.1023 24.1423C22.0418 24.1544 21.8415 24.7546 21.8501 24.8314C21.8721 24.829 22.0063 24.8709 22.1159 24.905L22.1159 24.905C22.1655 24.9205 22.2101 24.9344 22.237 24.9419C22.2596 24.9482 22.2894 24.958 22.3219 24.9688L22.3219 24.9688C22.4199 25.0012 22.5429 25.0419 22.572 25.0179C22.5971 24.9402 22.6454 24.7969 22.6947 24.6639C22.6992 24.6513 22.7063 24.6335 22.7146 24.6127L22.7146 24.6127C22.7501 24.5239 22.8072 24.3806 22.7827 24.3547C22.758 24.348 22.6934 24.3251 22.6133 24.2967ZM21.2094 28.6793C21.2018 28.7471 21.1936 28.8149 21.1853 28.8828C21.1747 28.9696 21.1642 29.0567 21.155 29.1439C21.4022 28.964 21.6425 28.784 21.8816 28.6049C22.317 28.2786 22.7482 27.9556 23.2093 27.6422L23.249 27.1707C22.7485 27.5292 22.2548 27.8985 21.7841 28.2506L21.7841 28.2506C21.5881 28.3972 21.3962 28.5408 21.2094 28.6793ZM22.6439 29.7105H22.6439C22.5243 29.7255 22.415 29.7392 22.3287 29.7593C22.4548 29.7982 22.8339 29.8431 23.0628 29.8137C23.1906 29.7973 23.3684 29.7533 23.4747 29.6894C23.6196 29.6023 23.8057 29.4397 23.9068 29.3513L23.9068 29.3513L23.9069 29.3513C23.9491 29.3144 23.9765 29.2904 23.9798 29.2904C24.1318 29.4182 24.5014 29.6738 24.6465 29.4053C24.6973 29.3121 24.6921 29.2686 24.6861 29.2187C24.684 29.2015 24.6819 29.1836 24.6819 29.1626C24.6819 29.1022 24.6551 28.9778 24.6422 28.9321C24.6171 28.8448 24.5826 28.774 24.4919 28.7395C24.3702 28.6929 24.3252 28.6894 24.1888 28.831C24.1295 28.8923 24.0783 28.9605 24.0278 29.0278C24.0121 29.0487 23.9965 29.0696 23.9807 29.0901C23.8477 29.2619 23.6163 29.4113 23.4686 29.4994C23.2381 29.6359 22.9145 29.6765 22.6439 29.7105Z" fill="#40A083"/>
<path fill-rule="evenodd" clip-rule="evenodd" d="M12.7861 26.9726L12.8086 27.0805L13.2481 27.3629L13.3371 27.4553L13.4796 27.4225L13.483 27.4009C13.3837 27.3629 13.3181 27.3309 13.1937 27.2498C12.9044 27.0607 12.8086 26.976 12.7861 26.9726ZM20.6547 32.4034L20.7333 32.4802L21.2549 32.4664L21.3801 32.4923L21.4802 32.3852L21.4707 32.3654C21.3671 32.3896 21.2954 32.3999 21.1461 32.4034C20.8015 32.4094 20.6754 32.393 20.6547 32.4034ZM22.3731 32.9664L22.4785 32.9983L22.9353 32.7462L23.0588 32.7117L23.0985 32.5709L23.0812 32.5571C23.0001 32.6262 22.9414 32.6685 22.8101 32.7401C22.5061 32.9051 22.3861 32.9483 22.3731 32.9664ZM22.3852 33.165C22.3982 33.1469 22.5182 33.1037 22.8222 32.9379C22.9526 32.8671 23.0122 32.8248 23.0933 32.7548L23.1106 32.7686L23.0709 32.9094L22.9474 32.9439L22.4906 33.1961L22.3852 33.165ZM23.7298 32.9975L23.8351 33.0294L24.2919 32.7773L24.4154 32.7427L24.4551 32.602L24.4379 32.5882C24.3567 32.6572 24.298 32.6996 24.1667 32.7712C23.8628 32.9353 23.7427 32.9793 23.7298 32.9975ZM24.5804 33.0467L24.69 33.0528L25.1762 32.6391L25.2876 32.5769L25.2928 32.4301L25.2729 32.4215C25.2099 32.5079 25.0959 32.6037 24.9854 32.7039C24.728 32.9344 24.589 33.0251 24.5804 33.0467ZM27.3178 32.2592L27.4266 32.2453L27.8281 31.7497L27.9266 31.6676L27.905 31.5226L27.8834 31.5174C27.8376 31.6132 27.7435 31.7289 27.6528 31.8472C27.4421 32.1219 27.3221 32.2367 27.3178 32.2592ZM28.3229 31.7471L28.43 31.722L28.7184 31.2471L28.8074 31.1556L28.7711 31.0139L28.7487 31.0113C28.7133 31.1115 28.6312 31.2367 28.5535 31.3637C28.3739 31.6573 28.3255 31.7246 28.3229 31.7471ZM31.7883 28.4173L31.8712 28.3447L31.9299 27.7092L31.9662 27.5865L31.8678 27.4777L31.847 27.4855C31.8626 27.5909 31.8479 27.7394 31.8384 27.8879C31.8159 28.2333 31.7797 28.3957 31.7883 28.4173ZM32.366 27.3145L32.4489 27.242L32.5076 26.6064L32.5439 26.4838L32.4455 26.375L32.4247 26.3828C32.4403 26.4881 32.4256 26.6367 32.4161 26.7852C32.3945 27.1315 32.3582 27.2938 32.366 27.3145ZM30.2875 30.4837L30.392 30.4431L30.6718 29.7402L30.7426 29.602L30.7918 29.5166L30.7193 29.3438L30.6968 29.3447C30.6389 29.6478 30.2227 30.5122 30.2875 30.4837ZM16.9363 28.0226L16.8327 27.9907C16.7541 28.2014 16.5227 28.349 16.3836 28.3793C16.4873 28.4216 16.6375 28.387 16.7636 28.2808C16.8396 28.2169 16.9138 28.0995 16.9363 28.0226ZM24.355 33.8558C24.2859 33.8697 24.228 33.8498 24.2056 33.8282C24.1771 33.8006 24.1702 33.7755 24.1477 33.7099C24.1158 33.7324 24.1166 33.8178 24.146 33.8705C24.1339 33.8973 24.0441 33.9137 23.9923 33.8783C23.9137 33.8239 23.9223 33.7349 23.9206 33.7056C23.8964 33.728 23.8766 33.7652 23.8792 33.8213C23.8878 33.988 23.969 34.0035 24.007 34.019C24.0743 34.045 24.1702 34.0337 24.2013 33.9707C24.2557 34.0035 24.3014 34.0096 24.3662 33.988C24.3843 33.9819 24.4094 33.912 24.4128 33.8498C24.4163 33.7893 24.4223 33.6728 24.3152 33.6175C24.2893 33.6831 24.2807 33.6581 24.2902 33.7125C24.2962 33.7306 24.3593 33.7937 24.355 33.8558ZM27.8929 32.3757C27.873 32.3161 27.791 32.2825 27.778 32.2678C27.7487 32.2212 27.7659 32.241 27.7651 32.1702C27.886 32.1806 27.9248 32.2902 27.9456 32.3472C27.9663 32.406 27.9706 32.4802 27.9559 32.4932C27.9041 32.5381 27.8601 32.5502 27.797 32.5407C27.7927 32.6106 27.7081 32.6581 27.6364 32.6607C27.5958 32.6616 27.5155 32.678 27.4421 32.5277C27.4179 32.4768 27.4214 32.4353 27.4352 32.4051C27.4482 32.431 27.4741 32.5165 27.5673 32.5364C27.6286 32.5484 27.7046 32.4992 27.7064 32.4699C27.6589 32.4327 27.6252 32.3533 27.6459 32.3205C27.6917 32.3723 27.7081 32.393 27.7444 32.4068C27.7737 32.4189 27.8342 32.4146 27.8929 32.3757ZM16.2878 28.723C16.3456 28.6996 16.375 28.6159 16.388 28.6021C16.4329 28.5701 16.4139 28.5883 16.4847 28.5831C16.4821 28.7048 16.375 28.7497 16.3189 28.7739C16.261 28.7981 16.1876 28.8067 16.1738 28.7929C16.1263 28.7446 16.1108 28.7005 16.1159 28.6375C16.046 28.6375 15.9933 28.5563 15.9864 28.4846C15.983 28.444 15.9614 28.3646 16.1073 28.2826C16.1565 28.2549 16.198 28.2558 16.2299 28.2679C16.2049 28.2826 16.1211 28.3136 16.1064 28.4086C16.0978 28.4708 16.1522 28.5433 16.1816 28.5433C16.2161 28.4933 16.293 28.4553 16.3266 28.4743C16.2783 28.5226 16.2584 28.5408 16.2463 28.5779C16.2368 28.6064 16.2446 28.6668 16.2878 28.723ZM19.0934 31.2834C19.1314 31.26 19.1651 31.2393 19.2083 31.2454C19.2722 31.2531 19.3793 31.2963 19.4337 31.3412C19.4069 31.4146 19.3749 31.4189 19.3093 31.4379C19.2402 31.4578 19.1487 31.4552 19.1021 31.4647C19.128 31.4846 19.2445 31.4958 19.3309 31.4664C19.4172 31.4276 19.4371 31.4112 19.4734 31.3395L19.5312 31.2255C19.4328 31.1875 19.3594 31.1547 19.286 31.153C19.2264 31.1512 19.0917 31.254 19.0934 31.2834ZM31.2624 28.7212C31.2624 28.6763 31.2624 28.6375 31.2901 28.6029C31.3306 28.5528 31.423 28.4838 31.4895 28.4613C31.5379 28.5226 31.5033 28.5494 31.4852 28.615C31.4662 28.6841 31.4377 28.7627 31.4222 28.8076C31.4524 28.7955 31.493 28.7109 31.5336 28.6176C31.5586 28.5606 31.5517 28.4941 31.5094 28.425L31.442 28.3162C31.3591 28.3801 31.2909 28.4259 31.2521 28.4872C31.2201 28.539 31.2374 28.7074 31.2624 28.7212ZM17.8586 30.0537C17.7748 30.0511 17.5831 30.0925 17.5796 30.1988C17.5779 30.2367 17.5935 30.2532 17.6107 30.2955C17.4536 30.2946 17.2437 30.2627 17.1418 30.1823C17.1133 30.1659 17.0676 30.1426 17.0866 30.2031C17.1479 30.2523 17.2161 30.2877 17.3059 30.3145C17.4017 30.343 17.5201 30.3611 17.641 30.3421L17.6617 30.3913L17.8508 30.349C17.8447 30.3335 17.8352 30.3231 17.8361 30.3093C17.9527 30.2756 18.0261 30.2782 18.0485 30.1754C18.071 30.0744 17.9311 30.0563 17.8586 30.0537ZM17.862 30.2255C17.8612 30.2506 17.8422 30.2696 17.8145 30.2704C17.767 30.2203 17.7316 30.1219 17.7912 30.1038C17.8491 30.0874 17.8637 30.1962 17.862 30.2255ZM20.2324 31.735C20.1573 31.7713 20.007 31.8982 20.0537 31.9932C20.0701 32.0277 20.0908 32.0346 20.1262 32.064C19.9872 32.1365 19.786 32.2065 19.6582 32.1832C19.6254 32.1823 19.5736 32.1832 19.6193 32.2281C19.6962 32.2427 19.773 32.2427 19.8654 32.2246C19.963 32.2056 20.077 32.1659 20.1746 32.0925L20.216 32.1262L20.3637 32.0001C20.3516 31.9889 20.3378 31.9837 20.3326 31.9716C20.4198 31.8878 20.4863 31.8559 20.4578 31.754C20.4302 31.6547 20.2972 31.7039 20.2324 31.735ZM20.3153 31.8861C20.3257 31.9086 20.3188 31.9336 20.2946 31.9474C20.229 31.925 20.1521 31.8542 20.1962 31.811C20.2393 31.7695 20.3024 31.8585 20.3153 31.8861ZM25.6339 32.418C25.6745 32.3576 25.7643 32.2488 25.8385 32.3205C25.9145 32.3939 25.8731 32.4543 25.8394 32.5709C25.8506 32.5795 25.8644 32.5769 25.8808 32.5804L25.8169 32.7635L25.7634 32.7548C25.7159 32.868 25.6373 32.9586 25.5622 33.0251C25.4914 33.0873 25.4249 33.1262 25.3515 33.1521C25.2893 33.1365 25.3342 33.1097 25.3627 33.0942C25.4845 33.0502 25.6235 32.8887 25.7064 32.7557C25.6606 32.7479 25.639 32.7522 25.608 32.7315C25.5216 32.6728 25.5881 32.488 25.6339 32.418ZM25.7824 32.5061C25.7574 32.4889 25.658 32.444 25.6416 32.5018C25.6252 32.5614 25.7271 32.5838 25.7954 32.57C25.8092 32.5459 25.8031 32.5199 25.7824 32.5061ZM29.1148 30.8343C29.1243 30.9172 29.1934 31.1011 29.2987 31.0891C29.3367 31.0847 29.3505 31.0683 29.3894 31.0442C29.4119 31.1996 29.4101 31.412 29.3454 31.5251C29.3333 31.5554 29.3169 31.6046 29.3739 31.577C29.4136 31.5096 29.4386 31.4371 29.4524 31.3438C29.4671 31.2454 29.468 31.1253 29.4317 31.0079L29.4775 30.9803L29.4084 30.7989C29.3937 30.8067 29.3851 30.8179 29.3704 30.8188C29.3203 30.7082 29.3125 30.6348 29.2072 30.6279C29.1053 30.621 29.107 30.7626 29.1148 30.8343ZM29.2849 30.8058C29.31 30.8032 29.3315 30.8188 29.3359 30.8464C29.2927 30.9008 29.2003 30.95 29.1744 30.8939C29.1493 30.8386 29.2547 30.8093 29.2849 30.8058ZM31.2192 29.0753C31.3332 29.2566 31.3375 29.3179 31.4369 29.3957L31.7641 29.3041C31.6856 29.1867 31.6001 29.1038 31.5552 28.9656L31.2192 29.0753ZM27.8506 32.6253C27.8437 32.7125 27.7754 32.9603 27.9015 33.013C28.1986 33.1365 28.1364 33.0709 28.1364 32.8032V32.7445C28.1364 32.6624 27.9153 32.602 27.8506 32.6253ZM31.7443 29.1452L32.0621 29.0002L32.069 29.0166C32.0871 29.0951 32.2555 29.3154 32.2555 29.3387C32.2555 29.3784 32.1398 29.3879 32.0828 29.4198C31.9705 29.4518 31.9507 29.4622 31.917 29.4397C31.9602 29.5295 32.0094 29.615 32.0491 29.7065C31.9705 29.7609 31.8617 29.8248 31.7745 29.8033C31.6795 29.7834 31.5949 29.6271 31.5508 29.5105C31.645 29.4544 31.7028 29.4077 31.7969 29.3732C31.828 29.362 31.8514 29.3905 31.8997 29.4224L31.7443 29.1452Z" fill="#40A083"/>
<path fill-rule="evenodd" clip-rule="evenodd" d="M24.9355 34.4011L24.989 34.3614L25.0184 34.4331C25.0857 34.5963 25.2265 34.6852 25.3992 34.7008C25.5443 34.7137 25.7153 34.6731 25.8362 34.5911C25.8906 34.554 25.9631 34.5151 26.0296 34.4745C25.8819 34.4598 25.7343 34.4296 25.5901 34.4054C25.5149 34.3925 25.4648 34.4046 25.4001 34.4426L25.2973 34.5013L25.3094 34.383C25.3319 34.1688 25.3172 34.0972 25.4415 33.908C25.5477 33.7466 25.7792 33.4797 25.9476 33.3623C25.9467 33.3157 25.9415 33.2664 25.9406 33.2198C25.9389 33.0756 25.9182 32.864 26.0495 32.7673C26.166 32.6818 26.2748 32.7785 26.3767 32.8295C26.4545 32.8683 26.5788 32.9426 26.6384 33.0031C26.7334 33.0998 26.679 33.3433 26.685 33.4711L26.6876 33.522L26.6384 33.5333C26.5304 33.5583 26.3621 33.6403 26.261 33.6913C26.2101 33.7172 26.0313 33.8407 25.9363 33.9253C26.198 33.965 26.4631 34.0022 26.7273 34.0065C26.9009 34.0091 27.0745 33.9858 27.2472 33.9728L27.3456 33.965L27.3076 34.0566C27.2299 34.2431 27.2299 34.4408 27.0071 34.5332C26.8327 34.6058 26.6418 34.636 26.4657 34.7051C26.2178 34.8018 25.9337 34.9693 25.7135 35.1205C25.4778 35.2819 25.2317 35.2517 25.0218 35.0971C24.9441 35.2008 24.7585 35.2517 24.6522 35.2578C24.5193 35.2655 24.3466 35.1982 24.2749 35.0773C24.2205 35.1412 24.1609 35.2258 24.1004 35.2785C23.8656 35.4805 23.3164 35.4451 23.3172 35.054C23.3181 34.959 23.3112 34.8597 23.2999 34.7621C23.1013 35.0781 22.7982 35.3355 22.3924 35.2042C22.1817 35.136 22.0996 34.9875 22.0996 34.7733C22.0996 34.6671 22.1644 34.3977 22.243 34.3269L22.3656 34.2163L22.344 34.3795C22.3319 34.4711 22.3103 34.6403 22.4114 34.6904C22.5478 34.7578 22.8613 34.6913 22.9839 34.6136C23.0901 34.5462 23.1531 34.4875 23.2335 34.4046C23.1661 34.1291 23.0927 33.8588 23.0331 33.5808L23.0297 33.5661L23.1989 32.94L23.2516 33.1861C23.3094 33.4555 23.3708 33.7232 23.4321 33.9927C23.4778 34.1921 23.5357 34.4711 23.5478 34.674C23.5564 34.8294 23.6108 34.8752 23.7619 34.8769C23.9087 34.8787 24.1479 34.7992 24.2343 34.6766C24.3172 34.5583 24.4571 34.3312 24.5728 34.2543L24.5806 34.2491L24.5892 34.2465C24.7455 34.1982 24.8353 34.307 24.9355 34.4011ZM32.7194 29.6525L32.3852 29.5014L32.2255 29.1223L32.2782 29.0973C32.3352 29.0705 32.583 29.1897 32.6478 29.2182C32.7531 29.2648 32.8921 29.3684 32.9569 29.4643C33.0044 29.5342 33.1365 29.7363 33.1374 29.8123C33.1642 30.0601 32.9094 30.213 32.6883 30.2078C32.6659 30.2069 32.6434 30.2043 32.6227 30.1983C32.6607 30.3434 32.6624 30.4763 32.5087 30.6015C32.4457 30.6534 32.3706 30.6767 32.2894 30.668C32.2583 30.6646 32.2272 30.6577 32.197 30.6465C32.1124 30.6171 32.0165 30.5359 31.9604 30.5169C31.9051 30.5178 31.8533 30.5376 31.8127 30.5748C31.7687 30.6154 31.716 30.6888 31.741 30.7518C31.8274 30.9677 32.0269 31.0851 32.2548 31.0894C32.3127 31.0903 32.3766 31.0117 32.4129 30.9729L32.4759 30.9055L32.6987 31.4176L32.6693 31.447C32.5709 31.5454 32.4103 31.5929 32.2756 31.6128C32.0649 31.6447 31.7998 31.5773 31.6003 31.4685C31.6037 31.4953 31.6072 31.5212 31.6072 31.5376C31.6089 31.6844 31.564 31.8304 31.5044 31.9634C31.4146 32.162 31.2929 32.3459 31.0502 32.3459C30.9708 32.3459 30.906 32.3295 30.8473 32.3027C30.8982 32.4297 30.8585 32.6732 30.8335 32.7949C30.7739 33.0825 30.6875 33.3623 30.3387 33.3623C30.1202 33.3623 29.8024 32.8778 29.7869 32.6792L29.7713 32.4832L29.9492 32.7051L29.9527 32.7164C29.9708 32.7759 30.0476 32.8433 30.1003 32.8735C30.2385 32.9521 30.3404 32.8934 30.4086 32.7561C30.5105 32.5488 30.5494 32.3468 30.5494 32.1162C30.5494 32.0471 30.5537 32.0471 30.4967 32.0065C30.3266 31.8856 29.9768 31.5074 29.7575 31.5506L29.7074 31.5601L29.5546 31.1654L29.5951 31.1387C29.7212 31.054 29.9155 31.1223 30.02 31.2129C30.1435 31.32 30.7177 31.8131 30.8214 31.8433C30.9397 31.8753 31.0433 31.8373 31.1219 31.7457C31.229 31.6205 31.3386 31.2 31.3145 31.0411C31.3006 30.9539 31.254 30.8831 31.2238 30.8019L31.2031 30.7475L31.2566 30.725C31.3904 30.6689 31.4241 30.934 31.526 30.9936C31.5597 31.0143 31.6391 31.054 31.7074 31.0765C31.6676 31.0143 31.6167 30.9435 31.5934 30.8926C31.5502 30.7984 31.5087 30.7078 31.4708 30.611C31.3611 30.3295 31.5148 30.0826 31.7972 30.0074L31.8343 29.9979L31.9371 30.1197C31.9854 30.1776 32.1383 30.225 32.1979 30.1775C32.2592 30.1292 32.349 30.0472 32.3006 29.9608C32.2566 29.8822 32.2194 29.8028 32.1685 29.7276L32.1288 29.6689L32.1935 29.6387C32.292 29.5929 32.3947 29.6974 32.4871 29.7225C32.5485 29.7406 32.7143 29.7371 32.7194 29.6525ZM18.4633 32.7146C18.3242 32.6317 18.1204 32.5385 18.1204 32.3554C18.1204 32.212 18.2923 32.0566 18.3942 31.9651C18.4995 31.8701 18.7068 31.7224 18.8553 31.7535C18.9451 31.7725 18.9684 31.8856 18.971 31.9634C18.9771 32.1197 18.9581 32.2431 18.9019 32.383C18.9443 32.4089 18.9883 32.434 19.0341 32.4547C19.1558 32.5117 19.2586 32.5782 19.3993 32.554L19.8501 32.3519L19.7802 32.5005C19.7076 32.6533 19.6023 32.7664 19.781 32.8761C19.8052 32.8865 19.9019 32.9046 19.9287 32.9046C20.0055 32.9046 20.1126 32.7587 20.1834 32.7112L20.3112 32.6257L20.2767 32.7751C20.2629 32.8338 20.2447 32.8865 20.2447 32.9478C20.2447 33.022 20.2836 33.0661 20.3389 33.0998C20.3656 33.0255 20.3855 32.9443 20.395 32.8701L20.3976 32.8476L20.414 32.8329C20.5012 32.7535 20.5366 32.7587 20.6592 32.6766L20.7914 32.5877L20.6282 33.2198L20.6204 33.2302C20.5772 33.2837 20.528 33.3329 20.4831 33.3847C20.4175 33.4616 20.2845 33.5652 20.1783 33.5402C20.0245 33.503 19.8864 33.4081 19.8467 33.2578C19.8017 33.2802 19.7629 33.2975 19.6895 33.2949C19.5496 33.2897 19.2672 33.2034 19.2759 33.0307C19.2759 32.9728 19.2897 32.9219 19.3035 32.8718C19.2249 32.902 19.1403 32.9141 19.0531 32.9141C18.952 32.9141 18.7785 32.858 18.6705 32.8062C18.522 32.9271 18.1783 33.187 18.0289 33.2094C17.8242 33.2423 17.5825 33.2595 17.383 33.193C17.0643 33.0868 16.9158 32.826 16.9832 32.4979C17.0263 32.2889 17.2966 31.9469 17.5246 31.9539L17.7612 31.9616L17.5505 32.0687C17.4348 32.1283 17.3631 32.3321 17.3631 32.4556C17.3631 32.6438 17.5609 32.7509 17.7154 32.8036C17.8666 32.8545 18.0082 32.8571 18.1653 32.8528C18.25 32.8519 18.4322 32.8157 18.4633 32.7146ZM33.7229 27.0654C33.7401 27.2139 33.6711 27.435 33.5821 27.5109L33.5769 27.5153L33.5709 27.5187C33.4698 27.574 33.38 27.5766 33.2764 27.5239C33.1003 27.4341 32.8559 27.1983 32.7453 27.0351L32.741 27.0282L32.7384 27.0205C32.6754 26.8374 32.83 26.7597 32.9828 26.7329C33.0959 26.7139 33.2013 26.713 33.3127 26.7165L33.368 26.5947L33.5035 26.7174L33.6115 26.7251C33.7963 26.726 34.3317 27.1094 34.418 27.2735C34.6011 27.6232 34.6892 28.3313 34.5519 28.7018C34.4595 28.9513 34.1417 29.0126 33.9077 28.9738C33.6434 28.9297 33.1961 28.7406 33.0597 28.4919L32.9828 28.3503L33.1339 28.4056C33.4206 28.5101 33.5553 28.7173 33.9077 28.6249C34.1071 28.5273 34.1598 28.0152 34.1754 27.8253C34.1909 27.6336 34.1391 27.1448 33.918 27.0757C33.8593 27.0576 33.7885 27.0602 33.7229 27.0654ZM28.8016 33.4815C28.8421 33.5229 28.7472 33.6352 28.723 33.668C28.6107 33.8182 28.4933 33.9417 28.324 34.0272C28.1582 34.111 27.8741 34.1447 27.7334 33.9953C27.6565 33.9141 27.5779 33.7578 27.5442 33.6516C27.5192 33.5721 27.4717 33.3087 27.4398 33.2569L27.375 33.149L27.3309 33.2673C27.2947 33.3649 27.3862 33.8882 27.4173 34.0117C27.5149 34.3977 27.7653 34.6714 28.1893 34.6118C28.4846 34.5704 28.7739 34.3018 28.9173 34.0505C28.963 33.9702 29.0019 33.7491 29.0002 33.655C28.9976 33.522 29.0036 33.3925 28.9855 33.2595C28.9769 33.1956 28.9613 33.1101 28.9242 33.0566C28.8456 32.9426 28.6211 32.6887 28.489 32.6533L28.413 32.6326V32.8131C28.4121 33.2043 28.5451 33.231 28.8016 33.4815ZM21.401 34.8925L21.433 34.9503L21.4882 34.9132C21.8 34.7051 21.8734 34.3433 21.9649 34.0073C22.0495 33.6947 22.0824 33.2958 22.1152 32.9702L22.1817 32.4901L22.072 32.5583C21.9787 32.6162 21.9217 32.6991 21.8406 32.7664C21.73 32.8588 21.7343 32.9374 21.724 33.0652C21.7102 33.2397 21.6946 33.4262 21.6653 33.5989C21.6135 33.9262 21.5841 34.2431 21.4831 34.5609C21.4537 34.6515 21.3509 34.8027 21.401 34.8925ZM20.6169 34.351C20.8138 34.2776 20.8328 34.2129 20.9598 34.079C21.0237 34.0117 21.1903 33.8096 21.2266 33.7327C21.2741 33.6326 21.2862 33.339 21.3268 33.2915L21.3501 33.2647L21.3009 33.1257L21.243 33.1464C21.1584 33.1775 21.0763 33.1965 21.0193 33.2751C20.9649 33.3502 20.9468 33.5048 20.9321 33.5954C20.8864 33.8277 21.0029 33.8588 20.7663 33.9469C20.6264 33.9987 20.4563 34.0937 20.3164 34.1257C19.984 34.2008 19.5107 34.263 19.2102 34.0583L18.9917 33.9098L19.003 34.0367C19.0306 34.3554 19.6688 34.4771 19.9235 34.4737C20.2033 34.4702 20.3449 34.4521 20.6169 34.351ZM28.6323 31.8787C28.6323 31.9029 28.634 31.9236 28.6401 31.9452C28.6599 32.0117 28.8637 32.2725 28.9086 32.3424C29.1703 32.7431 29.4311 33.149 29.7022 33.5428L29.8084 33.6965L29.8214 33.1533L29.8128 33.1386C29.6409 32.8416 29.4527 32.5678 29.2748 32.2768C29.1159 32.016 28.9199 31.7725 28.761 31.5109L28.6582 31.3407L28.6323 31.8787ZM33.665 29.0195C33.4034 28.8572 33.1382 28.6897 32.8697 28.5325C32.5925 28.3702 32.3282 28.1931 32.0692 28.0032L31.9707 27.9306L31.9716 28.0524C31.9725 28.1439 31.9897 28.2285 32.0329 28.3097C32.045 28.333 32.0597 28.3563 32.0761 28.3771C32.1728 28.4997 32.6616 28.7579 32.8023 28.8442C33.1348 29.048 33.4655 29.2536 33.798 29.4591L33.9388 29.5463L33.8878 29.3891C33.842 29.2441 33.8127 29.0964 33.665 29.0195ZM26.2774 33.263C26.1419 33.1922 26.0503 33.1645 26.0538 33.3657L26.2774 33.263ZM33.0959 27.1845C33.1434 27.2372 33.2868 27.2044 33.3153 27.1077C33.3248 27.0757 33.3446 27.0317 33.3291 27.0317C33.0804 27.0308 33.0484 27.1552 33.0959 27.1845ZM24.5737 34.7673C24.7231 34.8847 24.8016 34.7655 24.8025 34.7111C24.7412 34.6179 24.597 34.5876 24.5633 34.5894C24.5365 34.6291 24.5262 34.7301 24.5737 34.7673ZM18.4866 32.1127C18.4736 32.1853 18.5695 32.2224 18.6204 32.2483C18.6981 32.0765 18.4866 32.0471 18.4866 32.1127ZM16.7068 31.8545C16.3364 31.8545 16.0454 31.5445 16.0125 31.1853C16.003 31.0782 16.1144 30.9496 16.2137 30.9236L16.5125 30.8442L16.206 30.8045C15.8511 30.7587 15.4918 31.0756 15.5272 31.4297C15.5695 31.8528 16.0004 32.092 16.3899 32.1171C16.5574 32.1274 16.7837 32.0108 16.9434 31.9539C17.1524 31.8796 17.3493 31.7026 17.5047 31.5471C17.6187 31.4331 17.7249 31.3131 17.8389 31.2C17.9184 31.1205 17.9624 31.0696 18.0764 31.0402C18.2249 31.0014 18.3268 30.9185 18.3225 30.757C18.3216 30.7285 18.2983 30.5938 18.3035 30.58C18.3536 30.472 18.395 30.5178 18.4512 30.4435L18.5315 30.3356L18.3976 30.3468C18.2672 30.358 18.0142 30.4168 17.9166 30.5022C17.8139 30.592 17.8078 30.6344 17.7923 30.7596C17.7837 30.8218 17.5324 31.0497 17.4788 31.111C17.256 31.3701 17.0643 31.567 16.8165 31.8027C16.7889 31.8278 16.7448 31.8545 16.7068 31.8545ZM14.5057 29.2043C14.434 29.1828 14.3666 29.1508 14.295 29.1085C14.1067 28.9971 13.934 28.7717 13.8554 28.5696C13.7457 28.2881 13.5765 27.9773 13.6758 27.6707C13.7155 27.5472 13.8062 27.4859 13.909 27.4436C13.643 27.3745 13.3373 27.2536 13.3753 26.9514C13.4219 26.5766 14.0955 26.6897 14.3148 26.8529C14.4279 26.9376 14.5108 27.023 14.5989 27.1275L14.75 27.0964L15.0272 27.2044L15.0376 27.226C15.1231 27.4039 14.6792 27.4678 14.5722 27.5153C14.3537 27.6111 14.1602 27.5973 14.1179 27.865C14.0773 28.1215 14.2406 28.4133 14.3597 28.6301C14.4608 28.8132 14.6102 28.9375 14.7708 29.0644C14.8183 29.0403 14.8692 29.0334 14.9754 28.9833C15.0376 28.9539 15.0955 28.9176 15.1594 28.8883C15.3752 28.7898 15.3476 28.7536 15.6015 28.7855L15.9512 28.827L15.7932 28.9185C15.693 28.9764 15.5808 29.0057 15.4763 29.0662C15.3165 29.1586 15.1464 29.2328 14.9832 29.3201C14.9098 29.3598 14.8234 29.4496 14.8243 29.5385C14.8252 29.5912 14.8399 29.6819 14.8813 29.7251C14.9849 29.7121 15.0791 29.6465 15.1507 29.5739C15.2638 29.4599 15.4158 29.3114 15.548 29.2225L15.554 29.219L15.56 29.2164C15.7543 29.1413 15.8908 29.1819 16.0946 29.2078L16.2871 29.2328L16.1153 29.3226C15.997 29.384 15.8709 29.422 15.7828 29.5273C15.6697 29.6612 15.5186 29.7458 15.3752 29.8442C15.2526 29.9254 15.0462 29.9582 14.9029 29.9392C14.7811 29.9228 14.605 29.8865 14.5039 29.82C14.4089 29.7579 14.3511 29.6344 14.3416 29.523C14.3295 29.3632 14.4003 29.2717 14.5057 29.2043ZM13.8641 26.9747C13.8433 27.0956 14.1179 27.4203 14.3554 27.3201C14.3001 27.2527 13.9159 26.6794 13.8641 26.9747ZM16.7526 29.5316L17.0747 29.5593L17.3709 29.5852L17.1809 29.681C16.8424 29.8529 16.4996 30.0195 16.155 30.1801C15.9633 30.2691 15.7785 30.3753 15.5773 30.4461C15.3347 30.5195 15.2094 30.5497 14.9668 30.4832L14.9253 30.472L14.9176 30.3511L14.978 30.3477C15.0998 30.3399 15.1835 30.3045 15.2932 30.2544C15.503 30.1577 15.7068 30.0489 15.9141 29.9453C16.1878 29.808 16.4642 29.6776 16.7379 29.5403L16.7526 29.5316Z" fill="#40A083"/>
<path fill-rule="evenodd" clip-rule="evenodd" d="M15.038 18.1698C15.019 18.2372 14.9749 18.2804 14.9456 18.2907C14.9085 18.3037 14.8826 18.2985 14.8143 18.289C14.8195 18.3279 14.8964 18.3658 14.9568 18.3633C14.975 18.3866 14.949 18.4738 14.8946 18.504C14.8109 18.5498 14.7349 18.5014 14.7081 18.4902C14.7176 18.5222 14.7418 18.5567 14.7927 18.5791C14.9456 18.6465 14.9965 18.5817 15.0268 18.5541C15.0803 18.5057 15.114 18.4151 15.0708 18.3589C15.1243 18.3253 15.1502 18.2864 15.1606 18.2199C15.1632 18.2009 15.1123 18.1474 15.0579 18.1154C15.0052 18.0852 14.9041 18.0273 14.8057 18.0982C14.8523 18.1508 14.8264 18.1474 14.8791 18.1638C14.9007 18.1655 14.9844 18.1379 15.038 18.1698ZM13.4059 19.8503C13.4439 19.9245 13.5717 20.0731 13.6667 20.0256C13.7004 20.0083 13.7073 19.9876 13.7366 19.9513C13.8118 20.0895 13.8834 20.2898 13.8618 20.4176C13.861 20.4504 13.8627 20.5022 13.9068 20.4565C13.9206 20.3796 13.9188 20.3028 13.8998 20.2104C13.8791 20.1128 13.8385 19.9997 13.7634 19.9029L13.7971 19.8606L13.6693 19.7147C13.6581 19.7277 13.6537 19.7406 13.6408 19.7466C13.5553 19.6612 13.5225 19.5947 13.4214 19.6249C13.3221 19.6534 13.3731 19.7855 13.4059 19.8503ZM13.5544 19.7639C13.5769 19.7527 13.6028 19.7596 13.6166 19.7838C13.595 19.8494 13.5259 19.928 13.4819 19.884C13.4396 19.8425 13.5277 19.7777 13.5544 19.7639ZM22.1803 15.6837L22.2831 15.7286L22.9774 15.4281L23.125 15.3797L23.22 15.3538L23.29 15.1803L23.2736 15.1647C23.0197 15.34 22.1147 15.6578 22.1803 15.6837ZM18.8557 17.1327L18.9671 17.1413L19.5232 16.6275L19.6018 16.5602L19.6864 16.5041L19.6951 16.3167L19.6752 16.3072C19.4921 16.5567 18.7849 17.1293 18.8557 17.1327ZM16.5699 15.9583L16.6796 15.9376L17.0863 15.2994L17.1822 15.1768L17.2461 15.1017L17.2072 14.9186L17.1856 14.9151C17.0716 15.2027 16.5 15.9738 16.5699 15.9583ZM18.7426 14.3746L18.8548 14.3772L19.3816 13.834L19.4999 13.733L19.5776 13.6725L19.5759 13.4851L19.5552 13.4774C19.3868 13.7356 18.6718 14.3754 18.7426 14.3746ZM27.1422 13.2951C27.1707 13.2606 27.1958 13.2304 27.2389 13.2217C27.302 13.2088 27.4177 13.2148 27.4833 13.239C27.4816 13.3167 27.4531 13.3314 27.3978 13.3703C27.3391 13.4117 27.2519 13.4385 27.2104 13.4627C27.2415 13.473 27.3555 13.4454 27.4281 13.3893C27.498 13.3245 27.5101 13.3029 27.5213 13.2226L27.5386 13.0957C27.4332 13.0922 27.3529 13.0844 27.283 13.1069C27.226 13.1276 27.1319 13.2692 27.1422 13.2951ZM24.5861 13.062L24.6846 13.1147L25.4013 12.8711L25.5524 12.8349L25.6492 12.8167L25.7329 12.6492L25.7182 12.6328C25.4505 12.7874 24.5222 13.0309 24.5861 13.062ZM27.7614 13.859L27.8529 13.9229L28.3598 13.8193L28.5144 13.8012L28.6128 13.7943L28.7156 13.638L28.7026 13.6198C28.4194 13.7407 27.7018 13.821 27.7614 13.859ZM30.5921 14.84C30.5169 14.8763 30.3667 15.0032 30.4133 15.0982C30.4297 15.1328 30.4504 15.1397 30.4858 15.169C30.3468 15.2416 30.1456 15.3115 30.0178 15.2882C29.985 15.2873 29.9332 15.2882 29.9789 15.3331C30.0558 15.3478 30.1327 15.3478 30.2251 15.3296C30.3226 15.3106 30.4366 15.2709 30.5342 15.1975L30.5756 15.2312L30.7233 15.1051C30.7112 15.0939 30.6974 15.0887 30.6922 15.0766C30.7794 14.9929 30.8459 14.9609 30.8174 14.859C30.7898 14.7597 30.6568 14.8089 30.5921 14.84ZM30.675 14.9911C30.6853 15.0136 30.6784 15.0386 30.6542 15.0524C30.5886 15.03 30.5117 14.9592 30.5558 14.916C30.599 14.8746 30.6629 14.9635 30.675 14.9911ZM34.2008 20.1888L34.2042 20.301L34.5902 20.6456L34.6973 20.7587L34.7612 20.8338L34.9478 20.8226L34.9547 20.8019C34.6887 20.6456 34.1965 20.118 34.2008 20.1888ZM14.1244 18.1051C14.1969 18.0705 14.3342 18.0481 14.4326 18.0627C14.595 18.0869 14.7211 18.1759 14.7582 18.2812C14.6425 18.1975 14.3791 18.1223 14.1693 18.2035L14.1244 18.1051ZM21.1475 13.0369C21.2641 13.163 21.3073 13.214 21.3401 13.3133C21.3781 13.4273 21.3669 13.4912 21.3669 13.5948C21.3669 13.6587 21.3444 13.7131 21.3729 13.7917C21.4005 13.7537 21.4688 13.5318 21.4619 13.3565C21.4567 13.2252 21.4385 13.1164 21.2252 12.9307L21.1475 13.0369ZM34.4806 19.5878L34.2604 19.4859H34.1585C34.2137 19.5679 34.307 19.6387 34.396 19.6387H34.5825C34.8312 19.6387 34.5229 19.3762 34.5143 19.2881L34.2604 19.2829C34.2889 19.3209 34.465 19.3961 34.4806 19.5878ZM17.5103 15.935C17.4904 15.8754 17.4084 15.8417 17.3955 15.827C17.3661 15.7804 17.3834 15.8003 17.3825 15.7295C17.5034 15.7398 17.5423 15.8495 17.563 15.9065C17.5837 15.9661 17.588 16.0395 17.5733 16.0524C17.5215 16.0973 17.4775 16.1094 17.4144 16.0999C17.4101 16.1699 17.3255 16.2174 17.2538 16.22C17.2132 16.2208 17.1329 16.2372 17.0595 16.087C17.0354 16.036 17.0388 15.9946 17.0526 15.9643C17.0656 15.9903 17.0915 16.0757 17.1847 16.0956C17.2461 16.1077 17.322 16.0585 17.3238 16.0291C17.2763 15.992 17.2426 15.9125 17.2633 15.8797C17.3091 15.9315 17.3255 15.9523 17.3618 15.9661C17.3911 15.9773 17.4524 15.9738 17.5103 15.935ZM33.5721 17.7467C32.9936 17.3451 32.339 17.0239 31.7259 16.745L31.567 16.7743C31.8494 16.9263 33.3079 17.6318 33.3882 17.8037L33.5721 17.7467ZM33.5402 19.1862L33.5592 19.5152L33.9599 19.3719L33.9322 19.0152L33.9132 19.017C33.8165 19.0247 33.6041 19.0912 33.5402 19.1862ZM33.4219 19.6776C33.225 19.6819 33.1723 19.8624 33.149 19.6629C33.1309 19.5092 33.0506 19.3969 33.2164 19.3183C33.2785 19.289 33.4875 19.1715 33.4996 19.2752C33.5056 19.3209 33.5212 19.5239 33.5575 19.5765L33.5212 19.6258L33.7802 19.5688C33.8182 19.6266 33.8467 19.9202 33.8364 19.9461C33.8139 19.9997 33.7146 20.0178 33.6257 20.0178L33.4409 20.0342L33.4227 19.7803L33.4219 19.6776Z" fill="#40A083"/>
<path fill-rule="evenodd" clip-rule="evenodd" d="M17.7258 16.7915C17.2163 16.7475 16.7249 16.7199 16.2172 16.6421C15.9719 16.6041 15.87 16.472 15.7111 16.3028L15.6783 16.2682L15.7448 16.1646L15.7914 16.1827C15.9719 16.2535 16.0738 16.2691 16.2664 16.2907C16.7569 16.3459 17.243 16.409 17.7344 16.453C17.7879 16.1422 17.838 15.8356 17.8829 15.523C17.914 15.3071 17.9365 15.0886 17.9693 14.8736C17.9822 14.7881 18.0055 14.58 18.11 14.5558L18.1325 14.5506L18.1532 14.5619C18.2197 14.599 18.2085 14.9194 18.1981 14.9911C18.1454 15.4936 18.0375 15.9988 17.9658 16.5022C18.1256 16.5636 18.3285 16.7173 18.4097 16.8468C18.5444 17.061 18.5081 17.3105 18.3743 17.5169C18.2663 17.6836 18.0928 17.7034 17.9529 17.5601C17.7957 17.3995 17.7543 17.1749 17.7275 16.9599C17.7223 16.9038 17.7266 16.8485 17.7258 16.7915ZM26.9915 14.4695C27.0572 14.3114 27.1582 14.2225 27.2687 14.0999L27.3093 14.055L27.6582 14.3702L27.3171 14.7493L27.273 14.719C27.1867 14.6603 27.0891 14.6051 27.0088 14.5394L26.9743 14.5109L26.9915 14.4695ZM28.9777 13.8814C29.0606 13.9306 28.9699 14.1284 28.9466 14.1992C28.8611 14.4608 28.4285 16.0143 28.2393 16.0748L27.9734 16.1741L27.9509 16.1206C27.9216 16.0506 28.0407 15.8727 28.0684 15.7976C28.1841 15.5359 28.2782 15.2613 28.3723 14.9911C28.4285 14.8296 28.4647 14.6595 28.5183 14.4945C28.577 14.3132 28.5891 14.1353 28.7411 14.0083C28.7937 13.9643 28.8576 13.9358 28.9043 13.89L28.938 13.8572L28.9777 13.8814ZM22.6479 14.9082C22.5745 14.403 22.4156 13.8909 22.3681 13.3831C22.3578 13.2717 22.4597 12.998 22.5555 12.9341L22.66 12.8642L22.6497 12.9894C22.6367 13.1439 22.8984 14.6733 22.9614 14.7812L22.9778 14.8054L22.8224 15.2924L22.7067 15.3132L22.6479 14.9082ZM19.2957 16.4841L19.3492 16.5955L19.4045 16.485C19.4675 16.3589 19.4589 16.2225 19.4615 16.086V16.0817V16.0774C19.4477 15.9548 19.281 15.7112 19.2162 15.5955C19.0755 15.3416 18.9356 15.0869 18.7931 14.8339C18.7335 14.7346 18.6774 14.6335 18.6204 14.5342C18.5945 14.4893 18.5582 14.4159 18.4995 14.4142L18.4434 14.4125L18.4097 14.7242C18.4088 14.738 18.408 14.751 18.4088 14.7639C18.4123 14.8581 18.4693 14.9556 18.515 15.0351C18.6325 15.2398 18.756 15.441 18.8734 15.6448C19.0357 15.9124 19.161 16.2026 19.2957 16.4841ZM17.2344 18.3494L17.3475 18.4495L17.3354 18.2993C17.3285 18.219 17.2966 18.0825 17.2715 18.0039C17.2128 17.8174 16.7508 17.5281 16.5807 17.415C16.3277 17.2466 16.0816 17.0687 15.8337 16.8934C15.7483 16.833 15.674 16.7553 15.5876 16.6965L15.5298 16.6577L15.4996 16.7207C15.4305 16.8641 15.5151 17.1318 15.6524 17.2112C16.1723 17.5592 16.7655 17.9349 17.2344 18.3494ZM34.4957 21.1282C34.1831 21.1541 33.8446 21.2802 33.5415 21.3648C33.2168 21.4564 32.9007 21.5997 32.57 21.6697L32.551 21.674L32.14 21.5013L32.1857 21.4391C32.2367 21.37 32.5329 21.2888 32.6175 21.2638C33.0544 21.136 33.4888 20.9987 33.9318 20.8899C34.0682 20.8562 33.9871 20.7431 34.2479 20.832C34.3852 20.8787 34.4776 20.902 34.5449 21.0419L34.5829 21.1213L34.4957 21.1282ZM27.5615 15.4677C27.5373 15.4755 27.4639 15.4876 27.4449 15.4919C27.1815 15.5532 26.8499 15.5152 26.5865 15.466C26.3508 15.422 25.9052 15.2622 25.9052 14.9669C25.9052 14.7467 26.1055 14.5688 26.1254 14.3279L26.1358 14.2018L26.0313 14.2717C25.9337 14.3374 25.7688 14.6025 25.7187 14.7139C25.5986 14.9798 25.5062 15.1569 25.571 15.4565C25.6176 15.6707 25.9147 15.7855 26.0995 15.8511C26.3879 15.9548 27.2886 16.0584 27.514 15.8175C27.6046 15.7207 27.6867 15.6171 27.7756 15.5195C27.8818 15.4038 27.9242 15.3114 27.9414 15.1586C27.9483 15.0575 27.9561 14.9556 27.963 14.8555C27.9656 14.7475 27.8646 14.6655 27.7912 14.7467L27.5675 15.0472L27.5649 15.4064C27.5641 15.4185 27.5641 15.4522 27.5615 15.4677ZM24.6444 14.4997C24.1678 14.0532 23.6142 13.656 23.1756 13.1811C23.0072 12.998 23.0098 12.8313 22.9916 12.5999L22.9882 12.5524L23.1047 12.5127L23.1298 12.5559C23.2274 12.7234 23.2964 12.7994 23.4338 12.9367C23.8888 13.3918 24.3906 13.7968 24.8595 14.2372C25.0684 14.0222 25.2714 13.802 25.4786 13.5852C25.5753 13.4842 25.666 13.3745 25.7584 13.27C25.8266 13.1932 26.1055 12.8417 26.2247 12.8944L26.2463 12.9039L26.2558 12.9255C26.2877 12.9971 26.0865 13.245 26.0347 13.2959C25.6902 13.6681 25.3499 14.0429 25.0106 14.4194C25.0987 14.5662 25.1626 14.8158 25.1453 14.9695C25.1168 15.2216 24.9337 15.3935 24.7006 15.472C24.5114 15.5359 24.3638 15.4435 24.3439 15.2432C24.3215 15.0195 24.4285 14.8183 24.5417 14.6335C24.5719 14.5852 24.6099 14.5446 24.6444 14.4997ZM22.1229 13.6457C22.1393 13.5653 22.1954 13.4635 22.1747 13.3926C22.1177 13.1983 22.04 13.2657 21.945 13.1983C21.8941 13.1621 21.8846 13.0818 21.8846 13.0248L21.8828 12.8452L21.7758 12.9894C21.7257 13.0567 21.648 13.2312 21.6229 13.3132C21.5391 13.5861 21.7585 13.6146 21.7965 13.7251C21.8673 13.928 21.8949 14.1638 21.9441 14.3745C21.9968 14.6007 22.0616 14.8244 22.0858 15.0567C21.9951 15.1189 21.9286 15.1698 21.8207 15.2225C21.5504 15.3546 21.0547 15.5619 20.7576 15.4418C20.6402 15.3943 20.5944 15.2501 20.5651 15.1379C20.5072 14.922 20.4874 14.675 20.3708 14.4798L20.3112 14.3805L20.2628 14.4859C20.2222 14.5748 20.1195 14.7855 20.1178 14.8788C20.116 14.9496 20.1428 14.9695 20.1532 15.0126C20.1488 15.0161 20.1428 15.0195 20.1402 15.0204C20.0124 15.0921 19.8742 15.1689 19.7983 15.2985C19.7343 15.4081 19.692 15.5558 19.6635 15.6793C19.6376 15.7916 19.6074 15.9219 19.6074 16.0368C19.6065 16.1663 19.6644 16.251 19.7939 16.2682C20.0495 16.3019 20.2266 16.0506 20.3129 15.8451C20.3302 15.8045 20.3423 15.7639 20.3509 15.7233C20.4347 15.8745 20.5815 15.9807 20.7775 15.9781C21.1583 15.9781 21.7136 15.8477 22.0072 15.5964C22.1626 15.4634 22.1859 15.4038 22.2481 15.2138C22.2844 15.1033 22.3431 14.9401 22.3561 14.827C22.3716 14.6923 22.3457 14.5558 22.312 14.4254C22.2438 14.1655 22.1842 13.9056 22.1229 13.6457ZM15.9408 19.067C15.883 19.0367 15.7992 19.0108 15.7379 18.9823C15.6559 18.9443 15.3208 18.8105 15.2569 18.7397C15.1749 18.6559 15.1403 18.5514 15.0807 18.4538L15.06 18.4193L15.1308 18.3209L15.18 18.3537C15.4037 18.5031 15.9564 18.7967 16.2111 18.8571C16.3536 18.8908 16.4486 18.7293 16.4589 18.6101V18.5549C16.3303 18.5411 16.1083 18.4582 15.9831 18.4245C15.8424 18.3856 15.4866 18.2734 15.383 18.1706L15.3778 18.1654L15.1498 17.7889L15.2491 17.7242L15.2828 17.7466C15.5635 17.934 15.7802 17.9616 16.085 18.0618C16.1835 18.0937 16.2759 18.1335 16.364 18.1879C16.4684 18.2526 16.674 18.5203 16.7517 18.63C16.8303 18.7414 16.8605 18.8398 16.8311 18.9746C16.7966 19.1352 16.7033 19.2716 16.528 19.2828C16.4667 19.2863 16.4045 19.2733 16.3467 19.2509C16.3994 19.415 16.4287 19.5911 16.427 19.7612C16.4227 20.2025 16.1178 20.7552 15.6222 20.7552C15.5825 20.7552 15.5479 20.7517 15.5168 20.7448C15.5945 20.8579 15.6584 21.0039 15.6584 21.123C15.6576 21.3182 15.5868 21.5963 15.332 21.5177C15.1654 21.4667 15.0039 21.2586 14.8925 21.1282C14.7431 20.9529 14.7794 20.687 14.7638 20.4728C14.7621 20.4503 14.7051 20.4063 14.687 20.3934L14.674 20.3847L14.6671 20.3709C14.6162 20.2725 14.5799 20.1559 14.5721 20.0453L14.5635 19.9348L14.6611 19.9875C14.87 20.0998 15.1084 20.2673 15.3363 20.3295C15.5876 20.3977 15.788 20.1429 15.889 19.9478C15.9564 19.8182 16.0194 19.6386 16.0194 19.4918C16.0177 19.4262 15.9805 19.1179 15.9408 19.067ZM29.7929 16.4832C29.6089 16.4841 29.3956 16.4401 29.2298 16.3675C28.9716 16.2535 28.7894 15.776 29.1512 15.6698L29.4181 15.5912L29.1426 15.5515C28.9552 15.5239 28.6469 15.7363 28.5692 15.9021C28.45 16.105 28.4319 16.2872 28.5684 16.4824C28.7445 16.7354 29.1487 16.8243 29.4388 16.8243C29.4621 16.8243 29.5597 16.8235 29.5934 16.8321C29.5925 16.8727 29.5718 17.029 29.5727 17.0739C29.5796 17.3615 30.0666 17.7414 30.298 17.8761C30.57 18.0342 30.9595 18.2388 31.2902 18.3001C31.2151 18.377 31.1244 18.44 31.0631 18.548C30.9871 18.6801 30.918 18.8597 30.9051 19.0126L30.9025 19.048L30.9319 19.0678C31.0648 19.1568 31.2229 19.1291 31.3723 19.1291H31.4284L31.4327 19.0739C31.4543 18.8148 31.7021 18.6671 31.9431 18.7552C32.0286 18.7863 32.1348 18.9029 32.1909 18.9737C32.2263 19.0186 32.3731 19.2293 32.3541 19.2915C32.2842 19.3675 31.8705 19.3821 32.0027 19.7258C32.0372 19.8156 32.0683 19.9305 32.1382 19.9987C32.1909 20.0497 32.266 20.0764 32.3187 20.0946C32.0631 20.2837 32.2185 20.8277 32.5622 20.7802C32.7125 20.7733 32.8662 20.8113 33.0156 20.7448C33.1028 20.706 33.3161 20.5246 33.3774 20.5194L33.4033 20.5168L33.4707 20.4322L33.4171 20.3951C33.3455 20.345 33.3524 20.3467 33.2703 20.3467L32.9784 20.3441L32.7487 20.5056C32.7125 20.421 32.7073 20.3174 32.7608 20.2405C32.8377 20.1308 33.0398 20.1481 33.1339 20.0134L33.2073 19.9072L33.0337 19.9219C32.9482 19.9124 32.8645 19.9072 32.779 19.9063C32.7306 19.9063 32.6805 19.9322 32.6408 19.9046C32.5657 19.8511 32.4983 19.6853 32.5182 19.5946C32.5389 19.5013 32.6158 19.4763 32.7013 19.4625C33.2487 19.3727 32.5199 18.6594 32.2945 18.5704C32.1598 18.5169 32.0838 18.529 31.9491 18.5238H31.9457L31.6641 18.5454C31.8973 18.3684 32.2134 18.3045 32.3576 18.0307L32.4223 17.9081L32.2876 17.9444C32.0985 17.9953 32.0916 18.01 31.8964 18.01C31.507 18.01 31.0813 17.8148 30.7531 17.6162C30.4664 17.4444 30.058 17.1767 30.058 16.7993C30.058 16.4832 30.5847 16.0187 30.7505 15.7328C30.8075 15.6344 30.817 15.6119 30.8179 15.5031V15.466L30.7842 15.4487C30.6901 15.4004 30.4491 15.466 30.4068 15.5679L30.4016 15.58V15.5929C30.4034 15.6577 30.2523 15.8658 30.2082 15.9194C30.1529 15.9876 29.8758 16.3477 29.7929 16.4832ZM17.9477 16.8028C17.9399 16.9055 17.9675 17.1188 18.0263 17.1361C18.0651 17.1473 18.1109 17.1128 18.1282 17.08C18.1558 17.0256 18.1817 16.9366 18.1446 16.8805C18.1092 16.8278 18.0194 16.8088 17.9477 16.8028ZM24.8111 14.6465C24.7411 14.7225 24.6298 14.9064 24.6652 14.9556C24.6885 14.9885 24.7463 14.9911 24.78 14.9755C24.8361 14.9505 24.9113 14.8969 24.9173 14.8296C24.9225 14.7665 24.8638 14.6957 24.8111 14.6465ZM20.2369 15.4358C20.2335 15.5083 20.1886 15.5903 20.1385 15.6448C20.0979 15.6879 20.0375 15.7587 19.9675 15.7777C19.9148 15.7916 19.8509 15.7898 19.8509 15.7518C19.8509 15.6922 20.0141 15.5385 20.059 15.5049C20.1074 15.4677 20.1773 15.4643 20.2369 15.4358ZM15.1835 20.6585C15.155 20.693 15.1351 20.7517 15.13 20.8053C15.1187 20.9192 15.1585 21.0047 15.2319 21.0652C15.3156 20.9693 15.3078 20.7647 15.1835 20.6585Z" fill="#40A083"/>
</svg>
