<svg width="59" height="52" viewBox="0 0 59 52" fill="none" xmlns="http://www.w3.org/2000/svg">
<circle cx="29" cy="25" r="25" fill="#40A083" fill-opacity="0.1"/>
<path d="M13.1148 37.4717C10.4183 37.0288 8.53077 35.95 7.50407 34.2678C6.54869 32.7006 6.41901 30.6144 7.15526 28.6849C7.76064 27.0998 8.90639 25.6339 10.5625 24.3247C10.8798 24.0734 11.2085 23.8331 11.5387 23.5918C12.561 22.8452 13.5262 22.1396 14.1339 21.146C14.9016 19.8897 14.9802 18.3771 15.0642 16.7752C15.1143 15.8159 15.1656 14.825 15.3743 13.8692C15.9546 11.217 17.8261 8.75038 20.5055 7.10037C22.6119 5.80422 25.2481 4.9503 28.5659 4.49464C32.358 3.97108 36.203 4.02215 39.9926 4.64465C40.8182 4.78027 41.6485 4.94448 42.46 5.13346C46.101 5.98205 48.9925 7.24165 51.3007 8.98199C54.1095 11.1001 56.0297 14.0478 56.5688 17.0668C57.1889 20.5457 55.9487 24.0889 53.4088 26.0932C51.2075 27.8297 48.4092 28.2487 45.7021 28.6536C44.543 28.8277 43.3447 29.0059 42.225 29.2872C39.507 29.9687 36.961 31.3397 34.4984 32.6635C33.171 33.3772 31.7983 34.1166 30.3994 34.7483C25.6576 36.8932 20.4024 37.9067 15.2039 37.6784C14.4655 37.6499 13.7621 37.5781 13.1148 37.4717ZM39.8254 5.66291C36.1365 5.05697 32.3962 5.00717 28.7074 5.51588C25.5358 5.95317 23.0295 6.75951 21.0471 7.97927C18.6041 9.48256 16.9045 11.711 16.3836 14.0907C16.1923 14.9645 16.1428 15.912 16.0956 16.8293C16.0087 18.489 15.9194 20.204 15.0154 21.6844C14.3022 22.8516 13.2075 23.6512 12.1489 24.425C11.8292 24.6587 11.511 24.8914 11.2032 25.1338C9.6951 26.3254 8.65725 27.6434 8.11923 29.0527C7.49524 30.6864 7.59416 32.435 8.3844 33.7311C9.24662 35.1465 10.8941 36.0626 13.2805 36.4546C13.8878 36.5543 14.551 36.6208 15.248 36.6505C20.2872 36.8712 25.3794 35.8893 29.9734 33.8116C31.3394 33.1943 32.696 32.4642 34.0077 31.7572C36.5258 30.4027 39.1298 29.0015 41.9724 28.2888C43.1417 27.9958 44.3648 27.8123 45.5482 27.6356C48.2405 27.2323 50.7817 26.8518 52.7679 25.2854C54.9785 23.5412 56.0968 20.312 55.5515 17.2496C55.0585 14.4833 53.2816 11.77 50.6794 9.80771C48.4894 8.1557 45.7236 6.95518 42.2258 6.13939C41.436 5.95532 40.629 5.79493 39.8254 5.66291Z" fill="#1C737A"/>
<path d="M46.6064 8.74886C47.6964 8.9279 48.725 8.19048 48.9038 7.10177C49.0826 6.01306 48.344 4.98535 47.2541 4.8063C46.1641 4.62726 45.1355 5.36469 44.9567 6.4534C44.7779 7.54211 45.5165 8.56982 46.6064 8.74886Z" fill="#40A083"/>
<path d="M50.8835 11.6781C51.9735 11.8572 53.0021 11.1197 53.1809 10.031C53.3597 8.94232 52.6211 7.91461 51.5312 7.73556C50.4412 7.55652 49.4126 8.29395 49.2338 9.38266C49.055 10.4714 49.7936 11.4991 50.8835 11.6781Z" fill="#1C737A"/>
<path d="M56.7805 14.7987C57.132 13.7516 56.5671 12.6178 55.5187 12.2662C54.4703 11.9147 53.3354 12.4786 52.9839 13.5257C52.6324 14.5729 53.1973 15.7067 54.2457 16.0583C55.2941 16.4098 56.429 15.8459 56.7805 14.7987Z" fill="#40A083"/>
<path d="M55.6296 22.019C56.7196 22.1981 57.7482 21.4607 57.927 20.372C58.1058 19.2833 57.3672 18.2556 56.2773 18.0766C55.1873 17.8975 54.1587 18.6349 53.9799 19.7236C53.8011 20.8123 54.5397 21.84 55.6296 22.019Z" fill="#1C737A"/>
<path d="M53.4897 27.0991C54.5797 27.2781 55.6083 26.5407 55.7871 25.452C55.9659 24.3632 55.2273 23.3355 54.1374 23.1565C53.0474 22.9774 52.0188 23.7149 51.84 24.8036C51.6612 25.8923 52.3998 26.92 53.4897 27.0991Z" fill="#40A083"/>
<path d="M48.6809 29.8943C49.7709 30.0734 50.7994 29.3359 50.9783 28.2472C51.1571 27.1585 50.4185 26.1308 49.3285 25.9517C48.2386 25.7727 47.21 26.5101 47.0312 27.5988C46.8523 28.6876 47.5909 29.7153 48.6809 29.8943Z" fill="#1C737A"/>
<path d="M42.8772 30.7885C43.9672 30.9676 44.9957 30.2301 45.1746 29.1414C45.3534 28.0527 44.6148 27.025 43.5248 26.846C42.4349 26.6669 41.4063 27.4044 41.2275 28.4931C41.0486 29.5818 41.7872 30.6095 42.8772 30.7885Z" fill="#40A083"/>
<path d="M39.9531 31.1574C40.3047 30.1103 39.7397 28.9764 38.6913 28.6249C37.6429 28.2733 36.5081 28.8372 36.1565 29.8844C35.805 30.9315 36.3699 32.0654 37.4183 32.4169C38.4667 32.7684 39.6016 32.2045 39.9531 31.1574Z" fill="#1C737A"/>
<path d="M33.0896 35.1508C34.1652 34.8996 34.833 33.8248 34.581 32.7502C34.3291 31.6757 33.2529 31.0083 32.1773 31.2596C31.1017 31.5108 30.434 32.5856 30.6859 33.6602C30.9378 34.7347 32.014 35.4021 33.0896 35.1508Z" fill="#40A083"/>
<path d="M27.0327 37.8546C28.1227 38.0337 29.1512 37.2962 29.3301 36.2075C29.5089 35.1188 28.7703 34.0911 27.6803 33.9121C26.5904 33.733 25.5618 34.4705 25.383 35.5592C25.2041 36.6479 25.9428 37.6756 27.0327 37.8546Z" fill="#1C737A"/>
<path d="M21.4949 39.1186C22.5848 39.2976 23.6134 38.5602 23.7922 37.4715C23.9711 36.3828 23.2325 35.355 22.1425 35.176C21.0525 34.9969 20.024 35.7344 19.8451 36.8231C19.6663 37.9118 20.4049 38.9396 21.4949 39.1186Z" fill="#40A083"/>
<path d="M16.0264 39.3071C17.1163 39.4861 18.1449 38.7487 18.3237 37.66C18.5026 36.5713 17.764 35.5436 16.674 35.3645C15.584 35.1855 14.5555 35.9229 14.3766 37.0116C14.1978 38.1003 14.9364 39.128 16.0264 39.3071Z" fill="#1C737A"/>
<path d="M10.5356 38.2964C11.6256 38.4755 12.6542 37.7381 12.833 36.6494C13.0118 35.5607 12.2732 34.533 11.1833 34.3539C10.0933 34.1749 9.06474 34.9123 8.88591 36.001C8.70707 37.0897 9.44569 38.1174 10.5356 38.2964Z" fill="#40A083"/>
<path d="M7.06519 33.5978C8.15515 33.7769 9.18371 33.0394 9.36255 31.9507C9.54138 30.862 8.80278 29.8343 7.71281 29.6552C6.62285 29.4762 5.59428 30.2136 5.41544 31.3023C5.23661 32.3911 5.97522 33.4188 7.06519 33.5978Z" fill="#40A083"/>
<path d="M9.08227 28.6051C10.1722 28.7841 11.2008 28.0467 11.3796 26.958C11.5585 25.8693 10.8199 24.8415 9.7299 24.6625C8.63994 24.4835 7.61137 25.2209 7.43253 26.3096C7.2537 27.3983 7.99231 28.426 9.08227 28.6051Z" fill="#1C737A"/>
<path d="M13.2188 24.6125C14.3087 24.7915 15.3373 24.0541 15.5161 22.9654C15.6949 21.8767 14.9563 20.849 13.8664 20.67C12.7764 20.4909 11.7478 21.2283 11.569 22.317C11.3902 23.4057 12.1288 24.4335 13.2188 24.6125Z" fill="#40A083"/>
<path d="M15.2876 19.3035C16.3776 19.4826 17.4061 18.7452 17.585 17.6564C17.7638 16.5677 17.0252 15.54 15.9352 15.361C14.8453 15.1819 13.8167 15.9194 13.6379 17.0081C13.459 18.0968 14.1976 19.1245 15.2876 19.3035Z" fill="#1C737A"/>
<path d="M16.7385 13.783C17.8285 13.9621 18.857 13.2247 19.0359 12.136C19.2147 11.0472 18.4761 10.0195 17.3862 9.84048C16.2962 9.66144 15.2676 10.3989 15.0888 11.4876C14.9099 12.5763 15.6486 13.604 16.7385 13.783Z" fill="#40A083"/>
<path d="M20.0811 9.98616C21.171 10.1652 22.1996 9.42777 22.3784 8.33906C22.5573 7.25036 21.8186 6.22265 20.7287 6.04361C19.6387 5.86456 18.6102 6.60199 18.4313 7.69069C18.2525 8.7794 18.9911 9.80711 20.0811 9.98616Z" fill="#1C737A"/>
<path d="M24.7332 7.49117C25.8231 7.67021 26.8517 6.93278 27.0305 5.84408C27.2094 4.75537 26.4707 3.72765 25.3808 3.54861C24.2908 3.36957 23.2623 4.107 23.0834 5.1957C22.9046 6.28441 23.6432 7.31213 24.7332 7.49117Z" fill="#40A083"/>
<path d="M31.3746 6.17377C32.3423 5.64121 32.6943 4.42572 32.1608 3.45887C31.6273 2.49202 30.4103 2.13995 29.4426 2.67251C28.4749 3.20506 28.1229 4.42057 28.6564 5.38741C29.1899 6.35426 30.4069 6.70632 31.3746 6.17377Z" fill="#1C737A"/>
<path d="M35.7586 6.5865C36.8485 6.76554 37.8771 6.02814 38.0559 4.93945C38.2347 3.85076 37.4961 2.82305 36.4062 2.64401C35.3162 2.46497 34.2876 3.20238 34.1088 4.29107C33.93 5.37976 34.6686 6.40746 35.7586 6.5865Z" fill="#40A083"/>
<path d="M41.2998 7.27943C42.3898 7.45847 43.4183 6.72104 43.5972 5.63234C43.776 4.54364 43.0374 3.51592 41.9474 3.33688C40.8575 3.15784 39.8289 3.89527 39.6501 4.98397C39.4712 6.07267 40.2098 7.10039 41.2998 7.27943Z" fill="#1C737A"/>
<path d="M6.12682 35.1549L5.45862 34.3679C6.19537 33.744 7.1701 33.4323 8.13206 33.5134L8.04554 34.541C7.36477 34.4848 6.6477 34.7143 6.12682 35.1549Z" fill="#1C737A"/>
<path d="M5.67447 50.7148C3.36628 51.3005 2.11728 51.0927 0.116042 49.8018C1.70014 46.7498 2.66593 45.7898 3.11715 44.0203C3.74121 44.1228 4.05389 44.1742 4.67925 44.2769C4.5407 46.0978 5.14863 47.3163 5.67447 50.7148Z" fill="#1C737A"/>
<path d="M4.7419 39.0162C6.12625 39.2436 7.43263 38.307 7.65977 36.9242C7.8869 35.5415 6.9488 34.2362 5.56444 34.0088C4.18009 33.7814 2.87373 34.718 2.64659 36.1007C2.41945 37.4835 3.35755 38.7888 4.7419 39.0162Z" fill="#FFCD2D"/>
<path d="M3.77327 44.9115C4.52396 45.0348 5.31665 44.0138 5.54379 42.6311C5.77093 41.2483 5.3465 40.0274 4.59581 39.9041C3.84512 39.7807 3.05244 40.8017 2.8253 42.1845C2.59816 43.5673 3.02258 44.7882 3.77327 44.9115Z" fill="#FFCD2D"/>
<path d="M4.57007 40.0615C5.51485 40.2167 6.3489 39.9277 6.43296 39.4159C6.51703 38.9041 5.81928 38.3634 4.8745 38.2083C3.92971 38.0531 3.09567 38.3421 3.0116 38.8539C2.92754 39.3656 3.62529 39.9063 4.57007 40.0615Z" fill="#1C737A"/>
</svg>
