<svg width="50" height="50" viewBox="0 0 50 50" fill="none" xmlns="http://www.w3.org/2000/svg">
<circle cx="25" cy="25" r="25" fill="#40A083" fill-opacity="0.1"/>
<path d="M47.4265 20.8359H17.1314C16.2622 20.8359 15.5576 21.5405 15.5576 22.4097V38.1474C15.5576 39.0166 16.2622 39.7212 17.1314 39.7212H47.4265C48.2956 39.7212 49.0002 39.0166 49.0002 38.1474V22.4097C49.0002 21.5405 48.2956 20.8359 47.4265 20.8359Z" fill="#1C737A"/>
<path d="M46.4941 21H17.5059C16.6742 21 16 21.6716 16 22.5V37.5C16 38.3284 16.6742 39 17.5059 39H46.4941C47.3258 39 48 38.3284 48 37.5V22.5C48 21.6716 47.3258 21 46.4941 21Z" fill="#40A083"/>
<path fill-rule="evenodd" clip-rule="evenodd" d="M40.9343 23.7871C40.4998 23.7871 40.1475 24.1394 40.1475 24.574C40.1475 25.0086 40.4998 25.3609 40.9343 25.3609H42.0537L42.0568 25.372C42.1688 25.7607 42.3968 26.3213 42.8752 26.74C43.2342 27.0541 43.597 27.259 43.8852 27.3894V30.1806C43.8852 30.1971 43.8858 30.2135 43.8867 30.2297C43.8858 30.246 43.8852 30.2624 43.8852 30.2789V33.1316C43.5958 33.2644 43.2309 33.4737 42.8701 33.7947C42.3934 34.2192 42.167 34.7866 42.0559 35.179L42.0509 35.1969H40.9343C40.4998 35.1969 40.1475 35.5493 40.1475 35.9838C40.1475 36.4184 40.4998 36.7707 40.9343 36.7707H42.7048H43.4484L43.4903 36.0316V36.0312C43.4905 36.0287 43.4909 36.0226 43.4919 36.0133C43.4937 35.995 43.497 35.9646 43.5027 35.925C43.5143 35.8447 43.535 35.7322 43.5702 35.6075C43.646 35.3396 43.7638 35.1063 43.9166 34.9701C44.1561 34.7569 44.4004 34.6229 44.5833 34.5432C44.674 34.5037 44.7472 34.4785 44.7936 34.4642C44.8166 34.4571 44.8328 34.4527 44.8406 34.4506L44.8442 34.4498L45.4589 34.317V33.6818V30.2789C45.4589 30.2624 45.4583 30.246 45.4574 30.2297C45.4583 30.2135 45.4589 30.1971 45.4589 30.1806V26.8363V26.1988L44.8412 26.0678L44.8375 26.0668C44.8294 26.0648 44.8131 26.0604 44.7899 26.0534C44.7433 26.0392 44.6697 26.0143 44.5788 25.9753C44.3953 25.8967 44.1507 25.7649 43.9115 25.5556C43.7604 25.4234 43.6442 25.1971 43.5692 24.9366C43.5342 24.8154 43.514 24.7058 43.5023 24.628C43.4968 24.5895 43.4935 24.5601 43.4917 24.5424C43.4909 24.5335 43.4903 24.5278 43.4902 24.5253V24.5252L43.4477 23.7871H42.7048H40.9343Z" fill="#E7FCB6"/>
<path fill-rule="evenodd" clip-rule="evenodd" d="M23.6232 36.7707C24.0578 36.7707 24.4101 36.4184 24.4101 35.9838C24.4101 35.5493 24.0578 35.1969 23.6232 35.1969H22.5039L22.5007 35.1857C22.3888 34.7972 22.1608 34.2366 21.6824 33.8179C21.3234 33.5038 20.9606 33.2988 20.6724 33.1684V30.3773C20.6724 30.3607 20.6718 30.3444 20.6708 30.3281C20.6718 30.3118 20.6724 30.2954 20.6724 30.2789V27.4262C20.9618 27.2934 21.3267 27.0842 21.6875 26.7631C22.1641 26.3386 22.3906 25.7713 22.5017 25.3787L22.5066 25.3609H23.6232C24.0578 25.3609 24.4101 25.0086 24.4101 24.574C24.4101 24.1394 24.0578 23.7871 23.6232 23.7871H21.8527H21.1091L21.0672 24.5262V24.5266C21.067 24.5292 21.0666 24.5353 21.0656 24.5445C21.0639 24.5629 21.0605 24.5932 21.0548 24.6328C21.0432 24.713 21.0226 24.8256 20.9874 24.9503C20.9116 25.2183 20.7938 25.4517 20.6409 25.5877C20.4015 25.8009 20.1572 25.9348 19.9742 26.0146C19.8836 26.0541 19.8104 26.0793 19.7639 26.0937C19.7409 26.1008 19.7248 26.1052 19.7169 26.1072L19.7134 26.1081L19.0986 26.2408V26.876V30.2789C19.0986 30.2954 19.0991 30.3118 19.1001 30.3281C19.0991 30.3444 19.0986 30.3607 19.0986 30.3773V33.7215V34.3591L19.7163 34.4901L19.7201 34.4909C19.7281 34.4931 19.7445 34.4974 19.7677 34.5045C19.8143 34.5187 19.8879 34.5434 19.9788 34.5826C20.1623 34.6611 20.4068 34.7929 20.646 35.0022C20.7971 35.1344 20.9134 35.3606 20.9883 35.6213C21.0234 35.7425 21.0436 35.852 21.0552 35.9299C21.0607 35.9683 21.0641 35.9978 21.0658 36.0155C21.0666 36.0244 21.0672 36.0301 21.0674 36.0324V36.0326L21.1099 36.7707H21.8527H23.6232Z" fill="#E7FCB6"/>
<path fill-rule="evenodd" clip-rule="evenodd" d="M32.2789 35.1969C34.995 35.1969 37.1969 32.995 37.1969 30.2789C37.1969 27.5628 34.995 25.3609 32.2789 25.3609C29.5628 25.3609 27.3609 27.5628 27.3609 30.2789C27.3609 32.995 29.5628 35.1969 32.2789 35.1969ZM32.2789 36.7707C35.8642 36.7707 38.7707 33.8642 38.7707 30.2789C38.7707 26.6936 35.8642 23.7871 32.2789 23.7871C28.6937 23.7871 25.7871 26.6936 25.7871 30.2789C25.7871 33.8642 28.6937 36.7707 32.2789 36.7707Z" fill="#E7FCB6"/>
<path d="M10.2836 15.12C11.3957 18.9533 11.756 22.15 11.802 24.2484C11.8267 25.3737 12.6789 26.3985 13.7119 26.8457C16.6264 28.1075 19.4822 31.2391 21.1641 33.0011C23.2297 35.165 26.3773 32.6077 25.0002 30.1486C24.2047 28.7281 22.5412 26.706 21.1641 24.5421C19.7871 22.3781 21.4592 20.8044 23.1314 20.8044H33.1641C36.3117 20.8044 38.8386 21.1402 38.1805 18.8372C37.3937 16.0831 29.9182 13.1322 25.7871 11.4601C22.9618 10.3165 16.1009 11.5356 11.6702 12.61C10.5714 12.8764 9.96852 14.034 10.2836 15.12Z" fill="#FDBD86"/>
<path d="M10.2836 15.1203C11.3957 18.9536 11.756 22.1503 11.802 24.2487C11.8267 25.3741 12.6789 26.3989 13.7119 26.846C16.6264 28.1078 19.4822 31.2394 21.1641 33.0014C23.2297 35.1654 25.377 32.4593 24 30.0002C23.2045 28.5797 21.377 26.7063 20 24.5424C18.623 22.3785 21.4592 20.8047 23.1314 20.8047H31C34.1475 20.8047 37.658 21.1406 37 18.8375C36.2131 16.0834 28.6311 13.6725 24.5 12.0004C21.6747 10.8568 16.1009 11.5359 11.6702 12.6103C10.5714 12.8768 9.96852 14.0343 10.2836 15.1203Z" fill="#FED2A4"/>
<path d="M1 12.0157C1 11.3795 1.61977 10.8971 2.30083 11.0189C3.31359 11.2 4.7466 11.4853 5.96193 11.8371C7.53459 12.2924 8.98575 12.8034 9.64652 13.043C9.89022 13.1314 10.0876 13.2967 10.1864 13.5192C10.4778 14.1753 11.1007 15.8397 11.6005 18.9706C12.2771 23.2094 12.6154 24.8635 12.2771 25.5872C11.9388 26.3109 11.826 26.4143 8.33012 27.2414C6.01888 27.7882 3.55975 28.0187 2.15852 28.1121C1.52439 28.1543 1 27.69 1 27.1071V12.0157Z" fill="#1C737A"/>
<path d="M1 11.9495C1 11.3548 1.54319 10.9038 2.14009 11.0177C3.02772 11.1869 4.28365 11.4537 5.34882 11.7826C6.72716 12.2082 7.99901 12.6859 8.57813 12.91C8.79172 12.9926 8.9647 13.1471 9.05132 13.3551C9.30674 13.9685 9.85261 15.5244 10.2907 18.4515C10.8837 22.4141 11.1802 23.9606 10.8837 24.6371C10.5872 25.3137 10.4883 25.4103 7.42439 26.1835C5.39873 26.6947 3.24346 26.9102 2.01537 26.9975C1.45959 27.037 1 26.6029 1 26.058V11.9495Z" fill="#40A083"/>
</svg>
