<svg width="50" height="50" viewBox="0 0 50 50" fill="none" xmlns="http://www.w3.org/2000/svg">
<circle cx="25" cy="25" r="25" fill="#40A083" fill-opacity="0.1"/>
<path d="M20.585 25.4215C20.7849 24.7966 22.4242 25.7228 23.2188 26.264C23.9408 26.7138 23.5227 28.9444 22.7461 29.5571C21.9694 30.1697 18.5319 28.209 17.7282 27.0908C17.3688 26.5908 17.7012 25.36 18.228 25.5285L21.3886 26.5396C21.0374 26.4273 20.3851 26.0464 20.585 25.4215Z" fill="#FCD1A4"/>
<path d="M37.1172 44.5703H25.6172V36.5703H29.6172C30.1172 36.5703 30.1172 34.5703 30.1172 33.5703C30.1172 32.5703 31.1172 22.5703 31.1172 20.5703C31.1172 18.5703 35.1172 18.0703 37.6172 18.0703C40.1172 18.0703 41.6172 22.5703 41.6172 27.0703V39.0703C41.6172 43.5703 40.1172 44.5703 37.1172 44.5703Z" fill="#1C737A"/>
<path d="M34.1172 44.0703H25.6172V36.5703H29.5172C30.0172 36.5703 30.1172 34.5703 30.1172 33.5703C30.1172 32.5703 31.1172 23.5703 31.1172 21.5703C31.1172 19.5703 34.1172 19.0703 36.6172 19.0703C39.1172 19.0703 39.6172 22.5703 39.6172 27.0703V39.0703C39.6172 43.5703 37.1172 44.0703 34.1172 44.0703Z" fill="#40A083"/>
<path d="M33.1741 32.2025L35.7412 25.8621C36.2652 24.5678 35.6862 23.344 34.5462 22.8824C33.4062 22.4209 31.9374 23.2661 31.5701 24.1733L29.6492 28.9177L23.6243 26.4783L22.053 30.3592C24.186 31.2228 29.5905 33.2828 30.2304 33.5419C31.0302 33.8657 32.8068 33.1097 33.1741 32.2025Z" fill="#1C737A"/>
<path d="M32.2472 31.8277L34.7442 25.6602C35.2682 24.366 35.6323 23.2997 34.5541 22.8632C33.4759 22.4266 32.063 22.9564 31.5 24.3467L29.6492 28.9182L24.0877 26.6664L22.7487 29.9737L29.7005 32.7884C30.5004 33.1122 31.8799 32.7349 32.2472 31.8277Z" fill="#56B699"/>
<rect width="5" height="1" rx="0.5" transform="matrix(-0.724914 -0.68884 -0.68884 0.724914 36.6172 39.0137)" fill="#1C737A"/>
<path d="M38.7797 44.2811H35.6172V47.5703H38.2527H40.8588H40.8588C41.6042 47.5703 44.0215 47.5703 44.5486 47.1004C45.0757 46.6305 42.4402 45.2209 40.8588 43.8112C40.0253 43.0683 39.8339 44.2811 38.7797 44.2811Z" fill="#FCD1A4"/>
<path d="M36.1172 47.5703V44.0703H25.1172V39.5703H21.645C19.245 39.5703 19.145 41.5703 19.145 43.0703V43.5703C19.145 45.5703 19.645 47.5703 21.645 47.5703H36.1172Z" fill="#1C737A"/>
<path d="M33.6172 47.5703V44.5703H25.645V36.5703H23.1172C20.7172 36.5703 19.145 40.0425 19.145 41.5425V44.0703C19.145 46.0703 19.645 47.5703 21.645 47.5703H33.6172Z" fill="#40A083"/>
<path d="M35.5929 19.0232L32.0936 19.5328C30.4268 19.7755 28.9014 18.7824 28.6866 17.3146L28.0332 12.8496L37.5687 11.4611L38.2222 15.926C38.437 17.3938 37.2598 18.7805 35.5929 19.0232Z" fill="#FED2A4"/>
<path d="M35.0194 11.8326L35.6729 16.2976C35.8877 17.7654 34.7996 19.1391 33.2426 19.3658L35.7907 18.9947C37.3477 18.768 38.436 17.3943 38.2212 15.9265L37.5677 11.4616L35.0194 11.8326Z" fill="#FFBD86"/>
<path d="M32.9166 7.59149L31.3826 7.81488C29.173 8.13664 27.5798 9.75 27.8239 11.4185L28.0333 12.8491L37.5689 11.4606L37.3595 10.03C37.1153 8.36145 35.1262 7.26973 32.9166 7.59149Z" fill="#40A083"/>
<path d="M33.1928 7.55194L31.7647 7.7599C31.5759 7.7874 31.3921 7.82603 31.2139 7.87443C33.0391 7.83096 34.598 8.88514 34.8197 10.4004L35.0291 11.8311L37.5686 11.4613L37.3592 10.0307C37.1151 8.36214 35.2498 7.25241 33.1928 7.55194Z" fill="#1C737A"/>
<circle cx="14.9999" cy="12.9999" r="7.82609" fill="white"/>
<circle cx="14.9999" cy="12.9999" r="7.82609" fill="white"/>
<path fill-rule="evenodd" clip-rule="evenodd" d="M15 23C20.5228 23 25 18.5228 25 13C25 7.47715 20.5228 3 15 3C9.47715 3 5 7.47715 5 13C5 18.5228 9.47715 23 15 23ZM14.9999 20.826C19.3221 20.826 22.826 17.3221 22.826 12.9999C22.826 8.67769 19.3221 5.17383 14.9999 5.17383C10.6777 5.17383 7.17383 8.67769 7.17383 12.9999C7.17383 17.3221 10.6777 20.826 14.9999 20.826Z" fill="#137463"/>
<path fill-rule="evenodd" clip-rule="evenodd" d="M14.5652 22.566C19.8479 22.566 24.1304 18.2835 24.1304 13.0008C24.1304 7.71804 19.8479 3.43555 14.5652 3.43555C9.28249 3.43555 5 7.71804 5 13.0008C5 18.2835 9.28249 22.566 14.5652 22.566ZM14.9999 20.827C19.3221 20.827 22.826 17.3231 22.826 13.0009C22.826 8.67866 19.3221 5.1748 14.9999 5.1748C10.6777 5.1748 7.17383 8.67866 7.17383 13.0009C7.17383 17.3231 10.6777 20.827 14.9999 20.827Z" fill="#00998C"/>
<rect x="21.0879" y="12.5654" width="1.30435" height="0.869565" rx="0.434783" fill="#137463"/>
<rect x="14.5645" y="6.91309" width="1.30435" height="0.869565" rx="0.434783" transform="rotate(-90 14.5645 6.91309)" fill="#137463"/>
<rect x="14.5645" y="13.4346" width="5.21739" height="0.869565" rx="0.434783" transform="rotate(-90 14.5645 13.4346)" fill="#137463"/>
<rect x="15.3398" y="12.5654" width="4.02826" height="0.869565" rx="0.434783" transform="rotate(62.909 15.3398 12.5654)" fill="#137463"/>
<rect x="11.0859" y="12.5645" width="4.34783" height="0.869565" rx="0.434783" fill="#F2584C"/>
<rect x="14.1309" y="12.1309" width="1.73913" height="1.73913" rx="0.869565" fill="#137463"/>
<rect x="7.60938" y="12.5654" width="1.30435" height="0.869565" rx="0.434783" fill="#137463"/>
<rect x="14.5645" y="20.3906" width="1.30435" height="0.869565" rx="0.434783" transform="rotate(-90 14.5645 20.3906)" fill="#137463"/>
</svg>
