<svg width="50" height="50" viewBox="0 0 50 50" fill="none" xmlns="http://www.w3.org/2000/svg">
<circle cx="25" cy="25" r="25" fill="#40A083" fill-opacity="0.1"/>
<mask id="mask0_431_1147" style="mask-type:alpha" maskUnits="userSpaceOnUse" x="0" y="0" width="50" height="50">
<circle cx="25" cy="25" r="25" fill="#D8FFDB"/>
</mask>
<g mask="url(#mask0_431_1147)">
<path d="M42 19.7883C39.6778 21.8764 39.6778 24.9631 42 27.0521V48.5329C42 49.3432 41.316 50 40.4723 50H9.5277C8.68397 50 8 49.3432 8 48.5329V27.0521C10.3222 24.9631 10.3222 21.8773 8 19.7883V18.2022C8 14.5962 10.2781 11.2326 14.0931 9.20437L22.9103 4.5183C24.2105 3.82723 25.7895 3.82723 27.0897 4.5183L35.9069 9.20437C39.7218 11.2325 42 14.5962 42 18.2022V19.7883Z" fill="#1C737A"/>
<path d="M40 19.7883C37.8144 21.8764 37.8144 24.9631 40 27.0521V48.5329C40 49.3432 39.3563 50 38.5622 50H9.43783C8.64374 50 8 49.3432 8 48.5329V27.0521C10.1856 24.9631 10.1856 21.8773 8 19.7883V18.2022C8 14.5962 10.1441 11.2326 13.7346 9.20437L22.0332 4.5183C23.2569 3.82723 24.7431 3.82723 25.9668 4.5183L34.2654 9.20437C37.8559 11.2325 40 14.5962 40 18.2022V19.7883Z" fill="#40A083"/>
<path d="M40.2707 45.333H39.1035L39.1289 49.9997H40.2962L40.2707 45.333Z" fill="#1C737A"/>
<path d="M25.6921 25.7453H22.9411C21.6307 25.7453 20.5684 24.7434 20.5684 23.5075V19.748H28.0649V23.5075C28.0649 24.7434 27.0026 25.7453 25.6921 25.7453Z" fill="#FED2A4"/>
<path d="M25.6627 19.748V23.5075C25.6627 24.7434 24.4727 25.7453 23.0049 25.7453H25.4071C26.875 25.7453 28.065 24.7434 28.065 23.5075V19.748H25.6627Z" fill="#FFBD86"/>
<path d="M24.9196 16H23.7136C21.9765 16 20.5684 17.1388 20.5684 18.5437V19.7483H28.0649V18.5437C28.0649 17.1388 26.6567 16 24.9196 16Z" fill="white"/>
<path d="M24.7635 16H23.4975C23.3301 16 23.1657 16.0098 23.0049 16.0283C24.5946 16.2116 25.8139 17.2678 25.8139 18.5437V19.7483H28.065V18.5437C28.0652 17.1388 26.587 16 24.7635 16Z" fill="#E5E5E5"/>
<path d="M29.2759 39.8008H19.6602V26.6534L22.0573 25.3027H26.8691L29.2759 26.6534V39.8008Z" fill="white"/>
<path d="M26.869 25.3027H25.0137L27.4206 26.6534V39.8008H29.2759V26.6534L26.869 25.3027Z" fill="#E5E5E5"/>
<path d="M31.1953 28.994L30.5189 28.994C29.6804 28.994 29.0006 29.6085 29.0006 30.3664L29.0006 37.7572C29.0006 38.0353 29.2499 38.2607 29.5576 38.2607L32.3453 38.2607C32.6529 38.2607 32.9023 38.0353 32.9023 37.7572L32.9023 32.4081L31.1953 28.994Z" fill="white"/>
<path d="M29.544 38.2607L31.4754 38.2607C31.1751 38.2607 30.9315 38.0353 30.9315 37.7572L30.9315 30.3664C30.9315 29.6085 31.0328 28.994 31.8516 28.994L30.4826 28.994C29.6638 28.994 29 29.6085 29 30.3664L29 37.7572C29 38.0353 29.2436 38.2607 29.544 38.2607Z" fill="#E5E5E5"/>
<path d="M16 39.8007H19.6597V26.6533L18.7134 27.2638C17.0194 28.3567 16 30.2089 16 32.1938V39.8007Z" fill="white"/>
<path d="M18.7127 31.1164C18.3832 31.3289 18.0797 31.5706 17.8037 31.836V39.8014H19.659V30.5059L18.7127 31.1164Z" fill="#E5E5E5"/>
<path d="M32.9361 32.5517H30.9514C30.9514 32.5517 30.9514 31.6759 30.7075 30.9443C30.4636 30.2128 29.2764 29.4812 29.2764 29.4812V26.6533C29.2764 26.6533 31.4729 28.0389 32.1707 29.4812C32.8684 30.9235 32.9361 32.5517 32.9361 32.5517Z" fill="white"/>
<path d="M37 42H13L15 45H35L37 42Z" fill="#967152"/>
<path d="M35 50H15.0171L15 45H34.963L35 50Z" fill="#C8A07F"/>
<path fill-rule="evenodd" clip-rule="evenodd" d="M16.2721 27.0262C15.7318 27.4655 15.0333 28.2227 14.463 29.4796C13.3583 31.9144 13.453 35.1365 13.563 37.9809L12.5637 38.0195C12.4561 35.2347 12.3316 31.7571 13.5524 29.0664C14.19 27.6611 14.9874 26.7819 15.6412 26.2503C15.9671 25.9853 16.2554 25.8082 16.4675 25.6956C16.5735 25.6393 16.6606 25.5991 16.7238 25.572C16.7555 25.5585 16.7812 25.5482 16.8003 25.5409L16.8241 25.532L16.8322 25.5291L16.8353 25.528L16.8366 25.5275L16.8372 25.5273C16.8375 25.5273 16.8377 25.5272 16.9996 26.0002C17.1615 26.4733 17.1618 26.4732 17.162 26.4731L17.1625 26.473L17.1633 26.4727L17.1644 26.4723C17.165 26.4721 17.1651 26.472 17.1648 26.4721L17.1583 26.4746C17.1507 26.4775 17.1369 26.483 17.1174 26.4913C17.0784 26.508 17.0166 26.5363 16.9365 26.5788C16.7763 26.6639 16.5431 26.8058 16.2721 27.0262Z" fill="white"/>
<ellipse cx="17.5635" cy="25.7491" rx="1.41764" ry="0.937767" transform="rotate(-18.089 17.5635 25.7491)" fill="#FF8D8D"/>
<path d="M39 39.2519V39.747C39 40.9916 38.3378 42 37.5205 42H12.4795C11.6622 42 11 40.9916 11 39.747V39.2519C11 38.0084 11.6622 37 12.4795 37H37.5205C38.3378 37 39 38.0084 39 39.2519Z" fill="#C8A07F"/>
<path d="M24.5781 43C26.5542 43 28.1562 41.433 28.1562 39.5C28.1562 37.567 26.5542 36 24.5781 36C22.602 36 21 37.567 21 39.5C21 41.433 22.602 43 24.5781 43Z" fill="#FCE16C"/>
</g>
</svg>
