<svg width="103" height="102" viewBox="0 0 103 102" fill="none" xmlns="http://www.w3.org/2000/svg">
<path d="M71.4713 0H30.6713C13.7714 0 0.0712891 13.7001 0.0712891 30.6V71.4C0.0712891 88.2999 13.7714 102 30.6713 102H71.4713C88.3712 102 102.071 88.2999 102.071 71.4V30.6C102.071 13.7001 88.3712 0 71.4713 0Z" fill="white"/>
<path d="M83.8572 14.5713L43.265 56.8232C37.6009 62.7186 19.689 49.97 35.7372 33.2659C48.5755 19.9024 73.1666 15.2347 83.8572 14.5713Z" fill="#26A69A"/>
<path d="M18.2856 87.4282L58.8779 45.1764C64.5418 39.2807 82.4538 52.0293 66.4058 68.7337C53.5673 82.0969 28.9763 86.7647 18.2856 87.4282Z" fill="#26A69A"/>
</svg>
