<svg width="135" height="103" viewBox="0 0 135 103" fill="none" xmlns="http://www.w3.org/2000/svg">
<path d="M45.8017 101.853C90.8009 108.99 126.515 81.1303 126.515 48.2674C126.514 30.7786 88.5346 32.6264 71.4275 27.8834C50.0436 21.9545 41.8263 3.5417 25.8706 4.39386C-12.1904 6.42661 -10.4473 92.9315 45.8017 101.853Z" fill="#40A083" fill-opacity="0.2"/>
<path d="M53.4413 97.4878C98.4405 104.625 134.155 76.765 134.154 43.9022C134.154 26.4134 96.1743 28.2612 79.0672 23.5181C57.6833 17.5893 49.466 -0.823534 33.5102 0.0286237C-4.55078 2.06137 -2.80762 88.5663 53.4413 97.4878Z" fill="#40A083" fill-opacity="0.2"/>
<mask id="mask0_205_2575" style="mask-type:alpha" maskUnits="userSpaceOnUse" x="22" y="13" width="89" height="86">
<path d="M53.4413 97.4879C98.4405 104.625 110.5 85.8629 110.5 53C110.5 35.5112 96.1743 28.2612 79.0672 23.5181C57.6833 17.5893 82.4557 12.6482 66.5 13.5003C28.439 15.5331 -2.80762 88.5663 53.4413 97.4879Z" fill="url(#paint0_linear_205_2575)"/>
</mask>
<g mask="url(#mask0_205_2575)">
<path d="M92.2214 46.4432C88.2708 50.0597 88.2708 55.4057 92.2214 59.0238V96.2276C92.2214 97.6309 91.0578 98.7685 89.6224 98.7685H36.9779C35.5425 98.7685 34.3789 97.6309 34.3789 96.2276V59.0238C38.3295 55.4057 38.3295 50.0613 34.3789 46.4432V43.6963C34.3789 37.4508 38.2544 31.6251 44.7447 28.1124L59.745 19.9963C61.957 18.7994 64.6433 18.7994 66.8553 19.9963L81.8556 28.1124C88.3457 31.625 92.2214 37.4508 92.2214 43.6963V46.4432Z" fill="#40A083"/>
<path d="M90.2249 69.1857V69.8088C90.2249 71.3752 88.9558 72.6443 87.3894 72.6443H39.397C37.8306 72.6443 36.5615 71.3752 36.5615 69.8088V69.1857C36.5615 67.6206 37.8306 66.3516 39.397 66.3516H87.3894C88.9558 66.3516 90.2249 67.6206 90.2249 69.1857Z" fill="#C8A07F"/>
<path fill-rule="evenodd" clip-rule="evenodd" d="M42.8291 72.6445H81.1072H83.9566H83.9569L80.165 79.5832H80.1646H77.3154H46.6211L42.8291 72.6445Z" fill="#967152"/>
<path fill-rule="evenodd" clip-rule="evenodd" d="M80.2157 98.7689H80.2162L80.2092 96.6337L80.1575 79.6699H80.1536H77.4873H46.3838L46.4128 98.7689H77.5454H80.2157Z" fill="#C8A07F"/>
<path d="M63.3928 75.43C66.7427 75.43 69.4584 72.7144 69.4584 69.3644C69.4584 66.0145 66.7427 63.2988 63.3928 63.2988C60.0428 63.2988 57.3271 66.0145 57.3271 69.3644C57.3271 72.7144 60.0428 75.43 63.3928 75.43Z" fill="#FCE16C"/>
</g>
<path d="M51.8201 51.166C52.5668 51.166 52.9401 51.4693 52.9401 52.076C52.9401 52.692 52.5668 53 51.8201 53H47.4101C47.0835 53 46.8175 52.8973 46.6121 52.692C46.4068 52.4867 46.3041 52.2393 46.3041 51.95C46.3041 51.642 46.4208 51.3573 46.6541 51.096L49.5941 47.946H47.3401C46.5935 47.946 46.2201 47.638 46.2201 47.022C46.2201 46.4153 46.5935 46.112 47.3401 46.112H51.5821C51.9088 46.112 52.1748 46.2147 52.3801 46.42C52.5855 46.6253 52.6881 46.8727 52.6881 47.162C52.6881 47.4607 52.5715 47.7407 52.3381 48.002L49.3841 51.166H51.8201Z" fill="white"/>
<path d="M58.1572 58.69C58.6906 58.69 58.9572 58.9067 58.9572 59.34C58.9572 59.78 58.6906 60 58.1572 60H55.0072C54.7739 60 54.5839 59.9267 54.4372 59.78C54.2906 59.6333 54.2172 59.4567 54.2172 59.25C54.2172 59.03 54.3006 58.8267 54.4672 58.64L56.5672 56.39H54.9572C54.4239 56.39 54.1572 56.17 54.1572 55.73C54.1572 55.2967 54.4239 55.08 54.9572 55.08H57.9872C58.2206 55.08 58.4106 55.1533 58.5572 55.3C58.7039 55.4467 58.7772 55.6233 58.7772 55.83C58.7772 56.0433 58.6939 56.2433 58.5272 56.43L56.4172 58.69H58.1572Z" fill="white"/>
<defs>
<linearGradient id="paint0_linear_205_2575" x1="70.897" y1="0.000977901" x2="70.897" y2="98.6145" gradientUnits="userSpaceOnUse">
<stop stop-color="#2B9954"/>
<stop offset="1" stop-color="#3EB04C"/>
</linearGradient>
</defs>
</svg>
