<svg width="50" height="50" viewBox="0 0 50 50" fill="none" xmlns="http://www.w3.org/2000/svg">
<circle cx="25" cy="25" r="25" fill="#40A083" fill-opacity="0.2"/>
<mask id="mask0_262_9" style="mask-type:alpha" maskUnits="userSpaceOnUse" x="0" y="1" width="50" height="49">
<ellipse cx="25" cy="25.4543" rx="25" ry="24.4543" fill="#D8FFDB"/>
</mask>
<g mask="url(#mask0_262_9)">
<path d="M42 19.7883C39.6778 21.8764 39.6778 24.9631 42 27.0521V48.5329C42 49.3432 41.316 50 40.4723 50H9.5277C8.68397 50 8 49.3432 8 48.5329V27.0521C10.3222 24.9631 10.3222 21.8773 8 19.7883V18.2022C8 14.5962 10.2781 11.2326 14.0931 9.20437L22.9103 4.5183C24.2105 3.82723 25.7895 3.82723 27.0897 4.5183L35.9069 9.20437C39.7218 11.2325 42 14.5962 42 18.2022V19.7883Z" fill="#1C737A"/>
<path d="M40 19.7883C37.8144 21.8764 37.8144 24.9631 40 27.0521V48.5329C40 49.3432 39.3563 50 38.5622 50H9.43783C8.64374 50 8 49.3432 8 48.5329V27.0521C10.1856 24.9631 10.1856 21.8773 8 19.7883V18.2022C8 14.5962 10.1441 11.2326 13.7346 9.20437L22.0332 4.5183C23.2569 3.82723 24.7431 3.82723 25.9668 4.5183L34.2654 9.20437C37.8559 11.2325 40 14.5962 40 18.2022V19.7883Z" fill="#40A083"/>
<path d="M40.2707 45.3333H39.1035L39.1289 49.9999H40.2962L40.2707 45.3333Z" fill="#1C737A"/>
<path d="M26.8706 24.3333H24.2445C22.9936 24.3333 21.9795 23.3589 21.9795 22.1567V18.5H29.1357V22.1567C29.1357 23.3589 28.1216 24.3333 26.8706 24.3333Z" fill="#FED2A4"/>
<path d="M26.8711 18.5V22.1567C26.8711 23.3589 25.7491 24.3333 24.3652 24.3333H26.6301C28.014 24.3333 29.136 23.3589 29.136 22.1567V18.5H26.8711Z" fill="#FFBD86"/>
<path d="M26.1332 15H24.9819C23.3237 15 21.9795 16.0634 21.9795 17.3752V18.5H29.1357V17.3752C29.1357 16.0634 27.7915 15 26.1332 15V15Z" fill="#F3F3F3"/>
<path d="M26.0233 15H24.8297C24.6719 15 24.5168 15.0091 24.3652 15.0264C25.8641 15.1976 27.0136 16.1838 27.0136 17.3752V18.5H29.136V17.3752C29.1361 16.0634 27.7425 15 26.0233 15Z" fill="#E5E5E5"/>
<path d="M30.2858 37.697H21.1162V25.1596L23.4021 23.8716H27.9906L30.2858 25.1596V37.697Z" fill="#F3F3F3"/>
<path d="M27.99 23.8716H26.2207L28.516 25.1596V37.697H30.2852V25.1596L27.99 23.8716Z" fill="#E5E5E5"/>
<path d="M33.2695 30.7844H35.4014C36.1514 30.7844 36.7594 30.1896 36.7594 29.456V22.3023C36.7594 22.0332 36.5364 21.8149 36.2612 21.8149H33.7678C33.4927 21.8149 33.2695 22.0331 33.2695 22.3023V30.7844Z" fill="#F3F3F3"/>
<path d="M36.2608 21.8149H34.4916C34.7667 21.8149 34.9899 22.0331 34.9899 22.3023V29.456C34.9899 30.1896 34.3818 30.7844 33.6318 30.7844H35.401C36.151 30.7844 36.7591 30.1896 36.7591 29.456V22.3023C36.7591 22.0331 36.5359 21.8149 36.2608 21.8149V21.8149Z" fill="#E5E5E5"/>
<path d="M17.626 37.6971H21.1159V25.1597L20.2135 25.7419C18.5981 26.784 17.626 28.5503 17.626 30.4431V37.6971Z" fill="#F3F3F3"/>
<path d="M20.2135 29.415C19.8993 29.6176 19.6098 29.8481 19.3467 30.1012V37.6971H21.1159V28.8328L20.2135 29.415Z" fill="#E5E5E5"/>
<path d="M33.7751 30.7844H30.2852V25.1597L33.7751 27.4111V30.7844Z" fill="#F3F3F3"/>
<path d="M36.2868 21.8149H33.6969V19.8434C33.6969 19.533 33.6496 17.4268 34.0794 17.8473C34.5092 18.2677 34.0794 19.529 35.7123 19.2815C36.2868 19.3505 36.2867 19.5331 36.2867 19.8434L36.2868 21.8149Z" fill="#FED2A4"/>
<path d="M39 39.2519V39.747C39 40.9916 38.3378 42 37.5205 42H12.4795C11.6622 42 11 40.9916 11 39.747V39.2519C11 38.0084 11.6622 37 12.4795 37H37.5205C38.3378 37 39 38.0084 39 39.2519V39.2519Z" fill="#C8A07F"/>
<path d="M37 42H13L15 45H35L37 42Z" fill="#967152"/>
<path d="M35 50H15.0171L15 45H34.963L35 50Z" fill="#C8A07F"/>
<path d="M24.5781 43C26.5542 43 28.1562 41.433 28.1562 39.5C28.1562 37.567 26.5542 36 24.5781 36C22.602 36 21 37.567 21 39.5C21 41.433 22.602 43 24.5781 43Z" fill="#FCE16C"/>
</g>
</svg>
