<svg width="51" height="50" viewBox="0 0 51 50" fill="none" xmlns="http://www.w3.org/2000/svg">
<circle cx="26" cy="25" r="25" fill="#40A083" fill-opacity="0.1"/>
<rect x="43.6692" y="2.26172" width="4.13383" height="43.8746" rx="2.06692" transform="rotate(70.6725 43.6692 2.26172)" fill="#1C737A"/>
<path fill-rule="evenodd" clip-rule="evenodd" d="M23.7375 14.9764L23.1482 14.9619L7.05938 15.3564C6.95391 15.359 6.84902 15.3639 6.74474 15.3711L5.62261 15.3972C3.06276 15.4566 0.947888 17.344 0.685836 19.8029C0.66402 20.0076 0.642817 20.2124 0.622228 20.4172C0.555392 20.6948 0.506656 20.9795 0.477318 21.2701C-0.159106 27.5735 -0.159106 33.9218 0.477317 40.2252C0.506658 40.5158 0.555401 40.8005 0.622248 41.0782C0.64283 41.2829 0.664026 41.4876 0.685835 41.6922C0.947886 44.1511 3.06275 46.0385 5.6226 46.098L6.74221 46.124C6.84731 46.1313 6.95306 46.1362 7.05938 46.1388L23.1482 46.5333L23.7399 46.5188L24.3594 46.5332L24.9486 46.5195L25.5707 46.5333L45.564 46.092C48.0522 46.0371 50.1127 44.2103 50.3807 41.8217C51.2064 34.4605 51.2064 27.0348 50.3807 19.6736C50.1127 17.285 48.0522 15.4582 45.564 15.4033L25.5707 14.9621L24.9527 14.9757L24.3594 14.9619L23.7375 14.9764ZM37.6829 19.6396C38.6864 19.6396 39.4998 20.4248 39.4998 21.3935V40.1018C39.4998 41.0704 38.6864 41.8557 37.6829 41.8557C36.6795 41.8557 35.8661 41.0704 35.8661 40.1018L35.8661 21.3935C35.8661 20.4248 36.6795 19.6396 37.6829 19.6396ZM45.435 27.2398C47.4419 27.2398 49.0688 28.8103 49.0688 30.7476C49.0688 32.6849 47.4419 34.2554 45.435 34.2554C43.4282 34.2554 41.8013 32.6849 41.8013 30.7476C41.8013 28.8103 43.4282 27.2398 45.435 27.2398ZM17.5667 40.8667C23.5129 40.8667 28.3333 36.0463 28.3333 30.1C28.3333 24.1537 23.5129 19.3333 17.5667 19.3333C11.6204 19.3333 6.8 24.1537 6.8 30.1C6.8 36.0463 11.6204 40.8667 17.5667 40.8667Z" fill="#1C737A"/>
<circle cx="17.5666" cy="30.1001" r="6.86667" fill="#1C737A" stroke="black"/>
<circle cx="17.5666" cy="30.1001" r="7.36667" fill="#E7FCB6"/>
<path fill-rule="evenodd" clip-rule="evenodd" d="M24.3433 14.3851L23.7671 14.3711L8.03581 14.7535C7.93268 14.756 7.83012 14.7607 7.72816 14.7677L6.63096 14.793C4.128 14.8506 2.06012 16.6799 1.8039 19.0631C1.78256 19.2615 1.76183 19.46 1.7417 19.6585C1.70792 19.7976 1.67887 19.75 1.65473 19.7104C1.63216 19.6735 1.61387 19.6435 1.60001 19.7796C0.977731 25.8891 0.97773 32.042 1.60001 38.1515C1.6287 38.4332 1.67636 38.7091 1.74172 38.9782C1.76185 39.1767 1.78257 39.3751 1.80389 39.5734C2.06012 41.9566 4.12799 43.7859 6.63096 43.8436L7.72568 43.8688C7.82845 43.8758 7.93184 43.8806 8.03581 43.8832L23.7671 44.2656L24.3457 44.2515L24.9514 44.2654L25.5275 44.2522L26.1357 44.2655L45.6848 43.8378C48.1176 43.7846 50.1324 42.014 50.3944 39.6989C51.2018 32.5642 51.2018 26.0725 50.3944 18.9378C50.1324 16.6227 48.1176 14.8521 45.6848 14.7989L26.1357 14.3712L25.5315 14.3844L24.9514 14.3711L24.3433 14.3851ZM37.9666 19.9761C38.9478 19.9761 40.2333 20.0934 40.2333 21.0322V39.7323C40.2333 40.6711 39.0242 41.4322 38.0431 41.4322C37.062 41.4322 36.2666 40.6711 36.2666 39.7323L36.1901 21.6761C36.1901 20.7372 36.9855 19.9761 37.9666 19.9761ZM45.5587 26.6991C47.5209 26.6991 49.1116 28.2213 49.1116 30.099C49.1116 31.9767 47.5209 33.4989 45.5587 33.4989C43.5964 33.4989 42.0057 31.9767 42.0057 30.099C42.0057 28.2213 43.5964 26.6991 45.5587 26.6991ZM17.5666 39.7322C22.887 39.7322 27.2 35.4192 27.2 30.0989C27.2 24.7785 22.887 20.4656 17.5666 20.4656C12.2463 20.4656 7.9333 24.7785 7.9333 30.0989C7.9333 35.4192 12.2463 39.7322 17.5666 39.7322Z" fill="#40A083"/>
</svg>
