<svg width="50" height="50" viewBox="0 0 50 50" fill="none" xmlns="http://www.w3.org/2000/svg">
<circle cx="25" cy="25" r="25" fill="#40A083" fill-opacity="0.1"/>
<path d="M37.0117 21.8769C37.0117 21.8809 37.0117 21.8884 37.016 21.8987C37.0144 21.8918 37.0133 21.8844 37.0117 21.8769Z" fill="#1C737A"/>
<path d="M24.0961 23.953C24.1518 23.8378 24.2302 23.7367 24.326 23.6566C24.4218 23.5765 24.5327 23.5192 24.6511 23.4887C24.9629 23.401 25.3265 23.4159 25.6043 23.3941C28.2274 23.2003 30.6958 22.0042 32.5533 20.0267C34.2046 18.2818 35.2779 16.0141 35.6114 13.5651C35.6869 13.0068 35.6869 12.8681 35.6869 12.8681C35.6869 12.6818 35.7403 12.5 35.84 12.3468C35.9397 12.1935 36.0809 12.0762 36.2449 12.0104C36.4089 11.9445 36.5878 11.9333 36.758 11.9782C36.9281 12.0231 37.0813 12.122 37.1973 12.2617C37.1973 12.2617 37.6224 12.7535 37.823 13.247C38.3858 14.6249 38.6258 16.1272 38.5225 17.6252C38.4192 19.1232 37.9755 20.5723 37.2297 21.8482C37.0894 22.0964 37.0894 22.2111 37.1207 22.469C37.268 23.2778 37.5258 24.7044 37.6601 25.4444C37.7046 25.6844 37.6881 25.9326 37.6122 26.1636C37.5363 26.3945 37.4039 26.5997 37.2286 26.7582L37.2038 26.7805C36.9718 26.9763 36.6844 27.0829 36.3881 27.0832C36.2215 27.0833 36.0565 27.0485 35.9026 26.9806L33.0161 25.7969C32.9168 25.7568 32.807 25.7568 32.7076 25.7969C31.571 26.2463 30.388 26.4848 29.2671 26.4848C27.8704 26.4862 26.4906 26.1601 25.2262 25.5298C24.9316 25.3831 24.471 25.2238 24.2012 24.8924C24.0992 24.7639 24.0348 24.6065 24.0161 24.4395C23.9974 24.2725 24.0252 24.1034 24.0961 23.953Z" fill="#1C737A"/>
<path d="M16.1652 22.4143C16.3428 22.4103 16.5182 22.3714 16.6825 22.2997L19.7454 21.1459L19.768 21.1361C19.8348 21.1065 19.9066 21.0917 19.979 21.0926C20.0457 21.0926 20.1118 21.1054 20.1742 21.1304C20.2487 21.1602 20.9192 21.4279 21.6226 21.6331C22.004 21.7443 23.3316 22.1071 24.3969 22.1071C27.12 22.1071 29.6661 20.9951 31.5655 18.9758C32.4933 17.9959 33.2291 16.8302 33.7301 15.5461C34.2311 14.262 34.4875 12.8851 34.4843 11.4951C34.4844 10.7708 34.4109 10.0486 34.2653 9.34105C33.7912 7.01275 32.5354 4.89482 30.7293 3.37988C28.8767 1.83573 26.5897 0.997615 24.2351 1.00001C21.4187 1.00001 18.7944 2.14638 16.8449 4.22018C15.0021 6.1845 13.9923 8.76728 14.0004 11.4922C14.002 13.517 14.571 15.4955 15.6349 17.1754L15.6452 17.1914L15.6851 17.2488C15.6942 17.2619 15.7034 17.2745 15.712 17.2877L15.7201 17.3032C15.7416 17.342 15.761 17.382 15.7784 17.423L14.9293 20.6294C14.8918 20.7617 14.8715 20.8988 14.8689 21.037C14.8687 21.2179 14.9021 21.3971 14.9671 21.5643C15.0322 21.7315 15.1277 21.8835 15.2481 22.0114C15.3685 22.1394 15.5115 22.2408 15.6689 22.3099C15.8262 22.3791 15.9949 22.4146 16.1652 22.4143Z" fill="#40A083"/>
<mask id="mask0_431_1146" style="mask-type:alpha" maskUnits="userSpaceOnUse" x="1" y="22" width="27" height="27">
<path d="M27.2727 33.5459C27.2727 45.257 26.0923 48.4679 12.9393 48.4679C-0.21358 48.4679 1.03155 46.337 1.03155 34.6258C1.03155 22.9146 -0.21358 22.6489 12.9393 22.6489C26.0923 22.6489 27.2727 21.8347 27.2727 33.5459Z" fill="#C4C4C4"/>
</mask>
<g mask="url(#mask0_431_1146)">
<path d="M14.1834 35.2212H10.9426C9.39891 35.2212 8.14746 34.041 8.14746 32.5851V28.1562H16.9786V32.5851C16.9786 34.041 15.7272 35.2212 14.1834 35.2212Z" fill="#FED2A4"/>
<path d="M14.1486 28.1562V32.5851C14.1486 34.041 12.7468 35.2212 11.0176 35.2212H13.8475C15.5767 35.2212 16.9786 34.041 16.9786 32.5851V28.1562H14.1486Z" fill="#FFBD86"/>
<path d="M13.2734 23.7402H11.8527C9.80631 23.7402 8.14746 25.0818 8.14746 26.7368V28.1558H16.9786V26.7368C16.9786 25.0818 15.3198 23.7402 13.2734 23.7402Z" fill="white"/>
<path d="M13.0893 23.7402H11.5979C11.4007 23.7402 11.207 23.7518 11.0176 23.7736C12.8903 23.9895 14.3266 25.2338 14.3266 26.7368V28.1558H16.9786V26.7368C16.9787 25.0818 15.2374 23.7402 13.0893 23.7402Z" fill="#D5D5D5"/>
<path d="M18.4058 51.7795H7.07812V36.2913L9.90206 34.7002H15.5705L18.4058 36.2913V51.7795Z" fill="white"/>
<path d="M15.5705 34.7002H13.3848L16.2202 36.2913V51.7795H18.4058V36.2913L15.5705 34.7002Z" fill="#D5D5D5"/>
<path d="M22.0918 43.2396H24.7254C25.6519 43.2396 26.4031 42.5048 26.4031 41.5985V32.7613C26.4031 32.4288 26.1275 32.1592 25.7875 32.1592H22.7073C22.3674 32.1592 22.0918 32.4287 22.0918 32.7613V43.2396Z" fill="white"/>
<path d="M25.7877 32.1592H23.6021C23.942 32.1592 24.2177 32.4287 24.2177 32.7613V41.5985C24.2177 42.5048 23.4666 43.2396 22.54 43.2396H24.7256C25.6521 43.2396 26.4033 42.5048 26.4033 41.5985V32.7613C26.4033 32.4287 26.1276 32.1592 25.7877 32.1592Z" fill="#D5D5D5"/>
<path d="M2.7666 51.7791H7.07786V36.291L5.96309 37.0102C3.96751 38.2977 2.7666 40.4796 2.7666 42.8179V51.7791Z" fill="white"/>
<path d="M5.9634 41.5483C5.57529 41.7987 5.21766 42.0834 4.89258 42.396V51.7796H7.07817V40.8291L5.9634 41.5483Z" fill="#D5D5D5"/>
<path d="M22.7165 43.2395H18.4053V36.291L22.7165 39.0724V43.2395Z" fill="white"/>
<path d="M25.8196 32.1592H22.6201V29.7236C22.6201 29.3402 22.5616 26.7384 23.0926 27.2577C23.6236 27.7771 23.0926 29.3352 25.1099 29.0295C25.8196 29.1148 25.8195 29.3403 25.8195 29.7236L25.8196 32.1592Z" fill="#FED2A4"/>
</g>
<mask id="mask1_431_1146" style="mask-type:alpha" maskUnits="userSpaceOnUse" x="25" y="27" width="24" height="22">
<path d="M48.8372 38.7114C48.8372 48.1733 51.1918 48.4673 38.0006 48.4673C24.8094 48.4673 25.837 47.6181 25.837 38.1561C25.837 28.6941 24.8094 27.0518 38.0006 27.0518C51.1918 27.0518 48.8372 29.2494 48.8372 38.7114Z" fill="#C4C4C4"/>
</mask>
<g mask="url(#mask1_431_1146)">
<path d="M38.781 40.2983H35.5403C33.9966 40.2983 32.7451 39.1181 32.7451 37.6622V33.2334H41.5763V37.6622C41.5763 39.1181 40.3248 40.2983 38.781 40.2983Z" fill="#FED2A4"/>
<path d="M38.7462 33.2334V37.6622C38.7462 39.1181 37.3444 40.2983 35.6152 40.2983H38.4452C40.1743 40.2983 41.5763 39.1181 41.5763 37.6622V33.2334H38.7462Z" fill="#FFBD86"/>
<path d="M37.8716 28.8176L34.0981 28.1553C32.0517 28.1553 30.676 30.3631 32.7456 33.2332H41.5768V31.8142C41.5768 30.1592 39.9179 28.8176 37.8716 28.8176Z" fill="#4F4F4F"/>
<path d="M38.925 28.8179L36.9685 28.5972C36.7712 28.5972 35.1709 28.3546 34.9814 28.3764C36.8542 28.5923 38.925 30.3114 38.925 31.8145V33.2335H41.577V31.8145C41.5771 30.1595 40.8321 29.3699 38.925 28.8179Z" fill="#333333"/>
<path d="M43.0391 56.8564H31.5586V41.4402L34.4206 39.8564H40.1655L43.0391 41.4402V56.8564Z" fill="#40A083"/>
<path d="M40.1724 39.8564H37.9619L40.8295 41.4402V56.8564H43.0398V41.4402L40.1724 39.8564Z" fill="#1C737A"/>
<path d="M27.3643 56.8563H31.6755V41.3682L30.5607 42.0874C28.5652 43.3748 27.3643 45.5567 27.3643 47.8951V56.8563Z" fill="#40A083"/>
<path d="M47.4551 56.8569H43.0395V41.4023L44.1812 42.12C46.2251 43.4047 47.4551 45.5818 47.4551 47.9151V56.8569Z" fill="#40A083"/>
<path d="M30.5611 46.6255C30.1729 46.8758 29.8153 47.1605 29.4902 47.4732V56.8568H31.6758V45.9062L30.5611 46.6255Z" fill="#1C737A"/>
<path d="M44.1654 46.5424C44.5574 46.7948 44.9187 47.0818 45.2471 47.3969V56.8563H43.0393V45.8174L44.1654 46.5424Z" fill="#1C737A"/>
</g>
</svg>
