<svg width="50" height="50" viewBox="0 0 50 50" fill="none" xmlns="http://www.w3.org/2000/svg">
<circle cx="25" cy="25" r="25" fill="#40A083" fill-opacity="0.1"/>
<path d="M7.00122 41.1139L26.99 39.9276H43.49V4.13519C43.49 2.9562 42.5105 2 41.3015 2H9.18724C7.9795 2 6.99999 2.9562 6.99999 4.13519V41.1139H7.00122Z" fill="#40A083"/>
<path d="M7.05165 3.67756V41.1139H9.78418V2H9.18833C8.1422 2 7.26631 2.71775 7.05165 3.67756Z" fill="#1C737A"/>
<path d="M7.99549 39.9276H41.9355V45.5034H7.99549V39.9276Z" fill="#E7FCB6"/>
<path d="M7.00122 41.6486V43.7838C7.00122 45.418 8.35947 46.7439 10.0335 46.7439H43.49V45.5035H10.0668C9.07499 45.5035 8.27188 44.7183 8.27188 43.7513V41.6799C8.27188 40.7117 9.07499 39.9277 10.0668 39.9277H43.49V38.6873H10.0335C8.35947 38.6885 7.00122 40.0132 7.00122 41.6486Z" fill="#1C737A"/>
<path d="M8.41986 43.6465H41.9355V43.8873H8.41986V43.6465Z" fill="#8AC1A3"/>
<path d="M12.539 48.6201L13.9121 47.7398L15.2864 48.6201V41.6967H12.539V48.6201Z" fill="#FFCD2D"/>
<path d="M8.27183 41.5763H41.9355V41.8172H8.27183V41.5763Z" fill="#8AC1A3"/>
<path fill-rule="evenodd" clip-rule="evenodd" d="M29.1592 26.128L30.3983 28.6851L29.8049 28.2793L28.9154 26.2407C28.9976 26.2049 29.0789 26.1677 29.1592 26.128ZM32.7939 21.5753L33.0033 21.6242L33.2393 21.8384L32.9559 21.9153L32.7233 21.8505C32.7484 21.7601 32.7721 21.6682 32.7939 21.5753ZM32.6609 22.0628L33.8221 22.4275L34.1032 22.8154L32.5883 22.2824C32.6135 22.2099 32.6377 22.1368 32.6609 22.0628ZM32.4751 22.5799C32.4413 22.6631 32.406 22.7453 32.3687 22.8265L34.9573 23.9984L34.536 23.4161L32.4751 22.5799ZM32.2348 23.1056L35.5232 24.7796L36.0117 25.4552L35.1793 25.4011L32.0118 23.5075C32.0906 23.376 32.1651 23.242 32.2348 23.1056ZM31.8469 23.7687L34.2163 25.3372L33.4986 25.2908L31.694 23.9902C31.7468 23.9172 31.7975 23.8437 31.8469 23.7687ZM31.5025 24.2432C31.4546 24.3036 31.4058 24.3631 31.3555 24.4221L32.2812 25.211L32.7591 25.2419L31.5025 24.2432ZM31.1398 24.6635L31.2999 24.8129L31.3976 25.1162L31.1136 25.0417L30.9415 24.8666C31.0087 24.8004 31.075 24.7326 31.1398 24.6635ZM30.7248 25.0702L31.5431 25.981L31.5867 26.4579L30.5507 25.2221C30.6097 25.1723 30.6677 25.122 30.7248 25.0702ZM30.303 25.4209C30.2319 25.4751 30.1599 25.5283 30.0868 25.5795L31.7197 27.9108L31.6544 27.1954L30.303 25.4209ZM29.829 25.7517L29.4716 25.9858L31.1939 29.2302L31.8822 29.7008L31.8067 28.8708L29.829 25.7517ZM28.1193 26.5328L28.1822 26.7432L28.113 27.0542L27.9055 26.8467L27.8451 26.6073C27.937 26.5851 28.0284 26.5599 28.1193 26.5328ZM28.6213 26.3621C28.5493 26.3897 28.4767 26.4163 28.4037 26.4414L28.7974 27.5906L29.1925 27.861L28.6213 26.3621ZM27.5583 26.6736L27.802 27.8716L27.5984 28.3045L27.3309 26.7161C27.4074 26.7026 27.4828 26.6886 27.5583 26.6736ZM27.0166 26.7611L27.2826 28.9744L26.9764 29.6244L26.7491 26.7882C26.839 26.7809 26.928 26.7718 27.0166 26.7611ZM26.44 26.8061L26.5658 30.4969L26.2108 31.2509L25.8558 30.4969L25.9815 26.8066C26.055 26.809 26.1286 26.8105 26.2021 26.8105C26.2819 26.8105 26.3612 26.809 26.44 26.8061ZM25.672 26.7897L25.4451 29.6249L25.139 28.9748L25.405 26.7635C25.493 26.7737 25.582 26.7824 25.672 26.7897ZM25.0896 26.7186L24.8227 28.304L24.6186 27.8711L24.8618 26.677C24.9378 26.692 25.0137 26.706 25.0896 26.7186ZM24.5199 26.5981L24.4628 26.824L24.2437 27.0557L24.1717 26.7713L24.2461 26.5212C24.3371 26.5488 24.428 26.5744 24.5199 26.5981ZM23.9632 26.4288L23.5651 27.5906L23.17 27.861L23.747 26.3486C23.8181 26.3766 23.8907 26.4032 23.9632 26.4288ZM23.4539 26.2257C23.3722 26.1894 23.2914 26.1512 23.2116 26.1116L21.9647 28.6856L22.5582 28.2798L23.4539 26.2257ZM22.9378 25.9684L21.1681 29.2302L20.4799 29.7008L20.5558 28.8708L22.5451 25.7333C22.6733 25.816 22.8044 25.8944 22.9378 25.9684ZM22.2897 25.5602L20.6434 27.9108L20.7086 27.1954L22.075 25.4011C22.1451 25.4552 22.2172 25.5084 22.2897 25.5602ZM21.8288 25.2018C21.7703 25.152 21.7127 25.1012 21.6561 25.0494L20.8194 25.9805L20.7759 26.4569L21.8288 25.2018ZM21.3964 24.8013L21.2155 24.9817L20.9084 25.0688L20.9926 24.7878L21.201 24.5963C21.2649 24.6659 21.3302 24.7341 21.3964 24.8013ZM21.0308 24.4018L20.0813 25.2105L19.6035 25.2419L20.8857 24.2234C20.9331 24.2838 20.9814 24.3433 21.0308 24.4018ZM20.6951 23.9704C20.6434 23.8978 20.5931 23.8243 20.5442 23.7503L18.1462 25.3377L18.8635 25.2908L20.6951 23.9704ZM20.3802 23.4892C20.3024 23.3586 20.2293 23.2251 20.1607 23.0887L16.8394 24.7796L16.3509 25.4548L17.1832 25.4001L20.3802 23.4892ZM20.0277 22.8106L17.4048 23.998L17.826 23.4156L19.9227 22.5649C19.9561 22.6481 19.9914 22.7298 20.0277 22.8106ZM19.8115 22.2694C19.7863 22.1973 19.7616 22.1247 19.7389 22.0512L18.5404 22.4275L18.2599 22.8154L19.8115 22.2694ZM19.6814 21.8534L19.4265 21.925L19.116 21.8505L19.3273 21.6464L19.6117 21.5792C19.6325 21.6716 19.6557 21.763 19.6814 21.8534ZM22.401 20.8039C22.3923 20.7608 22.3845 20.7168 22.3773 20.6733L17.9494 21.4172L18.3827 21.6208L22.401 20.8039ZM22.3521 20.4929L17.2785 21.1018L16.628 20.7961L22.3376 20.3396C22.3415 20.3913 22.3463 20.4421 22.3521 20.4929ZM22.3284 20.1625C22.3275 20.1248 22.3265 20.0871 22.3265 20.0494C22.3265 19.9991 22.3279 19.9492 22.3299 19.8994L15.7545 19.676L15 20.031L15.7545 20.3855L22.3284 20.1625ZM22.3405 19.7219L16.628 19.2653L17.2785 18.9597L22.3565 19.5691C22.3502 19.6199 22.3449 19.6711 22.3405 19.7219ZM22.3831 19.3892C22.3908 19.3456 22.3986 19.3021 22.4077 19.2591L18.3827 18.4402L17.9494 18.6438L22.3831 19.3892ZM19.6146 18.5016L19.3486 18.4397L19.1126 18.225L19.396 18.1481L19.6852 18.2284C19.6596 18.3183 19.6359 18.4097 19.6146 18.5016ZM19.7568 17.989L18.6018 17.6219L18.2836 17.2345L19.8279 17.7815C19.8032 17.8502 19.7795 17.9193 19.7568 17.989ZM19.9411 17.4864C19.9749 17.4042 20.0107 17.3225 20.048 17.2417L17.4304 16.0505L17.8502 16.6337L19.9411 17.4864ZM20.1829 16.9646L16.8669 15.2674L16.3799 14.5912L17.2118 14.6474L20.4059 16.5655C20.327 16.6961 20.253 16.8291 20.1829 16.9646ZM20.5713 16.3058L18.1743 14.7126L18.8915 14.761L20.7236 16.0867C20.6719 16.1588 20.6211 16.2318 20.5713 16.3058ZM20.9161 15.8357C20.964 15.7757 21.0129 15.7167 21.0627 15.6582L20.1099 14.8432L19.632 14.8108L20.9161 15.8357ZM21.2194 15.4821L21.0129 15.2926L20.9128 14.9893L21.1976 15.0614L21.4148 15.278C21.3485 15.3448 21.2832 15.4125 21.2194 15.4821ZM21.6557 15.0483L20.8194 14.1274L20.7735 13.651L21.8288 14.8964C21.7703 14.9463 21.7122 14.9966 21.6557 15.0483ZM22.0745 14.6972C22.1451 14.6425 22.2167 14.5898 22.2897 14.538L20.6327 12.1991L20.7019 12.9139L22.0745 14.6972ZM22.5451 14.3644C22.6733 14.2817 22.8044 14.2038 22.9378 14.1298L21.1502 10.8767L20.4596 10.4095L20.5399 11.239L22.5451 14.3644ZM23.2116 13.9867L21.9492 11.417L22.5451 11.8194L23.4544 13.872C23.3727 13.9088 23.2919 13.947 23.2116 13.9867ZM23.7465 13.7497C23.8181 13.7216 23.8902 13.695 23.9627 13.6694L23.556 12.5028L23.1594 12.2344L23.7465 13.7497ZM24.2447 13.577L24.1678 13.3197L24.237 13.0087L24.4444 13.2162L24.5165 13.5006C24.4256 13.5243 24.3347 13.5499 24.2447 13.577ZM24.827 13.429L24.5823 12.2271L24.7859 11.7942L25.0539 13.386C24.9779 13.3985 24.9025 13.413 24.827 13.429ZM25.3682 13.3395L25.1017 11.1244L25.4079 10.4738L25.6352 13.312C25.5457 13.3192 25.4567 13.3284 25.3682 13.3395ZM25.9443 13.2931L25.8185 9.60132L26.174 8.84729L26.5295 9.60083L26.4038 13.2907C26.3365 13.2887 26.2698 13.2873 26.2021 13.2873C26.1155 13.2878 26.0299 13.2897 25.9443 13.2931ZM26.7128 13.3071L26.9397 10.4734L27.2463 11.1234L26.9808 13.3323C26.8918 13.3226 26.8023 13.3139 26.7128 13.3071ZM27.2951 13.3768L27.5616 11.7942L27.7653 12.2271L27.5229 13.4174C27.4475 13.4024 27.3716 13.3893 27.2951 13.3768ZM27.8098 13.4812L27.8712 13.2346L28.0893 13.0019L28.1619 13.2863L28.083 13.5548C27.9931 13.5282 27.9017 13.504 27.8098 13.4812ZM28.4047 13.6568L28.8071 12.5028L29.2037 12.2349L28.6218 13.7361C28.5498 13.7081 28.4777 13.682 28.4047 13.6568ZM28.9154 13.857C28.9976 13.8933 29.0784 13.9306 29.1587 13.9697L30.4128 11.4165L29.8174 11.8194L28.9154 13.857ZM29.4344 14.1124L31.2128 10.8767L31.9035 10.4095L31.8232 11.239L29.8295 14.3465C29.7004 14.2638 29.5688 14.1859 29.4344 14.1124ZM30.0863 14.5182L31.7298 12.1981L31.6611 12.9134L30.3035 14.6773C30.2319 14.6232 30.1599 14.57 30.0863 14.5182ZM30.5511 14.8761C30.6102 14.9259 30.6682 14.9767 30.7253 15.028L31.5436 14.1269L31.5896 13.651L30.5511 14.8761ZM30.9023 15.1929L31.073 15.0183L31.3787 14.9274L31.2979 15.2094L31.1016 15.3941C31.0367 15.3259 30.97 15.2587 30.9023 15.1929ZM31.3236 15.6384L32.2531 14.8432L32.731 14.8108L31.4716 15.8159C31.4232 15.7559 31.3739 15.6969 31.3236 15.6384ZM31.665 16.0679C31.7177 16.1399 31.7695 16.213 31.8193 16.2874L34.1878 14.7126L33.4705 14.761L31.665 16.0679ZM31.9867 16.5481C32.066 16.6787 32.1414 16.8117 32.2125 16.9481L35.4961 15.2679L35.9831 14.5917L35.1512 14.6478L31.9867 16.5481ZM32.3484 17.2262L34.9321 16.0505L34.5123 16.6337L32.4568 17.4724C32.4219 17.3892 32.3862 17.3075 32.3484 17.2262ZM32.5714 17.7689C32.5961 17.8381 32.6202 17.9072 32.643 17.9774L33.7612 17.6219L34.0795 17.2345L32.5714 17.7689ZM32.6962 18.151L32.9119 18.0886L33.2229 18.1607L33.0135 18.3662L32.7707 18.4252C32.7474 18.3328 32.7228 18.2414 32.6962 18.151ZM29.9959 19.2591L34.0209 18.4402L34.4543 18.6438L30.0206 19.3887C30.0128 19.3456 30.0046 19.3021 29.9959 19.2591ZM35.1251 18.9597L30.0472 19.5691C30.0535 19.6199 30.0588 19.6707 30.0631 19.7219L35.7757 19.2653L35.1251 18.9597ZM30.0515 20.4929L35.1251 21.1018L35.7757 20.7956L30.066 20.3396C30.0626 20.3908 30.0573 20.4421 30.0515 20.4929ZM30.0032 20.8039L34.0209 21.6213L34.4543 21.4172L30.0264 20.6733C30.0191 20.7168 30.0114 20.7608 30.0032 20.8039ZM36.6491 19.676L37.4037 20.031L36.6491 20.386L30.0757 20.1625C30.0767 20.1248 30.0776 20.0871 30.0776 20.0494C30.0776 19.9991 30.0762 19.9492 30.0743 19.8994L36.6491 19.676Z" fill="#E7FCB6"/>
<path fill-rule="evenodd" clip-rule="evenodd" d="M29.9182 18.9525L30.3139 18.8383C30.3308 18.8959 30.3468 18.9539 30.3613 19.0124L29.9613 19.1101C29.9482 19.0569 29.9337 19.0042 29.9182 18.9525ZM22.465 21.0728L22.0689 21.1841C22.053 21.1265 22.0384 21.069 22.0249 21.0109L22.4254 20.9166C22.437 20.9688 22.4505 21.0211 22.465 21.0728ZM29.9787 20.9185L30.3792 21.0119C30.3656 21.0709 30.3506 21.1289 30.3347 21.187L29.9381 21.0767C29.9526 21.0245 29.9661 20.9718 29.9787 20.9185ZM29.9033 21.1971L30.2955 21.3205C30.281 21.3669 30.2655 21.4133 30.2496 21.4593L29.8612 21.3224C29.8757 21.2813 29.8902 21.2397 29.9033 21.1971ZM29.7968 21.4931L30.1785 21.6479C30.1572 21.7006 30.1344 21.7529 30.1112 21.8041L29.7364 21.6344C29.7577 21.5879 29.778 21.5405 29.7968 21.4931ZM29.66 21.7945C29.6203 21.8728 29.5777 21.9492 29.5328 22.0247L29.8858 22.2356C29.9357 22.1524 29.9826 22.0677 30.0266 21.9812L29.66 21.7945ZM29.4385 22.1746L29.7814 22.4015C29.7499 22.4489 29.718 22.4958 29.6846 22.5417L29.3514 22.3013C29.3809 22.2597 29.4099 22.2177 29.4385 22.1746ZM29.2416 22.4464C29.214 22.4813 29.186 22.5151 29.1574 22.549L29.4704 22.8155C29.5018 22.7782 29.5328 22.7405 29.5632 22.7023L29.2416 22.4464ZM29.0288 22.6931L29.3291 22.9736C29.288 23.0176 29.246 23.0607 29.2029 23.1028L28.9147 22.8101C28.9533 22.7719 28.9916 22.7332 29.0288 22.6931ZM28.7952 22.9224C28.7623 22.9519 28.7289 22.9809 28.6956 23.0089L28.9596 23.3243C28.9969 23.2928 29.0336 23.2609 29.0699 23.228L28.7952 22.9224ZM28.5538 23.1231L28.8029 23.45C28.7579 23.4844 28.7125 23.5182 28.666 23.5506L28.43 23.214C28.4721 23.1845 28.5132 23.154 28.5538 23.1231ZM28.283 23.3132C28.2095 23.3601 28.134 23.405 28.0566 23.4471L28.2525 23.8084C28.3376 23.762 28.4213 23.7122 28.5026 23.6599L28.283 23.3132ZM27.8994 23.5284L28.0789 23.8984C28.0281 23.9235 27.9763 23.9472 27.9246 23.97L27.7602 23.5927C27.8071 23.5729 27.8535 23.5511 27.8994 23.5284ZM27.5918 23.6628L27.7384 24.0473C27.6929 24.0648 27.647 24.0817 27.6005 24.0977L27.4671 23.7083C27.5096 23.6938 27.5507 23.6788 27.5918 23.6628ZM27.292 23.7644L27.41 24.1591C27.3524 24.176 27.2939 24.192 27.2354 24.2065L27.1343 23.8075C27.187 23.7944 27.2397 23.7799 27.292 23.7644ZM26.9815 23.8423L27.0637 24.2452C27.0163 24.2548 26.9684 24.264 26.92 24.2723L26.8518 23.8665C26.8954 23.8592 26.9384 23.8515 26.9815 23.8423ZM26.6719 23.8926L26.7212 24.3013C26.6651 24.308 26.609 24.3138 26.552 24.3182L26.5191 23.9081C26.5703 23.9042 26.6211 23.8989 26.6719 23.8926ZM26.3421 23.9187L26.3561 24.3298C26.3048 24.3317 26.2535 24.3327 26.2023 24.3327C26.1563 24.3327 26.1114 24.3317 26.0659 24.3303L26.0799 23.9192C26.1205 23.9206 26.1617 23.9216 26.2023 23.9216C26.2492 23.9216 26.2956 23.9201 26.3421 23.9187ZM25.9024 23.91L25.8695 24.3201C25.8129 24.3158 25.7563 24.3105 25.7002 24.3037L25.7491 23.895C25.8004 23.9008 25.8511 23.9056 25.9024 23.91ZM25.5697 23.8694L25.5015 24.2752C25.4531 24.2674 25.4052 24.2587 25.3573 24.249L25.4395 23.8457C25.4826 23.8544 25.5261 23.8621 25.5697 23.8694ZM25.2267 23.7968L25.1261 24.1958C25.0681 24.1808 25.0101 24.1644 24.9525 24.147L25.0695 23.7528C25.1218 23.7678 25.174 23.7828 25.2267 23.7968ZM24.8998 23.6957L24.7663 24.0851C24.7203 24.0686 24.6749 24.0517 24.6294 24.0338L24.776 23.6493C24.8171 23.6653 24.8587 23.6807 24.8998 23.6957ZM24.6096 23.5782L24.4451 23.955C24.3934 23.9318 24.3426 23.9076 24.2923 23.8824L24.4717 23.5124C24.5172 23.5352 24.5632 23.5569 24.6096 23.5782ZM24.3155 23.4292C24.2396 23.3867 24.1646 23.3412 24.0921 23.2938L23.872 23.6411C23.9528 23.6938 24.0355 23.7436 24.1196 23.7905L24.3155 23.4292ZM23.9465 23.1947L23.7105 23.5318C23.6645 23.4989 23.6195 23.465 23.575 23.4307L23.8241 23.1037C23.8643 23.1342 23.9054 23.1647 23.9465 23.1947ZM23.6843 22.9891C23.651 22.9606 23.6181 22.9315 23.5862 22.902L23.3114 23.2077C23.3472 23.2406 23.3835 23.2725 23.4203 23.3044L23.6843 22.9891ZM23.4411 22.7618L23.1499 23.052C23.1078 23.0094 23.0667 22.9659 23.0266 22.9219L23.3293 22.6438C23.3656 22.6839 23.4029 22.7231 23.4411 22.7618ZM23.2297 22.5287C23.2016 22.4948 23.1741 22.4609 23.147 22.4266L22.8254 22.6825C22.8553 22.7207 22.8858 22.7584 22.9168 22.7956L23.2297 22.5287ZM23.0391 22.282L22.7054 22.5224C22.673 22.4764 22.6411 22.43 22.6106 22.3831L22.9535 22.1562C22.9811 22.1983 23.0096 22.2404 23.0391 22.282ZM22.8607 22.0063C22.8167 21.9318 22.7751 21.8554 22.7359 21.7775L22.3693 21.9642C22.4128 22.0503 22.4587 22.1345 22.5076 22.2172L22.8607 22.0063ZM22.6604 21.6189L22.2856 21.7887C22.2629 21.7374 22.2406 21.6856 22.2198 21.6334L22.6009 21.4786C22.6203 21.526 22.6401 21.5729 22.6604 21.6189ZM22.5385 21.3098L22.1507 21.4462C22.1347 21.4008 22.1197 21.3548 22.1052 21.3084L22.4979 21.185C22.5105 21.2276 22.524 21.2687 22.5385 21.3098ZM22.4307 19.158L22.0297 19.0647C22.0433 19.0066 22.0588 18.9491 22.0747 18.892L22.4713 19.0023C22.4568 19.0536 22.4433 19.1058 22.4307 19.158ZM22.5129 18.8654L22.1207 18.7406C22.1347 18.6966 22.1497 18.6526 22.1652 18.6096L22.5531 18.7469C22.539 18.7861 22.5255 18.8257 22.5129 18.8654ZM22.6179 18.5786L22.2367 18.4233C22.2585 18.3711 22.2808 18.3198 22.304 18.2686L22.6783 18.4388C22.6575 18.4853 22.6377 18.5317 22.6179 18.5786ZM22.7562 18.2811C22.7963 18.2038 22.8384 18.1283 22.8834 18.0538L22.5308 17.842C22.481 17.9242 22.4341 18.0079 22.3901 18.0935L22.7562 18.2811ZM22.9777 17.9053L22.6353 17.6775C22.6667 17.6306 22.6986 17.5847 22.732 17.5392L23.0653 17.7801C23.0353 17.8217 23.0058 17.8633 22.9777 17.9053ZM23.1741 17.6374C23.2016 17.6031 23.2292 17.5697 23.2578 17.5363L22.9453 17.2688C22.9139 17.3056 22.8829 17.3428 22.8524 17.3806L23.1741 17.6374ZM23.3477 17.4352L23.0449 17.1571C23.0851 17.1131 23.1262 17.0705 23.1683 17.0285L23.459 17.3187C23.4207 17.3564 23.384 17.3956 23.3477 17.4352ZM23.5973 17.1861C23.6297 17.1566 23.6631 17.1281 23.6964 17.0996L23.4304 16.7857C23.3937 16.8171 23.3574 16.8495 23.3211 16.8819L23.5973 17.1861ZM23.8367 16.9859L23.5857 16.6599C23.6302 16.6256 23.6756 16.5917 23.7216 16.5593L23.9591 16.895C23.918 16.924 23.8768 16.9545 23.8367 16.9859ZM24.1051 16.7953C24.1782 16.7479 24.2531 16.7034 24.3291 16.6609L24.1308 16.3006C24.0461 16.3475 23.9634 16.3968 23.8826 16.449L24.1051 16.7953ZM24.4858 16.5791L24.3044 16.2101C24.3547 16.185 24.406 16.1608 24.4577 16.138L24.6241 16.5143C24.5772 16.5346 24.5312 16.5564 24.4858 16.5791ZM24.791 16.4437L24.6425 16.0602C24.6875 16.0423 24.7334 16.0254 24.7794 16.0094L24.9148 16.3978C24.8727 16.4123 24.8316 16.4278 24.791 16.4437ZM25.0734 16.3455L24.9554 15.9514C25.0125 15.9339 25.0695 15.918 25.1276 15.903L25.2287 16.3015C25.1764 16.3151 25.1247 16.3296 25.0734 16.3455ZM25.4042 16.2599L25.322 15.857C25.3694 15.8469 25.4173 15.8377 25.4652 15.8295L25.5334 16.2353C25.4903 16.2425 25.4473 16.2507 25.4042 16.2599ZM25.7133 16.2077L25.6644 15.7995C25.7206 15.7922 25.7767 15.7864 25.8332 15.7816L25.8661 16.1917C25.8149 16.1961 25.7641 16.2014 25.7133 16.2077ZM26.0432 16.1806L26.0291 15.7695C26.0867 15.7671 26.1442 15.7656 26.2023 15.7656C26.2415 15.7656 26.2806 15.7666 26.3198 15.7676L26.3058 16.1787C26.2714 16.1777 26.2371 16.1772 26.2023 16.1772C26.1486 16.1772 26.0959 16.1782 26.0432 16.1806ZM26.4823 16.1874L26.5152 15.7772C26.5718 15.7816 26.6284 15.7864 26.685 15.7927L26.6356 16.2014C26.5849 16.1961 26.5336 16.1912 26.4823 16.1874ZM26.816 16.2261L26.8842 15.8203C26.9326 15.828 26.9805 15.8367 27.0284 15.8459L26.9462 16.2493C26.9031 16.2406 26.8596 16.2328 26.816 16.2261ZM27.1106 16.2851L27.2102 15.8856C27.2683 15.8996 27.3263 15.9151 27.3834 15.9315L27.2673 16.3262C27.2155 16.3117 27.1633 16.2981 27.1106 16.2851ZM27.4535 16.3847L27.5889 15.9963C27.6349 16.0123 27.6808 16.0287 27.7263 16.0461L27.5773 16.4302C27.5367 16.4142 27.4951 16.3992 27.4535 16.3847ZM27.7461 16.4989L27.9125 16.1226C27.9647 16.1453 28.016 16.169 28.0668 16.1937L27.8854 16.5632C27.8395 16.5404 27.793 16.5192 27.7461 16.4989ZM28.0431 16.644C28.1205 16.686 28.1954 16.7305 28.2694 16.777L28.4914 16.4307C28.4097 16.3789 28.3265 16.3296 28.2409 16.2831L28.0431 16.644ZM28.4174 16.8751L28.6554 16.5395C28.7018 16.5719 28.7478 16.6057 28.7928 16.6401L28.5417 16.9661C28.5006 16.9351 28.4595 16.9046 28.4174 16.8751ZM28.6839 17.0792C28.7178 17.1073 28.7512 17.1363 28.7841 17.1658L29.0607 16.8616C29.0244 16.8292 28.9877 16.7968 28.95 16.7658L28.6839 17.0792ZM28.8847 17.2592L29.172 16.9651C29.215 17.0067 29.2576 17.0493 29.2987 17.0923L28.9993 17.3743C28.9616 17.3346 28.9234 17.2964 28.8847 17.2592ZM29.1289 17.516C29.1579 17.5494 29.186 17.5832 29.2136 17.6176L29.5352 17.3612C29.5047 17.3235 29.4733 17.2858 29.4414 17.249L29.1289 17.516ZM29.3248 17.7612L29.658 17.5203C29.6914 17.5658 29.7243 17.6122 29.7562 17.6592L29.4138 17.887C29.3853 17.8439 29.3553 17.8023 29.3248 17.7612ZM29.51 18.0359C29.556 18.1104 29.599 18.1868 29.6397 18.2647L30.0063 18.077C29.9613 17.9909 29.9134 17.9068 29.8626 17.8241L29.51 18.0359ZM29.718 18.4238L30.0928 18.2531C30.1165 18.3044 30.1398 18.3566 30.1615 18.4088L29.7804 18.5641C29.7606 18.5167 29.7398 18.4703 29.718 18.4238ZM29.8467 18.7339C29.8612 18.7735 29.8747 18.8132 29.8878 18.8533L30.28 18.7285C30.2655 18.684 30.2505 18.64 30.2346 18.5965L29.8467 18.7339Z" fill="#E7FCB6"/>
<path fill-rule="evenodd" clip-rule="evenodd" d="M30.0842 20.046C30.0842 22.1904 28.3443 23.9288 26.198 23.9288C24.0517 23.9288 22.3118 22.1904 22.3118 20.046C22.3118 17.9015 24.0517 16.1631 26.198 16.1631C28.3443 16.1631 30.0842 17.9015 30.0842 20.046ZM28.0523 21.7165C28.0702 21.6783 28.1137 21.6077 28.1452 21.5661C28.1262 21.5789 28.095 21.5946 28.0597 21.6124C27.9737 21.6557 27.8631 21.7114 27.8429 21.7683L27.7926 21.6769C27.7763 21.6104 27.8242 21.5895 27.9422 21.5382C27.989 21.5178 28.0469 21.4926 28.1162 21.4578C28.124 21.4544 28.1311 21.4514 28.1377 21.4486C28.1718 21.4341 28.1924 21.4254 28.2414 21.4031C28.345 21.3567 28.3447 21.4172 28.3444 21.4889C28.3443 21.498 28.3443 21.5071 28.3444 21.5163C28.254 21.5623 28.1253 21.732 28.1046 21.7939C28.104 21.7957 28.1033 21.7976 28.1026 21.7996C28.0793 21.8684 28.015 22.0581 28.1964 22.162C28.2908 22.2157 28.4015 22.1871 28.4784 22.1407C28.4831 22.1379 28.49 22.1339 28.4984 22.129C28.564 22.0906 28.7255 21.9963 28.714 21.968L28.7193 21.9753L28.8692 21.8699C28.7947 22.0498 28.625 22.162 28.4596 22.2534C28.3706 22.3023 28.2332 22.3289 28.1345 22.2921C28.0504 22.2611 28.0136 22.1412 28.0039 22.0566C27.9914 21.9458 28.0039 21.8186 28.0523 21.7165ZM24.9433 17.81L24.9801 17.6006L25.8904 16.847L25.8512 17.0695L24.9433 17.81ZM24.6198 18.5065C24.583 18.4871 24.2512 18.3058 24.2512 18.2937C24.2512 18.2716 24.3495 18.106 24.4017 18.018C24.417 17.9923 24.4283 17.9732 24.4321 17.9662C24.4381 17.9687 24.4439 17.9711 24.4494 17.9734C24.5066 17.997 24.5429 18.0119 24.6024 18.0489C24.6261 18.0639 24.7905 18.1529 24.8108 18.1558L24.6198 18.5065ZM23.798 18.1771C23.7835 18.1979 23.7197 18.328 23.7221 18.3367C23.7318 18.3744 24.0476 18.5394 24.0873 18.5553C24.0892 18.5316 24.1748 18.3725 24.1845 18.3575C24.2062 18.3227 24.2701 18.2076 24.259 18.1873C24.2512 18.1766 23.9262 17.9827 23.8986 17.9827C23.8936 17.9827 23.8725 18.0273 23.8503 18.0744C23.8301 18.1171 23.8091 18.1617 23.798 18.1771ZM26.8054 16.9762L25.6877 17.8714L25.6509 18.0804L26.7663 17.1982L26.8054 16.9762ZM26.1588 17.9585C26.1452 18.0214 26.2807 18.1897 26.3484 18.2197C26.4161 18.2497 26.4843 18.1868 26.5099 18.1389C26.5061 18.1331 26.502 18.1271 26.4977 18.1208C26.4557 18.0586 26.398 17.9734 26.3914 17.9053C26.4007 17.8761 26.4175 17.8526 26.433 17.8311C26.4336 17.8302 26.4343 17.8293 26.435 17.8284C26.4393 17.8301 26.4459 17.8312 26.4526 17.8322C26.4594 17.8333 26.4661 17.8344 26.4703 17.8361C26.4703 17.8358 26.4718 17.8391 26.4746 17.8449C26.4941 17.8862 26.5752 18.058 26.6434 18.0533C26.6657 18.0514 26.7377 18.0112 26.7769 17.9812C26.7568 17.9518 26.7446 17.9407 26.7292 17.9266C26.7231 17.9211 26.7165 17.915 26.7087 17.9072C26.6545 17.8531 26.6231 17.809 26.6173 17.7597C26.6118 17.7136 26.6322 17.6975 26.6613 17.6744C26.6655 17.6711 26.6699 17.6676 26.6744 17.6639C26.6823 17.676 26.6943 17.6913 26.7081 17.7091C26.7504 17.7636 26.8105 17.8411 26.8291 17.9155C26.8403 17.9604 26.832 18.0286 26.8069 18.0925C26.7755 18.1718 26.6763 18.2342 26.5713 18.1384C26.5699 18.2337 26.477 18.4165 26.331 18.3822C26.2215 18.3566 26.1752 18.2721 26.0884 18.1136C26.0865 18.1103 26.0847 18.107 26.0828 18.1036C26.0475 18.0383 26.0683 18.0015 26.1588 17.9585ZM27.1633 17.7646C27.0768 17.7292 26.9989 17.6441 26.9849 17.6088C26.9798 17.5959 26.9744 17.5845 26.9693 17.5735C26.9516 17.5356 26.9366 17.5034 26.9438 17.4366C26.9559 17.3254 27.0173 17.0724 27.2064 17.0584C27.2876 17.0768 27.3409 17.2611 27.3409 17.4033C27.3409 17.5032 27.3371 17.5245 27.3236 17.6011L27.323 17.6049C27.3248 17.6058 27.3267 17.6067 27.3285 17.6076C27.3621 17.6236 27.3963 17.6399 27.4013 17.6688C27.4129 17.7321 27.3943 17.7851 27.3706 17.8523C27.3677 17.8605 27.3647 17.869 27.3616 17.8777C27.3569 17.8703 27.353 17.8638 27.3496 17.8582C27.3273 17.8213 27.3268 17.8206 27.2596 17.8008C27.2054 18.0533 26.9491 18.4059 26.7924 18.5655C26.7256 18.6337 26.5694 18.7493 26.5351 18.7522C26.5567 18.7195 26.6569 18.6145 26.7128 18.5559C26.723 18.5452 26.7317 18.5361 26.7382 18.5292C26.7493 18.5176 26.8311 18.4306 26.9104 18.3009C26.913 18.2966 26.9157 18.2922 26.9185 18.2878C26.9996 18.1553 27.1231 17.9536 27.1633 17.7646ZM27.1371 17.5445C27.1645 17.5592 27.185 17.5702 27.2219 17.5817C27.2436 17.4976 27.2567 17.4308 27.2596 17.3767C27.2635 17.3157 27.2562 17.2461 27.218 17.2359C27.1692 17.2495 27.0241 17.3447 27.0062 17.4284C26.9981 17.4795 27.0204 17.489 27.0568 17.5045C27.0686 17.5096 27.0819 17.5153 27.0961 17.5232C27.1123 17.5312 27.1253 17.5382 27.1371 17.5445ZM23.4986 20.163C23.8295 20.2714 24.1526 19.6387 24.2682 19.304C24.3175 19.1618 24.481 19.1236 24.569 19.2305C24.5746 19.2548 24.5798 19.2779 24.5848 19.3003C24.611 19.418 24.6325 19.5144 24.6943 19.6387C24.777 19.8061 25.1049 20.0034 25.5305 19.8327C25.5682 19.9995 25.5992 20.164 25.6161 20.3391C25.6292 20.4731 25.6219 20.6452 25.5716 20.7768C25.5175 20.9359 25.2853 21.2131 25.0638 21.4631C24.9753 21.5632 24.7731 21.7243 24.4887 21.7717C24.2628 21.8094 24.0626 21.748 23.9136 21.6188C23.7913 21.512 23.7018 21.3296 23.6795 21.1371C23.6788 21.1305 23.678 21.1238 23.6772 21.1171C23.666 21.0194 23.6551 20.9249 23.6375 20.9045C23.5828 21.0206 23.5175 21.6972 23.7589 21.9927C23.8638 22.1209 24.1047 22.2882 24.318 22.2906C24.6981 22.295 25.0236 21.9801 25.3046 21.5173C25.4107 21.3427 25.5146 21.1533 25.5891 21.0175C25.6349 20.9341 25.6696 20.8709 25.6867 20.844C25.782 21.45 25.9082 21.8699 26.3934 22.2911C26.7063 22.5634 27.2035 22.8493 27.632 22.8851C27.6688 22.753 27.7341 22.4928 27.7549 22.3777C27.6881 22.3937 26.9525 22.1557 26.9525 21.9521C26.9525 21.7309 27.5571 21.4508 27.8424 21.3187C27.8747 21.3037 27.9028 21.2907 27.9256 21.2798C28.329 21.0873 28.7696 20.932 29.1981 20.8024C29.2649 20.7821 29.4337 20.3575 29.4491 20.2989C29.1164 20.2873 28.7836 20.2656 28.4509 20.2423C28.3035 20.232 28.0795 20.2196 27.8403 20.2062C27.3068 20.1766 26.6981 20.1427 26.6981 20.119C26.6981 19.9226 27.8027 19.3103 27.9053 19.2566C27.9503 19.3389 28.0006 19.4419 28.0189 19.4869C28.0236 19.4984 28.0304 19.5188 28.0383 19.5424C28.0572 19.5991 28.0821 19.6739 28.0978 19.6852C28.1152 19.6489 28.1176 19.5231 28.1017 19.4762C28.0964 19.4606 28.0879 19.431 28.0779 19.3962C28.0585 19.3284 28.0333 19.2406 28.0151 19.1972C28.1463 19.1236 28.2636 19.0492 28.362 18.9868C28.3949 18.966 28.4257 18.9464 28.4542 18.9287C28.6192 18.8267 28.6898 18.6758 28.6956 18.4987C28.6957 18.4939 28.6959 18.4889 28.6961 18.4836C28.7004 18.3615 28.7088 18.12 28.6221 18.0407C28.3904 17.8279 27.9933 17.6557 27.8124 17.6136C27.6659 17.5798 27.5067 17.693 27.5005 17.8772C27.5001 17.8904 27.4997 17.9035 27.4993 17.9165C27.4967 18.0004 27.4941 18.0812 27.4971 18.1612C27.5009 18.2661 27.513 18.3701 27.5421 18.4794C27.5631 18.5594 27.5958 18.6251 27.6301 18.6942C27.6519 18.7379 27.6743 18.783 27.6949 18.8339C27.1967 19.158 26.7102 19.4883 26.2052 20.0934C26.1486 20.1422 26.0485 20.504 26.035 20.6269C26.2068 20.6481 26.3835 20.6576 26.561 20.6671C26.6658 20.6727 26.7709 20.6783 26.8756 20.6863C27.0035 20.6961 27.1311 20.7075 27.2583 20.7188C27.5035 20.7407 27.7469 20.7624 27.987 20.772C27.9127 20.8107 27.8379 20.8472 27.7636 20.8834C27.5208 21.0019 27.284 21.1174 27.0918 21.2982C26.9041 21.4747 26.8504 21.6261 26.8291 21.8868L26.8185 22.0174C26.3174 21.8017 25.961 21.2479 25.8991 20.71C25.8837 20.577 25.872 20.4305 25.8604 20.2861C25.8439 20.0798 25.8277 19.8776 25.8018 19.7248L25.7941 19.6794C25.8894 19.5938 25.9779 19.4651 26.0069 19.3795C26.05 19.2533 26.0621 19.1851 26.0582 19.0559C26.0543 18.9157 25.9068 18.6579 25.7593 18.5147L25.6727 18.8755C25.7593 18.9074 25.8579 19.0782 25.9107 19.2354C25.8541 19.3084 25.7965 19.3669 25.7394 19.4138C25.6795 19.1647 25.6002 18.9389 25.4884 18.6695C25.4797 18.6424 25.3162 18.3261 25.2582 18.3106L25.132 18.7188C25.31 19.0903 25.4149 19.3505 25.4657 19.5594L25.4676 19.5667C25.4617 19.5686 25.4559 19.5705 25.4501 19.5724C25.4385 19.5763 25.427 19.58 25.4154 19.5836C25.1871 19.6528 24.9313 19.6034 24.7799 19.4017C24.7083 19.3065 24.686 19.2199 24.6633 19.1101C24.659 19.0897 24.655 19.0644 24.6508 19.0372C24.6373 18.9516 24.621 18.8474 24.5821 18.8213C24.4563 18.7928 24.3833 18.8823 24.3591 18.9282C24.2682 19.1019 24.0578 19.4757 24.0094 19.5526C23.8972 19.7311 23.8005 19.8003 23.6162 19.8395C23.4319 19.8786 23.3187 19.6591 23.2602 19.5347C23.2458 19.5041 23.2294 19.4421 23.2148 19.3868C23.2025 19.3398 23.1913 19.2977 23.1838 19.2837C23.1654 19.4104 23.1789 19.6465 23.2322 19.8249C23.2689 19.9473 23.371 20.1214 23.4986 20.163ZM27.8056 18.7662C27.7462 18.6584 27.6751 18.4755 27.6702 18.4615C27.6677 18.4543 27.6652 18.4472 27.6627 18.4401C27.6321 18.3528 27.6038 18.2724 27.6078 18.2482C27.618 18.1897 27.6475 18.1602 27.7534 18.1583C27.9904 18.1534 28.2782 18.2158 28.4591 18.3754C28.433 18.4131 28.2893 18.5021 28.1423 18.5902C27.9952 18.6787 27.8453 18.7662 27.8056 18.7662ZM27.3341 18.6148L26.2874 19.4211L26.1999 19.6857L27.2756 18.8678L27.3341 18.6148ZM24.5564 20.3105C24.5999 20.3057 24.9719 20.43 24.9733 20.4373C24.976 20.4502 24.9497 20.5213 24.9208 20.5999C24.8857 20.6949 24.8466 20.801 24.8495 20.8285L24.4273 20.6921L24.5656 20.3139L24.5564 20.3105ZM25.4249 20.2166C25.4699 20.2325 25.506 20.2454 25.5199 20.2491C25.5336 20.2636 25.5016 20.3439 25.4817 20.3936C25.4771 20.4052 25.4731 20.4152 25.4705 20.4223C25.443 20.4968 25.4159 20.577 25.4019 20.6206C25.3855 20.634 25.3166 20.6112 25.2618 20.5931C25.2436 20.587 25.2269 20.5815 25.2142 20.578C25.1991 20.5738 25.1742 20.566 25.1464 20.5573C25.085 20.5382 25.0098 20.5148 24.9975 20.5161C24.9927 20.4731 25.1049 20.1369 25.1387 20.1301C25.1659 20.1247 25.3195 20.1792 25.4249 20.2166ZM24.6252 22.7852C24.6298 22.7472 24.6344 22.7093 24.6386 22.6713C24.7433 22.5937 24.8508 22.5132 24.9605 22.4312C25.2242 22.234 25.5007 22.0271 25.781 21.8263L25.7588 22.0904C25.5005 22.2659 25.259 22.4469 25.0151 22.6296C24.8812 22.7299 24.7466 22.8307 24.6082 22.9315C24.6133 22.8826 24.6192 22.8339 24.6252 22.7852Z" fill="#E7FCB6"/>
<path fill-rule="evenodd" clip-rule="evenodd" d="M26.517 22.9818C26.4087 22.9905 26.3255 22.9712 26.2786 22.9006C26.2931 22.8614 26.3347 22.827 26.3584 22.8338C26.4164 22.8498 26.5156 22.9504 26.517 22.9818Z" fill="#E7FCB6"/>
<path fill-rule="evenodd" clip-rule="evenodd" d="M25.9048 23.1298C25.7186 23.2401 25.424 23.2386 25.2664 23.2754C25.337 23.2971 25.5493 23.3223 25.6775 23.3058C25.7491 23.2966 25.8487 23.272 25.9082 23.2362C26.0233 23.167 26.1848 23.0127 26.1911 23.0127C26.2762 23.0843 26.4832 23.2275 26.5645 23.0771C26.6027 23.0069 26.5843 22.9871 26.5843 22.9412C26.5843 22.9073 26.5693 22.8376 26.5621 22.812C26.5481 22.7632 26.5287 22.7235 26.4779 22.7042C26.4097 22.678 26.3846 22.6761 26.3082 22.7554C26.2646 22.8004 26.2288 22.8522 26.1916 22.9005C26.1171 22.9968 25.9875 23.0804 25.9048 23.1298Z" fill="#E7FCB6"/>
<path fill-rule="evenodd" clip-rule="evenodd" d="M19.9199 21.7131L19.9325 21.7736L20.1787 21.9317L20.2285 21.9835L20.3083 21.9651L20.3102 21.953C20.2546 21.9317 20.2179 21.9138 20.1482 21.8684C19.9862 21.7624 19.9325 21.715 19.9199 21.7131ZM24.327 24.7549L24.3711 24.7979L24.6632 24.7902L24.7333 24.8047L24.7894 24.7447L24.7841 24.7336C24.7261 24.7471 24.6859 24.7529 24.6022 24.7549C24.4093 24.7582 24.3386 24.749 24.327 24.7549ZM25.2895 25.0702L25.3485 25.0881L25.6044 24.9469L25.6736 24.9275L25.6958 24.8487L25.6861 24.8409C25.6407 24.8796 25.6078 24.9033 25.5343 24.9435C25.364 25.0359 25.2968 25.06 25.2895 25.0702ZM25.2963 25.1814C25.3036 25.1713 25.3708 25.1471 25.541 25.0542C25.6141 25.0146 25.6474 24.9909 25.6929 24.9517L25.7026 24.9594L25.6803 25.0383L25.6112 25.0576L25.3553 25.1989L25.2963 25.1814ZM26.0494 25.0876L26.1084 25.1055L26.3642 24.9643L26.4334 24.9449L26.4556 24.8661L26.446 24.8584C26.4005 24.8971 26.3676 24.9207 26.2941 24.9609C26.1238 25.0528 26.0566 25.0775 26.0494 25.0876ZM26.5258 25.1152L26.5872 25.1186L26.8595 24.8869L26.9219 24.8521L26.9248 24.7698L26.9137 24.765C26.8784 24.8134 26.8145 24.8671 26.7526 24.9232C26.6085 25.0523 26.5306 25.1031 26.5258 25.1152ZM28.059 24.6741L28.1199 24.6663L28.3448 24.3887L28.3999 24.3428L28.3879 24.2615L28.3758 24.2586C28.3501 24.3123 28.2974 24.3771 28.2466 24.4434C28.1286 24.5972 28.0614 24.6615 28.059 24.6741ZM28.6219 24.3873L28.6819 24.3732L28.8435 24.1072L28.8933 24.056L28.873 23.9766L28.8604 23.9752C28.8406 24.0313 28.7946 24.1014 28.7511 24.1725C28.6505 24.337 28.6234 24.3747 28.6219 24.3873ZM30.5629 22.5223L30.6093 22.4816L30.6422 22.1257L30.6625 22.057L30.6074 21.9961L30.5958 22.0004C30.6045 22.0594 30.5963 22.1426 30.5909 22.2258C30.5784 22.4193 30.558 22.5102 30.5629 22.5223ZM30.8864 21.9046L30.9329 21.864L30.9658 21.508L30.9861 21.4394L30.9309 21.3784L30.9193 21.3828C30.928 21.4418 30.9198 21.525 30.9145 21.6082C30.9024 21.8021 30.8821 21.893 30.8864 21.9046ZM29.7223 23.6797L29.7808 23.6569L29.9375 23.2632L29.9772 23.1859L30.0047 23.138L29.9641 23.0412L29.9515 23.0417C29.9191 23.2115 29.686 23.6956 29.7223 23.6797ZM22.2444 22.3012L22.1864 22.2833C22.1423 22.4014 22.0127 22.4841 21.9349 22.501C21.9929 22.5247 22.077 22.5053 22.1477 22.4459C22.1902 22.4101 22.2318 22.3443 22.2444 22.3012ZM26.3995 25.5684C26.3608 25.5761 26.3284 25.565 26.3159 25.5529C26.2999 25.5374 26.296 25.5234 26.2834 25.4866C26.2656 25.4992 26.266 25.5471 26.2825 25.5766C26.2757 25.5916 26.2254 25.6008 26.1964 25.5809C26.1524 25.5505 26.1572 25.5007 26.1562 25.4842C26.1427 25.4968 26.1316 25.5176 26.133 25.549C26.1379 25.6424 26.1833 25.6511 26.2046 25.6598C26.2423 25.6743 26.296 25.668 26.3134 25.6327C26.3439 25.6511 26.3695 25.6545 26.4058 25.6424C26.416 25.639 26.43 25.5998 26.4319 25.565C26.4339 25.5311 26.4373 25.4658 26.3773 25.4349C26.3628 25.4716 26.3579 25.4576 26.3633 25.4881C26.3666 25.4982 26.4019 25.5335 26.3995 25.5684ZM28.3811 24.7394C28.37 24.706 28.324 24.6871 28.3168 24.6789C28.3003 24.6528 28.31 24.6639 28.3095 24.6243C28.3772 24.6301 28.399 24.6915 28.4106 24.7234C28.4222 24.7563 28.4246 24.7979 28.4164 24.8052C28.3874 24.8303 28.3627 24.8371 28.3274 24.8318C28.325 24.8709 28.2776 24.8975 28.2374 24.899C28.2147 24.8995 28.1697 24.9087 28.1286 24.8245C28.1151 24.796 28.117 24.7728 28.1247 24.7558C28.132 24.7703 28.1465 24.8182 28.1987 24.8293C28.2331 24.8361 28.2756 24.8085 28.2766 24.7921C28.25 24.7713 28.2311 24.7268 28.2428 24.7084C28.2684 24.7374 28.2776 24.7491 28.2979 24.7568C28.3143 24.7636 28.3482 24.7611 28.3811 24.7394ZM21.8812 22.6935C21.9136 22.6804 21.93 22.6335 21.9373 22.6258C21.9624 22.6079 21.9518 22.618 21.9914 22.6151C21.99 22.6833 21.93 22.7085 21.8986 22.722C21.8662 22.7356 21.8251 22.7404 21.8173 22.7327C21.7907 22.7056 21.782 22.6809 21.7849 22.6456C21.7457 22.6456 21.7162 22.6001 21.7124 22.56C21.7104 22.5373 21.6983 22.4928 21.7801 22.4468C21.8076 22.4313 21.8309 22.4318 21.8488 22.4386C21.8347 22.4468 21.7878 22.4642 21.7796 22.5174C21.7748 22.5523 21.8052 22.5929 21.8217 22.5929C21.841 22.5648 21.8841 22.5436 21.9029 22.5542C21.8758 22.5813 21.8647 22.5914 21.858 22.6122C21.8526 22.6282 21.857 22.6621 21.8812 22.6935ZM23.4526 24.1275C23.4739 24.1145 23.4927 24.1029 23.5169 24.1063C23.5527 24.1106 23.6127 24.1348 23.6431 24.16C23.6281 24.2011 23.6103 24.2035 23.5735 24.2141C23.5348 24.2252 23.4835 24.2238 23.4574 24.2291C23.4719 24.2402 23.5372 24.2465 23.5856 24.2301C23.634 24.2083 23.6451 24.1991 23.6654 24.159L23.6978 24.0951C23.6427 24.0739 23.6015 24.0555 23.5604 24.0545C23.5271 24.0535 23.4516 24.1111 23.4526 24.1275ZM30.2683 22.6925C30.2683 22.6674 30.2683 22.6456 30.2838 22.6263C30.3065 22.5982 30.3583 22.5595 30.3955 22.5469C30.4226 22.5813 30.4033 22.5963 30.3931 22.633C30.3825 22.6717 30.3665 22.7157 30.3578 22.7409C30.3747 22.7341 30.3975 22.6867 30.4202 22.6345C30.4342 22.6026 30.4304 22.5653 30.4067 22.5266L30.3689 22.4657C30.3225 22.5015 30.2843 22.5271 30.2625 22.5615C30.2446 22.5905 30.2543 22.6848 30.2683 22.6925ZM22.7609 23.4388C22.714 23.4374 22.6067 23.4606 22.6047 23.5201C22.6038 23.5413 22.6125 23.5505 22.6221 23.5742C22.5341 23.5738 22.4166 23.5559 22.3595 23.5109C22.3435 23.5017 22.3179 23.4886 22.3286 23.5225C22.3629 23.5501 22.4011 23.5699 22.4514 23.5849C22.5051 23.6008 22.5714 23.611 22.6391 23.6004L22.6507 23.6279L22.7566 23.6042C22.7532 23.5955 22.7479 23.5897 22.7484 23.582C22.8137 23.5631 22.8548 23.5646 22.8674 23.507C22.8799 23.4504 22.8016 23.4403 22.7609 23.4388ZM22.7629 23.5351C22.7624 23.5491 22.7518 23.5597 22.7363 23.5602C22.7097 23.5322 22.6898 23.477 22.7232 23.4669C22.7556 23.4577 22.7638 23.5186 22.7629 23.5351ZM24.0905 24.3805C24.0485 24.4008 23.9643 24.4719 23.9904 24.5251C23.9996 24.5445 24.0112 24.5483 24.031 24.5648C23.9532 24.6054 23.8405 24.6446 23.7689 24.6315C23.7505 24.631 23.7215 24.6315 23.7471 24.6567C23.7902 24.6649 23.8332 24.6649 23.885 24.6547C23.9396 24.6441 24.0035 24.6218 24.0581 24.5807L24.0813 24.5996L24.164 24.529C24.1573 24.5227 24.1495 24.5198 24.1466 24.513C24.1955 24.4661 24.2327 24.4482 24.2168 24.3911C24.2013 24.3355 24.1268 24.3631 24.0905 24.3805ZM24.137 24.4651C24.1428 24.4777 24.1389 24.4917 24.1254 24.4995C24.0886 24.4869 24.0455 24.4472 24.0702 24.4231C24.0944 24.3998 24.1297 24.4497 24.137 24.4651ZM27.1158 24.7631C27.1386 24.7292 27.1889 24.6683 27.2305 24.7084C27.273 24.7495 27.2498 24.7834 27.2309 24.8487C27.2372 24.8535 27.245 24.8521 27.2542 24.854L27.2184 24.9565L27.1884 24.9517C27.1618 25.0151 27.1178 25.0658 27.0757 25.1031C27.036 25.1379 26.9988 25.1597 26.9577 25.1742C26.9228 25.1655 26.948 25.1505 26.964 25.1418C27.0322 25.1171 27.11 25.0267 27.1565 24.9522C27.1308 24.9478 27.1187 24.9503 27.1013 24.9386C27.053 24.9058 27.0902 24.8023 27.1158 24.7631ZM27.199 24.8124C27.185 24.8027 27.1294 24.7776 27.1202 24.81C27.111 24.8434 27.1681 24.8559 27.2063 24.8482C27.214 24.8347 27.2106 24.8201 27.199 24.8124ZM29.0655 23.876C29.0708 23.9225 29.1095 24.0255 29.1685 24.0187C29.1898 24.0163 29.1975 24.0071 29.2193 23.9936C29.2318 24.0806 29.2309 24.1996 29.1946 24.263C29.1878 24.2799 29.1786 24.3075 29.2106 24.292C29.2328 24.2543 29.2468 24.2136 29.2546 24.1614C29.2628 24.1063 29.2633 24.039 29.243 23.9733L29.2686 23.9578L29.2299 23.8562C29.2217 23.8606 29.2169 23.8669 29.2086 23.8673C29.1806 23.8054 29.1762 23.7643 29.1172 23.7604C29.0601 23.7566 29.0611 23.8359 29.0655 23.876ZM29.1607 23.8601C29.1748 23.8586 29.1869 23.8673 29.1893 23.8828C29.1651 23.9133 29.1133 23.9409 29.0988 23.9094C29.0848 23.8785 29.1438 23.862 29.1607 23.8601ZM30.2441 22.8908C30.308 22.9924 30.3104 23.0267 30.366 23.0703L30.5493 23.019C30.5053 22.9532 30.4574 22.9068 30.4323 22.8294L30.2441 22.8908ZM28.3574 24.8792C28.3535 24.928 28.3153 25.0668 28.3859 25.0963C28.5523 25.1655 28.5175 25.1287 28.5175 24.9788V24.9459C28.5175 24.9 28.3937 24.8661 28.3574 24.8792ZM30.5382 22.93L30.7162 22.8487L30.7201 22.8579C30.7302 22.9019 30.8245 23.0253 30.8245 23.0383C30.8245 23.0606 30.7597 23.0659 30.7278 23.0838C30.6649 23.1017 30.6538 23.1075 30.6349 23.0949C30.6591 23.1452 30.6867 23.1931 30.7089 23.2444C30.6649 23.2749 30.604 23.3106 30.5551 23.2986C30.5019 23.2874 30.4545 23.1999 30.4299 23.1346C30.4826 23.1032 30.515 23.077 30.5677 23.0577C30.5851 23.0514 30.5982 23.0674 30.6253 23.0853L30.5382 22.93Z" fill="#E7FCB6"/>
<path fill-rule="evenodd" clip-rule="evenodd" d="M26.7261 25.8731L26.7561 25.8509L26.7725 25.891C26.8102 25.9825 26.8891 26.0323 26.9858 26.041C27.0671 26.0482 27.1628 26.0255 27.2305 25.9796C27.261 25.9588 27.3016 25.937 27.3389 25.9143C27.2562 25.906 27.1735 25.8891 27.0927 25.8756C27.0506 25.8683 27.0226 25.8751 26.9863 25.8964L26.9287 25.9293L26.9355 25.863C26.9481 25.743 26.9399 25.7029 27.0095 25.597C27.069 25.5065 27.1986 25.3571 27.2929 25.2913C27.2924 25.2652 27.2895 25.2376 27.2891 25.2115C27.2881 25.1307 27.2765 25.0122 27.35 24.9581C27.4153 24.9102 27.4762 24.9643 27.5333 24.9929C27.5768 25.0147 27.6465 25.0562 27.6799 25.0901C27.7331 25.1443 27.7026 25.2807 27.706 25.3522L27.7074 25.3808L27.6799 25.3871C27.6194 25.4011 27.5251 25.447 27.4685 25.4756C27.44 25.4901 27.3398 25.5593 27.2866 25.6067C27.4332 25.6289 27.5817 25.6497 27.7297 25.6521C27.8269 25.6536 27.9241 25.6405 28.0208 25.6333L28.076 25.6289L28.0547 25.6802C28.0112 25.7846 28.0112 25.8954 27.8864 25.9471C27.7887 25.9878 27.6818 26.0047 27.5831 26.0434C27.4443 26.0976 27.2852 26.1914 27.1619 26.276C27.0298 26.3665 26.892 26.3496 26.7744 26.263C26.7309 26.321 26.6269 26.3496 26.5674 26.3529C26.493 26.3573 26.3962 26.3196 26.3561 26.2519C26.3256 26.2876 26.2922 26.335 26.2584 26.3645C26.1268 26.4777 25.8192 26.4579 25.8197 26.2388C25.8202 26.1856 25.8163 26.13 25.81 26.0753C25.6988 26.2523 25.529 26.3965 25.3017 26.323C25.1837 26.2847 25.1377 26.2016 25.1377 26.0816C25.1377 26.0221 25.174 25.8712 25.218 25.8316L25.2867 25.7696L25.2746 25.8611C25.2678 25.9123 25.2558 26.0071 25.3123 26.0352C25.3888 26.0729 25.5643 26.0357 25.633 25.9921C25.6925 25.9544 25.7278 25.9215 25.7728 25.8751C25.7351 25.7208 25.694 25.5694 25.6606 25.4137L25.6586 25.4054L25.7534 25.0548L25.7829 25.1926C25.8153 25.3435 25.8497 25.4935 25.884 25.6444C25.9097 25.7561 25.9421 25.9123 25.9488 26.026C25.9537 26.113 25.9841 26.1387 26.0688 26.1396C26.151 26.1406 26.285 26.0961 26.3334 26.0274C26.3798 25.9612 26.4581 25.834 26.5229 25.7909L26.5273 25.788L26.5321 25.7866C26.6197 25.7595 26.67 25.8204 26.7261 25.8731ZM31.0858 23.2135L30.8986 23.1289L30.8091 22.9165L30.8387 22.9025C30.8706 22.8875 31.0094 22.9543 31.0457 22.9702C31.1047 22.9963 31.1825 23.0544 31.2188 23.1081C31.2454 23.1472 31.3194 23.2604 31.3199 23.303C31.3349 23.4418 31.1922 23.5274 31.0684 23.5245C31.0558 23.524 31.0432 23.5226 31.0316 23.5192C31.0529 23.6004 31.0539 23.6749 30.9678 23.745C30.9325 23.7741 30.8904 23.7871 30.8449 23.7823C30.8275 23.7803 30.8101 23.7765 30.7932 23.7702C30.7458 23.7537 30.6921 23.7083 30.6607 23.6976C30.6297 23.6981 30.6007 23.7092 30.578 23.73C30.5533 23.7528 30.5238 23.7939 30.5378 23.8292C30.5862 23.9501 30.6979 24.0159 30.8256 24.0183C30.858 24.0188 30.8938 23.9748 30.9141 23.953L30.9494 23.9153L31.0742 24.2021L31.0577 24.2185C31.0026 24.2737 30.9127 24.3003 30.8372 24.3114C30.7192 24.3293 30.5707 24.2916 30.459 24.2306C30.4609 24.2456 30.4628 24.2601 30.4628 24.2693C30.4638 24.3516 30.4387 24.4333 30.4053 24.5078C30.355 24.619 30.2868 24.722 30.1509 24.722C30.1064 24.722 30.0701 24.7128 30.0372 24.6979C30.0658 24.769 30.0435 24.9053 30.0295 24.9735C29.9961 25.1346 29.9477 25.2913 29.7523 25.2913C29.63 25.2913 29.452 25.02 29.4433 24.9087L29.4346 24.7989L29.5342 24.9232L29.5362 24.9295C29.5463 24.9629 29.5894 25.0006 29.6189 25.0176C29.6962 25.0616 29.7533 25.0287 29.7915 24.9518C29.8486 24.8357 29.8704 24.7225 29.8704 24.5934C29.8704 24.5547 29.8728 24.5547 29.8409 24.532C29.7456 24.4642 29.5497 24.2524 29.4268 24.2766L29.3988 24.2819L29.3132 24.0609L29.3359 24.0459C29.4065 23.9985 29.5154 24.0367 29.5739 24.0875C29.643 24.1474 29.9647 24.4236 30.0227 24.4405C30.089 24.4584 30.147 24.4372 30.191 24.3859C30.251 24.3158 30.3124 24.0802 30.2989 23.9912C30.2911 23.9424 30.265 23.9027 30.2481 23.8572L30.2365 23.8268L30.2665 23.8142C30.3414 23.7828 30.3603 23.9312 30.4174 23.9646C30.4362 23.9762 30.4807 23.9985 30.519 24.0111C30.4967 23.9762 30.4682 23.9366 30.4551 23.908C30.4309 23.8553 30.4077 23.8045 30.3864 23.7504C30.325 23.5927 30.4111 23.4544 30.5693 23.4123L30.59 23.407L30.6476 23.4752C30.6747 23.5076 30.7603 23.5342 30.7937 23.5076C30.828 23.4805 30.8783 23.4345 30.8512 23.3862C30.8266 23.3422 30.8058 23.2977 30.7772 23.2556L30.755 23.2227L30.7913 23.2058C30.8464 23.1801 30.9039 23.2386 30.9557 23.2527C30.99 23.2628 31.0829 23.2609 31.0858 23.2135ZM23.101 24.9286C23.0232 24.8821 22.909 24.8299 22.909 24.7274C22.909 24.6471 23.0053 24.56 23.0624 24.5087C23.1214 24.4555 23.2374 24.3728 23.3206 24.3902C23.3709 24.4009 23.384 24.4642 23.3854 24.5078C23.3888 24.5953 23.3782 24.6645 23.3467 24.7428C23.3704 24.7573 23.3951 24.7714 23.4207 24.783C23.4889 24.8149 23.5465 24.8521 23.6253 24.8386L23.8778 24.7254L23.8386 24.8086C23.798 24.8942 23.739 24.9576 23.8391 25.019C23.8527 25.0248 23.9068 25.035 23.9218 25.035C23.9649 25.035 24.0248 24.9532 24.0645 24.9266L24.1361 24.8787L24.1167 24.9624C24.109 24.9953 24.0988 25.0248 24.0988 25.0591C24.0988 25.1007 24.1206 25.1254 24.1516 25.1443C24.1665 25.1027 24.1777 25.0572 24.183 25.0156L24.1844 25.003L24.1936 24.9948C24.2425 24.9503 24.2623 24.9532 24.331 24.9073L24.405 24.8575L24.3136 25.2115L24.3092 25.2173C24.285 25.2473 24.2575 25.2749 24.2323 25.3039C24.1956 25.3469 24.1211 25.405 24.0616 25.3909C23.9755 25.3701 23.8981 25.3169 23.8759 25.2328C23.8507 25.2454 23.829 25.255 23.7878 25.2536C23.7095 25.2507 23.5513 25.2023 23.5562 25.1056C23.5562 25.0732 23.5639 25.0446 23.5716 25.0166C23.5276 25.0335 23.4802 25.0403 23.4314 25.0403C23.3748 25.0403 23.2776 25.0088 23.2171 24.9798C23.1339 25.0475 22.9414 25.1931 22.8578 25.2057C22.7431 25.2241 22.6077 25.2337 22.496 25.1965C22.3175 25.137 22.2343 24.991 22.272 24.8072C22.2962 24.6901 22.4476 24.4986 22.5753 24.5025L22.7078 24.5068L22.5898 24.5668C22.525 24.6002 22.4849 24.7143 22.4849 24.7835C22.4849 24.8889 22.5956 24.9489 22.6822 24.9784C22.7668 25.0069 22.8462 25.0084 22.9342 25.0059C22.9816 25.0055 23.0836 24.9851 23.101 24.9286ZM31.6478 21.7645C31.6575 21.8476 31.6188 21.9715 31.569 22.014L31.5661 22.0164L31.5627 22.0184C31.5061 22.0493 31.4558 22.0508 31.3978 22.0213C31.2991 21.971 31.1622 21.8389 31.1003 21.7475L31.0979 21.7437L31.0964 21.7393C31.0611 21.6368 31.1477 21.5932 31.2333 21.5782C31.2967 21.5676 31.3557 21.5671 31.4181 21.5691L31.449 21.5009L31.525 21.5695L31.5854 21.5739C31.6889 21.5744 31.9888 21.7891 32.0372 21.881C32.1397 22.0769 32.189 22.4735 32.1121 22.681C32.0604 22.8208 31.8824 22.8551 31.7513 22.8333C31.6033 22.8087 31.3528 22.7028 31.2764 22.5635L31.2333 22.4841L31.318 22.5151C31.4785 22.5736 31.554 22.6897 31.7513 22.6379C31.863 22.5833 31.8925 22.2965 31.9013 22.1901C31.91 22.0827 31.8809 21.8089 31.7571 21.7703C31.7242 21.7601 31.6846 21.7615 31.6478 21.7645ZM28.8914 25.358C28.9142 25.3813 28.861 25.4441 28.8474 25.4625C28.7845 25.5467 28.7188 25.6158 28.624 25.6637C28.5311 25.7106 28.372 25.7295 28.2931 25.6458C28.2501 25.6004 28.2061 25.5128 28.1872 25.4533C28.1732 25.4088 28.1466 25.2613 28.1287 25.2323L28.0924 25.1718L28.0678 25.2381C28.0474 25.2928 28.0987 25.5859 28.1161 25.655C28.1708 25.8712 28.311 26.0245 28.5485 25.9912C28.7139 25.9679 28.876 25.8175 28.9562 25.6768C28.9819 25.6318 29.0036 25.508 29.0027 25.4553C29.0012 25.3808 29.0046 25.3082 28.9945 25.2337C28.9896 25.198 28.9809 25.1501 28.9601 25.1201C28.9161 25.0562 28.7903 24.914 28.7163 24.8942L28.6738 24.8826V24.9837C28.6733 25.2028 28.7478 25.2178 28.8914 25.358ZM24.7465 26.1484L24.7644 26.1808L24.7953 26.16C24.9699 26.0434 25.011 25.8407 25.0623 25.6526C25.1097 25.4775 25.1281 25.2541 25.1464 25.0717L25.1837 24.8028L25.1223 24.841C25.07 24.8734 25.0381 24.9199 24.9926 24.9576C24.9307 25.0093 24.9332 25.0533 24.9273 25.1249C24.9196 25.2226 24.9109 25.3271 24.8945 25.4238C24.8654 25.6071 24.849 25.7846 24.7924 25.9626C24.776 26.0134 24.7184 26.098 24.7465 26.1484ZM24.3073 25.8451C24.4176 25.804 24.4282 25.7677 24.4993 25.6927C24.5351 25.655 24.6284 25.5418 24.6488 25.4988C24.6754 25.4427 24.6821 25.2782 24.7049 25.2516L24.7179 25.2366L24.6904 25.1588L24.6579 25.1704C24.6105 25.1878 24.5646 25.1984 24.5327 25.2425C24.5022 25.2845 24.4921 25.3711 24.4838 25.4219C24.4582 25.552 24.5235 25.5694 24.391 25.6187C24.3126 25.6478 24.2173 25.701 24.139 25.7189C23.9528 25.7609 23.6877 25.7958 23.5194 25.6811L23.397 25.5979L23.4033 25.669C23.4188 25.8475 23.7762 25.9157 23.9189 25.9138C24.0756 25.9118 24.1549 25.9017 24.3073 25.8451ZM28.7966 24.4604C28.7966 24.4739 28.7976 24.4855 28.801 24.4976C28.8121 24.5349 28.9263 24.6809 28.9514 24.7201C29.098 24.9445 29.244 25.1718 29.3959 25.3924L29.4554 25.4785L29.4626 25.1743L29.4578 25.166C29.3616 24.9997 29.2561 24.8463 29.1565 24.6833C29.0675 24.5373 28.9577 24.4009 28.8687 24.2543L28.8111 24.1591L28.7966 24.4604ZM31.6154 22.859C31.4689 22.768 31.3204 22.6742 31.17 22.5862C31.0147 22.4953 30.8667 22.3961 30.7216 22.2897L30.6665 22.2491L30.667 22.3173C30.6674 22.3685 30.6771 22.4159 30.7013 22.4614C30.7081 22.4745 30.7163 22.4875 30.7255 22.4991C30.7796 22.5678 31.0534 22.7124 31.1322 22.7608C31.3184 22.8749 31.5037 22.99 31.6899 23.1052L31.7687 23.154L31.7402 23.066C31.7146 22.9847 31.6981 22.902 31.6154 22.859ZM27.4777 25.2357C27.4018 25.196 27.3505 25.1805 27.3524 25.2932L27.4777 25.2357ZM31.2967 21.8312C31.3233 21.8607 31.4036 21.8423 31.4195 21.7881C31.4248 21.7703 31.436 21.7456 31.4273 21.7456C31.288 21.7451 31.2701 21.8148 31.2967 21.8312ZM26.5234 26.0782C26.6071 26.144 26.6511 26.0773 26.6516 26.0468C26.6173 25.9945 26.5365 25.9776 26.5176 25.9786C26.5026 26.0008 26.4968 26.0574 26.5234 26.0782ZM23.1141 24.5914C23.1068 24.6321 23.1605 24.6529 23.1891 24.6674C23.2326 24.5711 23.1141 24.5547 23.1141 24.5914ZM22.1173 24.4468C21.9098 24.4468 21.7468 24.2732 21.7284 24.072C21.7231 24.012 21.7855 23.94 21.8411 23.9254L22.0085 23.8809L21.8368 23.8587C21.638 23.8331 21.4368 24.0106 21.4566 24.2089C21.4803 24.4459 21.7216 24.5798 21.9398 24.5939C22.0336 24.5997 22.1603 24.5344 22.2498 24.5025C22.3668 24.4609 22.4771 24.3617 22.5642 24.2746C22.628 24.2108 22.6875 24.1436 22.7514 24.0802C22.7959 24.0357 22.8205 24.0072 22.8844 23.9907C22.9676 23.969 23.0246 23.9225 23.0222 23.8321C23.0217 23.8161 23.0087 23.7407 23.0116 23.7329C23.0396 23.6725 23.0628 23.6981 23.0943 23.6565L23.1393 23.5961L23.0643 23.6024C22.9913 23.6086 22.8495 23.6415 22.7949 23.6894C22.7373 23.7397 22.7339 23.7634 22.7252 23.8336C22.7204 23.8684 22.5797 23.9961 22.5497 24.0304C22.4249 24.1755 22.3175 24.2858 22.1787 24.4178C22.1632 24.4318 22.1386 24.4468 22.1173 24.4468ZM20.8844 22.9625C20.8443 22.9504 20.8066 22.9325 20.7664 22.9088C20.661 22.8464 20.5642 22.7202 20.5202 22.607C20.4588 22.4493 20.364 22.2752 20.4196 22.1035C20.4419 22.0343 20.4927 22 20.5502 21.9763C20.4012 21.9376 20.23 21.8699 20.2513 21.7006C20.2774 21.4907 20.6547 21.5541 20.7775 21.6455C20.8409 21.6929 20.8873 21.7408 20.9367 21.7993L21.0213 21.7819L21.1766 21.8423L21.1824 21.8544C21.2302 21.954 20.9816 21.9898 20.9217 22.0164C20.7993 22.0701 20.691 22.0624 20.6673 22.2123C20.6445 22.356 20.7359 22.5194 20.8027 22.6408C20.8593 22.7434 20.9429 22.813 21.0329 22.8841C21.0595 22.8706 21.088 22.8667 21.1475 22.8387C21.1824 22.8222 21.2148 22.8019 21.2506 22.7855C21.3715 22.7303 21.356 22.71 21.4982 22.7279L21.6941 22.7511L21.6056 22.8024C21.5495 22.8348 21.4866 22.8512 21.4281 22.8851C21.3386 22.9368 21.2433 22.9784 21.1519 23.0273C21.1108 23.0495 21.0624 23.0998 21.0629 23.1497C21.0634 23.1792 21.0716 23.2299 21.0948 23.2541C21.1529 23.2469 21.2056 23.2101 21.2457 23.1695C21.3091 23.1056 21.3942 23.0225 21.4682 22.9726L21.4716 22.9707L21.475 22.9692C21.5838 22.9272 21.6602 22.9499 21.7744 22.9644L21.8822 22.9784L21.786 23.0287C21.7197 23.0631 21.6491 23.0844 21.5998 23.1434C21.5364 23.2183 21.4518 23.2657 21.3715 23.3209C21.3028 23.3663 21.1872 23.3847 21.1069 23.3741C21.0387 23.3649 20.94 23.3446 20.8835 23.3073C20.8303 23.2725 20.7979 23.2033 20.7925 23.1409C20.7858 23.0515 20.8254 23.0002 20.8844 22.9625ZM20.5251 21.7137C20.5135 21.7814 20.6673 21.9632 20.8003 21.9071C20.7693 21.8694 20.5541 21.5483 20.5251 21.7137ZM22.1429 23.1458L22.3233 23.1613L22.4892 23.1758L22.3828 23.2295C22.1932 23.3257 22.0012 23.4191 21.8082 23.509C21.7008 23.5588 21.5973 23.6183 21.4846 23.658C21.3487 23.6991 21.2786 23.716 21.1427 23.6788L21.1195 23.6725L21.1151 23.6048L21.149 23.6028C21.2172 23.5985 21.2641 23.5787 21.3255 23.5506C21.4431 23.4964 21.5572 23.4355 21.6733 23.3775C21.8266 23.3006 21.9814 23.2275 22.1347 23.1506L22.1429 23.1458Z" fill="#E7FCB6"/>
<path fill-rule="evenodd" clip-rule="evenodd" d="M21.1833 16.7837C21.1727 16.8214 21.148 16.8456 21.1316 16.8514C21.1108 16.8586 21.0963 16.8557 21.0581 16.8504C21.061 16.8722 21.104 16.8935 21.1379 16.892C21.148 16.9051 21.1335 16.9539 21.1031 16.9708C21.0561 16.9965 21.0136 16.9694 20.9986 16.9631C21.0039 16.981 21.0175 17.0003 21.046 17.0129C21.1316 17.0506 21.1601 17.0144 21.1771 16.9989C21.207 16.9718 21.2259 16.921 21.2017 16.8896C21.2317 16.8707 21.2462 16.849 21.252 16.8117C21.2535 16.8011 21.2249 16.7711 21.1945 16.7532C21.165 16.7363 21.1084 16.7039 21.0532 16.7435C21.0794 16.773 21.0649 16.7711 21.0944 16.7803C21.1064 16.7812 21.1534 16.7658 21.1833 16.7837ZM20.2692 17.7249C20.2905 17.7665 20.3621 17.8497 20.4153 17.8231C20.4342 17.8134 20.438 17.8018 20.4545 17.7815C20.4966 17.8588 20.5367 17.9711 20.5246 18.0426C20.5241 18.061 20.5251 18.09 20.5498 18.0644C20.5575 18.0214 20.5565 17.9783 20.5459 17.9266C20.5343 17.8719 20.5115 17.8085 20.4695 17.7544L20.4883 17.7307L20.4167 17.6489C20.4105 17.6562 20.408 17.6634 20.4008 17.6668C20.3529 17.6189 20.3345 17.5817 20.2779 17.5986C20.2223 17.6146 20.2509 17.6886 20.2692 17.7249ZM20.3524 17.6765C20.365 17.6702 20.3795 17.6741 20.3872 17.6876C20.3752 17.7244 20.3365 17.7684 20.3118 17.7437C20.2881 17.7205 20.3374 17.6842 20.3524 17.6765ZM25.1837 15.3912L25.2413 15.4164L25.6301 15.248L25.7128 15.221L25.766 15.2064L25.8052 15.1092L25.796 15.1005C25.6538 15.1987 25.147 15.3767 25.1837 15.3912ZM23.3216 16.2028L23.384 16.2076L23.6955 15.9198L23.7395 15.8821L23.7869 15.8507L23.7917 15.7457L23.7806 15.7404C23.6781 15.8802 23.282 16.2009 23.3216 16.2028ZM22.0414 15.545L22.1028 15.5334L22.3306 15.176L22.3843 15.1073L22.4201 15.0652L22.3983 14.9627L22.3862 14.9607C22.3224 15.1218 22.0022 15.5537 22.0414 15.545ZM23.2583 14.658L23.3211 14.6594L23.6162 14.3552L23.6824 14.2986L23.726 14.2648L23.725 14.1598L23.7134 14.1555C23.6191 14.3001 23.2186 14.6585 23.2583 14.658ZM27.9628 14.0534C27.9788 14.0341 27.9928 14.0171 28.017 14.0123C28.0523 14.005 28.1171 14.0084 28.1539 14.022C28.1529 14.0655 28.1369 14.0737 28.106 14.0955C28.0731 14.1187 28.0242 14.1337 28.001 14.1472C28.0184 14.153 28.0823 14.1376 28.1229 14.1061C28.1621 14.0698 28.1689 14.0578 28.1751 14.0128L28.1848 13.9417C28.1258 13.9397 28.0808 13.9354 28.0417 13.948C28.0097 13.9596 27.957 14.0389 27.9628 14.0534ZM26.5312 13.9228L26.5863 13.9523L26.9878 13.8159L27.0724 13.7956L27.1266 13.7855L27.1735 13.6916L27.1653 13.6824C27.0153 13.769 26.4954 13.9054 26.5312 13.9228ZM28.3096 14.3692L28.3609 14.405L28.6448 14.347L28.7314 14.3368L28.7865 14.333L28.8441 14.2454L28.8368 14.2353C28.6782 14.303 28.2762 14.348 28.3096 14.3692ZM29.895 14.9187C29.853 14.939 29.7688 15.0101 29.7949 15.0633C29.8041 15.0826 29.8157 15.0865 29.8356 15.1029C29.7577 15.1436 29.645 15.1827 29.5734 15.1697C29.555 15.1692 29.526 15.1697 29.5516 15.1948C29.5947 15.2031 29.6377 15.2031 29.6895 15.1929C29.7441 15.1823 29.808 15.16 29.8626 15.1189L29.8859 15.1378L29.9686 15.0672C29.9618 15.0609 29.9541 15.058 29.9512 15.0512C30 15.0043 30.0372 14.9864 30.0213 14.9293C30.0058 14.8737 29.9313 14.9013 29.895 14.9187ZM29.9415 15.0033C29.9473 15.0159 29.9434 15.0299 29.9299 15.0377C29.8931 15.0251 29.8501 14.9854 29.8747 14.9612C29.8989 14.938 29.9347 14.9878 29.9415 15.0033ZM31.9163 17.9145L31.9182 17.9773L32.1344 18.1703L32.1944 18.2337L32.2302 18.2758L32.3346 18.2695L32.3385 18.2579C32.1895 18.1703 31.9138 17.8748 31.9163 17.9145ZM20.6716 16.7474C20.7123 16.728 20.7892 16.7155 20.8443 16.7237C20.9352 16.7372 21.0058 16.7871 21.0266 16.8461C20.9618 16.7991 20.8143 16.7571 20.6968 16.8025L20.6716 16.7474ZM24.6052 13.9088C24.6705 13.9794 24.6947 14.0079 24.7131 14.0636C24.7344 14.1274 24.7281 14.1632 24.7281 14.2212C24.7281 14.257 24.7155 14.2875 24.7315 14.3315C24.747 14.3102 24.7852 14.1859 24.7813 14.0877C24.7784 14.0142 24.7682 13.9533 24.6488 13.8493L24.6052 13.9088ZM32.073 17.5778L31.9496 17.5208H31.8926C31.9235 17.5667 31.9758 17.6064 32.0256 17.6064H32.13C32.2693 17.6064 32.0967 17.4593 32.0918 17.41L31.9496 17.4071C31.9656 17.4284 32.0643 17.4705 32.073 17.5778ZM22.5681 15.532C22.5569 15.4986 22.511 15.4797 22.5037 15.4715C22.4873 15.4454 22.497 15.4565 22.4965 15.4168C22.5642 15.4226 22.586 15.4841 22.5976 15.516C22.6092 15.5494 22.6116 15.5905 22.6034 15.5977C22.5744 15.6229 22.5497 15.6297 22.5144 15.6243C22.512 15.6635 22.4646 15.6901 22.4244 15.6916C22.4017 15.692 22.3567 15.7012 22.3156 15.6171C22.3021 15.5885 22.304 15.5653 22.3117 15.5484C22.319 15.5629 22.3335 15.6108 22.3857 15.6219C22.4201 15.6287 22.4626 15.6011 22.4636 15.5847C22.437 15.5639 22.4181 15.5194 22.4297 15.501C22.4554 15.53 22.4646 15.5416 22.4849 15.5494C22.5013 15.5557 22.5357 15.5537 22.5681 15.532ZM31.5642 16.5467C31.2401 16.3218 30.8735 16.1418 30.5301 15.9856L30.4411 16.0021C30.5993 16.0872 31.4162 16.4823 31.4611 16.5786L31.5642 16.5467ZM31.5463 17.3529L31.5569 17.5372L31.7813 17.4569L31.7658 17.2572L31.7552 17.2581C31.701 17.2625 31.5821 17.2997 31.5463 17.3529ZM31.48 17.6281C31.3697 17.6306 31.3402 17.7316 31.3272 17.6199C31.317 17.5338 31.272 17.4709 31.3649 17.4269C31.3997 17.4105 31.5168 17.3447 31.5235 17.4028C31.5269 17.4284 31.5356 17.542 31.5559 17.5716L31.5356 17.5991L31.6807 17.5672C31.702 17.5996 31.718 17.764 31.7122 17.7786C31.6996 17.8085 31.644 17.8187 31.5941 17.8187L31.4906 17.8279L31.4805 17.6857L31.48 17.6281Z" fill="#E7FCB6"/>
<path fill-rule="evenodd" clip-rule="evenodd" d="M22.6879 16.0118C22.4026 15.9871 22.1274 15.9716 21.843 15.9281C21.7056 15.9068 21.6485 15.8328 21.5595 15.738L21.5412 15.7187L21.5784 15.6606L21.6045 15.6708C21.7056 15.7105 21.7627 15.7192 21.8705 15.7313C22.1452 15.7622 22.4175 15.7975 22.6928 15.8222C22.7227 15.6481 22.7508 15.4764 22.7759 15.3013C22.7934 15.1804 22.8059 15.058 22.8243 14.9376C22.8316 14.8897 22.8446 14.7731 22.9031 14.7596L22.9157 14.7567L22.9273 14.763C22.9646 14.7838 22.9583 14.9632 22.9525 15.0033C22.923 15.2848 22.8625 15.5678 22.8224 15.8497C22.9118 15.8841 23.0255 15.9702 23.071 16.0427C23.1464 16.1627 23.1261 16.3025 23.0511 16.418C22.9907 16.5114 22.8935 16.5225 22.8151 16.4422C22.7271 16.3523 22.7039 16.2265 22.6889 16.1061C22.686 16.0746 22.6884 16.0437 22.6879 16.0118ZM27.8776 14.7112C27.9144 14.6227 27.9709 14.5729 28.0328 14.5042L28.0556 14.4791L28.251 14.6556L28.0599 14.8679L28.0353 14.851C27.9869 14.8181 27.9322 14.7871 27.8873 14.7504L27.8679 14.7344L27.8776 14.7112ZM28.99 14.3818C29.0364 14.4094 28.9857 14.5202 28.9726 14.5598C28.9247 14.7064 28.6824 15.5765 28.5765 15.6103L28.4275 15.666L28.4149 15.636C28.3985 15.5968 28.4652 15.4972 28.4807 15.4551C28.5455 15.3085 28.5982 15.1547 28.651 15.0033C28.6824 14.9129 28.7027 14.8176 28.7327 14.7252C28.7656 14.6237 28.7724 14.524 28.8575 14.4529C28.887 14.4283 28.9228 14.4123 28.9489 14.3867L28.9678 14.3683L28.99 14.3818ZM25.4448 14.9569C25.4037 14.674 25.3147 14.3872 25.2881 14.1028C25.2823 14.0404 25.3393 13.8871 25.393 13.8513L25.4516 13.8121L25.4457 13.8822C25.4385 13.9688 25.585 14.8254 25.6203 14.8858L25.6295 14.8994L25.5425 15.1721L25.4777 15.1837L25.4448 14.9569ZM23.5672 15.8396L23.5972 15.902L23.6282 15.8401C23.6635 15.7695 23.6586 15.693 23.6601 15.6166V15.6142V15.6118C23.6523 15.5431 23.559 15.4067 23.5227 15.3419C23.4439 15.1997 23.3655 15.057 23.2857 14.9153C23.2523 14.8597 23.2209 14.8031 23.189 14.7475C23.1745 14.7223 23.1542 14.6812 23.1213 14.6803L23.0898 14.6793L23.071 14.8539C23.0705 14.8616 23.07 14.8689 23.0705 14.8761C23.0724 14.9289 23.1043 14.9835 23.13 15.028C23.1958 15.1426 23.2649 15.2553 23.3307 15.3695C23.4216 15.5194 23.4918 15.6819 23.5672 15.8396ZM22.4127 16.8843L22.4761 16.9404L22.4693 16.8562C22.4654 16.8113 22.4475 16.7348 22.4335 16.6908C22.4006 16.5864 22.1419 16.4243 22.0466 16.361C21.9049 16.2667 21.767 16.167 21.6282 16.0688C21.5803 16.035 21.5387 15.9915 21.4904 15.9586L21.458 15.9368L21.441 15.9721C21.4023 16.0524 21.4497 16.2023 21.5266 16.2468C21.8178 16.4417 22.1501 16.6521 22.4127 16.8843ZM32.0806 18.4407C31.9055 18.4552 31.7159 18.5258 31.5462 18.5732C31.3643 18.6245 31.1873 18.7048 31.002 18.744L30.9914 18.7464L30.7612 18.6497L30.7868 18.6148C30.8153 18.5761 30.9812 18.5307 31.0286 18.5167C31.2734 18.4451 31.5167 18.3682 31.7648 18.3072C31.8412 18.2884 31.7957 18.225 31.9418 18.2748C32.0187 18.3009 32.0704 18.314 32.1082 18.3924L32.1295 18.4368L32.0806 18.4407ZM28.1968 15.2703C28.1833 15.2747 28.1422 15.2814 28.1315 15.2839C27.984 15.3182 27.7983 15.2969 27.6508 15.2694C27.5187 15.2447 27.2691 15.1552 27.2691 14.9898C27.2691 14.8665 27.3814 14.7668 27.3925 14.6319L27.3983 14.5613L27.3398 14.6005C27.2851 14.6372 27.1927 14.7857 27.1647 14.8481C27.0974 14.9971 27.0457 15.0962 27.082 15.264C27.1081 15.384 27.2745 15.4483 27.378 15.4851C27.5395 15.5431 28.044 15.6011 28.1702 15.4662C28.221 15.412 28.2669 15.354 28.3168 15.2993C28.3762 15.2345 28.3999 15.1828 28.4096 15.0972C28.4135 15.0406 28.4178 14.9835 28.4217 14.9274C28.4232 14.8669 28.3666 14.821 28.3255 14.8665L28.2002 15.0348L28.1987 15.236C28.1983 15.2428 28.1983 15.2616 28.1968 15.2703ZM26.563 14.7281C26.296 14.4781 25.986 14.2556 25.7403 13.9896C25.646 13.8871 25.6474 13.7937 25.6373 13.6641L25.6353 13.6375L25.7006 13.6152L25.7147 13.6394C25.7693 13.7332 25.808 13.7758 25.8849 13.8527C26.1398 14.1076 26.4208 14.3344 26.6834 14.5811C26.8005 14.4607 26.9141 14.3373 27.0302 14.2159C27.0844 14.1594 27.1352 14.0979 27.1869 14.0394C27.2251 13.9964 27.3814 13.7995 27.4481 13.829L27.4602 13.8343L27.4655 13.8464C27.4834 13.8866 27.3707 14.0254 27.3417 14.0539C27.1487 14.2624 26.9582 14.4723 26.7681 14.6832C26.8174 14.7654 26.8532 14.9052 26.8435 14.9912C26.8276 15.1325 26.725 15.2287 26.5944 15.2727C26.4885 15.3085 26.4058 15.2568 26.3947 15.1446C26.3821 15.0193 26.4421 14.9066 26.5054 14.8031C26.5224 14.776 26.5437 14.7533 26.563 14.7281ZM25.1507 14.2498C25.1599 14.2048 25.1913 14.1477 25.1797 14.1081C25.1478 13.9993 25.1043 14.037 25.0511 13.9993C25.0225 13.9789 25.0172 13.934 25.0172 13.902L25.0163 13.8014L24.9563 13.8822C24.9282 13.9199 24.8847 14.0176 24.8707 14.0636C24.8238 14.2164 24.9466 14.2324 24.9679 14.2943C25.0076 14.408 25.023 14.54 25.0506 14.658C25.0801 14.7847 25.1164 14.91 25.1299 15.0401C25.0791 15.0749 25.0419 15.1035 24.9814 15.133C24.83 15.207 24.5524 15.323 24.386 15.2558C24.3203 15.2292 24.2946 15.1484 24.2782 15.0856C24.2458 14.9646 24.2347 14.8263 24.1694 14.717L24.136 14.6614L24.1089 14.7204C24.0862 14.7702 24.0286 14.8882 24.0277 14.9405C24.0267 14.9801 24.0417 14.9912 24.0475 15.0154C24.0451 15.0174 24.0417 15.0193 24.0402 15.0198C23.9686 15.0599 23.8913 15.103 23.8487 15.1755C23.8129 15.2369 23.7892 15.3197 23.7732 15.3888C23.7587 15.4517 23.7418 15.5247 23.7418 15.5891C23.7413 15.6616 23.7737 15.709 23.8463 15.7187C23.9894 15.7375 24.0886 15.5968 24.137 15.4817C24.1466 15.4589 24.1534 15.4362 24.1582 15.4135C24.2052 15.4981 24.2874 15.5576 24.3972 15.5562C24.6105 15.5562 24.9215 15.4831 25.0859 15.3424C25.173 15.2679 25.186 15.2345 25.2208 15.1281C25.2412 15.0662 25.274 14.9748 25.2813 14.9114C25.29 14.836 25.2755 14.7596 25.2566 14.6865C25.2184 14.541 25.1851 14.3954 25.1507 14.2498ZM21.6882 17.2862C21.6558 17.2693 21.6089 17.2548 21.5745 17.2388C21.5286 17.2175 21.3409 17.1426 21.3051 17.1029C21.2592 17.056 21.2398 16.9975 21.2065 16.9428L21.1949 16.9235L21.2345 16.8683L21.2621 16.8867C21.3873 16.9704 21.6969 17.1348 21.8396 17.1687C21.9194 17.1876 21.9726 17.0971 21.9784 17.0304V16.9994C21.9063 16.9917 21.782 16.9452 21.7119 16.9264C21.633 16.9046 21.4338 16.8417 21.3757 16.7842L21.3728 16.7813L21.2452 16.5704L21.3008 16.5341L21.3196 16.5467C21.4768 16.6517 21.5982 16.6671 21.769 16.7232C21.8241 16.7411 21.8758 16.7634 21.9252 16.7939C21.9837 16.8301 22.0988 16.9801 22.1423 17.0415C22.1864 17.1039 22.2033 17.159 22.1868 17.2345C22.1675 17.3244 22.1153 17.4008 22.0171 17.4071C21.9827 17.4091 21.9479 17.4018 21.9155 17.3892C21.945 17.4811 21.9615 17.5798 21.9605 17.6751C21.9581 17.9222 21.7873 18.2318 21.5097 18.2318C21.4875 18.2318 21.4681 18.2298 21.4507 18.226C21.4942 18.2893 21.53 18.3711 21.53 18.4378C21.5295 18.5471 21.4899 18.7029 21.3472 18.6588C21.2539 18.6303 21.1634 18.5138 21.101 18.4407C21.0173 18.3425 21.0377 18.1936 21.029 18.0736C21.028 18.061 20.9961 18.0364 20.9859 18.0291L20.9787 18.0243L20.9748 18.0165C20.9463 17.9614 20.9259 17.8961 20.9216 17.8342L20.9167 17.7723L20.9714 17.8018C21.0884 17.8647 21.2219 17.9585 21.3496 17.9933C21.4904 18.0315 21.6026 17.8889 21.6592 17.7796C21.6969 17.707 21.7322 17.6064 21.7322 17.5242C21.7312 17.4874 21.7104 17.3148 21.6882 17.2862ZM29.4466 15.8391C29.3436 15.8396 29.2241 15.8149 29.1312 15.7743C28.9866 15.7105 28.8846 15.443 29.0872 15.3835L29.2367 15.3395L29.0824 15.3172C28.9774 15.3018 28.8048 15.4207 28.7612 15.5136C28.6945 15.6273 28.6843 15.7293 28.7608 15.8386C28.8594 15.9803 29.0858 16.0302 29.2483 16.0302C29.2613 16.0302 29.316 16.0297 29.3349 16.0345C29.3344 16.0572 29.3228 16.1448 29.3233 16.1699C29.3271 16.331 29.5999 16.5438 29.7295 16.6193C29.8819 16.7078 30.1 16.8224 30.2853 16.8567C30.2432 16.8998 30.1924 16.9351 30.1581 16.9955C30.1155 17.0695 30.0768 17.1701 30.0695 17.2557L30.0681 17.2756L30.0845 17.2867C30.159 17.3365 30.2475 17.321 30.3312 17.321H30.3626L30.3651 17.2901C30.3772 17.145 30.516 17.0623 30.6509 17.1116C30.6988 17.129 30.7583 17.1943 30.7897 17.234C30.8095 17.2591 30.8918 17.3771 30.8811 17.412C30.842 17.4545 30.6103 17.4628 30.6843 17.6553C30.7036 17.7056 30.721 17.7699 30.7602 17.8081C30.7897 17.8366 30.8318 17.8516 30.8613 17.8618C30.7181 17.9677 30.8052 18.2724 30.9977 18.2458C31.0818 18.2419 31.1679 18.2632 31.2516 18.226C31.3005 18.2042 31.4199 18.1026 31.4543 18.0997L31.4688 18.0983L31.5065 18.0509L31.4765 18.0301C31.4364 18.002 31.4402 18.003 31.3943 18.003L31.2308 18.0016L31.1022 18.092C31.0818 18.0446 31.0789 17.9866 31.1089 17.9435C31.152 17.8821 31.2652 17.8918 31.3179 17.8163L31.359 17.7568L31.2618 17.765C31.2139 17.7597 31.167 17.7568 31.1191 17.7563C31.092 17.7563 31.064 17.7708 31.0417 17.7554C30.9996 17.7254 30.9619 17.6325 30.973 17.5817C30.9846 17.5295 31.0277 17.5155 31.0756 17.5077C31.3822 17.4574 30.974 17.0579 30.8478 17.0081C30.7723 16.9781 30.7297 16.9849 30.6543 16.982H30.6524L30.4947 16.9941C30.6253 16.8949 30.8023 16.8591 30.8831 16.7058L30.9193 16.6371L30.8439 16.6575C30.738 16.686 30.7341 16.6942 30.6248 16.6942C30.4067 16.6942 30.1682 16.5849 29.9844 16.4737C29.8238 16.3774 29.5951 16.2275 29.5951 16.0161C29.5951 15.8391 29.8901 15.5789 29.983 15.4188C30.0149 15.3637 30.0202 15.3511 30.0207 15.2902V15.2694L30.0018 15.2597C29.9491 15.2326 29.8142 15.2694 29.7905 15.3264L29.7876 15.3332V15.3405C29.7885 15.3767 29.7039 15.4933 29.6792 15.5233C29.6483 15.5615 29.493 15.7632 29.4466 15.8391ZM22.8122 16.0181C22.8079 16.0756 22.8233 16.1951 22.8562 16.2048C22.878 16.211 22.9036 16.1917 22.9133 16.1733C22.9288 16.1428 22.9433 16.093 22.9225 16.0616C22.9027 16.0321 22.8524 16.0214 22.8122 16.0181ZM26.6564 14.8104C26.6172 14.8529 26.5548 14.9559 26.5746 14.9835C26.5877 15.0019 26.6201 15.0033 26.6389 14.9946C26.6704 14.9806 26.7125 14.9506 26.7158 14.9129C26.7187 14.8776 26.6859 14.8379 26.6564 14.8104ZM24.0944 15.2524C24.0925 15.2931 24.0673 15.339 24.0393 15.3695C24.0165 15.3937 23.9827 15.4333 23.9435 15.444C23.914 15.4517 23.8782 15.4507 23.8782 15.4294C23.8782 15.3961 23.9696 15.31 23.9948 15.2911C24.0219 15.2703 24.061 15.2684 24.0944 15.2524ZM21.264 18.1776C21.2481 18.197 21.2369 18.2298 21.234 18.2598C21.2277 18.3237 21.25 18.3716 21.2911 18.4054C21.338 18.3517 21.3337 18.2371 21.264 18.1776Z" fill="#E7FCB6"/>
</svg>
