<svg width="50" height="50" viewBox="0 0 50 50" fill="none" xmlns="http://www.w3.org/2000/svg">
<circle cx="25" cy="25" r="25" fill="#40A083" fill-opacity="0.1"/>
<path d="M6.51123 42.1139L26.5 40.9276H43V5.13519C43 3.9562 42.0205 3 40.8115 3H8.69725C7.48951 3 6.51 3.9562 6.51 5.13519V42.1139H6.51123Z" fill="#40A083"/>
<path d="M6.56142 4.67756V42.1139H9.29395V3H8.6981C7.65196 3 6.77607 3.71775 6.56142 4.67756Z" fill="#1C737A"/>
<path d="M7.50526 40.9276H41.4453V46.5034H7.50526V40.9276Z" fill="#E7FCB6"/>
<path d="M6.51123 42.6486V44.7838C6.51123 46.418 7.86948 47.7439 9.54353 47.7439H43V46.5035H9.57684C8.585 46.5035 7.78189 45.7183 7.78189 44.7513V42.6799C7.78189 41.7117 8.585 40.9277 9.57684 40.9277H43V39.6873H9.54353C7.86948 39.6885 6.51123 41.0132 6.51123 42.6486Z" fill="#1C737A"/>
<path d="M7.92963 44.6465H41.4453V44.8873H7.92963V44.6465Z" fill="#8AC1A3"/>
<path d="M12.0491 49.6201L13.4221 48.7398L14.7964 49.6201V42.6967H12.0491V49.6201Z" fill="#FFCD2D"/>
<path d="M7.78159 42.5763H41.4453V42.8172H7.78159V42.5763Z" fill="#8AC1A3"/>
<path d="M25.611 12.1932C20.3115 12.1932 16 16.5047 16 21.8042C16 27.1037 20.3115 31.4152 25.611 31.4152C30.9105 31.4152 35.222 27.1037 35.222 21.8042C35.222 16.5047 30.9105 12.1932 25.611 12.1932ZM25.611 16.1337C25.8581 16.1337 26.0997 16.207 26.3052 16.3443C26.5106 16.4816 26.6708 16.6767 26.7653 16.905C26.8599 17.1333 26.8847 17.3845 26.8364 17.6269C26.7882 17.8692 26.6692 18.0919 26.4945 18.2666C26.3198 18.4413 26.0971 18.5603 25.8548 18.6086C25.6124 18.6568 25.3612 18.632 25.1329 18.5375C24.9046 18.4429 24.7094 18.2827 24.5722 18.0773C24.4349 17.8718 24.3616 17.6302 24.3616 17.3831C24.3616 17.0518 24.4932 16.734 24.7275 16.4996C24.9619 16.2653 25.2796 16.1337 25.611 16.1337ZM27.9177 26.9941H23.6888C23.4849 26.9941 23.2893 26.9131 23.1451 26.7689C23.0009 26.6248 22.9199 26.4292 22.9199 26.2253C22.9199 26.0213 23.0009 25.8258 23.1451 25.6816C23.2893 25.5374 23.4849 25.4564 23.6888 25.4564H25.0344V21.2275H24.2655C24.0616 21.2275 23.866 21.1465 23.7218 21.0023C23.5776 20.8581 23.4966 20.6626 23.4966 20.4587C23.4966 20.2547 23.5776 20.0592 23.7218 19.915C23.866 19.7708 24.0616 19.6898 24.2655 19.6898H25.8032C26.0072 19.6898 26.2027 19.7708 26.3469 19.915C26.4911 20.0592 26.5721 20.2547 26.5721 20.4587V25.4564H27.9177C28.1216 25.4564 28.3172 25.5374 28.4613 25.6816C28.6055 25.8258 28.6865 26.0213 28.6865 26.2253C28.6865 26.4292 28.6055 26.6248 28.4613 26.7689C28.3172 26.9131 28.1216 26.9941 27.9177 26.9941Z" fill="#E7FCB6"/>
</svg>
