<svg width="50" height="50" viewBox="0 0 50 50" fill="none" xmlns="http://www.w3.org/2000/svg">
<circle cx="25" cy="25" r="25" fill="#40A083" fill-opacity="0.1"/>
<path d="M44.9854 38.66H5.01458C3.68514 38.6583 2.41062 38.1269 1.47056 37.1824C0.530506 36.2378 0.00165388 34.9572 0 33.6214V11.8804C0.00165388 10.5446 0.530506 9.26395 1.47056 8.3194C2.41062 7.37484 3.68514 6.84346 5.01458 6.8418H44.9854C46.3149 6.84346 47.5894 7.37484 48.5294 8.3194C49.4695 9.26395 49.9983 10.5446 50 11.8804V33.6214C49.9983 34.9572 49.4695 36.2378 48.5294 37.1824C47.5894 38.1269 46.3149 38.6583 44.9854 38.66Z" fill="#1C737A"/>
<path fill-rule="evenodd" clip-rule="evenodd" d="M10 42.0093C10 41.0844 10.7462 40.3346 11.6667 40.3346H38.3333C39.2538 40.3346 40 41.0844 40 42.0093C40 42.9341 39.2538 43.6839 38.3333 43.6839H11.6667C10.7462 43.6839 10 42.9341 10 42.0093Z" fill="#1C737A"/>
<path d="M43.2097 37.2093H4.81664C3.53967 37.2077 2.31547 36.6763 1.41252 35.7317C0.509565 34.7872 0.0015886 33.5065 0 32.1707V11.8804C0.0015886 10.5446 0.509565 9.26395 1.41252 8.3194C2.31547 7.37484 3.53967 6.84346 4.81664 6.8418H43.2097C44.4866 6.84346 45.7109 7.37484 46.6138 8.3194C47.5168 9.26395 48.0247 10.5446 48.0263 11.8804V32.1707C48.0247 33.5065 47.5168 34.7872 46.6138 35.7317C45.7109 36.6763 44.4866 37.2077 43.2097 37.2093Z" fill="#40A083"/>
<path fill-rule="evenodd" clip-rule="evenodd" d="M9.60526 42.0093C9.60526 41.0844 10.322 40.3346 11.2061 40.3346H36.8202C37.7043 40.3346 38.4211 41.0844 38.4211 42.0093C38.4211 42.9341 37.7043 43.6839 36.8202 43.6839H11.2061C10.322 43.6839 9.60526 42.9341 9.60526 42.0093Z" fill="#40A083"/>
<path fill-rule="evenodd" clip-rule="evenodd" d="M28.3972 29.3748L29.7652 32.198L29.11 31.75L28.128 29.4992C28.2188 29.4597 28.3085 29.4186 28.3972 29.3748ZM32.4101 24.3483L32.6413 24.4023L32.9019 24.6388L32.589 24.7237L32.3321 24.6522C32.3599 24.5523 32.3861 24.4509 32.4101 24.3483ZM32.2632 24.8866L33.5453 25.2892L33.8556 25.7175L32.1831 25.129C32.2109 25.0489 32.2376 24.9683 32.2632 24.8866ZM32.0582 25.4574C32.0208 25.5493 31.9818 25.6401 31.9407 25.7298L34.7986 27.0236L34.3335 26.3807L32.0582 25.4574ZM31.7928 26.0379L35.4234 27.886L35.9627 28.632L35.0437 28.5722L31.5466 26.4816C31.6337 26.3364 31.7159 26.1885 31.7928 26.0379ZM31.3645 26.77L33.9805 28.5017L33.1881 28.4504L31.1958 27.0145C31.254 26.9339 31.3101 26.8527 31.3645 26.77ZM30.9843 27.2938C30.9315 27.3606 30.8775 27.4262 30.822 27.4914L31.8441 28.3623L32.3716 28.3965L30.9843 27.2938ZM30.5838 27.7579L30.7606 27.9229L30.8685 28.2577L30.555 28.1754L30.3649 27.9821C30.4391 27.909 30.5123 27.8342 30.5838 27.7579ZM30.1257 28.2069L31.0292 29.2124L31.0772 29.7389L29.9334 28.3746C29.9986 28.3196 30.0627 28.2641 30.1257 28.2069ZM29.66 28.5941C29.5815 28.6539 29.502 28.7126 29.4213 28.7692L31.2241 31.3431L31.152 30.5533L29.66 28.5941ZM29.1367 28.9593L28.7421 29.2178L30.6436 32.7998L31.4035 33.3193L31.3202 32.403L29.1367 28.9593ZM27.2491 29.8217L27.3185 30.054L27.2421 30.3974L27.0131 30.1683L26.9463 29.904C27.0478 29.8794 27.1487 29.8516 27.2491 29.8217ZM27.8034 29.6332C27.7238 29.6637 27.6437 29.693 27.5631 29.7208L27.9977 30.9896L28.434 31.288L27.8034 29.6332ZM26.6297 29.9771L26.8988 31.2998L26.674 31.7777L26.3787 30.0241C26.4631 30.0091 26.5464 29.9937 26.6297 29.9771ZM26.0316 30.0738L26.3253 32.5173L25.9873 33.235L25.7363 30.1037C25.8356 30.0957 25.9339 30.0855 26.0316 30.0738ZM25.3951 30.1234L25.5339 34.1983L25.142 35.0308L24.75 34.1983L24.8889 30.124C24.97 30.1266 25.0512 30.1282 25.1324 30.1282C25.2205 30.1282 25.308 30.1266 25.3951 30.1234ZM24.5471 30.1053L24.2967 33.2355L23.9586 32.5178L24.2523 30.0764C24.3495 30.0876 24.4478 30.0973 24.5471 30.1053ZM23.9042 30.0268L23.6094 31.7772L23.3841 31.2993L23.6527 29.9808C23.7365 29.9974 23.8203 30.0129 23.9042 30.0268ZM23.2751 29.8938L23.2121 30.1432L22.9702 30.399L22.8907 30.085L22.9729 29.8089C23.0733 29.8393 23.1737 29.8676 23.2751 29.8938ZM22.6605 29.7069L22.221 30.9896L21.7848 31.288L22.4218 29.6183C22.5003 29.6492 22.5804 29.6786 22.6605 29.7069ZM22.0982 29.4826C22.008 29.4426 21.9188 29.4004 21.8307 29.3566L20.4541 32.1985L21.1093 31.7505L22.0982 29.4826ZM21.5285 29.1986L19.5746 32.7998L18.8147 33.3193L18.8986 32.403L21.0949 28.939C21.2364 29.0303 21.3811 29.1169 21.5285 29.1986ZM20.8129 28.7479L18.9952 31.3431L19.0673 30.5533L20.5758 28.5722C20.6533 28.632 20.7328 28.6907 20.8129 28.7479ZM20.304 28.3522C20.2394 28.2972 20.1759 28.2411 20.1134 28.184L19.1896 29.2119L19.1415 29.7379L20.304 28.3522ZM19.8266 27.91L19.6269 28.1092L19.2879 28.2053L19.3808 27.8951L19.6109 27.6836C19.6814 27.7605 19.7535 27.8358 19.8266 27.91ZM19.4229 27.469L18.3747 28.3618L17.8471 28.3965L19.2628 27.2719C19.3151 27.3387 19.3685 27.4044 19.4229 27.469ZM19.0524 26.9926C18.9952 26.9125 18.9397 26.8314 18.8858 26.7497L16.2382 28.5022L17.0301 28.4504L19.0524 26.9926ZM18.7047 26.4613C18.6188 26.3172 18.5381 26.1698 18.4623 26.0192L14.7954 27.886L14.2561 28.6315L15.1751 28.5711L18.7047 26.4613ZM18.3155 25.7121L15.4196 27.0231L15.8847 26.3802L18.1996 25.4409C18.2364 25.5327 18.2754 25.623 18.3155 25.7121ZM18.0768 25.1146C18.049 25.035 18.0218 24.9549 17.9967 24.8738L16.6734 25.2892L16.3637 25.7175L18.0768 25.1146ZM17.9331 24.6554L17.6517 24.7344L17.3089 24.6522L17.5422 24.4268L17.8562 24.3526C17.8792 24.4546 17.9048 24.5555 17.9331 24.6554ZM20.9357 23.4966C20.9261 23.4491 20.9176 23.4005 20.9096 23.3524L16.0209 24.1737L16.4994 24.3985L20.9357 23.4966ZM20.8818 23.1533L15.2803 23.8256L14.5621 23.4881L20.8658 22.984C20.8701 23.0411 20.8754 23.0972 20.8818 23.1533ZM20.8556 22.7886C20.8546 22.7469 20.8535 22.7053 20.8535 22.6636C20.8535 22.6081 20.8551 22.5531 20.8572 22.4981L13.5977 22.2514L12.7646 22.6433L13.5977 23.0347L20.8556 22.7886ZM20.869 22.3021L14.5621 21.798L15.2803 21.4605L20.8866 22.1334C20.8797 22.1894 20.8738 22.246 20.869 22.3021ZM20.916 21.9347C20.9245 21.8867 20.9331 21.8386 20.9432 21.7911L16.4994 20.887L16.0209 21.1118L20.916 21.9347ZM17.8594 20.9548L17.5657 20.8865L17.3052 20.6494L17.6181 20.5645L17.9374 20.6531C17.9091 20.7525 17.8829 20.8534 17.8594 20.9548ZM18.0164 20.3888L16.7413 19.9835L16.3899 19.5558L18.0949 20.1597C18.0677 20.2356 18.0415 20.3119 18.0164 20.3888ZM18.2199 19.834C18.2573 19.7432 18.2968 19.653 18.3379 19.5638L15.4479 18.2486L15.9114 18.8926L18.2199 19.834ZM18.4869 19.2578L14.8258 17.3841L14.2881 16.6375L15.2066 16.6995L18.733 18.8173C18.646 18.9615 18.5643 19.1083 18.4869 19.2578ZM18.9157 18.5305L16.2692 16.7716L17.0611 16.825L19.0839 18.2886C19.0267 18.3682 18.9707 18.4488 18.9157 18.5305ZM19.2964 18.0115C19.3493 17.9453 19.4032 17.8801 19.4582 17.8155L18.4062 16.9158L17.8787 16.88L19.2964 18.0115ZM19.6312 17.6212L19.4032 17.4118L19.2927 17.077L19.6072 17.1566L19.8469 17.3958C19.7738 17.4695 19.7017 17.5443 19.6312 17.6212ZM20.1129 17.1422L19.1896 16.1254L19.1389 15.5995L20.304 16.9745C20.2394 17.0295 20.1753 17.085 20.1129 17.1422ZM20.5753 16.7545C20.6533 16.6941 20.7323 16.6359 20.8129 16.5788L18.9835 13.9964L19.0598 14.7857L20.5753 16.7545ZM21.0949 16.3871C21.2364 16.2958 21.3811 16.2098 21.5285 16.1281L19.5548 12.5365L18.7923 12.0207L18.881 12.9365L21.0949 16.3871ZM21.8307 15.9701L20.437 13.133L21.0949 13.5773L22.0988 15.8435C22.0085 15.8841 21.9193 15.9263 21.8307 15.9701ZM22.4213 15.7084C22.5003 15.6774 22.5799 15.6481 22.66 15.6198L22.2109 14.3318L21.773 14.0354L22.4213 15.7084ZM22.9713 15.5178L22.8864 15.2337L22.9628 14.8903L23.1918 15.1194L23.2714 15.4334C23.171 15.4596 23.0706 15.4879 22.9713 15.5178ZM23.6142 15.3544L23.344 14.0274L23.5688 13.5495L23.8647 15.3068C23.7808 15.3207 23.6975 15.3367 23.6142 15.3544ZM24.2118 15.2556L23.9175 12.8099L24.2555 12.0917L24.5065 15.2251C24.4077 15.2332 24.3095 15.2433 24.2118 15.2556ZM24.8477 15.2043L24.7089 11.1284L25.1014 10.2959L25.4939 11.1279L25.355 15.2017C25.2808 15.1995 25.2071 15.1979 25.1324 15.1979C25.0368 15.1984 24.9423 15.2006 24.8477 15.2043ZM25.6962 15.2198L25.9467 12.0912L26.2852 12.8088L25.9921 15.2476C25.8938 15.2369 25.795 15.2273 25.6962 15.2198ZM26.3392 15.2967L26.6334 13.5495L26.8582 14.0274L26.5907 15.3416C26.5074 15.325 26.4235 15.3106 26.3392 15.2967ZM26.9073 15.412L26.9751 15.1397L27.216 14.8829L27.2961 15.1968L27.209 15.4932C27.1097 15.4638 27.0088 15.4371 26.9073 15.412ZM27.5641 15.6059L28.0084 14.3318L28.4463 14.036L27.8039 15.6935C27.7243 15.6625 27.6448 15.6336 27.5641 15.6059ZM28.128 15.827C28.2188 15.867 28.308 15.9081 28.3966 15.9514L29.7813 13.1324L29.1239 13.5773L28.128 15.827ZM28.701 16.1089L30.6645 12.5365L31.427 12.0207L31.3384 12.9365L29.1373 16.3673C28.9947 16.276 28.8494 16.1901 28.701 16.1089ZM29.4208 16.5569L31.2353 13.9954L31.1595 14.7851L29.6606 16.7326C29.5815 16.6728 29.502 16.614 29.4208 16.5569ZM29.934 16.9521C29.9991 17.0071 30.0632 17.0631 30.1262 17.1197L31.0297 16.1249L31.0805 15.5995L29.934 16.9521ZM30.3217 17.3018L30.5102 17.1091L30.8476 17.0087L30.7585 17.32L30.5417 17.524C30.4701 17.4487 30.3964 17.3744 30.3217 17.3018ZM30.7868 17.7936L31.8131 16.9158L32.3407 16.88L30.9502 17.9896C30.8968 17.9234 30.8423 17.8582 30.7868 17.7936ZM31.1638 18.2678C31.222 18.3474 31.2791 18.428 31.3341 18.5102L33.949 16.7716L33.1571 16.825L31.1638 18.2678ZM31.5189 18.7981C31.6064 18.9422 31.6897 19.0891 31.7682 19.2397L35.3935 17.3846L35.9312 16.6381L35.0127 16.7L31.5189 18.7981ZM31.9183 19.5467L34.7708 18.2486L34.3073 18.8926L32.0379 19.8185C31.9994 19.7267 31.9599 19.6364 31.9183 19.5467ZM32.1644 20.1458C32.1917 20.2222 32.2184 20.2986 32.2435 20.376L33.4781 19.9835L33.8294 19.5558L32.1644 20.1458ZM32.3022 20.5677L32.5404 20.4988L32.8837 20.5784L32.6525 20.8053L32.3845 20.8705C32.3588 20.7685 32.3316 20.6676 32.3022 20.5677ZM29.321 21.7911L33.7648 20.887L34.2433 21.1118L29.3482 21.9342C29.3396 21.8867 29.3306 21.8386 29.321 21.7911ZM34.9839 21.4605L29.3776 22.1334C29.3845 22.1894 29.3904 22.2455 29.3952 22.3021L35.7021 21.798L34.9839 21.4605ZM29.3824 23.1533L34.9839 23.8256L35.7021 23.4875L29.3984 22.984C29.3946 23.0406 29.3888 23.0972 29.3824 23.1533ZM29.329 23.4966L33.7648 24.3991L34.2433 24.1737L29.3546 23.3524C29.3466 23.4005 29.338 23.4491 29.329 23.4966ZM36.6665 22.2514L37.4995 22.6433L36.6665 23.0353L29.4091 22.7886C29.4101 22.7469 29.4112 22.7053 29.4112 22.6636C29.4112 22.6081 29.4096 22.5531 29.4075 22.4981L36.6665 22.2514Z" fill="#E7FCB6"/>
<path fill-rule="evenodd" clip-rule="evenodd" d="M29.2362 21.452L29.673 21.326C29.6917 21.3896 29.7093 21.4536 29.7253 21.5183L29.2837 21.6261C29.2693 21.5674 29.2533 21.5092 29.2362 21.452ZM21.0074 23.793L20.5701 23.9159C20.5525 23.8523 20.5364 23.7888 20.5215 23.7247L20.9636 23.6206C20.9764 23.6782 20.9914 23.7359 21.0074 23.793ZM29.3029 23.6227L29.7451 23.7258C29.7301 23.7909 29.7136 23.855 29.6959 23.9191L29.2581 23.7973C29.2741 23.7397 29.289 23.6814 29.3029 23.6227ZM29.2196 23.9303L29.6527 24.0665C29.6367 24.1177 29.6196 24.169 29.602 24.2197L29.1732 24.0686C29.1892 24.0232 29.2052 23.9773 29.2196 23.9303ZM29.1021 24.2571L29.5235 24.428C29.5 24.4862 29.4749 24.5438 29.4492 24.6004L29.0354 24.413C29.0589 24.3617 29.0813 24.3094 29.1021 24.2571ZM28.951 24.5898C28.9072 24.6763 28.8602 24.7606 28.8106 24.8439L29.2004 25.0768C29.2554 24.9849 29.3072 24.8915 29.3558 24.7959L28.951 24.5898ZM28.7065 25.0095L29.0851 25.2599C29.0503 25.3122 29.0151 25.364 28.9783 25.4148L28.6103 25.1494C28.6429 25.1035 28.675 25.057 28.7065 25.0095ZM28.4891 25.3096C28.4587 25.348 28.4277 25.3854 28.3962 25.4228L28.7417 25.717C28.7764 25.6759 28.8106 25.6342 28.8442 25.5921L28.4891 25.3096ZM28.2542 25.5819L28.5858 25.8916C28.5404 25.9402 28.4939 25.9877 28.4464 26.0342L28.1281 25.7111C28.1709 25.669 28.2131 25.6262 28.2542 25.5819ZM27.9963 25.835C27.9599 25.8676 27.9231 25.8996 27.8863 25.9306L28.1778 26.2788C28.2189 26.2441 28.2595 26.2088 28.2996 26.1725L27.9963 25.835ZM27.7298 26.0566L28.0048 26.4176C27.9551 26.4555 27.9049 26.4929 27.8537 26.5287L27.5931 26.157C27.6396 26.1244 27.6849 26.0908 27.7298 26.0566ZM27.4308 26.2665C27.3496 26.3183 27.2663 26.3679 27.1809 26.4144L27.3971 26.8133C27.4911 26.762 27.5835 26.707 27.6732 26.6494L27.4308 26.2665ZM27.0073 26.5041L27.2054 26.9126C27.1493 26.9404 27.0922 26.9665 27.0351 26.9916L26.8535 26.5751C26.9053 26.5532 26.9566 26.5292 27.0073 26.5041ZM26.6677 26.6526L26.8295 27.0771C26.7793 27.0963 26.7286 27.115 26.6773 27.1326L26.5299 26.7028C26.5769 26.6867 26.6223 26.6702 26.6677 26.6526ZM26.3366 26.7647L26.4669 27.2004C26.4034 27.2191 26.3388 27.2367 26.2741 27.2528L26.1625 26.8122C26.2207 26.7978 26.2789 26.7818 26.3366 26.7647ZM25.9938 26.8507L26.0846 27.2955C26.0322 27.3062 25.9794 27.3163 25.926 27.3254L25.8507 26.8774C25.8987 26.8694 25.9463 26.8608 25.9938 26.8507ZM25.652 26.9062L25.7065 27.3574C25.6446 27.3649 25.5826 27.3713 25.5196 27.3761L25.4833 26.9233C25.5399 26.919 25.596 26.9131 25.652 26.9062ZM25.2879 26.935L25.3033 27.3889C25.2467 27.3911 25.1901 27.3921 25.1335 27.3921C25.0828 27.3921 25.0332 27.3911 24.983 27.3895L24.9984 26.9356C25.0433 26.9372 25.0887 26.9382 25.1335 26.9382C25.1853 26.9382 25.2366 26.9366 25.2879 26.935ZM24.8025 26.9254L24.7662 27.3782C24.7037 27.3734 24.6412 27.3676 24.5793 27.3601L24.6332 26.9089C24.6898 26.9153 24.7459 26.9206 24.8025 26.9254ZM24.4351 26.8806L24.3598 27.3286C24.3064 27.32 24.2535 27.3104 24.2007 27.2998L24.2914 26.8544C24.339 26.864 24.387 26.8726 24.4351 26.8806ZM24.0565 26.8005L23.9454 27.241C23.8813 27.2245 23.8173 27.2063 23.7537 27.1871L23.8829 26.7519C23.9406 26.7684 23.9983 26.785 24.0565 26.8005ZM23.6955 26.6889L23.5481 27.1187C23.4974 27.1006 23.4472 27.0819 23.397 27.0621L23.5588 26.6376C23.6042 26.6552 23.6501 26.6723 23.6955 26.6889ZM23.3751 26.5591L23.1936 26.9751C23.1364 26.9495 23.0804 26.9228 23.0248 26.895L23.2229 26.4865C23.2731 26.5116 23.3239 26.5356 23.3751 26.5591ZM23.0505 26.3946C22.9666 26.3476 22.8838 26.2975 22.8038 26.2451L22.5608 26.6285C22.65 26.6867 22.7413 26.7417 22.8342 26.7935L23.0505 26.3946ZM22.643 26.1357L22.3824 26.5078C22.3317 26.4715 22.282 26.4342 22.2329 26.3962L22.5079 26.0353C22.5522 26.0689 22.5976 26.1026 22.643 26.1357ZM22.3536 25.9087C22.3168 25.8772 22.2804 25.8452 22.2452 25.8126L21.9419 26.1501C21.9814 26.1864 22.0215 26.2216 22.062 26.2569L22.3536 25.9087ZM22.085 25.6577L21.7635 25.9781C21.7171 25.9311 21.6717 25.8831 21.6274 25.8345L21.9617 25.5274C22.0017 25.5718 22.0428 25.615 22.085 25.6577ZM21.8516 25.4004C21.8207 25.363 21.7902 25.3256 21.7603 25.2877L21.4052 25.5702C21.4383 25.6123 21.472 25.654 21.5062 25.6951L21.8516 25.4004ZM21.6413 25.128L21.2728 25.3934C21.237 25.3427 21.2018 25.2914 21.1681 25.2396L21.5467 24.9892C21.5772 25.0356 21.6087 25.0821 21.6413 25.128ZM21.4442 24.8236C21.3956 24.7414 21.3497 24.657 21.3064 24.5711L20.9017 24.7772C20.9497 24.8722 21.0005 24.9652 21.0544 25.0565L21.4442 24.8236ZM21.2231 24.3959L20.8093 24.5834C20.7842 24.5268 20.7596 24.4696 20.7367 24.4119L21.1575 24.2411C21.1788 24.2934 21.2007 24.3452 21.2231 24.3959ZM21.0886 24.0547L20.6603 24.2053C20.6427 24.1551 20.6261 24.1044 20.6101 24.0531L21.0437 23.9169C21.0576 23.9639 21.0726 24.0093 21.0886 24.0547ZM20.9695 21.679L20.5268 21.5759C20.5418 21.5119 20.5589 21.4483 20.5765 21.3853L21.0144 21.507C20.9983 21.5636 20.9834 21.6213 20.9695 21.679ZM21.0603 21.3559L20.6272 21.2182C20.6427 21.1696 20.6593 21.121 20.6763 21.0734L21.1046 21.2251C21.0891 21.2684 21.0742 21.3121 21.0603 21.3559ZM21.1762 21.0393L20.7554 20.8679C20.7794 20.8102 20.804 20.7536 20.8296 20.697L21.2429 20.8849C21.2199 20.9362 21.198 20.9875 21.1762 21.0393ZM21.3289 20.7109C21.3732 20.6254 21.4197 20.5421 21.4693 20.4599L21.08 20.226C21.025 20.3168 20.9732 20.4092 20.9246 20.5037L21.3289 20.7109ZM21.5734 20.296L21.1954 20.0445C21.2301 19.9927 21.2653 19.9419 21.3022 19.8917L21.6701 20.1577C21.637 20.2036 21.6044 20.2495 21.5734 20.296ZM21.7902 20.0001C21.8207 19.9622 21.8511 19.9254 21.8826 19.8885L21.5377 19.5932C21.503 19.6338 21.4688 19.6749 21.4351 19.7166L21.7902 20.0001ZM21.9819 19.7769L21.6477 19.4699C21.692 19.4213 21.7374 19.3743 21.7838 19.3278L22.1048 19.6482C22.0626 19.6899 22.022 19.7331 21.9819 19.7769ZM22.2575 19.5019C22.2933 19.4693 22.3301 19.4378 22.3669 19.4063L22.0733 19.0598C22.0327 19.0945 21.9926 19.1303 21.9526 19.166L22.2575 19.5019ZM22.5218 19.2808L22.2447 18.9209C22.2938 18.883 22.344 18.8456 22.3947 18.8099L22.6569 19.1805C22.6115 19.2125 22.5661 19.2461 22.5218 19.2808ZM22.8182 19.0705C22.8988 19.0181 22.9816 18.969 23.0654 18.922L22.8465 18.5242C22.753 18.576 22.6617 18.6304 22.5725 18.6881L22.8182 19.0705ZM23.2384 18.8318L23.0382 18.4243C23.0937 18.3966 23.1503 18.3699 23.2074 18.3448L23.3911 18.7602C23.3393 18.7826 23.2886 18.8067 23.2384 18.8318ZM23.5754 18.6822L23.4114 18.2588C23.4611 18.239 23.5118 18.2203 23.5625 18.2027L23.7121 18.6315C23.6656 18.6475 23.6202 18.6646 23.5754 18.6822ZM23.8872 18.5738L23.7569 18.1386C23.8199 18.1194 23.8829 18.1018 23.947 18.0852L24.0586 18.5253C24.001 18.5402 23.9438 18.5562 23.8872 18.5738ZM24.2525 18.4793L24.1617 18.0345C24.214 18.0233 24.2669 18.0132 24.3197 18.0041L24.395 18.4521C24.3475 18.4601 24.3 18.4692 24.2525 18.4793ZM24.5937 18.4217L24.5397 17.971C24.6017 17.963 24.6636 17.9566 24.7261 17.9512L24.7624 18.404C24.7058 18.4088 24.6497 18.4147 24.5937 18.4217ZM24.9579 18.3918L24.9424 17.9379C25.0059 17.9352 25.0695 17.9336 25.1335 17.9336C25.1768 17.9336 25.22 17.9347 25.2633 17.9357L25.2478 18.3896C25.2099 18.3886 25.172 18.388 25.1335 18.388C25.0743 18.388 25.0161 18.3891 24.9579 18.3918ZM25.4427 18.3992L25.479 17.9464C25.5415 17.9512 25.604 17.9566 25.6665 17.9635L25.612 18.4147C25.5559 18.4088 25.4993 18.4035 25.4427 18.3992ZM25.8112 18.442L25.8865 17.9939C25.9399 18.0025 25.9927 18.0121 26.0456 18.0222L25.9548 18.4676C25.9073 18.458 25.8592 18.4494 25.8112 18.442ZM26.1364 18.5071L26.2464 18.066C26.3105 18.0815 26.3745 18.0986 26.4375 18.1168L26.3094 18.5525C26.2522 18.5365 26.1946 18.5215 26.1364 18.5071ZM26.515 18.6171L26.6645 18.1883C26.7152 18.2059 26.7659 18.2241 26.8161 18.2433L26.6517 18.6673C26.6068 18.6497 26.5609 18.6331 26.515 18.6171ZM26.838 18.7431L27.0217 18.3277C27.0794 18.3528 27.136 18.3789 27.1921 18.4062L26.9918 18.8141C26.9411 18.789 26.8898 18.7655 26.838 18.7431ZM27.1659 18.9033C27.2513 18.9498 27.3341 18.9989 27.4158 19.0502L27.6609 18.6678C27.5707 18.6107 27.4788 18.5562 27.3843 18.505L27.1659 18.9033ZM27.5792 19.1586L27.8419 18.788C27.8932 18.8238 27.9439 18.8611 27.9936 18.899L27.7164 19.259C27.6711 19.2248 27.6257 19.1911 27.5792 19.1586ZM27.8734 19.3839C27.9108 19.4149 27.9477 19.4469 27.984 19.4795L28.2894 19.1436C28.2494 19.1078 28.2088 19.0721 28.1671 19.0379L27.8734 19.3839ZM28.095 19.5826L28.4122 19.2579C28.4598 19.3038 28.5067 19.3508 28.5521 19.3983L28.2216 19.7096C28.1799 19.6659 28.1378 19.6237 28.095 19.5826ZM28.3647 19.8661C28.3967 19.9029 28.4277 19.9403 28.4582 19.9782L28.8133 19.6952C28.7796 19.6536 28.7449 19.6119 28.7097 19.5713L28.3647 19.8661ZM28.581 20.1368L28.9489 19.8709C28.9857 19.9211 29.022 19.9724 29.0573 20.0242L28.6792 20.2757C28.6477 20.2281 28.6146 20.1822 28.581 20.1368ZM28.7855 20.4401C28.8362 20.5224 28.8837 20.6067 28.9286 20.6927L29.3334 20.4855C29.2837 20.3905 29.2308 20.2976 29.1748 20.2062L28.7855 20.4401ZM29.0151 20.8684L29.4289 20.6799C29.4551 20.7365 29.4807 20.7942 29.5048 20.8518L29.084 21.0233C29.0621 20.9709 29.0391 20.9197 29.0151 20.8684ZM29.1571 21.2107C29.1732 21.2545 29.1881 21.2983 29.2025 21.3426L29.6356 21.2048C29.6196 21.1557 29.603 21.1071 29.5854 21.059L29.1571 21.2107Z" fill="#E7FCB6"/>
<path fill-rule="evenodd" clip-rule="evenodd" d="M29.4162 22.6599C29.4162 25.0275 27.4952 26.9468 25.1256 26.9468C22.7559 26.9468 20.835 25.0275 20.835 22.6599C20.835 20.2923 22.7559 18.373 25.1256 18.373C27.4952 18.373 29.4162 20.2923 29.4162 22.6599ZM27.1718 24.5041C27.1915 24.4619 27.2396 24.384 27.2743 24.3381C27.2533 24.3522 27.2189 24.3695 27.1799 24.3892C27.085 24.437 26.9629 24.4984 26.9406 24.5613L26.885 24.4603C26.8671 24.3869 26.92 24.3639 27.0502 24.3072C27.1019 24.2847 27.1658 24.2568 27.2423 24.2184C27.251 24.2147 27.2588 24.2114 27.2661 24.2083C27.3038 24.1923 27.3264 24.1827 27.3806 24.1581C27.4949 24.1069 27.4946 24.1736 27.4942 24.2528C27.4942 24.2628 27.4941 24.2729 27.4943 24.2831C27.3945 24.3338 27.2524 24.5212 27.2295 24.5896C27.2288 24.5915 27.2281 24.5936 27.2273 24.5958C27.2016 24.6718 27.1306 24.8813 27.3309 24.9959C27.435 25.0552 27.5573 25.0237 27.6422 24.9724C27.6474 24.9693 27.655 24.9649 27.6643 24.9594C27.7368 24.9171 27.915 24.813 27.9023 24.7818L27.9082 24.7898L28.0737 24.6734C27.9915 24.872 27.804 24.9959 27.6214 25.0969C27.5231 25.1508 27.3715 25.1802 27.2626 25.1396C27.1696 25.1054 27.1291 24.973 27.1184 24.8795C27.1045 24.7572 27.1184 24.6168 27.1718 24.5041ZM23.7393 20.1911L23.7799 19.9599L24.7849 19.1279L24.7416 19.3736L23.7393 20.1911ZM23.3821 20.96C23.3415 20.9387 22.9752 20.7384 22.9752 20.7251C22.9752 20.7007 23.0836 20.5179 23.1413 20.4207C23.1582 20.3924 23.1707 20.3713 23.1749 20.3636C23.1815 20.3663 23.1879 20.3689 23.194 20.3715C23.2572 20.3975 23.2971 20.414 23.3628 20.4549C23.389 20.4714 23.5706 20.5697 23.593 20.5729L23.3821 20.96ZM22.4748 20.5964C22.4588 20.6194 22.3883 20.763 22.391 20.7726C22.4017 20.8143 22.7504 20.9964 22.7941 21.014C22.7963 20.9878 22.8908 20.8121 22.9015 20.7956C22.9255 20.7571 22.996 20.63 22.9837 20.6076C22.9752 20.5959 22.6163 20.3817 22.5859 20.3817C22.5803 20.3817 22.557 20.431 22.5325 20.483C22.5103 20.5301 22.487 20.5794 22.4748 20.5964ZM25.7952 19.2705L24.5611 20.2589L24.5205 20.4896L25.7519 19.5156L25.7952 19.2705ZM25.0812 20.355C25.0663 20.4245 25.2158 20.6103 25.2905 20.6434C25.3653 20.6765 25.4406 20.6071 25.4689 20.5542C25.4646 20.5478 25.4601 20.5411 25.4554 20.5342C25.409 20.4656 25.3453 20.3715 25.3381 20.2963C25.3483 20.264 25.3669 20.2382 25.3839 20.2144L25.3861 20.2114C25.3909 20.2132 25.3983 20.2144 25.4056 20.2156C25.4131 20.2168 25.4205 20.218 25.4251 20.2199C25.4252 20.2196 25.4269 20.2232 25.4299 20.2296C25.4514 20.2752 25.541 20.4648 25.6163 20.4597C25.6408 20.4576 25.7204 20.4132 25.7637 20.3801C25.7415 20.3476 25.728 20.3354 25.711 20.3199C25.7043 20.3137 25.697 20.3071 25.6884 20.2984C25.6286 20.2386 25.5938 20.19 25.5874 20.1356C25.5814 20.0847 25.6039 20.0668 25.6361 20.0414C25.6407 20.0377 25.6455 20.0339 25.6504 20.0298C25.6592 20.0431 25.6724 20.0601 25.6877 20.0797C25.7344 20.1399 25.8008 20.2254 25.8213 20.3075C25.8336 20.3572 25.8245 20.4325 25.7968 20.5029C25.7621 20.5905 25.6526 20.6594 25.5367 20.5537C25.5351 20.6589 25.4326 20.8607 25.2713 20.8228C25.1505 20.7946 25.0993 20.7013 25.0035 20.5263C25.0015 20.5227 24.9994 20.519 24.9974 20.5152C24.9584 20.4431 24.9814 20.4026 25.0812 20.355ZM26.1903 20.1409C26.0947 20.1019 26.0088 20.0079 25.9933 19.969C25.9876 19.9547 25.9818 19.9421 25.9761 19.93C25.9566 19.8881 25.94 19.8526 25.9479 19.7789C25.9612 19.656 26.029 19.3768 26.2378 19.3613C26.3275 19.3816 26.3863 19.585 26.3863 19.742C26.3863 19.8523 26.3822 19.8758 26.3673 19.9604L26.3665 19.9647C26.3686 19.9657 26.3706 19.9667 26.3727 19.9676C26.4098 19.9853 26.4475 20.0033 26.453 20.0352C26.4659 20.1051 26.4453 20.1636 26.4191 20.2378C26.4159 20.2469 26.4126 20.2562 26.4092 20.2659C26.404 20.2576 26.3997 20.2505 26.396 20.2443C26.3713 20.2036 26.3707 20.2027 26.2966 20.181C26.2368 20.4597 25.9538 20.849 25.7807 21.0252C25.7071 21.1005 25.5346 21.2281 25.4967 21.2313C25.5206 21.1952 25.6312 21.0793 25.6929 21.0146C25.7041 21.0028 25.7138 20.9927 25.7209 20.9851C25.7332 20.9723 25.8235 20.8762 25.911 20.7331C25.9139 20.7283 25.9169 20.7235 25.9199 20.7186C26.0095 20.5723 26.1459 20.3496 26.1903 20.1409ZM26.1614 19.898C26.1916 19.9142 26.2142 19.9264 26.2549 19.9391C26.279 19.8461 26.2934 19.7725 26.2966 19.7126C26.3008 19.6454 26.2928 19.5685 26.2507 19.5573C26.1967 19.5722 26.0365 19.6774 26.0168 19.7698C26.0079 19.8262 26.0325 19.8367 26.0726 19.8538C26.0857 19.8594 26.1004 19.8657 26.1161 19.8744C26.1339 19.8833 26.1483 19.891 26.1614 19.898ZM22.1443 22.789C22.5095 22.9086 22.8662 22.2101 22.9939 21.8406C23.0483 21.6836 23.2288 21.6414 23.326 21.7594C23.3322 21.7862 23.3379 21.8117 23.3434 21.8364C23.3724 21.9664 23.3961 22.0728 23.4643 22.2101C23.5556 22.3949 23.9177 22.6127 24.3876 22.4242C24.4292 22.6085 24.4634 22.79 24.4821 22.9833C24.4965 23.1312 24.4885 23.3213 24.433 23.4666C24.3731 23.6423 24.1168 23.9482 23.8723 24.2243C23.7745 24.3349 23.5513 24.5127 23.2374 24.565C22.988 24.6067 22.7669 24.5388 22.6024 24.3963C22.4673 24.2782 22.3686 24.0769 22.344 23.8644C22.3431 23.8571 22.3423 23.8497 22.3414 23.8423C22.329 23.7345 22.317 23.6301 22.2975 23.6076C22.2372 23.7357 22.1651 24.4828 22.4316 24.809C22.5474 24.9505 22.8134 25.1353 23.0489 25.138C23.4686 25.1428 23.8279 24.7951 24.1382 24.2841C24.2552 24.0914 24.37 23.8822 24.4523 23.7324C24.5029 23.6402 24.5411 23.5705 24.56 23.5408C24.6652 24.2099 24.8046 24.6734 25.3402 25.1385C25.6857 25.4391 26.2346 25.7547 26.7077 25.7942C26.7483 25.6485 26.8204 25.3612 26.8434 25.2341C26.7697 25.2517 25.9575 24.989 25.9575 24.7642C25.9575 24.52 26.6251 24.2107 26.94 24.0648C26.9756 24.0483 27.0068 24.0339 27.0319 24.0219C27.4772 23.8094 27.9637 23.638 28.4368 23.4949C28.5105 23.4725 28.6969 23.0036 28.7139 22.939C28.3466 22.9262 27.9792 22.9022 27.6118 22.8765C27.4491 22.8651 27.2017 22.8514 26.9377 22.8367C26.3487 22.8039 25.6766 22.7665 25.6766 22.7404C25.6766 22.5236 26.8962 21.8475 27.0094 21.7883C27.0591 21.879 27.1146 21.9928 27.1349 22.0424C27.1401 22.0551 27.1476 22.0777 27.1563 22.1037C27.1771 22.1663 27.2046 22.2489 27.222 22.2614C27.2412 22.2213 27.2439 22.0825 27.2262 22.0307C27.2204 22.0135 27.2111 21.9808 27.2 21.9423C27.1786 21.8675 27.1508 21.7706 27.1307 21.7226C27.2755 21.6414 27.405 21.5592 27.5137 21.4904C27.55 21.4673 27.5841 21.4458 27.6155 21.4262C27.7976 21.3135 27.8756 21.1469 27.882 20.9515C27.8822 20.9462 27.8824 20.9406 27.8826 20.9348C27.8873 20.8 27.8965 20.5333 27.8008 20.4458C27.545 20.2109 27.1066 20.0208 26.9069 19.9743C26.7451 19.9369 26.5694 20.0619 26.5625 20.2653C26.5621 20.2798 26.5616 20.2943 26.5612 20.3086C26.5583 20.4013 26.5555 20.4904 26.5588 20.5788C26.563 20.6947 26.5764 20.8095 26.6084 20.9301C26.6317 21.0185 26.6677 21.091 26.7057 21.1673C26.7297 21.2155 26.7544 21.2653 26.7772 21.3216C26.2272 21.6793 25.69 22.044 25.1325 22.7121C25.07 22.766 24.9595 23.1654 24.9445 23.301C25.1343 23.3246 25.3293 23.335 25.5253 23.3454C25.641 23.3516 25.7571 23.3578 25.8726 23.3667C26.0138 23.3775 26.1547 23.3901 26.2952 23.4026C26.5658 23.4267 26.8346 23.4507 27.0997 23.4612C27.0177 23.504 26.935 23.5443 26.853 23.5843C26.5849 23.7151 26.3235 23.8427 26.1113 24.0422C25.9041 24.2371 25.8448 24.4043 25.8213 24.6921L25.8096 24.8363C25.2564 24.5981 24.8628 23.9867 24.7945 23.3929C24.7775 23.246 24.7646 23.0843 24.7518 22.9248C24.7336 22.697 24.7157 22.4738 24.6871 22.3052L24.6786 22.255C24.7838 22.1605 24.8815 22.0184 24.9135 21.9239C24.9611 21.7845 24.9744 21.7092 24.9701 21.5667C24.9659 21.4118 24.803 21.1272 24.6401 20.9691L24.5446 21.3675C24.6401 21.4027 24.7491 21.5912 24.8073 21.7648C24.7448 21.8454 24.6813 21.91 24.6182 21.9618C24.552 21.6868 24.4645 21.4374 24.3411 21.14C24.3315 21.1101 24.151 20.7609 24.0869 20.7438L23.9476 21.1945C24.1441 21.6046 24.2599 21.8919 24.316 22.1225L24.3181 22.1305C24.3116 22.1327 24.3052 22.1348 24.2988 22.1369C24.2859 22.1411 24.2733 22.1453 24.2605 22.1492C24.0084 22.2256 23.726 22.1711 23.5588 21.9485C23.4798 21.8433 23.4552 21.7477 23.4301 21.6265C23.4254 21.604 23.421 21.576 23.4163 21.546C23.4014 21.4514 23.3834 21.3365 23.3404 21.3077C23.2016 21.2762 23.1209 21.375 23.0942 21.4257C22.9939 21.6174 22.7616 22.0302 22.7082 22.1151C22.5843 22.3121 22.4775 22.3885 22.274 22.4317C22.0706 22.475 21.9456 22.2325 21.881 22.0953C21.8651 22.0615 21.8471 21.993 21.8309 21.9319C21.8173 21.8801 21.805 21.8336 21.7967 21.8182C21.7764 21.9581 21.7913 22.2187 21.8501 22.4157C21.8906 22.5508 22.0033 22.743 22.1443 22.789ZM26.8994 21.2468C26.8338 21.1277 26.7553 20.9259 26.7499 20.9104C26.7472 20.9025 26.7444 20.8946 26.7416 20.8868C26.7078 20.7904 26.6766 20.7016 26.681 20.6749C26.6923 20.6103 26.7248 20.5777 26.8418 20.5756C27.1034 20.5702 27.4212 20.6391 27.6209 20.8153C27.592 20.857 27.4334 20.9552 27.2711 21.0524C27.1088 21.1501 26.9432 21.2468 26.8994 21.2468ZM26.3788 21.0797L25.2233 21.9698L25.1266 22.2619L26.3142 21.3589L26.3788 21.0797ZM23.3121 22.9518C23.3602 22.9465 23.7708 23.0837 23.7724 23.0917C23.7753 23.106 23.7464 23.1845 23.7144 23.2713C23.6757 23.3762 23.6325 23.4933 23.6357 23.5237L23.1695 23.3731L23.3223 22.9556L23.3121 22.9518ZM24.271 22.8481C24.3206 22.8657 24.3605 22.8799 24.3758 22.884C24.391 22.9 24.3556 22.9886 24.3337 23.0435C24.3286 23.0564 24.3242 23.0674 24.3214 23.0752C24.2909 23.1574 24.261 23.246 24.2455 23.2941C24.2275 23.3089 24.1514 23.2838 24.0909 23.2637C24.0707 23.2571 24.0523 23.251 24.0383 23.2471C24.0217 23.2425 23.9941 23.2339 23.9635 23.2243C23.8957 23.2032 23.8127 23.1773 23.7991 23.1788C23.7938 23.1312 23.9177 22.7601 23.955 22.7526C23.985 22.7467 24.1546 22.8068 24.271 22.8481ZM23.388 25.684C23.3931 25.6421 23.3982 25.6001 23.4029 25.5582C23.5184 25.4725 23.6371 25.3837 23.7583 25.2931C24.0493 25.0754 24.3546 24.847 24.6642 24.6253L24.6396 24.9169C24.3545 25.1107 24.0878 25.3104 23.8185 25.5122C23.6707 25.6229 23.5221 25.7342 23.3693 25.8455C23.3749 25.7915 23.3815 25.7377 23.388 25.684Z" fill="#E7FCB6"/>
<path fill-rule="evenodd" clip-rule="evenodd" d="M25.4791 25.9007C25.3595 25.9103 25.2676 25.8889 25.2158 25.811C25.2318 25.7677 25.2778 25.7298 25.3039 25.7373C25.368 25.7549 25.4775 25.866 25.4791 25.9007Z" fill="#E7FCB6"/>
<path fill-rule="evenodd" clip-rule="evenodd" d="M24.8045 26.0649C24.5989 26.1867 24.2737 26.1851 24.0996 26.2256C24.1776 26.2497 24.412 26.2774 24.5535 26.2593C24.6325 26.2491 24.7425 26.2219 24.8082 26.1824C24.9353 26.106 25.1137 25.9357 25.1206 25.9357C25.2146 26.0147 25.4431 26.1728 25.5328 26.0067C25.575 25.9293 25.5547 25.9074 25.5547 25.8567C25.5547 25.8193 25.5382 25.7424 25.5302 25.7141C25.5147 25.6601 25.4933 25.6164 25.4373 25.595C25.362 25.5662 25.3342 25.564 25.2498 25.6516C25.2018 25.7013 25.1622 25.7584 25.1211 25.8118C25.0389 25.9181 24.8958 26.0104 24.8045 26.0649Z" fill="#E7FCB6"/>
<path fill-rule="evenodd" clip-rule="evenodd" d="M18.1973 24.5004L18.2111 24.5671L18.4829 24.7417L18.538 24.7989L18.6261 24.7786L18.6282 24.7652C18.5668 24.7417 18.5262 24.722 18.4493 24.6718C18.2704 24.5548 18.2111 24.5025 18.1973 24.5004ZM23.063 27.8586L23.1116 27.9062L23.4341 27.8976L23.5115 27.9136L23.5735 27.8474L23.5676 27.8351C23.5035 27.8501 23.4592 27.8565 23.3668 27.8586C23.1537 27.8624 23.0758 27.8522 23.063 27.8586ZM24.1256 28.2068L24.1908 28.2266L24.4732 28.0706L24.5496 28.0493L24.5742 27.9622L24.5635 27.9537C24.5133 27.9964 24.477 28.0226 24.3958 28.0669C24.2078 28.1689 24.1336 28.1956 24.1256 28.2068ZM24.1331 28.3296C24.1411 28.3184 24.2153 28.2917 24.4033 28.1892C24.4839 28.1454 24.5208 28.1192 24.571 28.076L24.5816 28.0845L24.5571 28.1716L24.4807 28.1929L24.1982 28.3488L24.1331 28.3296ZM24.9645 28.226L25.0296 28.2458L25.3121 28.0899L25.3885 28.0685L25.4131 27.9815L25.4024 27.9729C25.3522 28.0156 25.3159 28.0418 25.2347 28.0861C25.0467 28.1876 24.9725 28.2148 24.9645 28.226ZM25.4905 28.2565L25.5583 28.2602L25.8589 28.0044L25.9278 27.966L25.931 27.8752L25.9187 27.8698C25.8798 27.9232 25.8093 27.9825 25.7409 28.0445C25.5818 28.187 25.4958 28.2431 25.4905 28.2565ZM27.1832 27.7695L27.2505 27.7609L27.4988 27.4544L27.5597 27.4037L27.5463 27.314L27.533 27.3108C27.5047 27.37 27.4465 27.4416 27.3904 27.5147C27.2601 27.6846 27.1859 27.7556 27.1832 27.7695ZM27.8048 27.4528L27.871 27.4373L28.0494 27.1436L28.1044 27.087L28.0819 26.9994L28.068 26.9978C28.0461 27.0598 27.9954 27.1372 27.9474 27.2157C27.8363 27.3973 27.8064 27.4389 27.8048 27.4528ZM29.9477 25.3937L29.9989 25.3489L30.0353 24.9559L30.0577 24.88L29.9968 24.8128L29.984 24.8176C29.9936 24.8827 29.9845 24.9746 29.9787 25.0664C29.9648 25.28 29.9423 25.3804 29.9477 25.3937ZM30.3049 24.7118L30.3562 24.667L30.3925 24.274L30.4149 24.1981L30.354 24.1309L30.3412 24.1357C30.3508 24.2008 30.3418 24.2927 30.3359 24.3845C30.3225 24.5986 30.3001 24.699 30.3049 24.7118ZM29.0196 26.6716L29.0842 26.6465L29.2572 26.2118L29.301 26.1264L29.3315 26.0735L29.2866 25.9667L29.2727 25.9672C29.2369 26.1547 28.9796 26.6892 29.0196 26.6716ZM20.7636 25.1497L20.6995 25.13C20.6509 25.2602 20.5078 25.3516 20.4219 25.3702C20.4859 25.3964 20.5789 25.3751 20.6568 25.3094C20.7038 25.2699 20.7497 25.1972 20.7636 25.1497ZM25.3511 28.7568C25.3084 28.7653 25.2726 28.7531 25.2587 28.7397C25.2411 28.7226 25.2368 28.7071 25.2229 28.6666C25.2032 28.6804 25.2037 28.7333 25.2219 28.7659C25.2144 28.7824 25.1589 28.7926 25.1268 28.7707C25.0782 28.737 25.0836 28.682 25.0825 28.6639C25.0676 28.6778 25.0553 28.7007 25.0569 28.7354C25.0622 28.8385 25.1124 28.8481 25.1359 28.8577C25.1776 28.8737 25.2368 28.8668 25.2561 28.8278C25.2897 28.8481 25.318 28.8519 25.358 28.8385C25.3693 28.8348 25.3847 28.7915 25.3869 28.7531C25.389 28.7157 25.3928 28.6436 25.3265 28.6094C25.3105 28.65 25.3052 28.6345 25.3111 28.6682C25.3148 28.6794 25.3538 28.7184 25.3511 28.7568ZM27.5389 27.8415C27.5266 27.8047 27.4758 27.7839 27.4678 27.7748C27.4497 27.746 27.4604 27.7582 27.4598 27.7145C27.5346 27.7209 27.5586 27.7887 27.5714 27.8239C27.5842 27.8602 27.5869 27.9062 27.5778 27.9142C27.5458 27.9419 27.5186 27.9494 27.4796 27.9435C27.4769 27.9868 27.4246 28.0162 27.3803 28.0178C27.3552 28.0183 27.3055 28.0284 27.2601 27.9355C27.2452 27.904 27.2473 27.8784 27.2558 27.8597C27.2639 27.8757 27.2799 27.9286 27.3375 27.9409C27.3755 27.9483 27.4224 27.9179 27.4235 27.8998C27.3941 27.8768 27.3733 27.8277 27.3861 27.8074C27.4144 27.8394 27.4246 27.8522 27.447 27.8608C27.4652 27.8682 27.5025 27.8656 27.5389 27.8415ZM20.3626 25.5828C20.3984 25.5684 20.4165 25.5166 20.4245 25.508C20.4523 25.4883 20.4406 25.4995 20.4843 25.4963C20.4827 25.5716 20.4165 25.5993 20.3818 25.6143C20.346 25.6292 20.3006 25.6346 20.2921 25.626C20.2627 25.5961 20.2531 25.5689 20.2563 25.5299C20.2131 25.5299 20.1805 25.4797 20.1762 25.4354C20.1741 25.4103 20.1607 25.3612 20.251 25.3104C20.2814 25.2934 20.3071 25.2939 20.3268 25.3014C20.3113 25.3104 20.2595 25.3297 20.2505 25.3884C20.2451 25.4269 20.2788 25.4717 20.2969 25.4717C20.3183 25.4407 20.3658 25.4172 20.3866 25.429C20.3567 25.4589 20.3444 25.4701 20.337 25.4931C20.3311 25.5107 20.3359 25.5481 20.3626 25.5828ZM22.0975 27.166C22.121 27.1516 22.1418 27.1388 22.1685 27.1426C22.2081 27.1474 22.2743 27.1741 22.3079 27.2018C22.2914 27.2472 22.2716 27.2499 22.231 27.2616C22.1883 27.2739 22.1317 27.2723 22.1029 27.2782C22.1189 27.2905 22.191 27.2974 22.2444 27.2793C22.2978 27.2552 22.31 27.2451 22.3325 27.2008L22.3682 27.1303C22.3074 27.1068 22.262 27.0865 22.2166 27.0854C22.1798 27.0844 22.0964 27.1479 22.0975 27.166ZM29.6225 25.5817C29.6225 25.5539 29.6225 25.5299 29.6396 25.5086C29.6647 25.4776 29.7218 25.4349 29.7629 25.421C29.7928 25.4589 29.7715 25.4754 29.7603 25.516C29.7485 25.5587 29.7309 25.6073 29.7213 25.6351C29.74 25.6276 29.7651 25.5753 29.7902 25.5176C29.8056 25.4824 29.8014 25.4413 29.7752 25.3985L29.7336 25.3313C29.6823 25.3708 29.6401 25.3991 29.6161 25.437C29.5963 25.469 29.607 25.5732 29.6225 25.5817ZM21.3339 26.4057C21.2821 26.404 21.1636 26.4297 21.1614 26.4954C21.1604 26.5189 21.17 26.529 21.1807 26.5552C21.0835 26.5546 20.9537 26.5349 20.8907 26.4852C20.8731 26.4751 20.8448 26.4607 20.8565 26.498C20.8944 26.5285 20.9366 26.5504 20.9922 26.5669C21.0514 26.5845 21.1246 26.5957 21.1993 26.584L21.2122 26.6144L21.3291 26.5883C21.3254 26.5787 21.3195 26.5723 21.32 26.5637C21.3921 26.5429 21.4375 26.5445 21.4514 26.4809C21.4653 26.4185 21.3788 26.4073 21.3339 26.4057ZM21.336 26.5119C21.3355 26.5274 21.3238 26.5391 21.3067 26.5397C21.2773 26.5087 21.2554 26.4478 21.2923 26.4366C21.328 26.4265 21.3371 26.4938 21.336 26.5119ZM22.8018 27.4453C22.7554 27.4678 22.6625 27.5462 22.6913 27.605C22.7015 27.6263 22.7143 27.6306 22.7362 27.6488C22.6502 27.6936 22.5258 27.7369 22.4467 27.7225C22.4265 27.7219 22.3944 27.7225 22.4227 27.7502C22.4702 27.7593 22.5178 27.7593 22.5749 27.7481C22.6352 27.7363 22.7057 27.7118 22.7661 27.6664L22.7917 27.6872L22.883 27.6093C22.8755 27.6023 22.867 27.5991 22.8638 27.5916C22.9177 27.5398 22.9588 27.5201 22.9412 27.4571C22.9241 27.3957 22.8419 27.4261 22.8018 27.4453ZM22.8531 27.5388C22.8595 27.5527 22.8552 27.5681 22.8403 27.5767C22.7997 27.5628 22.7522 27.519 22.7794 27.4923C22.8061 27.4667 22.8451 27.5217 22.8531 27.5388ZM26.1419 27.8677C26.167 27.8303 26.2226 27.763 26.2685 27.8074C26.3155 27.8528 26.2899 27.8901 26.269 27.9622C26.276 27.9676 26.2845 27.966 26.2947 27.9681L26.2551 28.0813L26.222 28.076C26.1927 28.1459 26.1441 28.202 26.0976 28.2431C26.0538 28.2816 26.0127 28.3056 25.9673 28.3216C25.9289 28.312 25.9567 28.2954 25.9743 28.2858C26.0496 28.2586 26.1355 28.1587 26.1868 28.0765C26.1585 28.0717 26.1451 28.0744 26.1259 28.0615C26.0725 28.0252 26.1136 27.911 26.1419 27.8677ZM26.2338 27.9222C26.2183 27.9115 26.1569 27.8837 26.1467 27.9195C26.1366 27.9564 26.1996 27.9702 26.2418 27.9617C26.2503 27.9467 26.2466 27.9307 26.2338 27.9222ZM28.2945 26.8884C28.3003 26.9396 28.343 27.0534 28.4082 27.0459C28.4317 27.0432 28.4402 27.0331 28.4643 27.0181C28.4781 27.1143 28.4771 27.2456 28.437 27.3156C28.4296 27.3343 28.4194 27.3647 28.4546 27.3476C28.4792 27.306 28.4947 27.2611 28.5032 27.2034C28.5123 27.1426 28.5129 27.0683 28.4904 26.9957L28.5187 26.9786L28.476 26.8665C28.4669 26.8713 28.4616 26.8782 28.4525 26.8788C28.4215 26.8104 28.4167 26.765 28.3516 26.7608C28.2886 26.7565 28.2896 26.8441 28.2945 26.8884ZM28.3996 26.8708C28.4151 26.8692 28.4285 26.8788 28.4312 26.8959C28.4045 26.9295 28.3473 26.9599 28.3313 26.9252C28.3158 26.891 28.381 26.8729 28.3996 26.8708ZM29.5958 25.8006C29.6663 25.9128 29.6689 25.9507 29.7303 25.9988L29.9327 25.9421C29.8841 25.8695 29.8313 25.8183 29.8035 25.7328L29.5958 25.8006ZM27.5127 27.9959C27.5084 28.0498 27.4662 28.2031 27.5442 28.2356C27.7279 28.312 27.6894 28.2714 27.6894 28.1059V28.0696C27.6894 28.0188 27.5527 27.9815 27.5127 27.9959ZM29.9204 25.8439L30.117 25.7542L30.1212 25.7643C30.1324 25.8129 30.2366 25.9491 30.2366 25.9635C30.2366 25.9881 30.165 25.9939 30.1298 26.0137C30.0604 26.0335 30.0481 26.0399 30.0272 26.026C30.0539 26.0815 30.0844 26.1344 30.1089 26.191C30.0604 26.2246 29.9931 26.2641 29.9391 26.2508C29.8804 26.2385 29.8281 26.1419 29.8008 26.0698C29.859 26.0351 29.8948 26.0062 29.953 25.9849C29.9722 25.9779 29.9867 25.9955 30.0166 26.0153L29.9204 25.8439Z" fill="#E7FCB6"/>
<path fill-rule="evenodd" clip-rule="evenodd" d="M25.712 29.0929L25.7451 29.0683L25.7633 29.1126C25.8049 29.2136 25.892 29.2686 25.9988 29.2782C26.0885 29.2862 26.1942 29.2611 26.269 29.2104C26.3026 29.1874 26.3475 29.1634 26.3886 29.1383C26.2973 29.1292 26.206 29.1105 26.1168 29.0956C26.0703 29.0875 26.0394 29.095 25.9993 29.1185L25.9358 29.1548L25.9432 29.0817C25.9571 28.9492 25.948 28.9049 26.0249 28.788C26.0906 28.6881 26.2337 28.5231 26.3379 28.4505C26.3373 28.4217 26.3341 28.3912 26.3336 28.3624C26.3325 28.2732 26.3197 28.1424 26.4009 28.0826C26.473 28.0297 26.5402 28.0895 26.6032 28.121C26.6513 28.1451 26.7282 28.191 26.765 28.2284C26.8238 28.2882 26.7901 28.4387 26.7939 28.5178L26.7955 28.5493L26.765 28.5562C26.6983 28.5717 26.5942 28.6224 26.5317 28.6539C26.5002 28.67 26.3896 28.7463 26.3309 28.7987C26.4927 28.8232 26.6566 28.8462 26.82 28.8488C26.9274 28.8504 27.0347 28.836 27.1415 28.828L27.2024 28.8232L27.1789 28.8798C27.1308 28.9952 27.1308 29.1174 26.9931 29.1746C26.8852 29.2194 26.7672 29.2381 26.6582 29.2808C26.505 29.3407 26.3293 29.4442 26.1931 29.5377C26.0474 29.6375 25.8952 29.6189 25.7654 29.5233C25.7174 29.5874 25.6026 29.6189 25.5369 29.6226C25.4546 29.6274 25.3478 29.5858 25.3035 29.511C25.2699 29.5505 25.233 29.6028 25.1957 29.6354C25.0504 29.7604 24.7108 29.7385 24.7113 29.4966C24.7119 29.4378 24.7076 29.3764 24.7006 29.3161C24.5778 29.5115 24.3904 29.6707 24.1394 29.5895C24.0091 29.5473 23.9584 29.4555 23.9584 29.323C23.9584 29.2573 23.9984 29.0907 24.047 29.047L24.1229 28.9786L24.1095 29.0795C24.102 29.1361 24.0887 29.2408 24.1512 29.2718C24.2355 29.3134 24.4294 29.2723 24.5052 29.2242C24.5709 29.1826 24.6099 29.1463 24.6595 29.095C24.6179 28.9247 24.5725 28.7575 24.5356 28.5856L24.5335 28.5765L24.6382 28.1894L24.6707 28.3416C24.7065 28.5082 24.7444 28.6737 24.7823 28.8403C24.8106 28.9637 24.8464 29.1361 24.8539 29.2616C24.8592 29.3577 24.8929 29.386 24.9863 29.3871C25.0771 29.3882 25.225 29.339 25.2784 29.2632C25.3297 29.1901 25.4162 29.0496 25.4877 29.0021L25.4925 28.9989L25.4979 28.9973C25.5945 28.9674 25.6501 29.0347 25.712 29.0929ZM30.5254 26.1565L30.3187 26.063L30.2199 25.8286L30.2525 25.8131C30.2878 25.7966 30.441 25.8703 30.4811 25.8879C30.5462 25.9167 30.6322 25.9808 30.6722 26.0401C30.7016 26.0833 30.7833 26.2083 30.7838 26.2553C30.8004 26.4085 30.6429 26.503 30.5062 26.4998C30.4923 26.4993 30.4784 26.4977 30.4656 26.494C30.4891 26.5837 30.4901 26.6659 30.3951 26.7433C30.3561 26.7754 30.3097 26.7898 30.2595 26.7844C30.2402 26.7823 30.221 26.778 30.2023 26.7711C30.15 26.7529 30.0907 26.7027 30.056 26.691C30.0218 26.6915 29.9898 26.7038 29.9647 26.7268C29.9375 26.7519 29.9049 26.7973 29.9204 26.8362C29.9738 26.9697 30.0971 27.0424 30.2381 27.045C30.2739 27.0456 30.3134 26.997 30.3358 26.9729L30.3748 26.9313L30.5126 27.248L30.4944 27.2661C30.4335 27.327 30.3342 27.3564 30.2509 27.3686C30.1206 27.3884 29.9567 27.3467 29.8333 27.2795C29.8355 27.296 29.8376 27.312 29.8376 27.3222C29.8387 27.413 29.8109 27.5032 29.7741 27.5854C29.7185 27.7082 29.6432 27.822 29.4932 27.822C29.4441 27.822 29.404 27.8118 29.3677 27.7953C29.3992 27.8738 29.3746 28.0244 29.3592 28.0997C29.3223 28.2775 29.2689 28.4505 29.0532 28.4505C28.9181 28.4505 28.7216 28.1509 28.712 28.0281L28.7024 27.9069L28.8124 28.0441L28.8145 28.0511C28.8257 28.0879 28.8732 28.1296 28.9058 28.1483C28.9912 28.1968 29.0543 28.1605 29.0964 28.0756C29.1594 27.9475 29.1835 27.8225 29.1835 27.6799C29.1835 27.6372 29.1861 27.6372 29.1509 27.6121C29.0457 27.5374 28.8294 27.3035 28.6938 27.3302L28.6628 27.3361L28.5683 27.092L28.5934 27.0755C28.6714 27.0231 28.7915 27.0653 28.8561 27.1214C28.9325 27.1876 29.2876 27.4925 29.3517 27.5112C29.4248 27.531 29.4889 27.5075 29.5375 27.4509C29.6037 27.3734 29.6715 27.1134 29.6566 27.0151C29.648 26.9612 29.6192 26.9174 29.6005 26.8672L29.5877 26.8336L29.6208 26.8197C29.7036 26.785 29.7244 26.9489 29.7874 26.9858C29.8082 26.9986 29.8574 27.0231 29.8996 27.037C29.875 26.9986 29.8435 26.9548 29.8291 26.9233C29.8024 26.8651 29.7767 26.809 29.7532 26.7492C29.6854 26.5751 29.7805 26.4224 29.9551 26.3759L29.9781 26.3701L30.0416 26.4454C30.0715 26.4811 30.166 26.5105 30.2029 26.4811C30.2408 26.4512 30.2963 26.4005 30.2664 26.3471C30.2392 26.2985 30.2162 26.2494 30.1847 26.2029L30.1601 26.1666L30.2002 26.1479C30.2611 26.1196 30.3246 26.1842 30.3817 26.1997C30.4197 26.2109 30.5222 26.2088 30.5254 26.1565ZM21.7098 28.05C21.6238 27.9987 21.4978 27.9411 21.4978 27.8279C21.4978 27.7392 21.604 27.6431 21.6671 27.5865C21.7322 27.5278 21.8604 27.4364 21.9522 27.4557C22.0077 27.4674 22.0222 27.5374 22.0238 27.5854C22.0275 27.6821 22.0157 27.7584 21.981 27.8449C22.0072 27.861 22.0344 27.8765 22.0627 27.8893C22.138 27.9245 22.2016 27.9656 22.2886 27.9507L22.5674 27.8257L22.5241 27.9176C22.4793 28.0121 22.4141 28.082 22.5246 28.1499C22.5396 28.1563 22.5994 28.1675 22.616 28.1675C22.6635 28.1675 22.7297 28.0772 22.7735 28.0479L22.8525 27.995L22.8312 28.0874C22.8226 28.1237 22.8114 28.1563 22.8114 28.1942C22.8114 28.2401 22.8354 28.2673 22.8696 28.2882C22.8862 28.2422 22.8984 28.192 22.9043 28.1461L22.9059 28.1322L22.9161 28.1232C22.97 28.074 22.9919 28.0772 23.0677 28.0265L23.1494 27.9715L23.0485 28.3624L23.0437 28.3688C23.017 28.4019 22.9865 28.4323 22.9588 28.4644C22.9182 28.5119 22.836 28.576 22.7703 28.5605C22.6752 28.5375 22.5898 28.4788 22.5652 28.3859C22.5375 28.3998 22.5134 28.4104 22.468 28.4088C22.3815 28.4056 22.2069 28.3522 22.2123 28.2454C22.2123 28.2097 22.2208 28.1782 22.2293 28.1472C22.1808 28.1659 22.1284 28.1734 22.0745 28.1734C22.012 28.1734 21.9047 28.1386 21.8379 28.1066C21.7461 28.1814 21.5336 28.3421 21.4412 28.356C21.3146 28.3763 21.1651 28.3869 21.0418 28.3458C20.8447 28.2801 20.7529 28.1189 20.7945 27.916C20.8212 27.7867 20.9884 27.5753 21.1293 27.5796L21.2756 27.5844L21.1453 27.6506C21.0738 27.6874 21.0295 27.8134 21.0295 27.8898C21.0295 28.0062 21.1518 28.0724 21.2473 28.105C21.3408 28.1365 21.4284 28.1381 21.5255 28.1354C21.5779 28.1349 21.6906 28.1125 21.7098 28.05ZM31.1459 24.5566C31.1566 24.6485 31.1138 24.7852 31.0588 24.8322L31.0556 24.8349L31.0519 24.837C30.9894 24.8712 30.9339 24.8728 30.8698 24.8402C30.7609 24.7847 30.6098 24.6389 30.5414 24.538L30.5387 24.5337L30.5371 24.5289C30.4982 24.4157 30.5937 24.3676 30.6883 24.3511C30.7582 24.3393 30.8234 24.3388 30.8922 24.3409L30.9264 24.2656L31.0103 24.3415L31.077 24.3463C31.1913 24.3468 31.5223 24.5839 31.5757 24.6853C31.689 24.9016 31.7434 25.3395 31.6585 25.5686C31.6014 25.7229 31.4049 25.7608 31.2602 25.7368C31.0968 25.7095 30.8202 25.5926 30.7358 25.4388L30.6883 25.3512L30.7817 25.3854C30.959 25.45 31.0423 25.5782 31.2602 25.521C31.3835 25.4607 31.4161 25.144 31.4257 25.0266C31.4353 24.908 31.4033 24.6058 31.2666 24.5631C31.2303 24.5518 31.1865 24.5534 31.1459 24.5566ZM28.1027 28.5242C28.1278 28.5498 28.069 28.6192 28.0541 28.6395C27.9847 28.7324 27.9121 28.8088 27.8074 28.8617C27.7049 28.9135 27.5292 28.9343 27.4421 28.8419C27.3946 28.7917 27.346 28.6951 27.3252 28.6294C27.3097 28.5803 27.2803 28.4174 27.2606 28.3853L27.2205 28.3186L27.1933 28.3918C27.1709 28.4521 27.2275 28.7757 27.2467 28.8521C27.307 29.0907 27.4619 29.26 27.7241 29.2232C27.9067 29.1975 28.0856 29.0315 28.1742 28.8761C28.2025 28.8264 28.2266 28.6897 28.2255 28.6315C28.2239 28.5493 28.2276 28.4692 28.2164 28.3869C28.2111 28.3474 28.2015 28.2946 28.1785 28.2615C28.1299 28.191 27.9911 28.034 27.9094 28.0121L27.8624 27.9993V28.1109C27.8619 28.3528 27.9441 28.3693 28.1027 28.5242ZM23.5264 29.3967L23.5462 29.4325L23.5803 29.4095C23.7731 29.2808 23.8185 29.0571 23.8751 28.8494C23.9274 28.6561 23.9477 28.4094 23.968 28.2081L24.0091 27.9112L23.9413 27.9533C23.8836 27.9891 23.8484 28.0404 23.7982 28.082C23.7299 28.1392 23.7325 28.1878 23.7261 28.2668C23.7176 28.3747 23.708 28.49 23.6898 28.5968C23.6578 28.7992 23.6396 28.9952 23.5771 29.1917C23.559 29.2477 23.4954 29.3412 23.5264 29.3967ZM23.0415 29.0619C23.1633 29.0165 23.175 28.9765 23.2535 28.8937C23.293 28.8521 23.3961 28.7271 23.4185 28.6796C23.4479 28.6176 23.4554 28.4361 23.4805 28.4067L23.4949 28.3902L23.4645 28.3042L23.4287 28.317C23.3764 28.3362 23.3256 28.348 23.2904 28.3966C23.2567 28.443 23.2455 28.5386 23.2364 28.5947C23.2081 28.7383 23.2802 28.7575 23.1339 28.812C23.0474 28.844 22.9422 28.9028 22.8557 28.9225C22.6501 28.969 22.3575 29.0074 22.1717 28.8809L22.0366 28.789L22.0435 28.8675C22.0606 29.0646 22.4552 29.1399 22.6127 29.1377C22.7858 29.1356 22.8733 29.1244 23.0415 29.0619ZM27.998 27.5331C27.998 27.5481 27.9991 27.5609 28.0028 27.5742C28.0151 27.6153 28.1411 27.7766 28.1689 27.8199C28.3307 28.0676 28.492 28.3186 28.6596 28.5621L28.7253 28.6571L28.7333 28.3213L28.728 28.3122C28.6217 28.1285 28.5053 27.9592 28.3953 27.7793C28.2971 27.618 28.1758 27.4674 28.0776 27.3056L28.014 27.2004L27.998 27.5331ZM31.1101 25.7651C30.9483 25.6647 30.7844 25.5611 30.6183 25.4639C30.4469 25.3635 30.2835 25.254 30.1233 25.1366L30.0624 25.0917L30.063 25.167C30.0635 25.2236 30.0742 25.2759 30.1009 25.3261C30.1083 25.3405 30.1174 25.355 30.1276 25.3678C30.1874 25.4436 30.4896 25.6033 30.5767 25.6567C30.7822 25.7827 30.9868 25.9098 31.1923 26.0369L31.2794 26.0908L31.2479 25.9936C31.2196 25.9039 31.2014 25.8126 31.1101 25.7651ZM26.5418 28.3891C26.458 28.3453 26.4014 28.3282 26.4035 28.4526L26.5418 28.3891ZM30.7582 24.6303C30.7876 24.6629 30.8762 24.6426 30.8938 24.5828C30.8997 24.5631 30.912 24.5358 30.9024 24.5358C30.7486 24.5353 30.7288 24.6122 30.7582 24.6303ZM25.4883 29.3193C25.5807 29.3919 25.6292 29.3182 25.6298 29.2846C25.5919 29.2269 25.5027 29.2082 25.4819 29.2093C25.4653 29.2339 25.4589 29.2963 25.4883 29.3193ZM21.7242 27.6778C21.7162 27.7227 21.7755 27.7456 21.807 27.7616C21.855 27.6554 21.7242 27.6372 21.7242 27.6778ZM20.6236 27.5181C20.3946 27.5181 20.2146 27.3264 20.1943 27.1043C20.1884 27.0381 20.2573 26.9585 20.3187 26.9425L20.5035 26.8934L20.3139 26.8688C20.0945 26.8405 19.8723 27.0365 19.8942 27.2554C19.9204 27.5171 20.1868 27.665 20.4277 27.6805C20.5313 27.6869 20.6712 27.6148 20.77 27.5796C20.8992 27.5336 21.0209 27.4242 21.117 27.328C21.1875 27.2576 21.2532 27.1833 21.3237 27.1134C21.3728 27.0643 21.4001 27.0328 21.4705 27.0146C21.5624 26.9906 21.6254 26.9393 21.6227 26.8394C21.6222 26.8218 21.6078 26.7385 21.611 26.73C21.642 26.6632 21.6676 26.6915 21.7023 26.6456L21.752 26.5789L21.6692 26.5858C21.5886 26.5927 21.4321 26.6291 21.3718 26.6819C21.3082 26.7375 21.3045 26.7636 21.2949 26.8411C21.2895 26.8795 21.1341 27.0205 21.101 27.0584C20.9633 27.2186 20.8447 27.3403 20.6915 27.4861C20.6744 27.5016 20.6471 27.5181 20.6236 27.5181ZM19.2625 25.8793C19.2182 25.866 19.1765 25.8462 19.1322 25.8201C19.0158 25.7512 18.909 25.6118 18.8604 25.4869C18.7926 25.3128 18.6879 25.1205 18.7493 24.931C18.7739 24.8546 18.83 24.8167 18.8935 24.7905C18.7291 24.7478 18.54 24.6731 18.5635 24.4862C18.5923 24.2544 19.0089 24.3244 19.1445 24.4253C19.2144 24.4776 19.2657 24.5305 19.3202 24.5951L19.4136 24.5759L19.585 24.6426L19.5914 24.656C19.6443 24.766 19.3698 24.8055 19.3036 24.8349C19.1685 24.8941 19.0489 24.8856 19.0227 25.0511C18.9976 25.2097 19.0986 25.3902 19.1723 25.5242C19.2347 25.6374 19.3271 25.7143 19.4264 25.7928C19.4558 25.7779 19.4873 25.7736 19.553 25.7426C19.5914 25.7245 19.6272 25.7021 19.6667 25.6839C19.8002 25.623 19.7831 25.6006 19.9401 25.6204L20.1564 25.646L20.0587 25.7026C19.9967 25.7384 19.9273 25.7565 19.8627 25.7939C19.7639 25.851 19.6587 25.897 19.5578 25.9509C19.5124 25.9755 19.459 26.031 19.4595 26.086C19.4601 26.1186 19.4692 26.1746 19.4948 26.2013C19.5589 26.1933 19.6171 26.1527 19.6614 26.1079C19.7313 26.0374 19.8253 25.9456 19.907 25.8906L19.9108 25.8884L19.9145 25.8868C20.0347 25.8404 20.119 25.8655 20.245 25.8815L20.3641 25.897L20.2579 25.9525C20.1847 25.9904 20.1067 26.0139 20.0523 26.079C19.9823 26.1618 19.8889 26.2141 19.8002 26.275C19.7244 26.3252 19.5968 26.3455 19.5081 26.3338C19.4328 26.3236 19.3239 26.3012 19.2614 26.2601C19.2027 26.2216 19.1669 26.1453 19.161 26.0764C19.1536 25.9776 19.1974 25.921 19.2625 25.8793ZM18.8658 24.5006C18.8529 24.5753 19.0227 24.7761 19.1696 24.7142C19.1354 24.6725 18.8978 24.318 18.8658 24.5006ZM20.6519 26.0817L20.8511 26.0988L21.0343 26.1148L20.9168 26.1741C20.7075 26.2804 20.4955 26.3834 20.2824 26.4827C20.1639 26.5377 20.0496 26.6034 19.9252 26.6472C19.7751 26.6926 19.6977 26.7113 19.5477 26.6702L19.522 26.6632L19.5172 26.5885L19.5546 26.5863C19.6299 26.5815 19.6817 26.5596 19.7495 26.5287C19.8793 26.4689 20.0053 26.4016 20.1334 26.3375C20.3027 26.2526 20.4736 26.172 20.6429 26.0871L20.6519 26.0817Z" fill="#E7FCB6"/>
<path fill-rule="evenodd" clip-rule="evenodd" d="M19.5903 19.0577C19.5785 19.0994 19.5513 19.1261 19.5331 19.1325C19.5102 19.1405 19.4942 19.1373 19.452 19.1314C19.4552 19.1554 19.5027 19.1789 19.5401 19.1773C19.5513 19.1918 19.5353 19.2457 19.5016 19.2644C19.4498 19.2927 19.4028 19.2628 19.3863 19.2558C19.3922 19.2756 19.4071 19.2969 19.4386 19.3108C19.5331 19.3525 19.5646 19.3124 19.5833 19.2953C19.6164 19.2654 19.6373 19.2094 19.6106 19.1747C19.6437 19.1538 19.6597 19.1298 19.6661 19.0887C19.6677 19.0769 19.6362 19.0438 19.6026 19.0241C19.57 19.0054 19.5075 18.9696 19.4466 19.0134C19.4755 19.046 19.4595 19.0438 19.492 19.054C19.5054 19.0551 19.5572 19.038 19.5903 19.0577ZM18.581 20.0969C18.6045 20.1428 18.6836 20.2346 18.7423 20.2053C18.7631 20.1946 18.7674 20.1818 18.7856 20.1593C18.832 20.2448 18.8763 20.3687 18.863 20.4477C18.8625 20.468 18.8635 20.5 18.8908 20.4717C18.8993 20.4242 18.8982 20.3767 18.8865 20.3195C18.8737 20.2592 18.8486 20.1892 18.8021 20.1294L18.8229 20.1033L18.7439 20.013C18.737 20.021 18.7343 20.029 18.7263 20.0328C18.6734 19.9799 18.6531 19.9388 18.5907 19.9575C18.5292 19.9751 18.5607 20.0568 18.581 20.0969ZM18.6729 20.0435C18.6868 20.0365 18.7028 20.0408 18.7113 20.0557C18.698 20.0963 18.6553 20.1449 18.628 20.1177C18.6019 20.0921 18.6563 20.052 18.6729 20.0435ZM24.0069 17.5204L24.0704 17.5481L24.4998 17.3623L24.5911 17.3324L24.6498 17.3164L24.6931 17.2091L24.6829 17.1994C24.5259 17.3078 23.9663 17.5044 24.0069 17.5204ZM21.951 18.4164L22.0199 18.4217L22.3638 18.104L22.4124 18.0624L22.4647 18.0277L22.4701 17.9118L22.4578 17.9059C22.3446 18.0602 21.9073 18.4143 21.951 18.4164ZM20.5376 17.6902L20.6054 17.6774L20.8569 17.2827L20.9162 17.2069L20.9557 17.1605L20.9317 17.0473L20.9183 17.0451C20.8478 17.2229 20.4943 17.6998 20.5376 17.6902ZM21.8811 16.7108L21.9505 16.7124L22.2762 16.3766L22.3494 16.3141L22.3975 16.2767L22.3964 16.1608L22.3836 16.156C22.2794 16.3157 21.8373 16.7114 21.8811 16.7108ZM27.0752 16.0434C27.0928 16.022 27.1083 16.0033 27.135 15.998C27.174 15.99 27.2455 15.9937 27.2861 16.0086C27.2851 16.0567 27.2674 16.0658 27.2333 16.0898C27.1969 16.1154 27.143 16.132 27.1174 16.147C27.1366 16.1534 27.2071 16.1363 27.2519 16.1016C27.2952 16.0615 27.3027 16.0482 27.3096 15.9985L27.3203 15.92C27.2551 15.9179 27.2055 15.9131 27.1622 15.9269C27.127 15.9398 27.0688 16.0273 27.0752 16.0434ZM25.4946 15.8992L25.5555 15.9318L25.9987 15.7812L26.0921 15.7587L26.1519 15.7475L26.2037 15.6439L26.1946 15.6338C26.0291 15.7294 25.4551 15.88 25.4946 15.8992ZM27.4581 16.3921L27.5147 16.4316L27.8281 16.3675L27.9237 16.3563L27.9846 16.352L28.0481 16.2554L28.0401 16.2441C27.865 16.3189 27.4212 16.3686 27.4581 16.3921ZM29.2085 16.9987C29.162 17.0211 29.0691 17.0996 29.0979 17.1583C29.1081 17.1797 29.1209 17.184 29.1428 17.2021C29.0568 17.247 28.9324 17.2902 28.8534 17.2758C28.8331 17.2753 28.801 17.2758 28.8293 17.3036C28.8769 17.3126 28.9244 17.3126 28.9815 17.3014C29.0419 17.2897 29.1124 17.2651 29.1727 17.2197L29.1983 17.2406L29.2896 17.1626C29.2822 17.1557 29.2736 17.1525 29.2704 17.145C29.3244 17.0932 29.3655 17.0734 29.3478 17.0104C29.3308 16.949 29.2485 16.9794 29.2085 16.9987ZM29.2597 17.0921C29.2661 17.106 29.2619 17.1215 29.2469 17.13C29.2063 17.1161 29.1588 17.0724 29.186 17.0457C29.2127 17.02 29.2523 17.075 29.2597 17.0921ZM31.44 20.3062L31.4422 20.3756L31.6808 20.5887L31.7471 20.6586L31.7866 20.7051L31.9019 20.6981L31.9062 20.6853C31.7417 20.5887 31.4373 20.2624 31.44 20.3062ZM19.0253 19.0177C19.0702 18.9963 19.1551 18.9824 19.216 18.9915C19.3163 19.0065 19.3943 19.0615 19.4173 19.1266C19.3457 19.0748 19.1828 19.0284 19.0531 19.0785L19.0253 19.0177ZM23.3682 15.8837C23.4403 15.9617 23.467 15.9932 23.4873 16.0546C23.5108 16.1251 23.5039 16.1646 23.5039 16.2287C23.5039 16.2682 23.49 16.3018 23.5076 16.3504C23.5247 16.3269 23.5669 16.1897 23.5626 16.0813C23.5594 16.0001 23.5482 15.9328 23.4163 15.818L23.3682 15.8837ZM31.613 19.9345L31.4769 19.8715H31.4138C31.448 19.9222 31.5057 19.966 31.5607 19.966H31.676C31.8298 19.966 31.6392 19.8037 31.6339 19.7492L31.4769 19.746C31.4945 19.7695 31.6034 19.816 31.613 19.9345ZM21.1191 17.6758C21.1068 17.6389 21.0561 17.6181 21.0481 17.609C21.0299 17.5802 21.0406 17.5925 21.0401 17.5487C21.1148 17.5551 21.1388 17.6229 21.1517 17.6581C21.1645 17.695 21.1671 17.7404 21.1581 17.7484C21.126 17.7762 21.0988 17.7836 21.0598 17.7778C21.0571 17.821 21.0048 17.8504 20.9605 17.852C20.9354 17.8525 20.8857 17.8627 20.8403 17.7697C20.8254 17.7382 20.8275 17.7126 20.8361 17.6939C20.8441 17.7099 20.8601 17.7628 20.9178 17.7751C20.9557 17.7826 21.0027 17.7521 21.0037 17.734C20.9744 17.711 20.9536 17.6619 20.9664 17.6416C20.9947 17.6736 21.0048 17.6864 21.0272 17.695C21.0454 17.7019 21.0833 17.6998 21.1191 17.6758ZM31.0513 18.7961C30.6935 18.5478 30.2887 18.3491 29.9096 18.1766L29.8113 18.1948C29.986 18.2888 30.8879 18.725 30.9375 18.8313L31.0513 18.7961ZM31.0315 19.6862L31.0433 19.8897L31.291 19.801L31.2739 19.5805L31.2622 19.5816C31.2024 19.5864 31.071 19.6275 31.0315 19.6862ZM30.9584 19.9901C30.8366 19.9927 30.804 20.1043 30.7896 19.981C30.7784 19.8859 30.7287 19.8165 30.8313 19.7679C30.8697 19.7498 30.9989 19.6771 31.0064 19.7412C31.0102 19.7695 31.0198 19.895 31.0422 19.9276L31.0198 19.958L31.18 19.9228C31.2035 19.9586 31.2211 20.1401 31.2147 20.1561C31.2008 20.1892 31.1394 20.2005 31.0844 20.2005L30.9701 20.2106L30.9589 20.0536L30.9584 19.9901Z" fill="#E7FCB6"/>
<path fill-rule="evenodd" clip-rule="evenodd" d="M21.2523 18.2065C20.9373 18.1792 20.6334 18.1621 20.3195 18.1141C20.1678 18.0906 20.1048 18.0089 20.0065 17.9042L19.9863 17.8829L20.0274 17.8188L20.0562 17.83C20.1678 17.8738 20.2308 17.8834 20.3499 17.8967C20.6532 17.9309 20.9538 17.9699 21.2577 17.9971C21.2908 17.8049 21.3218 17.6153 21.3495 17.422C21.3688 17.2885 21.3826 17.1534 21.4029 17.0205C21.4109 16.9676 21.4254 16.8389 21.49 16.824L21.5038 16.8208L21.5167 16.8277C21.5578 16.8507 21.5508 17.0488 21.5444 17.0931C21.5119 17.4039 21.4451 17.7163 21.4008 18.0276C21.4996 18.0655 21.6251 18.1605 21.6753 18.2406C21.7586 18.3731 21.7361 18.5274 21.6534 18.655C21.5866 18.7581 21.4793 18.7704 21.3928 18.6817C21.2956 18.5824 21.27 18.4436 21.2534 18.3106C21.2502 18.2759 21.2529 18.2417 21.2523 18.2065ZM26.982 16.7706C27.0226 16.6728 27.0851 16.6178 27.1534 16.542L27.1785 16.5143L27.3943 16.7092L27.1833 16.9436L27.1561 16.9249C27.1027 16.8886 27.0424 16.8544 26.9927 16.8138L26.9714 16.7962L26.982 16.7706ZM28.2102 16.4069C28.2615 16.4374 28.2054 16.5596 28.191 16.6034C28.1381 16.7652 27.8706 17.7259 27.7536 17.7632L27.5892 17.8247L27.5753 17.7916C27.5571 17.7483 27.6308 17.6383 27.6479 17.5918C27.7195 17.43 27.7777 17.2602 27.8359 17.0931C27.8706 16.9932 27.893 16.888 27.9261 16.786C27.9624 16.6739 27.9699 16.5639 28.0639 16.4854C28.0965 16.4582 28.136 16.4406 28.1648 16.4123L28.1856 16.392L28.2102 16.4069ZM24.2961 17.0418C24.2507 16.7294 24.1524 16.4128 24.1231 16.0988C24.1167 16.0299 24.1797 15.8606 24.2389 15.8211L24.3035 15.7779L24.2971 15.8553C24.2891 15.9509 24.4509 16.8966 24.4899 16.9633L24.5001 16.9783L24.4039 17.2795L24.3324 17.2923L24.2961 17.0418ZM22.2231 18.0164L22.2562 18.0852L22.2904 18.0169C22.3294 17.9389 22.3241 17.8546 22.3257 17.7702V17.7675V17.7649C22.3171 17.689 22.2141 17.5384 22.174 17.4669C22.087 17.3099 22.0005 17.1524 21.9123 16.9959C21.8755 16.9345 21.8408 16.872 21.8056 16.8106C21.7895 16.7828 21.7671 16.7375 21.7308 16.7364L21.6961 16.7353L21.6753 16.9281C21.6747 16.9366 21.6742 16.9446 21.6747 16.9527C21.6769 17.0109 21.7121 17.0712 21.7404 17.1203C21.813 17.2469 21.8894 17.3713 21.962 17.4973C22.0624 17.6629 22.1398 17.8423 22.2231 18.0164ZM20.9485 19.1698L21.0185 19.2317L21.011 19.1388C21.0067 19.0891 20.9869 19.0048 20.9715 18.9562C20.9352 18.8408 20.6495 18.662 20.5443 18.592C20.3878 18.4879 20.2356 18.3779 20.0824 18.2695C20.0295 18.2321 19.9836 18.184 19.9302 18.1477L19.8944 18.1237L19.8757 18.1627C19.833 18.2513 19.8853 18.4169 19.9702 18.466C20.2917 18.6812 20.6585 18.9135 20.9485 19.1698ZM31.6224 20.8881C31.4291 20.9042 31.2198 20.9821 31.0323 21.0345C30.8316 21.0911 30.6361 21.1797 30.4316 21.223L30.4199 21.2256L30.1657 21.1188L30.194 21.0804C30.2255 21.0377 30.4086 20.9875 30.461 20.972C30.7312 20.893 30.9998 20.8081 31.2737 20.7408C31.3581 20.7199 31.3079 20.65 31.4691 20.705C31.554 20.7338 31.6112 20.7482 31.6528 20.8348L31.6763 20.8839L31.6224 20.8881ZM27.3345 17.3879C27.3195 17.3927 27.2741 17.4001 27.2624 17.4028C27.0995 17.4407 26.8945 17.4172 26.7316 17.3868C26.5858 17.3596 26.3103 17.2608 26.3103 17.0781C26.3103 16.942 26.4342 16.832 26.4464 16.683L26.4529 16.605L26.3882 16.6483C26.3279 16.6889 26.2259 16.8528 26.1949 16.9217C26.1207 17.0862 26.0636 17.1956 26.1036 17.3809C26.1325 17.5133 26.3162 17.5844 26.4304 17.6249C26.6088 17.689 27.1657 17.7531 27.3051 17.6041C27.3612 17.5443 27.4119 17.4802 27.4669 17.4199C27.5326 17.3483 27.5587 17.2912 27.5694 17.1967C27.5737 17.1342 27.5785 17.0712 27.5828 17.0093C27.5844 16.9425 27.5219 16.8918 27.4765 16.942L27.3382 17.1278L27.3366 17.3499C27.3361 17.3574 27.3361 17.3782 27.3345 17.3879ZM25.5307 16.7893C25.2359 16.5132 24.8936 16.2675 24.6223 15.9739C24.5182 15.8606 24.5198 15.7576 24.5086 15.6145L24.5065 15.5851L24.5786 15.5605L24.594 15.5872C24.6544 15.6908 24.6971 15.7378 24.782 15.8227C25.0634 16.1041 25.3737 16.3546 25.6636 16.6269C25.7928 16.494 25.9183 16.3578 26.0465 16.2238C26.1063 16.1613 26.1624 16.0935 26.2195 16.0289C26.2617 15.9813 26.4342 15.764 26.5079 15.7966L26.5212 15.8024L26.5271 15.8158C26.5468 15.8601 26.4224 16.0134 26.3904 16.0449C26.1773 16.275 25.9669 16.5068 25.7571 16.7396C25.8115 16.8304 25.851 16.9847 25.8404 17.0797C25.8227 17.2357 25.7095 17.3419 25.5654 17.3905C25.4484 17.43 25.3571 17.3729 25.3448 17.249C25.3309 17.1107 25.3972 16.9863 25.4671 16.872C25.4858 16.8421 25.5093 16.817 25.5307 16.7893ZM23.9714 16.2611C23.9816 16.2115 24.0163 16.1485 24.0034 16.1047C23.9682 15.9845 23.9201 16.0262 23.8614 15.9845C23.8299 15.9621 23.824 15.9124 23.824 15.8772L23.823 15.7661L23.7567 15.8553C23.7258 15.897 23.6777 16.0048 23.6622 16.0556C23.6104 16.2243 23.7461 16.2419 23.7696 16.3103C23.8133 16.4358 23.8304 16.5815 23.8609 16.7118C23.8934 16.8517 23.9335 16.99 23.9484 17.1337C23.8924 17.1721 23.8513 17.2036 23.7845 17.2362C23.6174 17.3179 23.3109 17.4461 23.1272 17.3718C23.0546 17.3425 23.0262 17.2533 23.0081 17.1839C22.9723 17.0504 22.96 16.8977 22.8879 16.777L22.8511 16.7156L22.8212 16.7807C22.7961 16.8357 22.7326 16.966 22.7315 17.0237C22.7304 17.0675 22.747 17.0797 22.7534 17.1064C22.7507 17.1086 22.747 17.1107 22.7454 17.1112C22.6663 17.1556 22.5809 17.2031 22.5339 17.2832C22.4944 17.351 22.4682 17.4423 22.4506 17.5187C22.4346 17.5881 22.4159 17.6687 22.4159 17.7398C22.4154 17.8199 22.4511 17.8722 22.5312 17.8829C22.6893 17.9037 22.7988 17.7483 22.8522 17.6212C22.8628 17.5961 22.8703 17.571 22.8757 17.5459C22.9275 17.6394 23.0182 17.705 23.1395 17.7034C23.3749 17.7034 23.7183 17.6228 23.8999 17.4674C23.996 17.3852 24.0104 17.3483 24.0488 17.2309C24.0713 17.1625 24.1076 17.0616 24.1156 16.9916C24.1252 16.9083 24.1092 16.824 24.0884 16.7433C24.0462 16.5826 24.0093 16.4219 23.9714 16.2611ZM20.1486 19.6135C20.1128 19.5948 20.061 19.5788 20.0231 19.5612C19.9724 19.5377 19.7652 19.4549 19.7257 19.4111C19.6749 19.3593 19.6536 19.2947 19.6167 19.2344L19.6039 19.213L19.6477 19.1522L19.6781 19.1724C19.8164 19.2648 20.1582 19.4464 20.3157 19.4838C20.4038 19.5046 20.4626 19.4047 20.469 19.331V19.2969C20.3894 19.2883 20.2522 19.2371 20.1748 19.2162C20.0877 19.1922 19.8677 19.1228 19.8036 19.0592L19.8004 19.056L19.6595 18.8232L19.7209 18.7832L19.7417 18.7971C19.9152 18.9129 20.0493 18.93 20.2378 18.992C20.2986 19.0117 20.3558 19.0363 20.4102 19.0699C20.4749 19.11 20.6019 19.2755 20.65 19.3433C20.6986 19.4122 20.7173 19.4731 20.6991 19.5564C20.6778 19.6557 20.6201 19.7401 20.5117 19.747C20.4738 19.7492 20.4353 19.7411 20.3996 19.7273C20.4321 19.8287 20.4503 19.9376 20.4492 20.0428C20.4466 20.3157 20.2581 20.6575 19.9515 20.6575C19.927 20.6575 19.9056 20.6553 19.8864 20.6511C19.9345 20.721 19.974 20.8113 19.974 20.8849C19.9734 21.0056 19.9297 21.1776 19.7721 21.129C19.6691 21.0975 19.5692 20.9688 19.5003 20.8881C19.4079 20.7797 19.4304 20.6153 19.4208 20.4829C19.4197 20.469 19.3844 20.4417 19.3732 20.4337L19.3652 20.4284L19.361 20.4198C19.3294 20.359 19.307 20.2869 19.3022 20.2185L19.2969 20.1502L19.3572 20.1828C19.4864 20.2522 19.6338 20.3558 19.7748 20.3942C19.9302 20.4364 20.0541 20.2789 20.1165 20.1582C20.1582 20.0781 20.1972 19.967 20.1972 19.8762C20.1961 19.8357 20.1731 19.645 20.1486 19.6135ZM28.7143 18.0158C28.6006 18.0164 28.4687 17.9891 28.3661 17.9443C28.2065 17.8738 28.0938 17.5785 28.3175 17.5128L28.4825 17.4642L28.3122 17.4397C28.1963 17.4226 28.0057 17.5539 27.9576 17.6565C27.8839 17.7819 27.8727 17.8946 27.9571 18.0153C28.066 18.1718 28.3159 18.2268 28.4954 18.2268C28.5098 18.2268 28.5701 18.2262 28.5909 18.2316C28.5904 18.2567 28.5776 18.3533 28.5781 18.3811C28.5824 18.5589 28.8836 18.7938 29.0267 18.8771C29.1949 18.9749 29.4357 19.1014 29.6402 19.1393C29.5938 19.1869 29.5377 19.2258 29.4998 19.2926C29.4528 19.3743 29.4101 19.4854 29.4021 19.5799L29.4005 19.6018L29.4186 19.6141C29.5009 19.6691 29.5986 19.652 29.691 19.652H29.7257L29.7283 19.6178C29.7417 19.4576 29.8949 19.3663 30.0439 19.4207C30.0968 19.44 30.1625 19.5121 30.1972 19.5558C30.2191 19.5836 30.3099 19.7139 30.2981 19.7524C30.2549 19.7993 29.9991 19.8084 30.0808 20.021C30.1021 20.0765 30.1214 20.1475 30.1646 20.1897C30.1972 20.2212 30.2436 20.2378 30.2762 20.249C30.1181 20.3659 30.2143 20.7023 30.4268 20.673C30.5197 20.6687 30.6148 20.6922 30.7071 20.6511C30.7611 20.627 30.893 20.5149 30.9309 20.5117L30.9469 20.5101L30.9886 20.4578L30.9554 20.4348C30.9111 20.4038 30.9154 20.4049 30.8647 20.4049L30.6842 20.4033L30.5421 20.5031C30.5197 20.4508 30.5165 20.3867 30.5496 20.3392C30.5971 20.2714 30.7221 20.2821 30.7803 20.1988L30.8257 20.1331L30.7184 20.1422C30.6655 20.1363 30.6137 20.1331 30.5608 20.1326C30.5309 20.1326 30.5 20.1486 30.4754 20.1315C30.4289 20.0984 30.3873 19.9959 30.3996 19.9398C30.4124 19.8821 30.4599 19.8666 30.5128 19.8581C30.8513 19.8026 30.4006 19.3615 30.2613 19.3065C30.178 19.2734 30.131 19.2808 30.0477 19.2776H30.0455L29.8714 19.291C30.0156 19.1815 30.2111 19.142 30.3002 18.9727L30.3403 18.8969L30.257 18.9193C30.14 18.9508 30.1358 18.9599 30.0151 18.9599C29.7743 18.9599 29.511 18.8392 29.3081 18.7164C29.1308 18.6102 28.8782 18.4446 28.8782 18.2113C28.8782 18.0158 29.204 17.7285 29.3065 17.5518C29.3417 17.4909 29.3476 17.477 29.3481 17.4097V17.3868L29.3273 17.3761C29.2691 17.3462 29.1201 17.3868 29.094 17.4498L29.0908 17.4573V17.4653C29.0918 17.5053 28.9984 17.634 28.9711 17.6671C28.937 17.7093 28.7656 17.932 28.7143 18.0158ZM21.3896 18.2134C21.3848 18.2769 21.4019 18.4088 21.4382 18.4195C21.4622 18.4265 21.4905 18.4051 21.5012 18.3848C21.5183 18.3512 21.5343 18.2962 21.5113 18.2615C21.4894 18.2289 21.4339 18.2171 21.3896 18.2134ZM25.6337 16.88C25.5905 16.927 25.5216 17.0408 25.5435 17.0712C25.5579 17.0915 25.5937 17.0931 25.6145 17.0835C25.6492 17.068 25.6957 17.0349 25.6994 16.9932C25.7026 16.9543 25.6663 16.9105 25.6337 16.88ZM22.8052 17.3681C22.803 17.413 22.7753 17.4637 22.7443 17.4973C22.7192 17.524 22.6818 17.5678 22.6386 17.5796C22.606 17.5881 22.5665 17.587 22.5665 17.5635C22.5665 17.5267 22.6674 17.4316 22.6952 17.4108C22.7251 17.3879 22.7683 17.3857 22.8052 17.3681ZM19.6803 20.5977C19.6627 20.619 19.6504 20.6553 19.6472 20.6884C19.6402 20.7589 19.6648 20.8118 19.7102 20.8492C19.762 20.7899 19.7572 20.6633 19.6803 20.5977Z" fill="#E7FCB6"/>
</svg>
