<svg width="50" height="50" viewBox="0 0 50 50" fill="none" xmlns="http://www.w3.org/2000/svg">
<circle cx="25" cy="25" r="25" fill="#40A083" fill-opacity="0.1"/>
<mask id="mask0_431_1143" style="mask-type:alpha" maskUnits="userSpaceOnUse" x="0" y="0" width="50" height="50">
<circle cx="25" cy="25" r="25" fill="#40A083"/>
</mask>
<g mask="url(#mask0_431_1143)">
<path d="M46 21.0911C43.1314 23.6705 43.1314 27.4834 46 30.064V56.5992C46 57.6 45.1551 58.4114 44.1128 58.4114H5.88715C4.84491 58.4114 4 57.6 4 56.5992V30.064C6.86858 27.4834 6.86858 23.6716 4 21.0911V19.1318C4 14.6773 6.81407 10.5223 11.5267 8.01681L22.4186 2.22814C24.0247 1.37447 25.9753 1.37447 27.5814 2.22814L38.4733 8.01681C43.1858 10.5221 46 14.6773 46 19.1318V21.0911Z" fill="#1C737A"/>
<path d="M43.5294 21.0911C40.8296 23.6705 40.8296 27.4834 43.5294 30.064V56.5992C43.5294 57.6 42.7342 58.4114 41.7533 58.4114H5.77614C4.79521 58.4114 4 57.6 4 56.5992V30.064C6.69984 27.4834 6.69984 23.6716 4 21.0911V19.1318C4 14.6773 6.64853 10.5223 11.084 8.01681L21.3351 2.22814C22.8468 1.37447 24.6826 1.37447 26.1943 2.22814L36.4454 8.01681C40.8808 10.5221 43.5294 14.6773 43.5294 19.1318V21.0911Z" fill="#40A083"/>
</g>
<g opacity="0.99">
<mask id="mask1_431_1143" style="mask-type:alpha" maskUnits="userSpaceOnUse" x="6" y="3" width="38" height="47">
<path d="M43.9996 22.8492C43.9996 50 44.3258 50 25.302 50C6.27825 50 6.04564 50 6.04564 24.8141C6.04564 3.50555 4.24473 3.02208 23.2685 3.02208C42.2923 3.02208 43.9996 1.54065 43.9996 22.8492Z" fill="#C4C4C4"/>
</mask>
<g mask="url(#mask1_431_1143)">
<path d="M27.8706 24.9029H22.2301C19.5434 24.9029 17.3652 22.8487 17.3652 20.3147V12.6064H32.7357V20.3147C32.7357 22.8487 30.5576 24.9029 27.8706 24.9029Z" fill="#FED2A4"/>
<path d="M27.8108 12.6064V20.3147C27.8108 22.8487 25.3709 24.9029 22.3613 24.9029H27.2868C30.2964 24.9029 32.7364 22.8487 32.7364 20.3147V12.6064H27.8108Z" fill="#FFBD86"/>
<path d="M26.2869 4.9209H23.8141C20.2524 4.9209 17.3652 7.25591 17.3652 10.1364V12.6062H32.7357V10.1364C32.7357 7.25591 29.8485 4.9209 26.2869 4.9209Z" fill="white"/>
<path d="M25.9672 4.9209H23.3714C23.0282 4.9209 22.691 4.94097 22.3613 4.97892C25.6208 5.35471 28.1207 7.52038 28.1207 10.1364V12.6062H32.7364V10.1364C32.7366 7.25591 29.7059 4.9209 25.9672 4.9209Z" fill="#E5E5E5"/>
<path d="M35.2195 53.7223H15.5039V26.7655L20.4189 23.9961H30.2847L35.2195 26.7655V53.7223Z" fill="white"/>
<path d="M30.2837 23.9961H26.4795L31.4145 26.7655V53.7223H35.2185V26.7655L30.2837 23.9961Z" fill="#E5E5E5"/>
<path d="M39.1533 31.5635L37.7664 31.5635C36.0471 31.5635 34.6533 32.8233 34.6533 34.3774L34.6533 49.531C34.6533 50.1012 35.1646 50.5635 35.7955 50.5635L41.5111 50.5635C42.1418 50.5635 42.6533 50.1013 42.6533 49.531L42.6533 38.5635L39.1533 31.5635Z" fill="white"/>
<path d="M35.7686 50.5635L39.7288 50.5635C39.1129 50.5635 38.6135 50.1013 38.6135 49.531L38.6135 34.3774C38.6135 32.8233 38.8212 31.5635 40.5 31.5635L37.6931 31.5635C36.0143 31.5635 34.6533 32.8233 34.6533 34.3774L34.6533 49.531C34.6533 50.1013 35.1528 50.5635 35.7686 50.5635Z" fill="#E5E5E5"/>
<path d="M8 53.7224H15.5037V26.7656L13.5634 28.0174C10.0902 30.2582 8 34.0558 8 38.1256V53.7224Z" fill="white"/>
<path d="M13.5639 35.9149C12.8884 36.3506 12.266 36.8462 11.7002 37.3903V53.7223H15.5042V34.6631L13.5639 35.9149Z" fill="#E5E5E5"/>
<path d="M42.7224 38.8594H38.6531C38.6531 38.8594 38.6531 37.0637 38.1531 35.5637C37.6531 34.0637 35.2188 32.5637 35.2188 32.5637V26.7656C35.2188 26.7656 39.7224 29.6065 41.1531 32.5637C42.5837 35.5209 42.7224 38.8594 42.7224 38.8594Z" fill="white"/>
</g>
</g>
</svg>
