<svg width="50" height="50" viewBox="0 0 50 50" fill="none" xmlns="http://www.w3.org/2000/svg">
<circle cx="25" cy="25" r="25" fill="#40A083" fill-opacity="0.2"/>
<rect x="12.3369" y="18.7473" width="11.5022" height="13.0359" fill="white"/>
<path fill-rule="evenodd" clip-rule="evenodd" d="M9.6452 10.482C15.9496 9.95002 22.283 9.95002 28.5874 10.482L32.8223 10.8393C35.1812 11.0383 37.111 12.9449 37.5009 15.4618C38.4765 21.7591 38.4765 28.1874 37.5009 34.4848C37.111 37.0016 35.1812 38.9083 32.8223 39.1073L28.5874 39.4646C22.283 39.9965 15.9496 39.9965 9.6452 39.4646L5.41026 39.1073C3.05139 38.9083 1.12165 37.0016 0.731726 34.4848C-0.243909 28.1874 -0.243909 21.7591 0.731726 15.4618C1.12166 12.9449 3.05139 11.0383 5.41026 10.8393L9.6452 10.482ZM15.3362 30.0082V19.9384C15.3362 19.4631 15.817 19.1695 16.195 19.414L23.9759 24.4489C24.343 24.6864 24.343 25.2601 23.9759 25.4976L16.195 30.5326C15.817 30.7771 15.3362 30.4835 15.3362 30.0082Z" fill="#1C737A"/>
<path fill-rule="evenodd" clip-rule="evenodd" d="M9.64521 10.7112C15.9496 10.1793 20.6457 10.1793 26.9502 10.7112L31.1851 11.0685C33.544 11.2676 35.4737 13.1742 35.8637 15.691C36.8393 21.9884 36.8393 26.4363 35.8637 32.7337C35.4737 35.2505 33.544 37.1571 31.1851 37.3562L26.9502 37.7135C20.6457 38.2454 15.9496 38.2454 9.6452 37.7135L5.41026 37.3562C3.05139 37.1571 1.12166 35.2505 0.731726 32.7337C-0.243909 26.4363 -0.243909 21.9884 0.731726 15.691C1.12166 13.1742 3.05139 11.2676 5.41026 11.0685L9.64521 10.7112ZM15.3362 30.2375V20.1676C15.3362 19.6923 15.817 19.3987 16.195 19.6433L23.9759 24.6782C24.343 24.9157 24.343 25.4894 23.9759 25.7269L16.195 30.7618C15.817 31.0063 15.3362 30.7128 15.3362 30.2375Z" fill="#40A083"/>
<path d="M40.2568 34.2645C39.013 33.7885 38.3912 33.5505 38.0388 33.0385C37.6865 32.5264 37.6865 31.8605 37.6865 30.5288L37.6865 20.0103C37.6865 18.6785 37.6865 18.0127 38.0388 17.5006C38.3912 16.9885 39.013 16.7505 40.2568 16.2745L44.5702 14.6237C47.0349 13.6804 48.2672 13.2088 49.1336 13.8049C50 14.4009 50 15.7204 50 18.3594L50 32.1796C50 34.8186 50 36.1381 49.1336 36.7342C48.2672 37.3303 47.0349 36.8586 44.5702 35.9154L40.2568 34.2645Z" fill="#1C737A"/>
<path d="M40.6466 33.4546C39.2233 33.0714 38.5117 32.8798 38.0991 32.3414C37.6865 31.8031 37.6865 31.0661 37.6865 29.5921L37.6865 20.0572C37.6865 18.7041 37.6865 18.0275 38.0479 17.5111C38.4092 16.9947 39.0448 16.7629 40.3161 16.2993L42.9878 15.325C45.4302 14.4343 46.6515 13.989 47.5048 14.5861C48.3582 15.1832 48.3582 16.4831 48.3582 19.0829L48.3582 30.3114C48.3582 32.7092 48.3582 33.9081 47.5747 34.5085C46.7913 35.1089 45.6336 34.7972 43.3183 34.1739L40.6466 33.4546Z" fill="#40A083"/>
</svg>
