<svg width="48" height="48" viewBox="0 0 48 48" fill="none" xmlns="http://www.w3.org/2000/svg">
<circle cx="24" cy="24" r="24" fill="#D8F8FF"/>
<path fill-rule="evenodd" clip-rule="evenodd" d="M29.2801 34.8534L31.4925 39.4189L30.4329 38.6944L28.8449 35.0546C28.9917 34.9907 29.1368 34.9242 29.2801 34.8534ZM35.7696 26.7249L36.1435 26.8121L36.5649 27.1947L36.0589 27.332L35.6435 27.2163C35.6884 27.0548 35.7307 26.8907 35.7696 26.7249ZM35.5321 27.5953L37.6055 28.2465L38.1072 28.939L35.4026 27.9874C35.4475 27.8579 35.4907 27.7275 35.5321 27.5953ZM35.2005 28.5185C35.1401 28.667 35.077 28.8138 35.0106 28.9589L39.6322 31.0512L38.8801 30.0115L35.2005 28.5185ZM34.7714 29.4571L40.6426 32.4458L41.5147 33.6522L40.0286 33.5555L34.3733 30.1747C34.514 29.9399 34.647 29.7007 34.7714 29.4571ZM34.0788 30.641L38.3093 33.4415L37.0278 33.3586L33.8059 31.0365C33.9 30.9062 33.9907 30.7749 34.0788 30.641ZM33.464 31.4882C33.3785 31.5961 33.2913 31.7023 33.2014 31.8077L34.8543 33.2161L35.7074 33.2714L33.464 31.4882ZM32.8163 32.2386L33.1021 32.5054L33.2766 33.0469L32.7697 32.9139L32.4623 32.6013C32.5823 32.483 32.7006 32.3621 32.8163 32.2386ZM32.0754 32.9648L33.5365 34.5909L33.6142 35.4423L31.7645 33.236C31.8699 33.147 31.9735 33.0572 32.0754 32.9648ZM31.3224 33.5909C31.1954 33.6876 31.0668 33.7826 30.9364 33.8741L33.8517 38.0364L33.7351 36.7592L31.3224 33.5909ZM30.4761 34.1816L29.838 34.5995L32.913 40.3921L34.1418 41.2324L34.0071 39.7505L30.4761 34.1816ZM27.4235 35.5762L27.5358 35.9518L27.4123 36.5071L27.0418 36.1366L26.9339 35.7092C27.0979 35.6694 27.2612 35.6245 27.4235 35.5762ZM28.3199 35.2713C28.1912 35.3206 28.0617 35.3681 27.9313 35.413L28.6342 37.4647L29.3397 37.9475L28.3199 35.2713ZM26.4218 35.8275L26.857 37.9665L26.4935 38.7393L26.0159 35.9035C26.1524 35.8793 26.2871 35.8542 26.4218 35.8275ZM25.4546 35.9838L25.9296 39.9353L25.383 41.0959L24.9771 36.0321C25.1377 36.0192 25.2966 36.0028 25.4546 35.9838ZM24.4253 36.0641L24.6498 42.6537L24.016 44L23.3821 42.6537L23.6067 36.0649C23.7379 36.0693 23.8692 36.0718 24.0004 36.0718C24.1429 36.0718 24.2845 36.0693 24.4253 36.0641ZM23.054 36.0347L22.649 41.0968L22.1024 39.9362L22.5773 35.9881C22.7345 36.0062 22.8934 36.0218 23.054 36.0347ZM22.0143 35.9078L21.5376 38.7385L21.1732 37.9656L21.6076 35.8335C21.7431 35.8603 21.8787 35.8853 22.0143 35.9078ZM20.997 35.6928L20.8951 36.096L20.504 36.5097L20.3753 36.0019L20.5083 35.5555C20.6706 35.6047 20.833 35.6504 20.997 35.6928ZM20.0031 35.3905L19.2924 37.4647L18.5869 37.9475L19.6171 35.2472C19.744 35.2973 19.8736 35.3447 20.0031 35.3905ZM19.0938 35.0278C18.9479 34.9631 18.8037 34.8948 18.6612 34.824L16.435 39.4198L17.4945 38.6953L19.0938 35.0278ZM18.1724 34.5684L15.0127 40.3921L13.7839 41.2324L13.9195 39.7505L17.4712 34.1487C17.7 34.2964 17.9341 34.4363 18.1724 34.5684ZM17.0153 33.8396L14.0758 38.0364L14.1924 36.7592L16.6319 33.5555C16.7571 33.6522 16.8857 33.7472 17.0153 33.8396ZM16.1923 33.1997C16.0878 33.1108 15.9851 33.0201 15.884 32.9277L14.3901 34.59L14.3124 35.4406L16.1923 33.1997ZM15.4203 32.4847L15.0973 32.8068L14.549 32.9622L14.6993 32.4605L15.0714 32.1186C15.1854 32.2429 15.302 32.3647 15.4203 32.4847ZM14.7675 31.7714L13.0723 33.2153L12.2192 33.2714L14.5084 31.4528C14.593 31.5607 14.6794 31.6669 14.7675 31.7714ZM14.1682 31.0011C14.0758 30.8716 13.986 30.7404 13.8987 30.6082L9.61732 33.4424L10.898 33.3586L14.1682 31.0011ZM13.606 30.1419C13.467 29.9088 13.3366 29.6704 13.214 29.4269L7.28404 32.4458L6.41187 33.6513L7.89802 33.5538L13.606 30.1419ZM12.9765 28.9304L8.29352 31.0504L9.04566 30.0107L12.7891 28.4917C12.8487 28.6402 12.9117 28.7862 12.9765 28.9304ZM12.5905 27.9641C12.5456 27.8354 12.5015 27.7059 12.461 27.5746L10.3211 28.2465L9.82025 28.939L12.5905 27.9641ZM12.3582 27.2214L11.9031 27.3492L11.3487 27.2163L11.7261 26.8518L12.2338 26.7318C12.271 26.8967 12.3124 27.06 12.3582 27.2214ZM17.2139 25.3476C17.1983 25.2707 17.1845 25.1921 17.1716 25.1144L9.26586 26.4425L10.0396 26.8061L17.2139 25.3476ZM17.1267 24.7923L8.06813 25.8795L6.90667 25.3337L17.1008 24.5186C17.1077 24.611 17.1163 24.7016 17.1267 24.7923ZM17.0843 24.2025C17.0826 24.1351 17.0809 24.0678 17.0809 24.0004C17.0809 23.9106 17.0835 23.8217 17.0869 23.7327L5.34712 23.3338L4 23.9676L5.34712 24.6006L17.0843 24.2025ZM17.1059 23.4158L6.90667 22.6006L8.06813 22.0549L17.1344 23.1429C17.1232 23.2336 17.1137 23.3251 17.1059 23.4158ZM17.1819 22.8217C17.1957 22.744 17.2096 22.6663 17.226 22.5894L10.0396 21.1274L9.26586 21.491L17.1819 22.8217ZM12.239 21.2371L11.7641 21.1266L11.3427 20.7432L11.8487 20.6059L12.3651 20.7492C12.3193 20.9098 12.277 21.073 12.239 21.2371ZM12.4929 20.3218L10.4308 19.6663L9.86257 18.9746L12.6198 19.9513C12.5758 20.0739 12.5335 20.1974 12.4929 20.3218ZM12.8219 19.4245C12.8824 19.2777 12.9463 19.1318 13.0128 18.9876L8.33928 16.8607L9.08884 17.9021L12.8219 19.4245ZM13.2537 18.4928L7.33326 15.4626L6.46368 14.2554L7.94896 14.3556L13.6518 17.7804C13.511 18.0135 13.3789 18.251 13.2537 18.4928ZM13.9471 17.3166L9.66741 14.4721L10.948 14.5585L14.2191 16.9255C14.1267 17.0541 14.0361 17.1845 13.9471 17.3166ZM14.5628 16.4773C14.6483 16.3702 14.7355 16.2648 14.8245 16.1604L13.1233 14.7053L12.2701 14.6474L14.5628 16.4773ZM15.1043 15.846L14.7355 15.5075L14.5568 14.9661L15.0654 15.0948L15.4531 15.4816C15.3348 15.6008 15.2182 15.7217 15.1043 15.846ZM15.8832 15.0714L14.3901 13.4273L14.3081 12.5767L16.1923 14.8003C16.0878 14.8892 15.9842 14.979 15.8832 15.0714ZM16.631 14.4445C16.7571 14.3469 16.8849 14.2528 17.0153 14.1604L14.0568 9.98433L14.1803 11.2606L16.631 14.4445ZM17.4712 13.8504C17.7 13.7027 17.9341 13.5637 18.1724 13.4316L14.9808 7.62341L13.7476 6.78923L13.891 8.2702L17.4712 13.8504ZM18.6612 13.176L16.4073 8.58798L17.4712 9.30645L19.0947 12.9713C18.9487 13.0369 18.8045 13.1052 18.6612 13.176ZM19.6162 12.7528C19.744 12.7027 19.8727 12.6553 20.0022 12.6095L19.276 10.5266L18.5679 10.0474L19.6162 12.7528ZM20.5057 12.4445L20.3684 11.9851L20.4919 11.4299L20.8623 11.8003L20.991 12.3081C20.8287 12.3504 20.6663 12.3962 20.5057 12.4445ZM21.5454 12.1803L21.1084 10.0344L21.472 9.26154L21.9504 12.1035C21.8148 12.1259 21.6801 12.1518 21.5454 12.1803ZM22.5117 12.0206L22.0359 8.06554L22.5825 6.90408L22.9884 11.9713C22.8286 11.9843 22.6697 12.0007 22.5117 12.0206ZM23.5402 11.9377L23.3156 5.34626L23.9503 4L24.585 5.34539L24.3605 11.9333C24.2405 11.9299 24.1213 11.9273 24.0004 11.9273C23.8459 11.9282 23.693 11.9316 23.5402 11.9377ZM24.9123 11.9627L25.3173 6.90322L25.8648 8.06382L25.3907 12.0076C25.2318 11.9903 25.0721 11.9748 24.9123 11.9627ZM25.952 12.087L26.4278 9.26154L26.7914 10.0344L26.3588 12.1596C26.224 12.1328 26.0885 12.1095 25.952 12.087ZM26.8708 12.2736L26.9805 11.8332L27.37 11.4178L27.4995 11.9256L27.3587 12.4048C27.1981 12.3573 27.0349 12.3142 26.8708 12.2736ZM27.933 12.587L28.6515 10.5266L29.3596 10.0482L28.3207 12.7287C28.1921 12.6786 28.0634 12.6319 27.933 12.587ZM28.8449 12.9445C28.9917 13.0093 29.1359 13.0758 29.2792 13.1457L31.5184 8.58712L30.4554 9.30645L28.8449 12.9445ZM29.7715 13.4005L32.9467 7.62341L34.1798 6.78923L34.0365 8.2702L30.477 13.8184C30.2464 13.6708 30.0115 13.5317 29.7715 13.4005ZM30.9355 14.125L33.8698 9.9826L33.7472 11.2598L31.3232 14.4091C31.1954 14.3124 31.0668 14.2174 30.9355 14.125ZM31.7654 14.764C31.8707 14.853 31.9744 14.9436 32.0763 15.0352L33.5374 13.4264L33.6194 12.5767L31.7654 14.764ZM32.3923 15.3296L32.6971 15.0179L33.2429 14.8556L33.0987 15.359L32.7481 15.6889C32.6324 15.5671 32.5132 15.4471 32.3923 15.3296ZM33.1444 16.125L34.8042 14.7053L35.6573 14.6474L33.4087 16.4419C33.3223 16.3348 33.2343 16.2294 33.1444 16.125ZM33.7541 16.8918C33.8482 17.0204 33.9406 17.1508 34.0296 17.2838L38.2583 14.4721L36.9777 14.5585L33.7541 16.8918ZM34.3284 17.7493C34.47 17.9824 34.6047 18.2199 34.7316 18.4634L40.5942 15.4635L41.4638 14.2563L39.9785 14.3564L34.3284 17.7493ZM34.9743 18.96L39.5873 16.8607L38.8378 17.9021L35.1677 19.3995C35.1055 19.251 35.0416 19.105 34.9743 18.96ZM35.3724 19.9288C35.4164 20.0523 35.4596 20.1758 35.5002 20.301L37.4967 19.6663L38.0649 18.9746L35.3724 19.9288ZM35.5952 20.611L35.9803 20.4996L36.5356 20.6283L36.1617 20.9953L35.7282 21.1007C35.6867 20.9357 35.6427 20.7725 35.5952 20.611ZM30.774 22.5894L37.9604 21.1274L38.7341 21.491L30.8181 22.8208C30.8043 22.744 30.7896 22.6663 30.774 22.5894ZM39.9319 22.0549L30.8656 23.1429C30.8768 23.2336 30.8863 23.3243 30.8941 23.4158L41.0933 22.6006L39.9319 22.0549ZM30.8733 24.7923L39.9319 25.8795L41.0933 25.3329L30.8992 24.5186C30.8932 24.6101 30.8837 24.7016 30.8733 24.7923ZM30.787 25.3476L37.9604 26.8069L38.7341 26.4425L30.8284 25.1144C30.8155 25.1921 30.8017 25.2707 30.787 25.3476ZM42.6529 23.3338L44 23.9676L42.6529 24.6015L30.9165 24.2025C30.9182 24.1351 30.92 24.0678 30.92 24.0004C30.92 23.9106 30.9174 23.8217 30.9139 23.7327L42.6529 23.3338Z" fill="#1C737A"/>
<path fill-rule="evenodd" clip-rule="evenodd" d="M30.635 22.0419L31.3413 21.8381C31.3716 21.9409 31.4 22.0445 31.426 22.149L30.7118 22.3234C30.6885 22.2284 30.6626 22.1343 30.635 22.0419ZM17.3278 25.8277L16.6206 26.0263C16.5921 25.9235 16.5662 25.8208 16.542 25.7171L17.257 25.5487C17.2777 25.642 17.3019 25.7353 17.3278 25.8277ZM30.7429 25.5522L31.4579 25.7189C31.4337 25.8242 31.407 25.9278 31.3785 26.0315L30.6704 25.8346C30.6963 25.7413 30.7204 25.6472 30.7429 25.5522ZM30.6082 26.0496L31.3085 26.2698C31.2826 26.3527 31.255 26.4356 31.2265 26.5176L30.5331 26.2733C30.559 26.1999 30.5849 26.1256 30.6082 26.0496ZM30.4182 26.5781L31.0995 26.8544C31.0615 26.9485 31.021 27.0418 30.9795 27.1333L30.3103 26.8302C30.3483 26.7473 30.3845 26.6627 30.4182 26.5781ZM30.1738 27.1161C30.103 27.256 30.027 27.3924 29.9467 27.5271L30.5771 27.9036C30.666 27.7551 30.7498 27.604 30.8284 27.4494L30.1738 27.1161ZM29.7783 27.7948L30.3906 28.1998C30.3344 28.2844 30.2774 28.3682 30.2179 28.4502L29.6229 28.0211C29.6756 27.9468 29.7274 27.8717 29.7783 27.7948ZM29.4269 28.2801C29.3776 28.3423 29.3276 28.4027 29.2766 28.4632L29.8353 28.939C29.8914 28.8725 29.9467 28.8052 30.0011 28.7369L29.4269 28.2801ZM29.0469 28.7205L29.5832 29.2214C29.5098 29.3 29.4346 29.3768 29.3578 29.4519L28.8431 28.9295C28.9122 28.8613 28.9804 28.7922 29.0469 28.7205ZM28.6298 29.1298C28.5711 29.1825 28.5115 29.2343 28.4519 29.2844L28.9234 29.8474C28.9899 29.7913 29.0555 29.7343 29.1203 29.6756L28.6298 29.1298ZM28.1989 29.4882L28.6436 30.072C28.5633 30.1333 28.4821 30.1937 28.3992 30.2516L27.9778 29.6506C28.053 29.5979 28.1264 29.5435 28.1989 29.4882ZM27.7153 29.8276C27.5841 29.9113 27.4494 29.9917 27.3112 30.0668L27.6609 30.7118C27.8129 30.6289 27.9623 30.54 28.1074 30.4467L27.7153 29.8276ZM27.0305 30.2119L27.3509 30.8725C27.2602 30.9174 27.1678 30.9597 27.0754 31.0003L26.7818 30.3267C26.8656 30.2913 26.9485 30.2524 27.0305 30.2119ZM26.4813 30.4519L26.743 31.1384C26.6618 31.1695 26.5798 31.1997 26.4969 31.2282L26.2585 30.5331C26.3345 30.5072 26.4079 30.4804 26.4813 30.4519ZM25.9459 30.6333L26.1566 31.3379C26.0539 31.3681 25.9494 31.3966 25.8449 31.4225L25.6644 30.7101C25.7585 30.6868 25.8527 30.6609 25.9459 30.6333ZM25.3915 30.7723L25.5383 31.4916C25.4537 31.5089 25.3682 31.5253 25.2819 31.54L25.1601 30.8155C25.2378 30.8025 25.3147 30.7887 25.3915 30.7723ZM24.8389 30.8621L24.927 31.5918C24.8268 31.6039 24.7266 31.6142 24.6247 31.622L24.566 30.8897C24.6575 30.8828 24.7482 30.8733 24.8389 30.8621ZM24.2499 30.9087L24.275 31.6427C24.1834 31.6462 24.0919 31.6479 24.0004 31.6479C23.9183 31.6479 23.838 31.6462 23.7569 31.6436L23.7819 30.9096C23.8544 30.9122 23.9278 30.9139 24.0004 30.9139C24.0841 30.9139 24.167 30.9113 24.2499 30.9087ZM23.465 30.8932L23.4063 31.6255C23.3052 31.6177 23.2042 31.6082 23.104 31.5961L23.1912 30.8664C23.2828 30.8768 23.3735 30.8854 23.465 30.8932ZM22.8709 30.8207L22.7491 31.5452C22.6628 31.5313 22.5773 31.5158 22.4918 31.4985L22.6386 30.7783C22.7154 30.7939 22.7932 30.8077 22.8709 30.8207ZM22.2586 30.6911L22.079 31.4035C21.9754 31.3768 21.8718 31.3474 21.769 31.3163L21.978 30.6125C22.0712 30.6393 22.1645 30.6661 22.2586 30.6911ZM21.6749 30.5106L21.4365 31.2058C21.3545 31.1764 21.2733 31.1462 21.1922 31.1143L21.4538 30.4277C21.5272 30.4562 21.6015 30.4839 21.6749 30.5106ZM21.1567 30.3008L20.8631 30.9735C20.7707 30.932 20.6801 30.8889 20.5903 30.844L20.9106 30.1834C20.9918 30.2239 21.0738 30.2628 21.1567 30.3008ZM20.6317 30.0348C20.4961 29.9588 20.3623 29.8777 20.2328 29.793L19.8398 30.4131C19.9841 30.5072 20.1317 30.5961 20.282 30.6799L20.6317 30.0348ZM19.9728 29.616L19.5514 30.2179C19.4694 30.1592 19.3891 30.0987 19.3096 30.0374L19.7544 29.4537C19.826 29.5081 19.8994 29.5625 19.9728 29.616ZM19.5048 29.249C19.4452 29.1981 19.3865 29.1462 19.3295 29.0936L18.839 29.6393C18.9029 29.6981 18.9677 29.755 19.0333 29.812L19.5048 29.249ZM19.0704 28.8431L18.5506 29.3613C18.4755 29.2853 18.4021 29.2076 18.3304 29.129L18.871 28.6324C18.9357 28.7041 19.0022 28.7741 19.0704 28.8431ZM18.6931 28.4269C18.643 28.3665 18.5938 28.306 18.5454 28.2447L17.9711 28.7015C18.0247 28.7697 18.0791 28.8371 18.1344 28.9036L18.6931 28.4269ZM18.3528 27.9865L17.757 28.4157C17.6991 28.3337 17.6421 28.2508 17.5877 28.167L18.2 27.762C18.2492 27.8371 18.3002 27.9123 18.3528 27.9865ZM18.0342 27.4943C17.9556 27.3613 17.8813 27.2249 17.8114 27.0858L17.1568 27.4192C17.2346 27.5729 17.3166 27.7231 17.4038 27.8708L18.0342 27.4943ZM17.6767 26.8026L17.0074 27.1057C16.9669 27.0142 16.9271 26.9218 16.89 26.8285L17.5705 26.5522C17.605 26.6368 17.6404 26.7206 17.6767 26.8026ZM17.4591 26.2508L16.7665 26.4943C16.738 26.4131 16.7112 26.3311 16.6853 26.2482L17.3865 26.028C17.409 26.104 17.4332 26.1774 17.4591 26.2508ZM17.2665 22.4089L16.5506 22.2423C16.5748 22.1386 16.6024 22.0359 16.6309 21.934L17.339 22.1309C17.3131 22.2224 17.289 22.3157 17.2665 22.4089ZM17.4133 21.8865L16.713 21.6637C16.738 21.5851 16.7648 21.5065 16.7924 21.4297L17.485 21.6749C17.4599 21.7449 17.4358 21.8157 17.4133 21.8865ZM17.6007 21.3744L16.9202 21.0972C16.9591 21.0039 16.9988 20.9124 17.0403 20.8209L17.7086 21.1248C17.6715 21.2077 17.6361 21.2906 17.6007 21.3744ZM17.8477 20.8433C17.9193 20.7052 17.9945 20.5704 18.0748 20.4375L17.4453 20.0592C17.3563 20.206 17.2725 20.3554 17.194 20.5083L17.8477 20.8433ZM18.2432 20.1723L17.6318 19.7656C17.6879 19.6819 17.7449 19.5998 17.8045 19.5187L18.3995 19.9487C18.3459 20.023 18.2932 20.0972 18.2432 20.1723ZM18.5938 19.6939C18.643 19.6326 18.6922 19.5731 18.7432 19.5135L18.1853 19.0359C18.1292 19.1016 18.0739 19.1681 18.0195 19.2354L18.5938 19.6939ZM18.9038 19.333L18.3632 18.8365C18.4349 18.7579 18.5083 18.6819 18.5834 18.6068L19.1024 19.1249C19.0342 19.1922 18.9685 19.2622 18.9038 19.333ZM19.3494 18.8883C19.4072 18.8356 19.4668 18.7846 19.5264 18.7337L19.0514 18.1733C18.9858 18.2294 18.921 18.2872 18.8563 18.3451L19.3494 18.8883ZM19.7768 18.5308L19.3286 17.9487C19.4081 17.8874 19.4893 17.827 19.5713 17.7691L19.9953 18.3684C19.9219 18.4202 19.8485 18.4746 19.7768 18.5308ZM20.2561 18.1905C20.3865 18.1059 20.5203 18.0265 20.6559 17.9505L20.3018 17.3071C20.1507 17.3909 20.0031 17.479 19.8588 17.5722L20.2561 18.1905ZM20.9357 17.8045L20.6119 17.1456C20.7017 17.1007 20.7932 17.0576 20.8856 17.017L21.1827 17.6888C21.0989 17.7251 21.0169 17.7639 20.9357 17.8045ZM21.4806 17.5627L21.2155 16.8779C21.2958 16.846 21.3778 16.8158 21.4598 16.7873L21.7016 17.4807C21.6265 17.5066 21.5531 17.5342 21.4806 17.5627ZM21.9849 17.3874L21.7742 16.6837C21.8761 16.6526 21.978 16.6241 22.0816 16.5973L22.2621 17.3089C22.1688 17.333 22.0764 17.3589 21.9849 17.3874ZM22.5755 17.2346L22.4287 16.5153C22.5134 16.4971 22.5989 16.4807 22.6843 16.466L22.8061 17.1905C22.7293 17.2035 22.6524 17.2182 22.5755 17.2346ZM23.1273 17.1413L23.0401 16.4125C23.1403 16.3995 23.2405 16.3892 23.3415 16.3805L23.4002 17.1128C23.3087 17.1206 23.218 17.1301 23.1273 17.1413ZM23.7163 17.093L23.6912 16.359C23.794 16.3546 23.8968 16.3521 24.0004 16.3521C24.0703 16.3521 24.1403 16.3538 24.2102 16.3555L24.1852 17.0895C24.1239 17.0878 24.0626 17.0869 24.0004 17.0869C23.9045 17.0869 23.8104 17.0886 23.7163 17.093ZM24.5004 17.1051L24.5591 16.3728C24.6601 16.3805 24.7612 16.3892 24.8622 16.4004L24.7741 17.1301C24.6834 17.1206 24.5919 17.112 24.5004 17.1051ZM25.0962 17.1741L25.218 16.4496C25.3043 16.4634 25.3898 16.479 25.4753 16.4954L25.3285 17.2156C25.2516 17.2 25.1739 17.1862 25.0962 17.1741ZM25.6221 17.2795L25.8 16.5662C25.9036 16.5913 26.0072 16.6189 26.1091 16.6482L25.9019 17.3529C25.8095 17.327 25.7162 17.3028 25.6221 17.2795ZM26.2344 17.4574L26.4761 16.764C26.5582 16.7925 26.6402 16.8218 26.7214 16.8529L26.4554 17.5386C26.3829 17.5101 26.3086 17.4833 26.2344 17.4574ZM26.7568 17.6612L27.0539 16.9893C27.1471 17.0299 27.2387 17.0722 27.3293 17.1163L27.0055 17.776C26.9235 17.7354 26.8406 17.6974 26.7568 17.6612ZM27.287 17.9202C27.4252 17.9954 27.559 18.0748 27.6911 18.1577L28.0875 17.5394C27.9416 17.447 27.793 17.3589 27.6402 17.276L27.287 17.9202ZM27.9554 18.333L28.3802 17.7337C28.4631 17.7916 28.5452 17.852 28.6255 17.9133L28.1773 18.4954C28.1039 18.4401 28.0305 18.3857 27.9554 18.333ZM28.4312 18.6974C28.4916 18.7475 28.5512 18.7993 28.61 18.852L29.1039 18.3088C29.0391 18.251 28.9735 18.1931 28.9061 18.1379L28.4312 18.6974ZM28.7896 19.0187L29.3025 18.4936C29.3794 18.5679 29.4554 18.6439 29.5288 18.7207L28.9942 19.2242C28.9269 19.1534 28.8587 19.0852 28.7896 19.0187ZM29.2257 19.4772C29.2775 19.5368 29.3276 19.5972 29.3768 19.6585L29.951 19.2009C29.8966 19.1335 29.8405 19.0662 29.7835 19.0005L29.2257 19.4772ZM29.5754 19.915L30.1704 19.485C30.23 19.5661 30.2887 19.649 30.3457 19.7328L29.7343 20.1395C29.6833 20.0627 29.6298 19.9884 29.5754 19.915ZM29.9061 20.4055C29.9882 20.5385 30.065 20.6749 30.1376 20.814L30.7921 20.4789C30.7118 20.3252 30.6263 20.1749 30.5356 20.0273L29.9061 20.4055ZM30.2774 21.0981L30.9467 20.7932C30.989 20.8848 31.0305 20.978 31.0693 21.0713L30.3888 21.3485C30.3534 21.2639 30.3163 21.181 30.2774 21.0981ZM30.5071 21.6516C30.5331 21.7224 30.5572 21.7932 30.5805 21.8649L31.2809 21.6421C31.255 21.5626 31.2282 21.4841 31.1997 21.4063L30.5071 21.6516Z" fill="#1C737A"/>
<path fill-rule="evenodd" clip-rule="evenodd" d="M24.5624 29.235C24.369 29.2506 24.2205 29.216 24.1367 29.0899C24.1626 29.02 24.2369 28.9587 24.2792 28.9708C24.3828 28.9993 24.5599 29.1789 24.5624 29.235Z" fill="#1C737A"/>
<path fill-rule="evenodd" clip-rule="evenodd" d="M30.9318 23.9955C30.9318 27.8242 27.8253 30.928 23.9932 30.928C20.1612 30.928 17.0547 27.8242 17.0547 23.9955C17.0547 20.1668 20.1612 17.063 23.9932 17.063C27.8253 17.063 30.9318 20.1668 30.9318 23.9955ZM27.4697 26.7058C27.4136 26.7801 27.3358 26.9062 27.3039 26.9744C27.2175 27.1566 27.1951 27.3837 27.2175 27.5815C27.2348 27.7326 27.3004 27.9467 27.4507 28.002C27.6269 28.0676 27.8721 28.0201 28.031 27.9329C28.3263 27.7697 28.6294 27.5694 28.7624 27.2481L28.4947 27.4364L28.4852 27.4234C28.5059 27.4739 28.2175 27.6423 28.1004 27.7107L28.0647 27.7317C27.9274 27.8146 27.7296 27.8656 27.5612 27.7697C27.2373 27.5843 27.3521 27.2455 27.3937 27.1227L27.3972 27.1126C27.4343 27.002 27.664 26.6989 27.8255 26.6169C27.8252 26.6005 27.8253 26.5841 27.8253 26.568C27.8259 26.4399 27.8264 26.332 27.6415 26.4148C27.5539 26.4546 27.5173 26.4702 27.4564 26.496L27.4179 26.5124C27.2942 26.5745 27.1909 26.6195 27.1073 26.6559L27.1073 26.6559C26.8967 26.7476 26.8111 26.7849 26.8402 26.9036L26.93 27.0668C26.9661 26.9652 27.1635 26.8658 27.317 26.7885L27.317 26.7885C27.3801 26.7567 27.4357 26.7287 27.4697 26.7058ZM21.8187 19.6257L21.7531 19.9996L23.3739 18.6775L23.4439 18.2803L21.8187 19.6257ZM20.5173 20.8631C20.5173 20.8847 21.1097 21.2085 21.1754 21.2431L21.5165 20.617C21.4802 20.6118 21.1866 20.4529 21.1443 20.4262C21.038 20.3601 20.9734 20.3334 20.8712 20.2913L20.8403 20.2785C20.8335 20.291 20.8133 20.3251 20.786 20.3709C20.6928 20.5281 20.5173 20.8237 20.5173 20.8631ZM19.5726 20.94C19.5683 20.9244 19.6823 20.6921 19.7082 20.655C19.7279 20.6275 19.7655 20.5478 19.8014 20.4717C19.8411 20.3876 19.8788 20.3079 19.8878 20.3079C19.937 20.3079 20.5173 20.6541 20.5312 20.6731C20.551 20.7094 20.437 20.9149 20.3982 20.9771C20.3809 21.0039 20.2281 21.288 20.2246 21.3303C20.1538 21.3018 19.5899 21.0073 19.5726 20.94ZM23.0821 20.1093L25.0777 18.5108L25.0077 18.9072L23.0164 20.4823L23.0821 20.1093ZM24.2617 20.731C24.1408 20.6775 23.899 20.3769 23.9231 20.2647C23.7617 20.3415 23.7245 20.4072 23.7876 20.5237L23.7974 20.5417C23.9525 20.8246 24.0352 20.9755 24.2306 21.0211C24.4914 21.0825 24.6572 20.756 24.6597 20.5859C24.8471 20.7569 25.0242 20.6455 25.0803 20.5039C25.1252 20.3899 25.1399 20.2681 25.12 20.1878C25.0868 20.055 24.9795 19.9168 24.9039 19.8194L24.9039 19.8194C24.8792 19.7877 24.8579 19.7602 24.8437 19.7388C24.8357 19.7454 24.8279 19.7516 24.8204 19.7575C24.7684 19.7986 24.732 19.8274 24.7418 19.9098C24.7521 19.9979 24.8083 20.0764 24.905 20.1732C24.9189 20.1871 24.9307 20.1979 24.9416 20.2078L24.9416 20.2078C24.9692 20.2329 24.9909 20.2527 25.0267 20.3053C24.9568 20.3588 24.8281 20.4305 24.7884 20.4339C24.6667 20.4423 24.5218 20.1355 24.487 20.0619C24.4821 20.0514 24.4794 20.0457 24.4793 20.0462C24.4718 20.0432 24.4598 20.0412 24.4477 20.0392C24.4358 20.0373 24.4239 20.0354 24.4162 20.0324L24.4127 20.0373C24.3851 20.0757 24.3551 20.1175 24.3385 20.1697C24.3503 20.2912 24.4532 20.4434 24.5283 20.5544L24.5501 20.5868C24.5043 20.6723 24.3825 20.7845 24.2617 20.731ZM25.3981 19.6403C25.4231 19.7034 25.5621 19.8554 25.7167 19.9184C25.6449 20.2559 25.4243 20.616 25.2795 20.8526L25.2651 20.8761C25.1235 21.1075 24.9775 21.2629 24.9577 21.2837L24.9123 21.3314C24.8125 21.4359 24.6337 21.6233 24.595 21.6818C24.6563 21.6766 24.9352 21.4702 25.0544 21.3484C25.3342 21.0635 25.7918 20.4339 25.8886 19.9832C26.0085 20.0184 26.0094 20.0198 26.0493 20.0857C26.0554 20.0957 26.0623 20.1072 26.0708 20.1205L26.0867 20.075C26.129 19.955 26.1623 19.8605 26.1416 19.7474C26.1326 19.6959 26.0716 19.6668 26.0117 19.6382L26.0017 19.6334L26.0029 19.6265L26.0029 19.6265C26.0269 19.4897 26.0336 19.4517 26.0336 19.2733C26.0336 19.0195 25.9386 18.6905 25.7936 18.6576C25.4559 18.6827 25.3463 19.1343 25.3247 19.3329C25.3119 19.4522 25.3387 19.5096 25.3703 19.5773L25.3703 19.5773C25.3794 19.5969 25.389 19.6173 25.3981 19.6403ZM25.8212 19.592C25.7554 19.5715 25.7187 19.5518 25.6699 19.5256L25.6699 19.5256C25.6488 19.5143 25.6255 19.5018 25.5967 19.4875C25.5713 19.4733 25.5475 19.4632 25.5264 19.4542C25.4615 19.4265 25.4217 19.4095 25.4361 19.3182C25.468 19.1689 25.7271 18.9987 25.8143 18.9746C25.8825 18.9927 25.8955 19.117 25.8886 19.2258C25.8834 19.3226 25.8601 19.4417 25.8212 19.592ZM20.5476 22.6671C20.3412 23.2646 19.7643 24.3941 19.1737 24.2007C18.9457 24.1264 18.7635 23.8156 18.6979 23.5971C18.6029 23.2784 18.5787 22.857 18.6115 22.6308C18.625 22.6558 18.6448 22.731 18.667 22.8148L18.667 22.8148C18.693 22.9136 18.7223 23.0243 18.748 23.079C18.8524 23.3009 19.0545 23.6929 19.3835 23.623C19.7125 23.553 19.8852 23.4296 20.0856 23.1109C20.1719 22.9736 20.5476 22.3061 20.7099 21.9961C20.7531 21.914 20.8835 21.7543 21.108 21.8052C21.1775 21.8518 21.2067 22.0377 21.2307 22.1907L21.2307 22.1907C21.2383 22.2392 21.2454 22.2844 21.2531 22.3208C21.2937 22.5168 21.3334 22.6714 21.4612 22.8415C21.7315 23.2016 22.1883 23.2897 22.5959 23.1662C22.6166 23.1598 22.637 23.1531 22.6578 23.1463L22.6578 23.1462L22.6891 23.136L22.6857 23.123C22.595 22.75 22.4076 22.2854 22.0898 21.6222L22.3152 20.8933C22.4189 20.921 22.7107 21.4857 22.7263 21.5341C22.9258 22.0151 23.0674 22.4184 23.1745 22.8631C23.2764 22.7793 23.3791 22.6748 23.4801 22.5444C23.386 22.2638 23.2099 21.959 23.0553 21.902L23.2099 21.2578C23.4732 21.5134 23.7366 21.9736 23.7435 22.2241C23.7504 22.4546 23.7288 22.5764 23.652 22.8018C23.6002 22.9546 23.4422 23.1843 23.272 23.3372L23.2859 23.4183C23.3321 23.6911 23.361 24.052 23.3905 24.4204C23.4111 24.6783 23.432 24.9398 23.4594 25.1774C23.57 26.1376 24.2064 27.1264 25.101 27.5115L25.12 27.2784C25.158 26.8129 25.2539 26.5426 25.5889 26.2274C25.9321 25.9047 26.3549 25.6985 26.7885 25.4869C26.921 25.4222 27.0547 25.3571 27.1873 25.2879C26.7587 25.2708 26.324 25.2321 25.8863 25.193C25.6592 25.1728 25.4312 25.1525 25.2029 25.135C25.0161 25.1206 24.8285 25.1106 24.6415 25.1006L24.6413 25.1006C24.3243 25.0837 24.0089 25.0668 23.7021 25.0288C23.7263 24.8095 23.905 24.1636 24.006 24.0763C24.9076 22.9961 25.7763 22.4063 26.6657 21.8277C26.629 21.7367 26.5889 21.6563 26.5501 21.5783L26.5501 21.5782L26.5501 21.5782C26.4887 21.4548 26.4304 21.3376 26.3929 21.1947C26.3411 20.9996 26.3195 20.8139 26.3126 20.6265C26.3073 20.4837 26.3118 20.3395 26.3165 20.1896L26.3186 20.1196C26.3298 19.7906 26.6139 19.5885 26.8756 19.649C27.1985 19.7241 27.9075 20.0315 28.3211 20.4115C28.4759 20.553 28.4609 20.9842 28.4533 21.2023L28.4524 21.2293C28.442 21.5453 28.316 21.8147 28.0215 21.9969C27.9706 22.0286 27.9156 22.0634 27.8568 22.1007C27.6811 22.2121 27.4716 22.3449 27.2374 22.4762C27.2699 22.5538 27.3149 22.7105 27.3496 22.8316C27.3674 22.8938 27.3826 22.9466 27.392 22.9745C27.4205 23.0582 27.4162 23.2828 27.3851 23.3475C27.357 23.3274 27.3125 23.1939 27.2788 23.0926L27.2788 23.0925C27.2648 23.0505 27.2527 23.014 27.2443 22.9935C27.2115 22.9132 27.1217 22.7292 27.0414 22.5824C26.8583 22.6783 24.886 23.7715 24.886 24.1221C24.886 24.1644 25.9728 24.2249 26.9253 24.2779L26.9255 24.2779C27.3525 24.3016 27.7525 24.3239 28.0155 24.3423C28.6096 24.3838 29.2037 24.4226 29.7978 24.4434C29.7702 24.5478 29.4688 25.306 29.3496 25.3423C28.5845 25.5737 27.7978 25.8509 27.0777 26.1946C27.037 26.214 26.9867 26.2373 26.9291 26.264L26.9291 26.264C26.4198 26.4999 25.3402 27.0001 25.3402 27.3949C25.3402 27.7585 26.6537 28.1833 26.7728 28.1548C26.7357 28.3604 26.6191 28.825 26.5535 29.0607C25.7884 28.9968 24.9007 28.4864 24.342 28.0003C23.4758 27.2481 23.2504 26.4986 23.0803 25.4166C23.0497 25.4646 22.9878 25.5773 22.906 25.7264C22.773 25.9687 22.5874 26.3069 22.3981 26.6186C21.8964 27.445 21.3153 28.0072 20.6365 27.9994C20.2557 27.9951 19.8256 27.6963 19.6383 27.4675C19.2074 26.9398 19.3239 25.7318 19.4215 25.5245C19.453 25.5609 19.4725 25.7297 19.4925 25.9042L19.4966 25.9399C19.5364 26.2836 19.6961 26.6091 19.9146 26.8C20.1806 27.0305 20.5381 27.1402 20.9413 27.0728C21.4491 26.9882 21.8101 26.7006 21.9681 26.5219C22.3636 26.0754 22.7781 25.5806 22.8748 25.2965C22.9646 25.0616 22.9776 24.7542 22.9543 24.515C22.924 24.2024 22.8688 23.9088 22.8014 23.6109C22.0415 23.9157 21.456 23.5634 21.3083 23.2646C21.198 23.0426 21.1597 22.8705 21.1129 22.6603L21.1128 22.6603C21.1039 22.6203 21.0947 22.5791 21.0847 22.5358C20.9275 22.345 20.6356 22.4132 20.5476 22.6671ZM26.6217 21.1628C26.6303 21.1878 26.7573 21.5142 26.8635 21.7068C26.9343 21.7068 27.202 21.5505 27.4645 21.3925C27.727 21.2353 27.9835 21.0764 28.0301 21.0091C27.7072 20.7241 27.1934 20.6127 26.7702 20.6213C26.5811 20.6248 26.5284 20.6775 26.5103 20.7819C26.5031 20.8251 26.5535 20.9686 26.6083 21.1245L26.6083 21.1246L26.6217 21.1628ZM24.1528 22.876L26.0215 21.4365L25.9171 21.8881L23.9965 23.3484L24.1528 22.876ZM21.8066 24.6903C21.804 24.6774 21.14 24.4554 21.0622 24.4641L21.0786 24.4701L20.8317 25.1454L21.5855 25.3889C21.5803 25.3398 21.6502 25.1504 21.7127 24.9807L21.7127 24.9807C21.7645 24.8403 21.8113 24.7134 21.8066 24.6903ZM22.6129 24.2964L22.6129 24.2964L22.6129 24.2964C22.4247 24.2296 22.1504 24.1323 22.1019 24.142C22.0415 24.1541 21.8411 24.7542 21.8498 24.8311C21.8718 24.8287 22.0059 24.8705 22.1156 24.9047L22.1156 24.9047C22.1652 24.9202 22.2098 24.9341 22.2366 24.9416C22.2593 24.9479 22.2891 24.9577 22.3216 24.9685C22.4195 25.0009 22.5425 25.0416 22.5717 25.0176C22.5967 24.9399 22.6451 24.7965 22.6943 24.6636C22.6989 24.6509 22.706 24.6332 22.7143 24.6124C22.7497 24.5236 22.8069 24.3803 22.7824 24.3544C22.7576 24.3477 22.6931 24.3248 22.6129 24.2964ZM21.185 28.8824L21.185 28.8824L21.185 28.8825C21.1744 28.9694 21.1638 29.0563 21.1546 29.1436C21.4019 28.9637 21.6422 28.7836 21.8812 28.6046C22.3167 28.2783 22.7479 27.9552 23.209 27.6419L23.2487 27.1704C22.7481 27.5289 22.2545 27.8982 21.7838 28.2503C21.5878 28.3968 21.3959 28.5404 21.209 28.679C21.2015 28.7468 21.1932 28.8145 21.185 28.8824ZM22.6432 29.7103H22.6432C22.5236 29.7253 22.4144 29.739 22.3281 29.7592C22.4542 29.798 22.8333 29.8429 23.0621 29.8136C23.1899 29.7972 23.3678 29.7531 23.474 29.6892C23.6189 29.6021 23.8051 29.4395 23.9062 29.3512C23.9485 29.3142 23.9759 29.2903 23.9792 29.2903C24.1312 29.4181 24.5008 29.6737 24.6458 29.4051C24.6966 29.3119 24.6914 29.2685 24.6854 29.2185C24.6834 29.2014 24.6812 29.1834 24.6812 29.1625C24.6812 29.102 24.6545 28.9777 24.6415 28.9319C24.6165 28.8447 24.5819 28.7739 24.4913 28.7393C24.3695 28.6927 24.3246 28.6892 24.1882 28.8309C24.1289 28.8921 24.0777 28.9604 24.0272 29.0276C24.0115 29.0486 23.9958 29.0694 23.98 29.0899C23.8471 29.2618 23.6156 29.4112 23.468 29.4992C23.2374 29.6358 22.9138 29.6764 22.6432 29.7103Z" fill="#1C737A"/>
<path fill-rule="evenodd" clip-rule="evenodd" d="M12.7861 26.9721L12.8086 27.08L13.2481 27.3624L13.3371 27.4548L13.4796 27.422L13.483 27.4004C13.3837 27.3624 13.3181 27.3305 13.1937 27.2493C12.9044 27.0602 12.8086 26.9755 12.7861 26.9721ZM20.6547 32.4029L20.7333 32.4797L21.2549 32.4659L21.3801 32.4918L21.4802 32.3847L21.4707 32.3649C21.3671 32.3891 21.2954 32.3994 21.1461 32.4029C20.8015 32.4089 20.6754 32.3925 20.6547 32.4029ZM22.3731 32.9659L22.4785 32.9979L22.9353 32.7457L23.0588 32.7112L23.0985 32.5704L23.0812 32.5566C23.0001 32.6257 22.9414 32.668 22.8101 32.7397C22.5061 32.9046 22.3861 32.9478 22.3731 32.9659ZM22.3852 33.1645C22.3982 33.1464 22.5182 33.1032 22.8222 32.9374C22.9526 32.8666 23.0122 32.8243 23.0933 32.7543L23.1106 32.7682L23.0709 32.9089L22.9474 32.9435L22.4906 33.1956L22.3852 33.1645ZM23.7298 32.997L23.8351 33.0289L24.2919 32.7768L24.4154 32.7422L24.4551 32.6015L24.4379 32.5877C24.3567 32.6568 24.298 32.6991 24.1667 32.7707C23.8627 32.9348 23.7427 32.9789 23.7298 32.997ZM24.5804 33.0462L24.69 33.0523L25.1762 32.6386L25.2876 32.5765L25.2928 32.4296L25.2729 32.421C25.2099 32.5074 25.0959 32.6032 24.9854 32.7034C24.728 32.934 24.589 33.0246 24.5804 33.0462ZM27.3178 32.2587L27.4266 32.2449L27.8281 31.7492L27.9266 31.6671L27.905 31.5221L27.8834 31.5169C27.8376 31.6127 27.7435 31.7285 27.6528 31.8468C27.4421 32.1214 27.3221 32.2362 27.3178 32.2587ZM28.3229 31.7466L28.43 31.7215L28.7184 31.2466L28.8074 31.1551L28.7711 31.0134L28.7487 31.0109C28.7133 31.111 28.6312 31.2362 28.5535 31.3632C28.3739 31.6568 28.3255 31.7241 28.3229 31.7466ZM31.7883 28.4168L31.8712 28.3442L31.9299 27.7087L31.9662 27.5861L31.8678 27.4773L31.847 27.485C31.8626 27.5904 31.8479 27.7389 31.8384 27.8874C31.8159 28.2328 31.7797 28.3952 31.7883 28.4168ZM32.366 27.314L32.4489 27.2415L32.5076 26.6059L32.5439 26.4833L32.4455 26.3745L32.4247 26.3823C32.4403 26.4876 32.4256 26.6362 32.4161 26.7847C32.3945 27.131 32.3582 27.2933 32.366 27.314ZM30.2875 30.4832L30.392 30.4426L30.6718 29.7397L30.7426 29.6016L30.7918 29.5161L30.7193 29.3434L30.6968 29.3442C30.6389 29.6473 30.2227 30.5117 30.2875 30.4832ZM16.9363 28.0221L16.8327 27.9902C16.7541 28.2009 16.5227 28.3486 16.3836 28.3788C16.4873 28.4211 16.6375 28.3866 16.7636 28.2803C16.8396 28.2164 16.9138 28.099 16.9363 28.0221ZM24.355 33.8554C24.2859 33.8692 24.228 33.8493 24.2056 33.8277C24.1771 33.8001 24.1702 33.775 24.1477 33.7094C24.1158 33.7319 24.1166 33.8174 24.146 33.87C24.1339 33.8968 24.0441 33.9132 23.9923 33.8778C23.9137 33.8234 23.9223 33.7345 23.9206 33.7051C23.8964 33.7275 23.8766 33.7647 23.8792 33.8208C23.8878 33.9875 23.969 34.003 24.007 34.0186C24.0743 34.0445 24.1702 34.0332 24.2013 33.9702C24.2557 34.003 24.3014 34.0091 24.3662 33.9875C24.3843 33.9814 24.4094 33.9115 24.4128 33.8493C24.4163 33.7889 24.4223 33.6723 24.3152 33.617C24.2893 33.6826 24.2807 33.6576 24.2902 33.712C24.2962 33.7301 24.3593 33.7932 24.355 33.8554ZM27.8929 32.3752C27.873 32.3157 27.791 32.282 27.778 32.2673C27.7487 32.2207 27.7659 32.2405 27.7651 32.1697C27.886 32.1801 27.9248 32.2898 27.9456 32.3467C27.9663 32.4055 27.9706 32.4797 27.9559 32.4927C27.9041 32.5376 27.8601 32.5497 27.797 32.5402C27.7927 32.6101 27.7081 32.6576 27.6364 32.6602C27.5958 32.6611 27.5155 32.6775 27.4421 32.5272C27.4179 32.4763 27.4214 32.4348 27.4352 32.4046C27.4482 32.4305 27.4741 32.516 27.5673 32.5359C27.6286 32.548 27.7046 32.4987 27.7064 32.4694C27.6589 32.4322 27.6252 32.3528 27.6459 32.32C27.6917 32.3718 27.7081 32.3925 27.7444 32.4063C27.7737 32.4184 27.8342 32.4141 27.8929 32.3752ZM16.2878 28.7225C16.3456 28.6992 16.375 28.6154 16.388 28.6016C16.4329 28.5696 16.4139 28.5878 16.4847 28.5826C16.4821 28.7043 16.375 28.7492 16.3189 28.7734C16.261 28.7976 16.1876 28.8062 16.1738 28.7924C16.1263 28.7441 16.1108 28.7 16.1159 28.637C16.046 28.637 15.9933 28.5558 15.9864 28.4841C15.983 28.4436 15.9614 28.3641 16.1073 28.2821C16.1565 28.2544 16.198 28.2553 16.2299 28.2674C16.2049 28.2821 16.1211 28.3132 16.1064 28.4081C16.0978 28.4703 16.1522 28.5429 16.1816 28.5429C16.2161 28.4928 16.293 28.4548 16.3266 28.4738C16.2783 28.5221 16.2584 28.5403 16.2463 28.5774C16.2368 28.6059 16.2446 28.6663 16.2878 28.7225ZM19.0934 31.2829C19.1314 31.2596 19.1651 31.2388 19.2083 31.2449C19.2722 31.2526 19.3793 31.2958 19.4337 31.3407C19.4069 31.4141 19.3749 31.4184 19.3093 31.4374C19.2402 31.4573 19.1487 31.4547 19.1021 31.4642C19.128 31.4841 19.2445 31.4953 19.3309 31.4659C19.4172 31.4271 19.4371 31.4107 19.4734 31.339L19.5312 31.225C19.4328 31.187 19.3594 31.1542 19.286 31.1525C19.2264 31.1507 19.0917 31.2535 19.0934 31.2829ZM31.2624 28.7207C31.2624 28.6758 31.2624 28.637 31.2901 28.6024C31.3306 28.5524 31.423 28.4833 31.4895 28.4608C31.5379 28.5221 31.5033 28.5489 31.4852 28.6145C31.4662 28.6836 31.4377 28.7622 31.4222 28.8071C31.4524 28.795 31.493 28.7104 31.5336 28.6171C31.5586 28.5601 31.5517 28.4936 31.5094 28.4246L31.442 28.3157C31.3591 28.3797 31.2909 28.4254 31.2521 28.4867C31.2201 28.5385 31.2374 28.7069 31.2624 28.7207ZM17.8586 30.0532C17.7748 30.0506 17.5831 30.092 17.5796 30.1983C17.5779 30.2363 17.5935 30.2527 17.6107 30.295C17.4536 30.2941 17.2437 30.2622 17.1418 30.1819C17.1133 30.1654 17.0676 30.1421 17.0866 30.2026C17.1479 30.2518 17.2161 30.2872 17.3059 30.314C17.4017 30.3425 17.5201 30.3606 17.641 30.3416L17.6617 30.3908L17.8508 30.3485C17.8447 30.333 17.8352 30.3226 17.8361 30.3088C17.9527 30.2751 18.0261 30.2777 18.0485 30.1749C18.071 30.0739 17.9311 30.0558 17.8586 30.0532ZM17.862 30.225C17.8612 30.2501 17.8422 30.2691 17.8145 30.2699C17.767 30.2199 17.7316 30.1214 17.7912 30.1033C17.8491 30.0869 17.8637 30.1957 17.862 30.225ZM20.2324 31.7345C20.1573 31.7708 20.007 31.8977 20.0537 31.9927C20.0701 32.0272 20.0908 32.0341 20.1262 32.0635C19.9872 32.136 19.786 32.206 19.6582 32.1827C19.6254 32.1818 19.5736 32.1827 19.6193 32.2276C19.6962 32.2423 19.773 32.2423 19.8654 32.2241C19.963 32.2051 20.077 32.1654 20.1746 32.092L20.216 32.1257L20.3637 31.9996C20.3516 31.9884 20.3378 31.9832 20.3326 31.9711C20.4198 31.8873 20.4863 31.8554 20.4578 31.7535C20.4302 31.6542 20.2972 31.7034 20.2324 31.7345ZM20.3153 31.8856C20.3257 31.9081 20.3188 31.9331 20.2946 31.9469C20.229 31.9245 20.1521 31.8537 20.1962 31.8105C20.2393 31.769 20.3024 31.858 20.3153 31.8856ZM25.6339 32.4176C25.6745 32.3571 25.7643 32.2483 25.8385 32.32C25.9145 32.3934 25.8731 32.4538 25.8394 32.5704C25.8506 32.579 25.8644 32.5765 25.8808 32.5799L25.8169 32.763L25.7634 32.7543C25.7159 32.8675 25.6373 32.9581 25.5622 33.0246C25.4914 33.0868 25.4249 33.1257 25.3515 33.1516C25.2893 33.136 25.3342 33.1093 25.3627 33.0937C25.4845 33.0497 25.6235 32.8882 25.7064 32.7552C25.6606 32.7474 25.639 32.7518 25.608 32.731C25.5216 32.6723 25.5881 32.4875 25.6339 32.4176ZM25.7824 32.5056C25.7574 32.4884 25.658 32.4435 25.6416 32.5013C25.6252 32.5609 25.7271 32.5834 25.7954 32.5695C25.8092 32.5454 25.8031 32.5195 25.7824 32.5056ZM29.1148 30.8338C29.1243 30.9167 29.1934 31.1007 29.2987 31.0886C29.3367 31.0843 29.3505 31.0678 29.3894 31.0437C29.4119 31.1991 29.4101 31.4115 29.3454 31.5247C29.3333 31.5549 29.3169 31.6041 29.3739 31.5765C29.4136 31.5091 29.4386 31.4366 29.4524 31.3433C29.4671 31.2449 29.468 31.1248 29.4317 31.0074L29.4775 30.9798L29.4084 30.7984C29.3937 30.8062 29.3851 30.8174 29.3704 30.8183C29.3203 30.7078 29.3125 30.6344 29.2072 30.6274C29.1053 30.6205 29.107 30.7622 29.1148 30.8338ZM29.2849 30.8053C29.31 30.8027 29.3315 30.8183 29.3359 30.8459C29.2927 30.9003 29.2003 30.9495 29.1744 30.8934C29.1493 30.8381 29.2547 30.8088 29.2849 30.8053ZM31.2192 29.0748C31.3332 29.2561 31.3375 29.3175 31.4369 29.3952L31.7641 29.3036C31.6856 29.1862 31.6001 29.1033 31.5552 28.9651L31.2192 29.0748ZM27.8506 32.6248C27.8437 32.712 27.7754 32.9599 27.9015 33.0125C28.1986 33.136 28.1364 33.0704 28.1364 32.8027V32.744C28.1364 32.6619 27.9153 32.6015 27.8506 32.6248ZM31.7443 29.1447L32.0621 28.9997L32.069 29.0161C32.0871 29.0947 32.2555 29.3149 32.2555 29.3382C32.2555 29.3779 32.1398 29.3874 32.0828 29.4194C31.9705 29.4513 31.9507 29.4617 31.917 29.4392C31.9602 29.529 32.0094 29.6145 32.0491 29.706C31.9705 29.7605 31.8617 29.8244 31.7745 29.8028C31.6795 29.7829 31.5949 29.6266 31.5508 29.51C31.645 29.4539 31.7028 29.4073 31.7969 29.3727C31.828 29.3615 31.8514 29.39 31.8997 29.4219L31.7443 29.1447Z" fill="#1C737A"/>
<path fill-rule="evenodd" clip-rule="evenodd" d="M24.9355 34.4006L24.989 34.3609L25.0184 34.4326C25.0857 34.5958 25.2265 34.6847 25.3992 34.7003C25.5443 34.7132 25.7153 34.6726 25.8362 34.5906C25.8906 34.5535 25.9631 34.5146 26.0296 34.474C25.8819 34.4594 25.7343 34.4291 25.5901 34.405C25.5149 34.392 25.4648 34.4041 25.4001 34.4421L25.2973 34.5008L25.3094 34.3825C25.3319 34.1683 25.3172 34.0967 25.4415 33.9076C25.5477 33.7461 25.7792 33.4792 25.9476 33.3618C25.9467 33.3152 25.9415 33.2659 25.9406 33.2193C25.9389 33.0751 25.9182 32.8635 26.0495 32.7668C26.166 32.6813 26.2748 32.778 26.3767 32.829C26.4545 32.8679 26.5788 32.9421 26.6384 33.0026C26.7334 33.0993 26.679 33.3428 26.685 33.4706L26.6876 33.5215L26.6384 33.5328C26.5304 33.5578 26.3621 33.6399 26.261 33.6908C26.2101 33.7167 26.0313 33.8402 25.9363 33.9248C26.198 33.9645 26.4631 34.0017 26.7273 34.006C26.9009 34.0086 27.0745 33.9853 27.2472 33.9723L27.3456 33.9645L27.3076 34.0561C27.2299 34.2426 27.2299 34.4404 27.0071 34.5328C26.8327 34.6053 26.6418 34.6355 26.4657 34.7046C26.2178 34.8013 25.9337 34.9688 25.7135 35.12C25.4778 35.2814 25.2317 35.2512 25.0218 35.0966C24.9441 35.2003 24.7585 35.2512 24.6522 35.2573C24.5193 35.265 24.3466 35.1977 24.2749 35.0768C24.2205 35.1407 24.1609 35.2253 24.1004 35.278C23.8656 35.4801 23.3164 35.4447 23.3172 35.0535C23.3181 34.9585 23.3112 34.8592 23.2999 34.7616C23.1013 35.0776 22.7982 35.335 22.3924 35.2037C22.1817 35.1355 22.0996 34.987 22.0996 34.7728C22.0996 34.6666 22.1644 34.3972 22.243 34.3264L22.3656 34.2158L22.344 34.379C22.3319 34.4706 22.3103 34.6398 22.4114 34.6899C22.5478 34.7573 22.8613 34.6908 22.9839 34.6131C23.0901 34.5457 23.1531 34.487 23.2335 34.4041C23.1661 34.1286 23.0927 33.8583 23.0331 33.5803L23.0297 33.5656L23.1989 32.9395L23.2516 33.1856C23.3094 33.4551 23.3708 33.7228 23.4321 33.9922C23.4778 34.1917 23.5357 34.4706 23.5478 34.6735C23.5564 34.8289 23.6108 34.8747 23.7619 34.8764C23.9087 34.8782 24.1479 34.7987 24.2343 34.6761C24.3172 34.5578 24.4571 34.3307 24.5728 34.2538L24.5806 34.2487L24.5892 34.2461C24.7455 34.1977 24.8353 34.3065 24.9355 34.4006ZM32.7194 29.652L32.3852 29.5009L32.2255 29.1218L32.2782 29.0968C32.3352 29.07 32.583 29.1892 32.6478 29.2177C32.7531 29.2643 32.8921 29.3679 32.9569 29.4638C33.0044 29.5337 33.1365 29.7358 33.1374 29.8118C33.1642 30.0596 32.9094 30.2125 32.6883 30.2073C32.6659 30.2064 32.6434 30.2038 32.6227 30.1978C32.6607 30.3429 32.6624 30.4758 32.5087 30.6011C32.4457 30.6529 32.3706 30.6762 32.2894 30.6676C32.2583 30.6641 32.2272 30.6572 32.197 30.646C32.1124 30.6166 32.0165 30.5354 31.9604 30.5164C31.9051 30.5173 31.8533 30.5372 31.8127 30.5743C31.7687 30.6149 31.716 30.6883 31.741 30.7513C31.8274 30.9672 32.0269 31.0846 32.2548 31.089C32.3127 31.0898 32.3766 31.0112 32.4129 30.9724L32.4759 30.905L32.6987 31.4171L32.6693 31.4465C32.5709 31.5449 32.4103 31.5924 32.2756 31.6123C32.0649 31.6442 31.7998 31.5769 31.6003 31.4681C31.6037 31.4948 31.6072 31.5207 31.6072 31.5371C31.6089 31.6839 31.564 31.8299 31.5044 31.9629C31.4146 32.1615 31.2929 32.3454 31.0502 32.3454C30.9708 32.3454 30.906 32.329 30.8473 32.3022C30.8982 32.4292 30.8585 32.6727 30.8335 32.7945C30.7739 33.082 30.6875 33.3618 30.3387 33.3618C30.1202 33.3618 29.8024 32.8773 29.7869 32.6787L29.7713 32.4827L29.9492 32.7046L29.9527 32.7159C29.9708 32.7755 30.0476 32.8428 30.1003 32.873C30.2385 32.9516 30.3404 32.8929 30.4086 32.7556C30.5105 32.5483 30.5494 32.3463 30.5494 32.1157C30.5494 32.0466 30.5537 32.0466 30.4967 32.006C30.3266 31.8851 29.9768 31.5069 29.7575 31.5501L29.7074 31.5596L29.5546 31.165L29.5951 31.1382C29.7212 31.0536 29.9155 31.1218 30.02 31.2124C30.1435 31.3195 30.7177 31.8126 30.8214 31.8428C30.9397 31.8748 31.0433 31.8368 31.1219 31.7452C31.229 31.62 31.3386 31.1995 31.3145 31.0406C31.3006 30.9534 31.254 30.8826 31.2238 30.8014L31.2031 30.747L31.2566 30.7245C31.3904 30.6684 31.4241 30.9335 31.526 30.9931C31.5597 31.0138 31.6391 31.0536 31.7074 31.076C31.6676 31.0138 31.6167 30.943 31.5934 30.8921C31.5502 30.7979 31.5087 30.7073 31.4708 30.6106C31.3611 30.329 31.5148 30.0821 31.7972 30.0069L31.8343 29.9974L31.9371 30.1192C31.9854 30.1771 32.1383 30.2246 32.1979 30.1771C32.2592 30.1287 32.349 30.0467 32.3006 29.9603C32.2566 29.8817 32.2194 29.8023 32.1685 29.7272L32.1288 29.6684L32.1935 29.6382C32.292 29.5924 32.3947 29.6969 32.4871 29.722C32.5485 29.7401 32.7142 29.7367 32.7194 29.652ZM18.4633 32.7141C18.3242 32.6312 18.1204 32.538 18.1204 32.3549C18.1204 32.2116 18.2923 32.0561 18.3942 31.9646C18.4995 31.8696 18.7068 31.7219 18.8553 31.753C18.9451 31.772 18.9684 31.8851 18.971 31.9629C18.9771 32.1192 18.9581 32.2426 18.9019 32.3825C18.9443 32.4084 18.9883 32.4335 19.0341 32.4542C19.1558 32.5112 19.2586 32.5777 19.3993 32.5535L19.8501 32.3515L19.7802 32.5C19.7076 32.6528 19.6023 32.766 19.781 32.8756C19.8052 32.886 19.9019 32.9041 19.9287 32.9041C20.0055 32.9041 20.1126 32.7582 20.1834 32.7107L20.3112 32.6252L20.2767 32.7746C20.2629 32.8333 20.2447 32.886 20.2447 32.9473C20.2447 33.0216 20.2836 33.0656 20.3389 33.0993C20.3656 33.025 20.3855 32.9438 20.395 32.8696L20.3976 32.8471L20.414 32.8324C20.5012 32.753 20.5366 32.7582 20.6592 32.6761L20.7914 32.5872L20.6282 33.2193L20.6204 33.2297C20.5772 33.2832 20.528 33.3324 20.4831 33.3842C20.4175 33.4611 20.2845 33.5647 20.1783 33.5397C20.0245 33.5026 19.8864 33.4076 19.8467 33.2573C19.8017 33.2798 19.7629 33.297 19.6895 33.2944C19.5496 33.2893 19.2672 33.2029 19.2759 33.0302C19.2759 32.9723 19.2897 32.9214 19.3035 32.8713C19.2249 32.9015 19.1403 32.9136 19.0531 32.9136C18.952 32.9136 18.7785 32.8575 18.6705 32.8057C18.522 32.9266 18.1783 33.1865 18.0289 33.2089C17.8242 33.2418 17.5825 33.259 17.383 33.1925C17.0643 33.0863 16.9158 32.8255 16.9832 32.4974C17.0263 32.2884 17.2966 31.9465 17.5246 31.9534L17.7612 31.9611L17.5505 32.0682C17.4348 32.1278 17.3631 32.3316 17.3631 32.4551C17.3631 32.6433 17.5609 32.7504 17.7154 32.8031C17.8666 32.854 18.0082 32.8566 18.1653 32.8523C18.25 32.8514 18.4322 32.8152 18.4633 32.7141ZM33.7229 27.0649C33.7401 27.2134 33.6711 27.4345 33.5821 27.5105L33.5769 27.5148L33.5709 27.5182C33.4698 27.5735 33.38 27.5761 33.2764 27.5234C33.1003 27.4336 32.8559 27.1979 32.7453 27.0346L32.741 27.0277L32.7384 27.02C32.6754 26.8369 32.83 26.7592 32.9828 26.7324C33.0959 26.7134 33.2013 26.7125 33.3127 26.716L33.3679 26.5942L33.5035 26.7169L33.6115 26.7246C33.7963 26.7255 34.3317 27.1089 34.418 27.273C34.6011 27.6227 34.6892 28.3308 34.5519 28.7013C34.4595 28.9508 34.1417 29.0121 33.9077 28.9733C33.6434 28.9292 33.1961 28.7401 33.0597 28.4914L32.9828 28.3498L33.1339 28.4051C33.4206 28.5096 33.5553 28.7168 33.9077 28.6244C34.1071 28.5268 34.1598 28.0148 34.1754 27.8248C34.1909 27.6331 34.1391 27.1443 33.918 27.0752C33.8593 27.0571 33.7885 27.0597 33.7229 27.0649ZM28.8016 33.481C28.8421 33.5224 28.7472 33.6347 28.723 33.6675C28.6107 33.8177 28.4933 33.9412 28.324 34.0267C28.1582 34.1105 27.8741 34.1442 27.7334 33.9948C27.6565 33.9136 27.5779 33.7573 27.5442 33.6511C27.5192 33.5716 27.4717 33.3083 27.4398 33.2564L27.375 33.1485L27.3309 33.2668C27.2947 33.3644 27.3862 33.8877 27.4173 34.0112C27.5149 34.3972 27.7653 34.6709 28.1893 34.6113C28.4846 34.5699 28.7739 34.3013 28.9173 34.05C28.963 33.9697 29.0019 33.7487 29.0002 33.6545C28.9976 33.5216 29.0036 33.392 28.9855 33.259C28.9769 33.1951 28.9613 33.1096 28.9242 33.0561C28.8456 32.9421 28.6211 32.6882 28.489 32.6528L28.413 32.6321V32.8126C28.4121 33.2038 28.5451 33.2305 28.8016 33.481ZM21.401 34.892L21.433 34.9498L21.4882 34.9127C21.8 34.7046 21.8734 34.3428 21.9649 34.0069C22.0495 33.6943 22.0824 33.2953 22.1152 32.9697L22.1817 32.4896L22.072 32.5578C21.9787 32.6157 21.9217 32.6986 21.8406 32.766C21.73 32.8584 21.7343 32.9369 21.724 33.0647C21.7102 33.2392 21.6946 33.4257 21.6653 33.5984C21.6135 33.9257 21.5841 34.2426 21.4831 34.5604C21.4537 34.6511 21.3509 34.8022 21.401 34.892ZM20.6169 34.3505C20.8138 34.2771 20.8328 34.2124 20.9598 34.0785C21.0237 34.0112 21.1903 33.8091 21.2266 33.7323C21.2741 33.6321 21.2862 33.3385 21.3268 33.291L21.3501 33.2642L21.3009 33.1252L21.243 33.1459C21.1584 33.177 21.0763 33.196 21.0193 33.2746C20.9649 33.3497 20.9468 33.5043 20.9321 33.595C20.8864 33.8272 21.0029 33.8583 20.7663 33.9464C20.6264 33.9982 20.4563 34.0932 20.3164 34.1252C19.984 34.2003 19.5107 34.2625 19.2102 34.0578L18.9917 33.9093L19.003 34.0362C19.0306 34.3549 19.6688 34.4766 19.9235 34.4732C20.2033 34.4697 20.3449 34.4516 20.6169 34.3505ZM28.6323 31.8782C28.6323 31.9024 28.634 31.9231 28.6401 31.9447C28.6599 32.0112 28.8637 32.272 28.9086 32.342C29.1703 32.7426 29.4311 33.1485 29.7022 33.5423L29.8084 33.696L29.8214 33.1528L29.8128 33.1381C29.6409 32.8411 29.4527 32.5673 29.2748 32.2763C29.1159 32.0155 28.9199 31.772 28.761 31.5104L28.6582 31.3402L28.6323 31.8782ZM33.665 29.0191C33.4034 28.8567 33.1382 28.6892 32.8697 28.532C32.5925 28.3697 32.3282 28.1926 32.0692 28.0027L31.9707 27.9301L31.9716 28.0519C31.9725 28.1434 31.9897 28.2281 32.0329 28.3092C32.045 28.3325 32.0597 28.3559 32.0761 28.3766C32.1728 28.4992 32.6616 28.7574 32.8023 28.8438C33.1348 29.0476 33.4655 29.2531 33.798 29.4586L33.9388 29.5458L33.8878 29.3887C33.842 29.2436 33.8127 29.0959 33.665 29.0191ZM26.2774 33.2625C26.1419 33.1917 26.0503 33.164 26.0538 33.3652L26.2774 33.2625ZM33.0959 27.184C33.1434 27.2367 33.2868 27.2039 33.3153 27.1072C33.3248 27.0752 33.3446 27.0312 33.3291 27.0312C33.0804 27.0303 33.0484 27.1547 33.0959 27.184ZM24.5737 34.7668C24.7231 34.8842 24.8016 34.765 24.8025 34.7106C24.7412 34.6174 24.597 34.5872 24.5633 34.5889C24.5365 34.6286 24.5262 34.7296 24.5737 34.7668ZM18.4866 32.1123C18.4736 32.1848 18.5695 32.2219 18.6204 32.2478C18.6981 32.076 18.4866 32.0466 18.4866 32.1123ZM16.7068 31.8541C16.3364 31.8541 16.0454 31.544 16.0125 31.1848C16.003 31.0777 16.1144 30.9491 16.2137 30.9232L16.5125 30.8437L16.206 30.804C15.8511 30.7582 15.4918 31.0751 15.5272 31.4292C15.5695 31.8523 16.0004 32.0915 16.3899 32.1166C16.5574 32.1269 16.7837 32.0104 16.9434 31.9534C17.1524 31.8791 17.3493 31.7021 17.5047 31.5466C17.6187 31.4326 17.7249 31.3126 17.8389 31.1995C17.9184 31.12 17.9624 31.0691 18.0764 31.0397C18.2249 31.0009 18.3268 30.918 18.3225 30.7565C18.3216 30.728 18.2983 30.5933 18.3035 30.5795C18.3536 30.4715 18.395 30.5173 18.4512 30.443L18.5315 30.3351L18.3976 30.3463C18.2672 30.3575 18.0142 30.4163 17.9166 30.5018C17.8139 30.5916 17.8078 30.6339 17.7923 30.7591C17.7837 30.8213 17.5324 31.0492 17.4788 31.1105C17.256 31.3696 17.0643 31.5665 16.8165 31.8022C16.7889 31.8273 16.7448 31.8541 16.7068 31.8541ZM14.5057 29.2039C14.434 29.1823 14.3666 29.1503 14.295 29.108C14.1067 28.9966 13.934 28.7712 13.8554 28.5692C13.7457 28.2876 13.5765 27.9768 13.6758 27.6702C13.7155 27.5467 13.8062 27.4854 13.909 27.4431C13.643 27.374 13.3373 27.2531 13.3753 26.9509C13.4219 26.5761 14.0955 26.6892 14.3148 26.8524C14.4279 26.9371 14.5108 27.0226 14.5989 27.127L14.75 27.096L15.0272 27.2039L15.0376 27.2255C15.1231 27.4034 14.6792 27.4673 14.5722 27.5148C14.3537 27.6106 14.1602 27.5968 14.1179 27.8645C14.0773 28.121 14.2406 28.4129 14.3597 28.6296C14.4608 28.8127 14.6102 28.937 14.7708 29.064C14.8183 29.0398 14.8692 29.0329 14.9754 28.9828C15.0376 28.9534 15.0955 28.9172 15.1594 28.8878C15.3752 28.7894 15.3476 28.7531 15.6015 28.785L15.9512 28.8265L15.7932 28.918C15.693 28.9759 15.5808 29.0052 15.4763 29.0657C15.3165 29.1581 15.1464 29.2324 14.9832 29.3196C14.9098 29.3593 14.8234 29.4491 14.8243 29.538C14.8252 29.5907 14.8399 29.6814 14.8813 29.7246C14.9849 29.7116 15.0791 29.646 15.1507 29.5734C15.2638 29.4595 15.4158 29.3109 15.548 29.222L15.554 29.2185L15.56 29.2159C15.7543 29.1408 15.8908 29.1814 16.0946 29.2073L16.2871 29.2324L16.1153 29.3222C15.997 29.3835 15.8709 29.4215 15.7828 29.5268C15.6697 29.6607 15.5186 29.7453 15.3752 29.8437C15.2526 29.9249 15.0462 29.9577 14.9029 29.9387C14.7811 29.9223 14.605 29.8861 14.5039 29.8196C14.4089 29.7574 14.3511 29.6339 14.3416 29.5225C14.3295 29.3627 14.4003 29.2712 14.5057 29.2039ZM13.8641 26.9742C13.8433 27.0951 14.1179 27.4198 14.3554 27.3196C14.3001 27.2523 13.9159 26.6789 13.8641 26.9742ZM16.7526 29.5311L17.0747 29.5588L17.3709 29.5847L17.1809 29.6805C16.8424 29.8524 16.4996 30.019 16.155 30.1797C15.9633 30.2686 15.7785 30.3748 15.5773 30.4456C15.3347 30.519 15.2094 30.5492 14.9668 30.4828L14.9253 30.4715L14.9176 30.3506L14.978 30.3472C15.0998 30.3394 15.1835 30.304 15.2932 30.2539C15.503 30.1572 15.7068 30.0484 15.9141 29.9448C16.1878 29.8075 16.4642 29.6771 16.7379 29.5398L16.7526 29.5311Z" fill="#1C737A"/>
<path fill-rule="evenodd" clip-rule="evenodd" d="M15.038 18.1698C15.019 18.2372 14.9749 18.2804 14.9456 18.2907C14.9085 18.3037 14.8826 18.2985 14.8143 18.289C14.8195 18.3279 14.8964 18.3658 14.9568 18.3633C14.975 18.3866 14.949 18.4738 14.8946 18.504C14.8109 18.5498 14.7349 18.5014 14.7081 18.4902C14.7176 18.5222 14.7418 18.5567 14.7927 18.5791C14.9456 18.6465 14.9965 18.5817 15.0268 18.5541C15.0803 18.5057 15.114 18.4151 15.0708 18.3589C15.1243 18.3253 15.1502 18.2864 15.1606 18.2199C15.1632 18.2009 15.1123 18.1474 15.0579 18.1154C15.0052 18.0852 14.9041 18.0273 14.8057 18.0982C14.8523 18.1508 14.8264 18.1474 14.8791 18.1638C14.9007 18.1655 14.9844 18.1379 15.038 18.1698ZM13.4059 19.8503C13.4439 19.9245 13.5717 20.0731 13.6667 20.0256C13.7004 20.0083 13.7073 19.9876 13.7366 19.9513C13.8118 20.0895 13.8834 20.2898 13.8618 20.4176C13.861 20.4504 13.8627 20.5022 13.9068 20.4565C13.9206 20.3796 13.9188 20.3028 13.8998 20.2104C13.8791 20.1128 13.8385 19.9997 13.7634 19.9029L13.7971 19.8606L13.6693 19.7147C13.6581 19.7277 13.6537 19.7406 13.6408 19.7466C13.5553 19.6612 13.5225 19.5947 13.4214 19.6249C13.3221 19.6534 13.3731 19.7855 13.4059 19.8503ZM13.5544 19.7639C13.5769 19.7527 13.6028 19.7596 13.6166 19.7838C13.595 19.8494 13.5259 19.928 13.4819 19.884C13.4396 19.8425 13.5277 19.7777 13.5544 19.7639ZM22.1803 15.6837L22.2831 15.7286L22.9774 15.4281L23.125 15.3797L23.22 15.3538L23.29 15.1803L23.2736 15.1647C23.0197 15.34 22.1147 15.6578 22.1803 15.6837ZM18.8557 17.1327L18.9671 17.1413L19.5232 16.6275L19.6018 16.5602L19.6864 16.5041L19.6951 16.3167L19.6752 16.3072C19.4921 16.5567 18.7849 17.1293 18.8557 17.1327ZM16.5699 15.9583L16.6796 15.9376L17.0863 15.2994L17.1822 15.1768L17.2461 15.1017L17.2072 14.9186L17.1856 14.9151C17.0716 15.2027 16.5 15.9738 16.5699 15.9583ZM18.7426 14.3746L18.8548 14.3772L19.3816 13.834L19.4999 13.733L19.5776 13.6725L19.5759 13.4851L19.5552 13.4774C19.3868 13.7356 18.6718 14.3754 18.7426 14.3746ZM27.1422 13.2951C27.1707 13.2606 27.1958 13.2304 27.2389 13.2217C27.302 13.2088 27.4177 13.2148 27.4833 13.239C27.4816 13.3167 27.4531 13.3314 27.3978 13.3703C27.3391 13.4117 27.2519 13.4385 27.2104 13.4627C27.2415 13.473 27.3555 13.4454 27.4281 13.3893C27.498 13.3245 27.5101 13.3029 27.5213 13.2226L27.5386 13.0957C27.4332 13.0922 27.3529 13.0844 27.283 13.1069C27.226 13.1276 27.1319 13.2692 27.1422 13.2951ZM24.5861 13.062L24.6846 13.1147L25.4013 12.8711L25.5524 12.8349L25.6492 12.8167L25.7329 12.6492L25.7182 12.6328C25.4505 12.7874 24.5222 13.0309 24.5861 13.062ZM27.7614 13.859L27.8529 13.9229L28.3598 13.8193L28.5144 13.8012L28.6128 13.7943L28.7156 13.638L28.7026 13.6198C28.4194 13.7407 27.7018 13.821 27.7614 13.859ZM30.5921 14.84C30.5169 14.8763 30.3667 15.0032 30.4133 15.0982C30.4297 15.1328 30.4504 15.1397 30.4858 15.169C30.3468 15.2416 30.1456 15.3115 30.0178 15.2882C29.985 15.2873 29.9332 15.2882 29.9789 15.3331C30.0558 15.3478 30.1327 15.3478 30.2251 15.3296C30.3226 15.3106 30.4366 15.2709 30.5342 15.1975L30.5756 15.2312L30.7233 15.1051C30.7112 15.0939 30.6974 15.0887 30.6922 15.0766C30.7794 14.9929 30.8459 14.9609 30.8174 14.859C30.7898 14.7597 30.6568 14.8089 30.5921 14.84ZM30.675 14.9911C30.6853 15.0136 30.6784 15.0386 30.6542 15.0524C30.5886 15.03 30.5117 14.9592 30.5558 14.916C30.599 14.8746 30.6629 14.9635 30.675 14.9911ZM34.2008 20.1888L34.2042 20.301L34.5902 20.6456L34.6973 20.7587L34.7612 20.8338L34.9477 20.8226L34.9547 20.8019C34.6887 20.6456 34.1965 20.118 34.2008 20.1888ZM14.1244 18.1051C14.1969 18.0705 14.3342 18.0481 14.4326 18.0627C14.595 18.0869 14.7211 18.1759 14.7582 18.2812C14.6425 18.1975 14.3791 18.1223 14.1693 18.2035L14.1244 18.1051ZM21.1475 13.0369C21.2641 13.163 21.3073 13.214 21.3401 13.3133C21.3781 13.4273 21.3669 13.4912 21.3669 13.5948C21.3669 13.6587 21.3444 13.7131 21.3729 13.7917C21.4005 13.7537 21.4688 13.5318 21.4619 13.3565C21.4567 13.2252 21.4385 13.1164 21.2252 12.9307L21.1475 13.0369ZM34.4806 19.5878L34.2604 19.4859H34.1585C34.2137 19.5679 34.307 19.6387 34.3959 19.6387H34.5825C34.8312 19.6387 34.5229 19.3762 34.5143 19.2881L34.2604 19.2829C34.2889 19.3209 34.465 19.3961 34.4806 19.5878ZM17.5103 15.935C17.4904 15.8754 17.4084 15.8417 17.3955 15.827C17.3661 15.7804 17.3834 15.8003 17.3825 15.7295C17.5034 15.7398 17.5423 15.8495 17.563 15.9065C17.5837 15.9661 17.588 16.0395 17.5733 16.0524C17.5215 16.0973 17.4775 16.1094 17.4144 16.0999C17.4101 16.1699 17.3255 16.2174 17.2538 16.22C17.2132 16.2208 17.1329 16.2372 17.0595 16.087C17.0354 16.036 17.0388 15.9946 17.0526 15.9643C17.0656 15.9903 17.0915 16.0757 17.1847 16.0956C17.2461 16.1077 17.322 16.0585 17.3238 16.0291C17.2763 15.992 17.2426 15.9125 17.2633 15.8797C17.3091 15.9315 17.3255 15.9523 17.3618 15.9661C17.3911 15.9773 17.4524 15.9738 17.5103 15.935ZM33.5721 17.7467C32.9936 17.3451 32.339 17.0239 31.7259 16.745L31.567 16.7743C31.8494 16.9263 33.3079 17.6318 33.3882 17.8037L33.5721 17.7467ZM33.5402 19.1862L33.5592 19.5152L33.9599 19.3719L33.9322 19.0152L33.9132 19.017C33.8165 19.0247 33.6041 19.0912 33.5402 19.1862ZM33.4219 19.6776C33.225 19.6819 33.1723 19.8624 33.149 19.6629C33.1309 19.5092 33.0506 19.3969 33.2164 19.3183C33.2785 19.289 33.4875 19.1715 33.4996 19.2752C33.5056 19.3209 33.5212 19.5239 33.5575 19.5765L33.5212 19.6258L33.7802 19.5688C33.8182 19.6266 33.8467 19.9202 33.8364 19.9461C33.8139 19.9997 33.7146 20.0178 33.6257 20.0178L33.4409 20.0342L33.4227 19.7803L33.4219 19.6776Z" fill="#1C737A"/>
<path fill-rule="evenodd" clip-rule="evenodd" d="M17.7258 16.791C17.2163 16.747 16.7249 16.7194 16.2172 16.6417C15.9719 16.6037 15.87 16.4715 15.7111 16.3023L15.6783 16.2677L15.7448 16.1641L15.7914 16.1822C15.9719 16.2531 16.0738 16.2686 16.2664 16.2902C16.7569 16.3455 17.243 16.4085 17.7344 16.4525C17.7879 16.1417 17.838 15.8351 17.8829 15.5225C17.914 15.3066 17.9365 15.0881 17.9693 14.8731C17.9822 14.7876 18.0055 14.5795 18.11 14.5553L18.1325 14.5502L18.1532 14.5614C18.2197 14.5985 18.2085 14.9189 18.1981 14.9906C18.1454 15.4931 18.0375 15.9983 17.9658 16.5018C18.1256 16.5631 18.3285 16.7168 18.4097 16.8463C18.5444 17.0605 18.5081 17.31 18.3743 17.5164C18.2663 17.6831 18.0928 17.7029 17.9529 17.5596C17.7957 17.399 17.7543 17.1745 17.7275 16.9594C17.7223 16.9033 17.7266 16.848 17.7258 16.791ZM26.9915 14.469C27.0572 14.311 27.1582 14.222 27.2687 14.0994L27.3093 14.0545L27.6582 14.3697L27.3171 14.7488L27.273 14.7185C27.1867 14.6598 27.0891 14.6046 27.0088 14.5389L26.9743 14.5104L26.9915 14.469ZM28.9777 13.8809C29.0606 13.9301 28.9699 14.1279 28.9466 14.1987C28.8611 14.4604 28.4285 16.0139 28.2393 16.0743L27.9734 16.1736L27.9509 16.1201C27.9216 16.0501 28.0407 15.8722 28.0684 15.7971C28.1841 15.5355 28.2782 15.2609 28.3723 14.9906C28.4285 14.8291 28.4647 14.659 28.5183 14.494C28.577 14.3127 28.5891 14.1348 28.7411 14.0079C28.7937 13.9638 28.8576 13.9353 28.9043 13.8896L28.938 13.8567L28.9777 13.8809ZM22.6479 14.9077C22.5745 14.4025 22.4156 13.8904 22.3681 13.3827C22.3578 13.2713 22.4597 12.9975 22.5555 12.9336L22.66 12.8637L22.6497 12.9889C22.6367 13.1435 22.8984 14.6728 22.9614 14.7807L22.9778 14.8049L22.8224 15.2919L22.7067 15.3127L22.6479 14.9077ZM19.2957 16.4836L19.3492 16.595L19.4045 16.4845C19.4675 16.3584 19.4589 16.222 19.4615 16.0855V16.0812V16.0769C19.4477 15.9543 19.281 15.7108 19.2162 15.595C19.0755 15.3412 18.9356 15.0864 18.7931 14.8334C18.7335 14.7341 18.6774 14.6331 18.6204 14.5338C18.5945 14.4888 18.5582 14.4154 18.4995 14.4137L18.4434 14.412L18.4097 14.7237C18.4088 14.7375 18.408 14.7505 18.4088 14.7635C18.4123 14.8576 18.4693 14.9552 18.515 15.0346C18.6325 15.2393 18.756 15.4405 18.8734 15.6443C19.0357 15.912 19.161 16.2021 19.2957 16.4836ZM17.2344 18.3489L17.3475 18.449L17.3354 18.2988C17.3285 18.2185 17.2966 18.082 17.2715 18.0035C17.2128 17.8169 16.7508 17.5276 16.5807 17.4145C16.3277 17.2461 16.0816 17.0682 15.8337 16.8929C15.7483 16.8325 15.674 16.7548 15.5876 16.6961L15.5298 16.6572L15.4996 16.7202C15.4305 16.8636 15.5151 17.1313 15.6524 17.2107C16.1723 17.5587 16.7655 17.9344 17.2344 18.3489ZM34.4957 21.1277C34.1831 21.1536 33.8446 21.2797 33.5415 21.3643C33.2168 21.4559 32.9007 21.5992 32.57 21.6692L32.551 21.6735L32.14 21.5008L32.1857 21.4386C32.2367 21.3695 32.5329 21.2884 32.6175 21.2633C33.0544 21.1355 33.4888 20.9982 33.9318 20.8894C34.0682 20.8557 33.9871 20.7426 34.2479 20.8315C34.3852 20.8782 34.4776 20.9015 34.5449 21.0414L34.5829 21.1208L34.4957 21.1277ZM27.5615 15.4672C27.5373 15.475 27.4639 15.4871 27.4449 15.4914C27.1815 15.5527 26.8499 15.5147 26.5865 15.4655C26.3508 15.4215 25.9052 15.2617 25.9052 14.9664C25.9052 14.7462 26.1055 14.5683 26.1254 14.3274L26.1358 14.2013L26.0313 14.2712C25.9337 14.3369 25.7688 14.602 25.7187 14.7134C25.5986 14.9793 25.5062 15.1564 25.571 15.456C25.6176 15.6702 25.9147 15.785 26.0995 15.8506C26.3879 15.9543 27.2886 16.0579 27.514 15.817C27.6046 15.7203 27.6867 15.6166 27.7756 15.519C27.8818 15.4033 27.9242 15.3109 27.9414 15.1581C27.9483 15.0571 27.9561 14.9552 27.963 14.855C27.9656 14.747 27.8646 14.665 27.7912 14.7462L27.5675 15.0467L27.5649 15.4059C27.5641 15.418 27.5641 15.4517 27.5615 15.4672ZM24.6444 14.4992C24.1678 14.0528 23.6142 13.6555 23.1756 13.1806C23.0072 12.9975 23.0098 12.8309 22.9916 12.5994L22.9882 12.5519L23.1047 12.5122L23.1298 12.5554C23.2274 12.7229 23.2964 12.7989 23.4338 12.9362C23.8888 13.3913 24.3906 13.7963 24.8595 14.2367C25.0684 14.0217 25.2714 13.8015 25.4786 13.5847C25.5753 13.4837 25.666 13.374 25.7584 13.2695C25.8266 13.1927 26.1055 12.8412 26.2247 12.8939L26.2463 12.9034L26.2558 12.925C26.2877 12.9967 26.0865 13.2445 26.0347 13.2954C25.6902 13.6676 25.3499 14.0424 25.0106 14.4189C25.0987 14.5657 25.1626 14.8153 25.1453 14.969C25.1168 15.2211 24.9337 15.393 24.7006 15.4716C24.5114 15.5355 24.3638 15.4431 24.3439 15.2427C24.3215 15.0191 24.4285 14.8179 24.5417 14.6331C24.5719 14.5847 24.6099 14.5441 24.6444 14.4992ZM22.1229 13.6452C22.1393 13.5649 22.1954 13.463 22.1747 13.3922C22.1177 13.1979 22.04 13.2652 21.945 13.1979C21.8941 13.1616 21.8846 13.0813 21.8846 13.0243L21.8828 12.8447L21.7758 12.9889C21.7257 13.0562 21.648 13.2307 21.6229 13.3127C21.5391 13.5856 21.7585 13.6141 21.7965 13.7246C21.8673 13.9275 21.8949 14.1633 21.9441 14.374C21.9968 14.6002 22.0616 14.8239 22.0858 15.0562C21.9951 15.1184 21.9286 15.1693 21.8207 15.222C21.5504 15.3541 21.0547 15.5614 20.7576 15.4413C20.6402 15.3938 20.5944 15.2496 20.5651 15.1374C20.5072 14.9215 20.4874 14.6745 20.3708 14.4793L20.3112 14.38L20.2628 14.4854C20.2222 14.5743 20.1195 14.785 20.1178 14.8783C20.116 14.9491 20.1428 14.969 20.1532 15.0122C20.1488 15.0156 20.1428 15.0191 20.1402 15.0199C20.0124 15.0916 19.8742 15.1685 19.7983 15.298C19.7343 15.4077 19.692 15.5553 19.6635 15.6788C19.6376 15.7911 19.6074 15.9215 19.6074 16.0363C19.6065 16.1658 19.6644 16.2505 19.7939 16.2677C20.0495 16.3014 20.2266 16.0501 20.3129 15.8446C20.3302 15.804 20.3423 15.7634 20.3509 15.7228C20.4347 15.874 20.5815 15.9802 20.7775 15.9776C21.1583 15.9776 21.7136 15.8472 22.0072 15.5959C22.1626 15.4629 22.1859 15.4033 22.2481 15.2134C22.2844 15.1028 22.3431 14.9396 22.3561 14.8265C22.3716 14.6918 22.3457 14.5553 22.312 14.4249C22.2438 14.165 22.1842 13.9051 22.1229 13.6452ZM15.9408 19.0665C15.883 19.0362 15.7992 19.0103 15.7379 18.9818C15.6559 18.9438 15.3208 18.81 15.2569 18.7392C15.1749 18.6554 15.1403 18.5509 15.0807 18.4534L15.06 18.4188L15.1308 18.3204L15.18 18.3532C15.4037 18.5026 15.9564 18.7962 16.2111 18.8566C16.3536 18.8903 16.4486 18.7288 16.4589 18.6097V18.5544C16.3303 18.5406 16.1083 18.4577 15.9831 18.424C15.8424 18.3851 15.4866 18.2729 15.383 18.1701L15.3778 18.1649L15.1498 17.7884L15.2491 17.7237L15.2828 17.7461C15.5635 17.9335 15.7802 17.9611 16.085 18.0613C16.1835 18.0933 16.2759 18.133 16.364 18.1874C16.4684 18.2522 16.674 18.5198 16.7517 18.6295C16.8303 18.7409 16.8605 18.8394 16.8311 18.9741C16.7966 19.1347 16.7033 19.2711 16.528 19.2824C16.4667 19.2858 16.4045 19.2729 16.3467 19.2504C16.3994 19.4145 16.4287 19.5906 16.427 19.7608C16.4227 20.202 16.1178 20.7547 15.6222 20.7547C15.5825 20.7547 15.5479 20.7512 15.5168 20.7443C15.5945 20.8575 15.6584 21.0034 15.6584 21.1226C15.6576 21.3177 15.5868 21.5958 15.332 21.5172C15.1654 21.4662 15.0039 21.2581 14.8925 21.1277C14.7431 20.9524 14.7794 20.6865 14.7638 20.4723C14.7621 20.4499 14.7051 20.4058 14.687 20.3929L14.674 20.3842L14.6671 20.3704C14.6162 20.272 14.5799 20.1554 14.5721 20.0449L14.5635 19.9343L14.6611 19.987C14.87 20.0993 15.1084 20.2668 15.3363 20.329C15.5876 20.3972 15.788 20.1424 15.889 19.9473C15.9564 19.8177 16.0194 19.6381 16.0194 19.4913C16.0177 19.4257 15.9805 19.1174 15.9408 19.0665ZM29.7929 16.4828C29.6089 16.4836 29.3956 16.4396 29.2298 16.367C28.9716 16.2531 28.7894 15.7755 29.1512 15.6693L29.4181 15.5907L29.1426 15.551C28.9552 15.5234 28.6469 15.7358 28.5692 15.9016C28.45 16.1045 28.4319 16.2867 28.5684 16.4819C28.7445 16.7349 29.1487 16.8239 29.4388 16.8239C29.4621 16.8239 29.5597 16.823 29.5934 16.8316C29.5925 16.8722 29.5718 17.0285 29.5727 17.0734C29.5796 17.361 30.0666 17.7409 30.298 17.8756C30.57 18.0337 30.9595 18.2383 31.2902 18.2996C31.2151 18.3765 31.1244 18.4395 31.0631 18.5475C30.9871 18.6796 30.918 18.8592 30.9051 19.0121L30.9025 19.0475L30.9319 19.0673C31.0648 19.1563 31.2229 19.1286 31.3723 19.1286H31.4284L31.4327 19.0734C31.4543 18.8143 31.7021 18.6667 31.9431 18.7547C32.0286 18.7858 32.1348 18.9024 32.1909 18.9732C32.2263 19.0181 32.3731 19.2288 32.3541 19.291C32.2842 19.367 31.8705 19.3817 32.0027 19.7253C32.0372 19.8152 32.0683 19.93 32.1382 19.9982C32.1909 20.0492 32.266 20.0759 32.3187 20.0941C32.0631 20.2832 32.2185 20.8272 32.5622 20.7797C32.7125 20.7728 32.8662 20.8108 33.0156 20.7443C33.1028 20.7055 33.3161 20.5241 33.3774 20.5189L33.4033 20.5164L33.4707 20.4317L33.4171 20.3946C33.3455 20.3445 33.3524 20.3462 33.2703 20.3462L32.9784 20.3436L32.7487 20.5051C32.7125 20.4205 32.7073 20.3169 32.7608 20.24C32.8377 20.1304 33.0398 20.1476 33.1339 20.0129L33.2073 19.9067L33.0337 19.9214C32.9482 19.9119 32.8645 19.9067 32.779 19.9058C32.7306 19.9058 32.6805 19.9317 32.6408 19.9041C32.5657 19.8506 32.4983 19.6848 32.5182 19.5941C32.5389 19.5008 32.6158 19.4758 32.7013 19.462C33.2487 19.3722 32.5199 18.6589 32.2945 18.5699C32.1598 18.5164 32.0838 18.5285 31.9491 18.5233H31.9457L31.6641 18.5449C31.8973 18.3679 32.2134 18.304 32.3576 18.0302L32.4223 17.9076L32.2876 17.9439C32.0985 17.9948 32.0916 18.0095 31.8964 18.0095C31.507 18.0095 31.0813 17.8143 30.7531 17.6157C30.4664 17.4439 30.058 17.1762 30.058 16.7988C30.058 16.4828 30.5847 16.0182 30.7505 15.7323C30.8075 15.6339 30.817 15.6114 30.8179 15.5026V15.4655L30.7842 15.4482C30.6901 15.3999 30.4491 15.4655 30.4068 15.5674L30.4016 15.5795V15.5925C30.4034 15.6572 30.2523 15.8653 30.2082 15.9189C30.1529 15.9871 29.8758 16.3472 29.7929 16.4828ZM17.9477 16.8023C17.9399 16.905 17.9675 17.1183 18.0263 17.1356C18.0651 17.1468 18.1109 17.1123 18.1282 17.0795C18.1558 17.0251 18.1817 16.9361 18.1446 16.88C18.1092 16.8273 18.0194 16.8083 17.9477 16.8023ZM24.8111 14.646C24.7411 14.722 24.6298 14.9059 24.6652 14.9552C24.6885 14.988 24.7463 14.9906 24.78 14.975C24.8361 14.95 24.9113 14.8964 24.9173 14.8291C24.9225 14.766 24.8638 14.6952 24.8111 14.646ZM20.2369 15.4353C20.2335 15.5078 20.1886 15.5899 20.1385 15.6443C20.0979 15.6874 20.0375 15.7583 19.9675 15.7772C19.9148 15.7911 19.8509 15.7893 19.8509 15.7513C19.8509 15.6918 20.0141 15.538 20.059 15.5044C20.1074 15.4672 20.1773 15.4638 20.2369 15.4353ZM15.1835 20.658C15.155 20.6925 15.1351 20.7512 15.13 20.8048C15.1187 20.9188 15.1585 21.0043 15.2319 21.0647C15.3156 20.9688 15.3078 20.7642 15.1835 20.658Z" fill="#1C737A"/>
</svg>
